G75*
G70*
%OFA0B0*%
%FSLAX24Y24*%
%IPPOS*%
%LPD*%
%AMOC8*
5,1,8,0,0,1.08239X$1,22.5*
%
%ADD10C,0.0000*%
%ADD11C,0.0040*%
%ADD12C,0.0060*%
%ADD13C,0.0080*%
%ADD14C,0.0050*%
D10*
X001723Y000125D02*
X001723Y031621D01*
X033219Y031621D01*
X033219Y000125D01*
X001723Y000125D01*
X002668Y001700D02*
X002670Y001750D01*
X002676Y001800D01*
X002686Y001849D01*
X002700Y001897D01*
X002717Y001944D01*
X002738Y001989D01*
X002763Y002033D01*
X002791Y002074D01*
X002823Y002113D01*
X002857Y002150D01*
X002894Y002184D01*
X002934Y002214D01*
X002976Y002241D01*
X003020Y002265D01*
X003066Y002286D01*
X003113Y002302D01*
X003161Y002315D01*
X003211Y002324D01*
X003260Y002329D01*
X003311Y002330D01*
X003361Y002327D01*
X003410Y002320D01*
X003459Y002309D01*
X003507Y002294D01*
X003553Y002276D01*
X003598Y002254D01*
X003641Y002228D01*
X003682Y002199D01*
X003721Y002167D01*
X003757Y002132D01*
X003789Y002094D01*
X003819Y002054D01*
X003846Y002011D01*
X003869Y001967D01*
X003888Y001921D01*
X003904Y001873D01*
X003916Y001824D01*
X003924Y001775D01*
X003928Y001725D01*
X003928Y001675D01*
X003924Y001625D01*
X003916Y001576D01*
X003904Y001527D01*
X003888Y001479D01*
X003869Y001433D01*
X003846Y001389D01*
X003819Y001346D01*
X003789Y001306D01*
X003757Y001268D01*
X003721Y001233D01*
X003682Y001201D01*
X003641Y001172D01*
X003598Y001146D01*
X003553Y001124D01*
X003507Y001106D01*
X003459Y001091D01*
X003410Y001080D01*
X003361Y001073D01*
X003311Y001070D01*
X003260Y001071D01*
X003211Y001076D01*
X003161Y001085D01*
X003113Y001098D01*
X003066Y001114D01*
X003020Y001135D01*
X002976Y001159D01*
X002934Y001186D01*
X002894Y001216D01*
X002857Y001250D01*
X002823Y001287D01*
X002791Y001326D01*
X002763Y001367D01*
X002738Y001411D01*
X002717Y001456D01*
X002700Y001503D01*
X002686Y001551D01*
X002676Y001600D01*
X002670Y001650D01*
X002668Y001700D01*
X003357Y002350D02*
X003357Y008924D01*
X010325Y008924D01*
X010325Y002350D01*
X003357Y002350D01*
X010444Y002350D02*
X010444Y008924D01*
X017412Y008924D01*
X017412Y002350D01*
X010444Y002350D01*
X017530Y002350D02*
X017530Y008924D01*
X024499Y008924D01*
X024499Y002350D01*
X017530Y002350D01*
X024617Y002350D02*
X024617Y008924D01*
X031585Y008924D01*
X031585Y002350D01*
X024617Y002350D01*
X031014Y001700D02*
X031016Y001750D01*
X031022Y001800D01*
X031032Y001849D01*
X031046Y001897D01*
X031063Y001944D01*
X031084Y001989D01*
X031109Y002033D01*
X031137Y002074D01*
X031169Y002113D01*
X031203Y002150D01*
X031240Y002184D01*
X031280Y002214D01*
X031322Y002241D01*
X031366Y002265D01*
X031412Y002286D01*
X031459Y002302D01*
X031507Y002315D01*
X031557Y002324D01*
X031606Y002329D01*
X031657Y002330D01*
X031707Y002327D01*
X031756Y002320D01*
X031805Y002309D01*
X031853Y002294D01*
X031899Y002276D01*
X031944Y002254D01*
X031987Y002228D01*
X032028Y002199D01*
X032067Y002167D01*
X032103Y002132D01*
X032135Y002094D01*
X032165Y002054D01*
X032192Y002011D01*
X032215Y001967D01*
X032234Y001921D01*
X032250Y001873D01*
X032262Y001824D01*
X032270Y001775D01*
X032274Y001725D01*
X032274Y001675D01*
X032270Y001625D01*
X032262Y001576D01*
X032250Y001527D01*
X032234Y001479D01*
X032215Y001433D01*
X032192Y001389D01*
X032165Y001346D01*
X032135Y001306D01*
X032103Y001268D01*
X032067Y001233D01*
X032028Y001201D01*
X031987Y001172D01*
X031944Y001146D01*
X031899Y001124D01*
X031853Y001106D01*
X031805Y001091D01*
X031756Y001080D01*
X031707Y001073D01*
X031657Y001070D01*
X031606Y001071D01*
X031557Y001076D01*
X031507Y001085D01*
X031459Y001098D01*
X031412Y001114D01*
X031366Y001135D01*
X031322Y001159D01*
X031280Y001186D01*
X031240Y001216D01*
X031203Y001250D01*
X031169Y001287D01*
X031137Y001326D01*
X031109Y001367D01*
X031084Y001411D01*
X031063Y001456D01*
X031046Y001503D01*
X031032Y001551D01*
X031022Y001600D01*
X031016Y001650D01*
X031014Y001700D01*
X031585Y009239D02*
X024617Y009239D01*
X024617Y015814D01*
X031585Y015814D01*
X031585Y009239D01*
X024499Y009239D02*
X024499Y015814D01*
X017530Y015814D01*
X017530Y009239D01*
X024499Y009239D01*
X024499Y015932D02*
X017530Y015932D01*
X017530Y022507D01*
X024499Y022507D01*
X024499Y015932D01*
X024617Y015932D02*
X024617Y022507D01*
X031585Y022507D01*
X031585Y015932D01*
X024617Y015932D01*
X024617Y022724D02*
X031585Y022724D01*
X031585Y029298D01*
X024617Y029298D01*
X024617Y022724D01*
X024499Y022724D02*
X024499Y029298D01*
X017530Y029298D01*
X017530Y022724D01*
X024499Y022724D01*
X017412Y022724D02*
X017412Y029298D01*
X010444Y029298D01*
X010444Y022724D01*
X017412Y022724D01*
X017412Y022507D02*
X010444Y022507D01*
X010444Y015932D01*
X017412Y015932D01*
X017412Y022507D01*
X010325Y022507D02*
X010325Y015932D01*
X003357Y015932D01*
X003357Y022507D01*
X010325Y022507D01*
X010325Y022724D02*
X010325Y029298D01*
X003357Y029298D01*
X003357Y022724D01*
X010325Y022724D01*
X010325Y015814D02*
X003357Y015814D01*
X003357Y009239D01*
X010325Y009239D01*
X010325Y015814D01*
X010444Y015814D02*
X010444Y009239D01*
X017412Y009239D01*
X017412Y015814D01*
X010444Y015814D01*
X002668Y030046D02*
X002670Y030096D01*
X002676Y030146D01*
X002686Y030195D01*
X002700Y030243D01*
X002717Y030290D01*
X002738Y030335D01*
X002763Y030379D01*
X002791Y030420D01*
X002823Y030459D01*
X002857Y030496D01*
X002894Y030530D01*
X002934Y030560D01*
X002976Y030587D01*
X003020Y030611D01*
X003066Y030632D01*
X003113Y030648D01*
X003161Y030661D01*
X003211Y030670D01*
X003260Y030675D01*
X003311Y030676D01*
X003361Y030673D01*
X003410Y030666D01*
X003459Y030655D01*
X003507Y030640D01*
X003553Y030622D01*
X003598Y030600D01*
X003641Y030574D01*
X003682Y030545D01*
X003721Y030513D01*
X003757Y030478D01*
X003789Y030440D01*
X003819Y030400D01*
X003846Y030357D01*
X003869Y030313D01*
X003888Y030267D01*
X003904Y030219D01*
X003916Y030170D01*
X003924Y030121D01*
X003928Y030071D01*
X003928Y030021D01*
X003924Y029971D01*
X003916Y029922D01*
X003904Y029873D01*
X003888Y029825D01*
X003869Y029779D01*
X003846Y029735D01*
X003819Y029692D01*
X003789Y029652D01*
X003757Y029614D01*
X003721Y029579D01*
X003682Y029547D01*
X003641Y029518D01*
X003598Y029492D01*
X003553Y029470D01*
X003507Y029452D01*
X003459Y029437D01*
X003410Y029426D01*
X003361Y029419D01*
X003311Y029416D01*
X003260Y029417D01*
X003211Y029422D01*
X003161Y029431D01*
X003113Y029444D01*
X003066Y029460D01*
X003020Y029481D01*
X002976Y029505D01*
X002934Y029532D01*
X002894Y029562D01*
X002857Y029596D01*
X002823Y029633D01*
X002791Y029672D01*
X002763Y029713D01*
X002738Y029757D01*
X002717Y029802D01*
X002700Y029849D01*
X002686Y029897D01*
X002676Y029946D01*
X002670Y029996D01*
X002668Y030046D01*
X031014Y030046D02*
X031016Y030096D01*
X031022Y030146D01*
X031032Y030195D01*
X031046Y030243D01*
X031063Y030290D01*
X031084Y030335D01*
X031109Y030379D01*
X031137Y030420D01*
X031169Y030459D01*
X031203Y030496D01*
X031240Y030530D01*
X031280Y030560D01*
X031322Y030587D01*
X031366Y030611D01*
X031412Y030632D01*
X031459Y030648D01*
X031507Y030661D01*
X031557Y030670D01*
X031606Y030675D01*
X031657Y030676D01*
X031707Y030673D01*
X031756Y030666D01*
X031805Y030655D01*
X031853Y030640D01*
X031899Y030622D01*
X031944Y030600D01*
X031987Y030574D01*
X032028Y030545D01*
X032067Y030513D01*
X032103Y030478D01*
X032135Y030440D01*
X032165Y030400D01*
X032192Y030357D01*
X032215Y030313D01*
X032234Y030267D01*
X032250Y030219D01*
X032262Y030170D01*
X032270Y030121D01*
X032274Y030071D01*
X032274Y030021D01*
X032270Y029971D01*
X032262Y029922D01*
X032250Y029873D01*
X032234Y029825D01*
X032215Y029779D01*
X032192Y029735D01*
X032165Y029692D01*
X032135Y029652D01*
X032103Y029614D01*
X032067Y029579D01*
X032028Y029547D01*
X031987Y029518D01*
X031944Y029492D01*
X031899Y029470D01*
X031853Y029452D01*
X031805Y029437D01*
X031756Y029426D01*
X031707Y029419D01*
X031657Y029416D01*
X031606Y029417D01*
X031557Y029422D01*
X031507Y029431D01*
X031459Y029444D01*
X031412Y029460D01*
X031366Y029481D01*
X031322Y029505D01*
X031280Y029532D01*
X031240Y029562D01*
X031203Y029596D01*
X031169Y029633D01*
X031137Y029672D01*
X031109Y029713D01*
X031084Y029757D01*
X031063Y029802D01*
X031046Y029849D01*
X031032Y029897D01*
X031022Y029946D01*
X031016Y029996D01*
X031014Y030046D01*
D11*
X012486Y001787D02*
X012333Y001787D01*
X012256Y001710D01*
X012486Y001787D02*
X012563Y001710D01*
X012563Y001633D01*
X012256Y001326D01*
X012563Y001326D01*
X012102Y001326D02*
X011795Y001326D01*
X011642Y001326D02*
X011565Y001326D01*
X011565Y001403D01*
X011642Y001403D01*
X011642Y001326D01*
X011412Y001403D02*
X011412Y001480D01*
X011335Y001556D01*
X011105Y001556D01*
X011105Y001403D01*
X011182Y001326D01*
X011335Y001326D01*
X011412Y001403D01*
X011258Y001710D02*
X011105Y001556D01*
X010951Y001403D02*
X010875Y001326D01*
X010721Y001326D01*
X010644Y001403D01*
X010951Y001710D01*
X010951Y001403D01*
X010644Y001403D02*
X010644Y001710D01*
X010721Y001787D01*
X010875Y001787D01*
X010951Y001710D01*
X011258Y001710D02*
X011412Y001787D01*
X011795Y001633D02*
X011949Y001787D01*
X011949Y001326D01*
X010031Y001633D02*
X009954Y001633D01*
X009800Y001480D01*
X009647Y001480D02*
X009340Y001480D01*
X009340Y001556D02*
X009417Y001633D01*
X009570Y001633D01*
X009647Y001556D01*
X009647Y001480D01*
X009570Y001326D02*
X009417Y001326D01*
X009340Y001403D01*
X009340Y001556D01*
X009187Y001633D02*
X008956Y001633D01*
X008880Y001556D01*
X008880Y001403D01*
X008956Y001326D01*
X009187Y001326D01*
X009187Y001787D01*
X008649Y001787D02*
X008649Y001863D01*
X008649Y001633D02*
X008649Y001326D01*
X008573Y001326D02*
X008726Y001326D01*
X008649Y001633D02*
X008573Y001633D01*
X008419Y001556D02*
X008419Y001480D01*
X008112Y001480D01*
X008112Y001556D02*
X008189Y001633D01*
X008342Y001633D01*
X008419Y001556D01*
X008342Y001326D02*
X008189Y001326D01*
X008112Y001403D01*
X008112Y001556D01*
X007959Y001556D02*
X007882Y001633D01*
X007652Y001633D01*
X007652Y001326D01*
X007498Y001326D02*
X007498Y001556D01*
X007422Y001633D01*
X007268Y001633D01*
X007191Y001556D01*
X007038Y001633D02*
X006808Y001633D01*
X006731Y001556D01*
X006731Y001403D01*
X006808Y001326D01*
X007038Y001326D01*
X007191Y001326D02*
X007191Y001787D01*
X006578Y001633D02*
X006347Y001633D01*
X006271Y001556D01*
X006347Y001480D01*
X006501Y001480D01*
X006578Y001403D01*
X006501Y001326D01*
X006271Y001326D01*
X007959Y001326D02*
X007959Y001556D01*
X009800Y001633D02*
X009800Y001326D01*
X019523Y001407D02*
X019523Y001100D01*
X019600Y001023D01*
X019753Y001023D01*
X019830Y001100D01*
X019984Y001100D02*
X019984Y001023D01*
X019984Y001100D02*
X020290Y001407D01*
X020290Y001484D01*
X019984Y001484D01*
X019830Y001407D02*
X019753Y001484D01*
X019600Y001484D01*
X019523Y001407D01*
X022476Y000893D02*
X022476Y000433D01*
X022476Y000586D02*
X022706Y000586D01*
X022783Y000663D01*
X022783Y000816D01*
X022706Y000893D01*
X022476Y000893D01*
X022629Y000586D02*
X022783Y000433D01*
X022936Y000509D02*
X023013Y000433D01*
X023166Y000433D01*
X023243Y000509D01*
X023243Y000816D01*
X023166Y000893D01*
X023013Y000893D01*
X022936Y000816D01*
X022936Y000740D01*
X023013Y000663D01*
X023243Y000663D01*
D12*
X020467Y001155D02*
X020217Y000905D01*
X019717Y000905D01*
X019467Y001155D01*
X019217Y000905D01*
X018717Y000905D01*
X018467Y001155D01*
X018217Y000905D01*
X017717Y000905D01*
X017467Y001155D01*
X017467Y001655D01*
X017717Y001905D01*
X018217Y001905D01*
X018467Y001655D01*
X018717Y001905D01*
X019217Y001905D01*
X019467Y001655D01*
X019717Y001905D01*
X020217Y001905D01*
X020467Y001655D01*
X020467Y001155D01*
X019467Y001155D02*
X019467Y001655D01*
X018467Y001655D02*
X018467Y001155D01*
X030294Y001700D02*
X030296Y001773D01*
X030302Y001846D01*
X030312Y001918D01*
X030326Y001990D01*
X030343Y002061D01*
X030365Y002131D01*
X030390Y002200D01*
X030419Y002267D01*
X030451Y002332D01*
X030487Y002396D01*
X030527Y002458D01*
X030569Y002517D01*
X030615Y002574D01*
X030664Y002628D01*
X030716Y002680D01*
X030770Y002729D01*
X030827Y002775D01*
X030886Y002817D01*
X030948Y002857D01*
X031012Y002893D01*
X031077Y002925D01*
X031144Y002954D01*
X031213Y002979D01*
X031283Y003001D01*
X031354Y003018D01*
X031426Y003032D01*
X031498Y003042D01*
X031571Y003048D01*
X031644Y003050D01*
X031717Y003048D01*
X031790Y003042D01*
X031862Y003032D01*
X031934Y003018D01*
X032005Y003001D01*
X032075Y002979D01*
X032144Y002954D01*
X032211Y002925D01*
X032276Y002893D01*
X032340Y002857D01*
X032402Y002817D01*
X032461Y002775D01*
X032518Y002729D01*
X032572Y002680D01*
X032624Y002628D01*
X032673Y002574D01*
X032719Y002517D01*
X032761Y002458D01*
X032801Y002396D01*
X032837Y002332D01*
X032869Y002267D01*
X032898Y002200D01*
X032923Y002131D01*
X032945Y002061D01*
X032962Y001990D01*
X032976Y001918D01*
X032986Y001846D01*
X032992Y001773D01*
X032994Y001700D01*
X032992Y001627D01*
X032986Y001554D01*
X032976Y001482D01*
X032962Y001410D01*
X032945Y001339D01*
X032923Y001269D01*
X032898Y001200D01*
X032869Y001133D01*
X032837Y001068D01*
X032801Y001004D01*
X032761Y000942D01*
X032719Y000883D01*
X032673Y000826D01*
X032624Y000772D01*
X032572Y000720D01*
X032518Y000671D01*
X032461Y000625D01*
X032402Y000583D01*
X032340Y000543D01*
X032276Y000507D01*
X032211Y000475D01*
X032144Y000446D01*
X032075Y000421D01*
X032005Y000399D01*
X031934Y000382D01*
X031862Y000368D01*
X031790Y000358D01*
X031717Y000352D01*
X031644Y000350D01*
X031571Y000352D01*
X031498Y000358D01*
X031426Y000368D01*
X031354Y000382D01*
X031283Y000399D01*
X031213Y000421D01*
X031144Y000446D01*
X031077Y000475D01*
X031012Y000507D01*
X030948Y000543D01*
X030886Y000583D01*
X030827Y000625D01*
X030770Y000671D01*
X030716Y000720D01*
X030664Y000772D01*
X030615Y000826D01*
X030569Y000883D01*
X030527Y000942D01*
X030487Y001004D01*
X030451Y001068D01*
X030419Y001133D01*
X030390Y001200D01*
X030365Y001269D01*
X030343Y001339D01*
X030326Y001410D01*
X030312Y001482D01*
X030302Y001554D01*
X030296Y001627D01*
X030294Y001700D01*
X001948Y001700D02*
X001950Y001773D01*
X001956Y001846D01*
X001966Y001918D01*
X001980Y001990D01*
X001997Y002061D01*
X002019Y002131D01*
X002044Y002200D01*
X002073Y002267D01*
X002105Y002332D01*
X002141Y002396D01*
X002181Y002458D01*
X002223Y002517D01*
X002269Y002574D01*
X002318Y002628D01*
X002370Y002680D01*
X002424Y002729D01*
X002481Y002775D01*
X002540Y002817D01*
X002602Y002857D01*
X002666Y002893D01*
X002731Y002925D01*
X002798Y002954D01*
X002867Y002979D01*
X002937Y003001D01*
X003008Y003018D01*
X003080Y003032D01*
X003152Y003042D01*
X003225Y003048D01*
X003298Y003050D01*
X003371Y003048D01*
X003444Y003042D01*
X003516Y003032D01*
X003588Y003018D01*
X003659Y003001D01*
X003729Y002979D01*
X003798Y002954D01*
X003865Y002925D01*
X003930Y002893D01*
X003994Y002857D01*
X004056Y002817D01*
X004115Y002775D01*
X004172Y002729D01*
X004226Y002680D01*
X004278Y002628D01*
X004327Y002574D01*
X004373Y002517D01*
X004415Y002458D01*
X004455Y002396D01*
X004491Y002332D01*
X004523Y002267D01*
X004552Y002200D01*
X004577Y002131D01*
X004599Y002061D01*
X004616Y001990D01*
X004630Y001918D01*
X004640Y001846D01*
X004646Y001773D01*
X004648Y001700D01*
X004646Y001627D01*
X004640Y001554D01*
X004630Y001482D01*
X004616Y001410D01*
X004599Y001339D01*
X004577Y001269D01*
X004552Y001200D01*
X004523Y001133D01*
X004491Y001068D01*
X004455Y001004D01*
X004415Y000942D01*
X004373Y000883D01*
X004327Y000826D01*
X004278Y000772D01*
X004226Y000720D01*
X004172Y000671D01*
X004115Y000625D01*
X004056Y000583D01*
X003994Y000543D01*
X003930Y000507D01*
X003865Y000475D01*
X003798Y000446D01*
X003729Y000421D01*
X003659Y000399D01*
X003588Y000382D01*
X003516Y000368D01*
X003444Y000358D01*
X003371Y000352D01*
X003298Y000350D01*
X003225Y000352D01*
X003152Y000358D01*
X003080Y000368D01*
X003008Y000382D01*
X002937Y000399D01*
X002867Y000421D01*
X002798Y000446D01*
X002731Y000475D01*
X002666Y000507D01*
X002602Y000543D01*
X002540Y000583D01*
X002481Y000625D01*
X002424Y000671D01*
X002370Y000720D01*
X002318Y000772D01*
X002269Y000826D01*
X002223Y000883D01*
X002181Y000942D01*
X002141Y001004D01*
X002105Y001068D01*
X002073Y001133D01*
X002044Y001200D01*
X002019Y001269D01*
X001997Y001339D01*
X001980Y001410D01*
X001966Y001482D01*
X001956Y001554D01*
X001950Y001627D01*
X001948Y001700D01*
X001948Y030046D02*
X001950Y030119D01*
X001956Y030192D01*
X001966Y030264D01*
X001980Y030336D01*
X001997Y030407D01*
X002019Y030477D01*
X002044Y030546D01*
X002073Y030613D01*
X002105Y030678D01*
X002141Y030742D01*
X002181Y030804D01*
X002223Y030863D01*
X002269Y030920D01*
X002318Y030974D01*
X002370Y031026D01*
X002424Y031075D01*
X002481Y031121D01*
X002540Y031163D01*
X002602Y031203D01*
X002666Y031239D01*
X002731Y031271D01*
X002798Y031300D01*
X002867Y031325D01*
X002937Y031347D01*
X003008Y031364D01*
X003080Y031378D01*
X003152Y031388D01*
X003225Y031394D01*
X003298Y031396D01*
X003371Y031394D01*
X003444Y031388D01*
X003516Y031378D01*
X003588Y031364D01*
X003659Y031347D01*
X003729Y031325D01*
X003798Y031300D01*
X003865Y031271D01*
X003930Y031239D01*
X003994Y031203D01*
X004056Y031163D01*
X004115Y031121D01*
X004172Y031075D01*
X004226Y031026D01*
X004278Y030974D01*
X004327Y030920D01*
X004373Y030863D01*
X004415Y030804D01*
X004455Y030742D01*
X004491Y030678D01*
X004523Y030613D01*
X004552Y030546D01*
X004577Y030477D01*
X004599Y030407D01*
X004616Y030336D01*
X004630Y030264D01*
X004640Y030192D01*
X004646Y030119D01*
X004648Y030046D01*
X004646Y029973D01*
X004640Y029900D01*
X004630Y029828D01*
X004616Y029756D01*
X004599Y029685D01*
X004577Y029615D01*
X004552Y029546D01*
X004523Y029479D01*
X004491Y029414D01*
X004455Y029350D01*
X004415Y029288D01*
X004373Y029229D01*
X004327Y029172D01*
X004278Y029118D01*
X004226Y029066D01*
X004172Y029017D01*
X004115Y028971D01*
X004056Y028929D01*
X003994Y028889D01*
X003930Y028853D01*
X003865Y028821D01*
X003798Y028792D01*
X003729Y028767D01*
X003659Y028745D01*
X003588Y028728D01*
X003516Y028714D01*
X003444Y028704D01*
X003371Y028698D01*
X003298Y028696D01*
X003225Y028698D01*
X003152Y028704D01*
X003080Y028714D01*
X003008Y028728D01*
X002937Y028745D01*
X002867Y028767D01*
X002798Y028792D01*
X002731Y028821D01*
X002666Y028853D01*
X002602Y028889D01*
X002540Y028929D01*
X002481Y028971D01*
X002424Y029017D01*
X002370Y029066D01*
X002318Y029118D01*
X002269Y029172D01*
X002223Y029229D01*
X002181Y029288D01*
X002141Y029350D01*
X002105Y029414D01*
X002073Y029479D01*
X002044Y029546D01*
X002019Y029615D01*
X001997Y029685D01*
X001980Y029756D01*
X001966Y029828D01*
X001956Y029900D01*
X001950Y029973D01*
X001948Y030046D01*
X021674Y030577D02*
X021781Y030470D01*
X021995Y030470D01*
X022101Y030577D01*
X022101Y031004D01*
X021995Y031111D01*
X021781Y031111D01*
X021674Y031004D01*
X021674Y030577D01*
X022319Y030684D02*
X022532Y030897D01*
X022639Y030897D01*
X022856Y030790D02*
X022963Y030897D01*
X023283Y030897D01*
X023283Y031111D02*
X023283Y030470D01*
X022963Y030470D01*
X022856Y030577D01*
X022856Y030790D01*
X022319Y030897D02*
X022319Y030470D01*
X023501Y030577D02*
X023607Y030470D01*
X023821Y030470D01*
X023928Y030684D02*
X023501Y030684D01*
X023501Y030790D02*
X023607Y030897D01*
X023821Y030897D01*
X023928Y030790D01*
X023928Y030684D01*
X024145Y030684D02*
X024359Y030897D01*
X024465Y030897D01*
X024682Y030897D02*
X024682Y030790D01*
X024789Y030790D01*
X024789Y030897D01*
X024682Y030897D01*
X024682Y030577D02*
X024682Y030470D01*
X024789Y030470D01*
X024789Y030577D01*
X024682Y030577D01*
X024145Y030470D02*
X024145Y030897D01*
X023501Y030790D02*
X023501Y030577D01*
X025649Y030470D02*
X025969Y030470D01*
X026076Y030577D01*
X026076Y031004D01*
X025969Y031111D01*
X025649Y031111D01*
X025649Y030470D01*
X026294Y030577D02*
X026400Y030470D01*
X026614Y030470D01*
X026721Y030577D01*
X026721Y030790D01*
X026614Y030897D01*
X026507Y030897D01*
X026294Y030790D01*
X026294Y031111D01*
X026721Y031111D01*
X026938Y030790D02*
X027365Y030790D01*
X027583Y030577D02*
X028010Y031004D01*
X028010Y030577D01*
X027903Y030470D01*
X027690Y030470D01*
X027583Y030577D01*
X027583Y031004D01*
X027690Y031111D01*
X027903Y031111D01*
X028010Y031004D01*
X028227Y030897D02*
X028441Y031111D01*
X028441Y030470D01*
X028654Y030470D02*
X028227Y030470D01*
X028872Y030577D02*
X028979Y030470D01*
X029192Y030470D01*
X029299Y030577D01*
X029299Y030684D01*
X029192Y030790D01*
X028979Y030790D01*
X028872Y030897D01*
X028872Y031004D01*
X028979Y031111D01*
X029192Y031111D01*
X029299Y031004D01*
X029299Y030897D01*
X029192Y030790D01*
X028979Y030790D02*
X028872Y030684D01*
X028872Y030577D01*
X027258Y030470D02*
X027258Y031111D01*
X026938Y030790D01*
X030294Y030046D02*
X030296Y030119D01*
X030302Y030192D01*
X030312Y030264D01*
X030326Y030336D01*
X030343Y030407D01*
X030365Y030477D01*
X030390Y030546D01*
X030419Y030613D01*
X030451Y030678D01*
X030487Y030742D01*
X030527Y030804D01*
X030569Y030863D01*
X030615Y030920D01*
X030664Y030974D01*
X030716Y031026D01*
X030770Y031075D01*
X030827Y031121D01*
X030886Y031163D01*
X030948Y031203D01*
X031012Y031239D01*
X031077Y031271D01*
X031144Y031300D01*
X031213Y031325D01*
X031283Y031347D01*
X031354Y031364D01*
X031426Y031378D01*
X031498Y031388D01*
X031571Y031394D01*
X031644Y031396D01*
X031717Y031394D01*
X031790Y031388D01*
X031862Y031378D01*
X031934Y031364D01*
X032005Y031347D01*
X032075Y031325D01*
X032144Y031300D01*
X032211Y031271D01*
X032276Y031239D01*
X032340Y031203D01*
X032402Y031163D01*
X032461Y031121D01*
X032518Y031075D01*
X032572Y031026D01*
X032624Y030974D01*
X032673Y030920D01*
X032719Y030863D01*
X032761Y030804D01*
X032801Y030742D01*
X032837Y030678D01*
X032869Y030613D01*
X032898Y030546D01*
X032923Y030477D01*
X032945Y030407D01*
X032962Y030336D01*
X032976Y030264D01*
X032986Y030192D01*
X032992Y030119D01*
X032994Y030046D01*
X032992Y029973D01*
X032986Y029900D01*
X032976Y029828D01*
X032962Y029756D01*
X032945Y029685D01*
X032923Y029615D01*
X032898Y029546D01*
X032869Y029479D01*
X032837Y029414D01*
X032801Y029350D01*
X032761Y029288D01*
X032719Y029229D01*
X032673Y029172D01*
X032624Y029118D01*
X032572Y029066D01*
X032518Y029017D01*
X032461Y028971D01*
X032402Y028929D01*
X032340Y028889D01*
X032276Y028853D01*
X032211Y028821D01*
X032144Y028792D01*
X032075Y028767D01*
X032005Y028745D01*
X031934Y028728D01*
X031862Y028714D01*
X031790Y028704D01*
X031717Y028698D01*
X031644Y028696D01*
X031571Y028698D01*
X031498Y028704D01*
X031426Y028714D01*
X031354Y028728D01*
X031283Y028745D01*
X031213Y028767D01*
X031144Y028792D01*
X031077Y028821D01*
X031012Y028853D01*
X030948Y028889D01*
X030886Y028929D01*
X030827Y028971D01*
X030770Y029017D01*
X030716Y029066D01*
X030664Y029118D01*
X030615Y029172D01*
X030569Y029229D01*
X030527Y029288D01*
X030487Y029350D01*
X030451Y029414D01*
X030419Y029479D01*
X030390Y029546D01*
X030365Y029615D01*
X030343Y029685D01*
X030326Y029756D01*
X030312Y029828D01*
X030302Y029900D01*
X030296Y029973D01*
X030294Y030046D01*
D13*
X030975Y030046D02*
X030977Y030097D01*
X030983Y030148D01*
X030993Y030198D01*
X031006Y030248D01*
X031024Y030296D01*
X031044Y030343D01*
X031069Y030388D01*
X031097Y030431D01*
X031128Y030472D01*
X031162Y030510D01*
X031199Y030545D01*
X031238Y030578D01*
X031280Y030608D01*
X031324Y030634D01*
X031370Y030656D01*
X031418Y030676D01*
X031467Y030691D01*
X031517Y030703D01*
X031567Y030711D01*
X031618Y030715D01*
X031670Y030715D01*
X031721Y030711D01*
X031771Y030703D01*
X031821Y030691D01*
X031870Y030676D01*
X031918Y030656D01*
X031964Y030634D01*
X032008Y030608D01*
X032050Y030578D01*
X032089Y030545D01*
X032126Y030510D01*
X032160Y030472D01*
X032191Y030431D01*
X032219Y030388D01*
X032244Y030343D01*
X032264Y030296D01*
X032282Y030248D01*
X032295Y030198D01*
X032305Y030148D01*
X032311Y030097D01*
X032313Y030046D01*
X032311Y029995D01*
X032305Y029944D01*
X032295Y029894D01*
X032282Y029844D01*
X032264Y029796D01*
X032244Y029749D01*
X032219Y029704D01*
X032191Y029661D01*
X032160Y029620D01*
X032126Y029582D01*
X032089Y029547D01*
X032050Y029514D01*
X032008Y029484D01*
X031964Y029458D01*
X031918Y029436D01*
X031870Y029416D01*
X031821Y029401D01*
X031771Y029389D01*
X031721Y029381D01*
X031670Y029377D01*
X031618Y029377D01*
X031567Y029381D01*
X031517Y029389D01*
X031467Y029401D01*
X031418Y029416D01*
X031370Y029436D01*
X031324Y029458D01*
X031280Y029484D01*
X031238Y029514D01*
X031199Y029547D01*
X031162Y029582D01*
X031128Y029620D01*
X031097Y029661D01*
X031069Y029704D01*
X031044Y029749D01*
X031024Y029796D01*
X031006Y029844D01*
X030993Y029894D01*
X030983Y029944D01*
X030977Y029995D01*
X030975Y030046D01*
X002629Y030046D02*
X002631Y030097D01*
X002637Y030148D01*
X002647Y030198D01*
X002660Y030248D01*
X002678Y030296D01*
X002698Y030343D01*
X002723Y030388D01*
X002751Y030431D01*
X002782Y030472D01*
X002816Y030510D01*
X002853Y030545D01*
X002892Y030578D01*
X002934Y030608D01*
X002978Y030634D01*
X003024Y030656D01*
X003072Y030676D01*
X003121Y030691D01*
X003171Y030703D01*
X003221Y030711D01*
X003272Y030715D01*
X003324Y030715D01*
X003375Y030711D01*
X003425Y030703D01*
X003475Y030691D01*
X003524Y030676D01*
X003572Y030656D01*
X003618Y030634D01*
X003662Y030608D01*
X003704Y030578D01*
X003743Y030545D01*
X003780Y030510D01*
X003814Y030472D01*
X003845Y030431D01*
X003873Y030388D01*
X003898Y030343D01*
X003918Y030296D01*
X003936Y030248D01*
X003949Y030198D01*
X003959Y030148D01*
X003965Y030097D01*
X003967Y030046D01*
X003965Y029995D01*
X003959Y029944D01*
X003949Y029894D01*
X003936Y029844D01*
X003918Y029796D01*
X003898Y029749D01*
X003873Y029704D01*
X003845Y029661D01*
X003814Y029620D01*
X003780Y029582D01*
X003743Y029547D01*
X003704Y029514D01*
X003662Y029484D01*
X003618Y029458D01*
X003572Y029436D01*
X003524Y029416D01*
X003475Y029401D01*
X003425Y029389D01*
X003375Y029381D01*
X003324Y029377D01*
X003272Y029377D01*
X003221Y029381D01*
X003171Y029389D01*
X003121Y029401D01*
X003072Y029416D01*
X003024Y029436D01*
X002978Y029458D01*
X002934Y029484D01*
X002892Y029514D01*
X002853Y029547D01*
X002816Y029582D01*
X002782Y029620D01*
X002751Y029661D01*
X002723Y029704D01*
X002698Y029749D01*
X002678Y029796D01*
X002660Y029844D01*
X002647Y029894D01*
X002637Y029944D01*
X002631Y029995D01*
X002629Y030046D01*
X002629Y001700D02*
X002631Y001751D01*
X002637Y001802D01*
X002647Y001852D01*
X002660Y001902D01*
X002678Y001950D01*
X002698Y001997D01*
X002723Y002042D01*
X002751Y002085D01*
X002782Y002126D01*
X002816Y002164D01*
X002853Y002199D01*
X002892Y002232D01*
X002934Y002262D01*
X002978Y002288D01*
X003024Y002310D01*
X003072Y002330D01*
X003121Y002345D01*
X003171Y002357D01*
X003221Y002365D01*
X003272Y002369D01*
X003324Y002369D01*
X003375Y002365D01*
X003425Y002357D01*
X003475Y002345D01*
X003524Y002330D01*
X003572Y002310D01*
X003618Y002288D01*
X003662Y002262D01*
X003704Y002232D01*
X003743Y002199D01*
X003780Y002164D01*
X003814Y002126D01*
X003845Y002085D01*
X003873Y002042D01*
X003898Y001997D01*
X003918Y001950D01*
X003936Y001902D01*
X003949Y001852D01*
X003959Y001802D01*
X003965Y001751D01*
X003967Y001700D01*
X003965Y001649D01*
X003959Y001598D01*
X003949Y001548D01*
X003936Y001498D01*
X003918Y001450D01*
X003898Y001403D01*
X003873Y001358D01*
X003845Y001315D01*
X003814Y001274D01*
X003780Y001236D01*
X003743Y001201D01*
X003704Y001168D01*
X003662Y001138D01*
X003618Y001112D01*
X003572Y001090D01*
X003524Y001070D01*
X003475Y001055D01*
X003425Y001043D01*
X003375Y001035D01*
X003324Y001031D01*
X003272Y001031D01*
X003221Y001035D01*
X003171Y001043D01*
X003121Y001055D01*
X003072Y001070D01*
X003024Y001090D01*
X002978Y001112D01*
X002934Y001138D01*
X002892Y001168D01*
X002853Y001201D01*
X002816Y001236D01*
X002782Y001274D01*
X002751Y001315D01*
X002723Y001358D01*
X002698Y001403D01*
X002678Y001450D01*
X002660Y001498D01*
X002647Y001548D01*
X002637Y001598D01*
X002631Y001649D01*
X002629Y001700D01*
X030975Y001700D02*
X030977Y001751D01*
X030983Y001802D01*
X030993Y001852D01*
X031006Y001902D01*
X031024Y001950D01*
X031044Y001997D01*
X031069Y002042D01*
X031097Y002085D01*
X031128Y002126D01*
X031162Y002164D01*
X031199Y002199D01*
X031238Y002232D01*
X031280Y002262D01*
X031324Y002288D01*
X031370Y002310D01*
X031418Y002330D01*
X031467Y002345D01*
X031517Y002357D01*
X031567Y002365D01*
X031618Y002369D01*
X031670Y002369D01*
X031721Y002365D01*
X031771Y002357D01*
X031821Y002345D01*
X031870Y002330D01*
X031918Y002310D01*
X031964Y002288D01*
X032008Y002262D01*
X032050Y002232D01*
X032089Y002199D01*
X032126Y002164D01*
X032160Y002126D01*
X032191Y002085D01*
X032219Y002042D01*
X032244Y001997D01*
X032264Y001950D01*
X032282Y001902D01*
X032295Y001852D01*
X032305Y001802D01*
X032311Y001751D01*
X032313Y001700D01*
X032311Y001649D01*
X032305Y001598D01*
X032295Y001548D01*
X032282Y001498D01*
X032264Y001450D01*
X032244Y001403D01*
X032219Y001358D01*
X032191Y001315D01*
X032160Y001274D01*
X032126Y001236D01*
X032089Y001201D01*
X032050Y001168D01*
X032008Y001138D01*
X031964Y001112D01*
X031918Y001090D01*
X031870Y001070D01*
X031821Y001055D01*
X031771Y001043D01*
X031721Y001035D01*
X031670Y001031D01*
X031618Y001031D01*
X031567Y001035D01*
X031517Y001043D01*
X031467Y001055D01*
X031418Y001070D01*
X031370Y001090D01*
X031324Y001112D01*
X031280Y001138D01*
X031238Y001168D01*
X031199Y001201D01*
X031162Y001236D01*
X031128Y001274D01*
X031097Y001315D01*
X031069Y001358D01*
X031044Y001403D01*
X031024Y001450D01*
X031006Y001498D01*
X030993Y001548D01*
X030983Y001598D01*
X030977Y001649D01*
X030975Y001700D01*
D14*
X018930Y002158D02*
X018780Y002308D01*
X018855Y002308D02*
X018630Y002308D01*
X018630Y002158D02*
X018630Y002608D01*
X018855Y002608D01*
X018930Y002533D01*
X018930Y002383D01*
X018855Y002308D01*
X018473Y002158D02*
X018323Y002158D01*
X018398Y002158D02*
X018398Y002608D01*
X018323Y002608D02*
X018473Y002608D01*
M02*
