G75*
G70*
%OFA0B0*%
%FSLAX24Y24*%
%IPPOS*%
%LPD*%
%AMOC8*
5,1,8,0,0,1.08239X$1,22.5*
%
%ADD10C,0.0000*%
%ADD11C,0.0595*%
%ADD12C,0.0050*%
%ADD13C,0.1340*%
%ADD14C,0.0680*%
%ADD15R,0.0592X0.0671*%
D10*
X001723Y000125D02*
X001723Y031621D01*
X033219Y031621D01*
X033219Y000125D01*
X001723Y000125D01*
X002668Y001700D02*
X002670Y001750D01*
X002676Y001800D01*
X002686Y001849D01*
X002700Y001897D01*
X002717Y001944D01*
X002738Y001989D01*
X002763Y002033D01*
X002791Y002074D01*
X002823Y002113D01*
X002857Y002150D01*
X002894Y002184D01*
X002934Y002214D01*
X002976Y002241D01*
X003020Y002265D01*
X003066Y002286D01*
X003113Y002302D01*
X003161Y002315D01*
X003211Y002324D01*
X003260Y002329D01*
X003311Y002330D01*
X003361Y002327D01*
X003410Y002320D01*
X003459Y002309D01*
X003507Y002294D01*
X003553Y002276D01*
X003598Y002254D01*
X003641Y002228D01*
X003682Y002199D01*
X003721Y002167D01*
X003757Y002132D01*
X003789Y002094D01*
X003819Y002054D01*
X003846Y002011D01*
X003869Y001967D01*
X003888Y001921D01*
X003904Y001873D01*
X003916Y001824D01*
X003924Y001775D01*
X003928Y001725D01*
X003928Y001675D01*
X003924Y001625D01*
X003916Y001576D01*
X003904Y001527D01*
X003888Y001479D01*
X003869Y001433D01*
X003846Y001389D01*
X003819Y001346D01*
X003789Y001306D01*
X003757Y001268D01*
X003721Y001233D01*
X003682Y001201D01*
X003641Y001172D01*
X003598Y001146D01*
X003553Y001124D01*
X003507Y001106D01*
X003459Y001091D01*
X003410Y001080D01*
X003361Y001073D01*
X003311Y001070D01*
X003260Y001071D01*
X003211Y001076D01*
X003161Y001085D01*
X003113Y001098D01*
X003066Y001114D01*
X003020Y001135D01*
X002976Y001159D01*
X002934Y001186D01*
X002894Y001216D01*
X002857Y001250D01*
X002823Y001287D01*
X002791Y001326D01*
X002763Y001367D01*
X002738Y001411D01*
X002717Y001456D01*
X002700Y001503D01*
X002686Y001551D01*
X002676Y001600D01*
X002670Y001650D01*
X002668Y001700D01*
X031014Y001700D02*
X031016Y001750D01*
X031022Y001800D01*
X031032Y001849D01*
X031046Y001897D01*
X031063Y001944D01*
X031084Y001989D01*
X031109Y002033D01*
X031137Y002074D01*
X031169Y002113D01*
X031203Y002150D01*
X031240Y002184D01*
X031280Y002214D01*
X031322Y002241D01*
X031366Y002265D01*
X031412Y002286D01*
X031459Y002302D01*
X031507Y002315D01*
X031557Y002324D01*
X031606Y002329D01*
X031657Y002330D01*
X031707Y002327D01*
X031756Y002320D01*
X031805Y002309D01*
X031853Y002294D01*
X031899Y002276D01*
X031944Y002254D01*
X031987Y002228D01*
X032028Y002199D01*
X032067Y002167D01*
X032103Y002132D01*
X032135Y002094D01*
X032165Y002054D01*
X032192Y002011D01*
X032215Y001967D01*
X032234Y001921D01*
X032250Y001873D01*
X032262Y001824D01*
X032270Y001775D01*
X032274Y001725D01*
X032274Y001675D01*
X032270Y001625D01*
X032262Y001576D01*
X032250Y001527D01*
X032234Y001479D01*
X032215Y001433D01*
X032192Y001389D01*
X032165Y001346D01*
X032135Y001306D01*
X032103Y001268D01*
X032067Y001233D01*
X032028Y001201D01*
X031987Y001172D01*
X031944Y001146D01*
X031899Y001124D01*
X031853Y001106D01*
X031805Y001091D01*
X031756Y001080D01*
X031707Y001073D01*
X031657Y001070D01*
X031606Y001071D01*
X031557Y001076D01*
X031507Y001085D01*
X031459Y001098D01*
X031412Y001114D01*
X031366Y001135D01*
X031322Y001159D01*
X031280Y001186D01*
X031240Y001216D01*
X031203Y001250D01*
X031169Y001287D01*
X031137Y001326D01*
X031109Y001367D01*
X031084Y001411D01*
X031063Y001456D01*
X031046Y001503D01*
X031032Y001551D01*
X031022Y001600D01*
X031016Y001650D01*
X031014Y001700D01*
X031014Y030046D02*
X031016Y030096D01*
X031022Y030146D01*
X031032Y030195D01*
X031046Y030243D01*
X031063Y030290D01*
X031084Y030335D01*
X031109Y030379D01*
X031137Y030420D01*
X031169Y030459D01*
X031203Y030496D01*
X031240Y030530D01*
X031280Y030560D01*
X031322Y030587D01*
X031366Y030611D01*
X031412Y030632D01*
X031459Y030648D01*
X031507Y030661D01*
X031557Y030670D01*
X031606Y030675D01*
X031657Y030676D01*
X031707Y030673D01*
X031756Y030666D01*
X031805Y030655D01*
X031853Y030640D01*
X031899Y030622D01*
X031944Y030600D01*
X031987Y030574D01*
X032028Y030545D01*
X032067Y030513D01*
X032103Y030478D01*
X032135Y030440D01*
X032165Y030400D01*
X032192Y030357D01*
X032215Y030313D01*
X032234Y030267D01*
X032250Y030219D01*
X032262Y030170D01*
X032270Y030121D01*
X032274Y030071D01*
X032274Y030021D01*
X032270Y029971D01*
X032262Y029922D01*
X032250Y029873D01*
X032234Y029825D01*
X032215Y029779D01*
X032192Y029735D01*
X032165Y029692D01*
X032135Y029652D01*
X032103Y029614D01*
X032067Y029579D01*
X032028Y029547D01*
X031987Y029518D01*
X031944Y029492D01*
X031899Y029470D01*
X031853Y029452D01*
X031805Y029437D01*
X031756Y029426D01*
X031707Y029419D01*
X031657Y029416D01*
X031606Y029417D01*
X031557Y029422D01*
X031507Y029431D01*
X031459Y029444D01*
X031412Y029460D01*
X031366Y029481D01*
X031322Y029505D01*
X031280Y029532D01*
X031240Y029562D01*
X031203Y029596D01*
X031169Y029633D01*
X031137Y029672D01*
X031109Y029713D01*
X031084Y029757D01*
X031063Y029802D01*
X031046Y029849D01*
X031032Y029897D01*
X031022Y029946D01*
X031016Y029996D01*
X031014Y030046D01*
X002668Y030046D02*
X002670Y030096D01*
X002676Y030146D01*
X002686Y030195D01*
X002700Y030243D01*
X002717Y030290D01*
X002738Y030335D01*
X002763Y030379D01*
X002791Y030420D01*
X002823Y030459D01*
X002857Y030496D01*
X002894Y030530D01*
X002934Y030560D01*
X002976Y030587D01*
X003020Y030611D01*
X003066Y030632D01*
X003113Y030648D01*
X003161Y030661D01*
X003211Y030670D01*
X003260Y030675D01*
X003311Y030676D01*
X003361Y030673D01*
X003410Y030666D01*
X003459Y030655D01*
X003507Y030640D01*
X003553Y030622D01*
X003598Y030600D01*
X003641Y030574D01*
X003682Y030545D01*
X003721Y030513D01*
X003757Y030478D01*
X003789Y030440D01*
X003819Y030400D01*
X003846Y030357D01*
X003869Y030313D01*
X003888Y030267D01*
X003904Y030219D01*
X003916Y030170D01*
X003924Y030121D01*
X003928Y030071D01*
X003928Y030021D01*
X003924Y029971D01*
X003916Y029922D01*
X003904Y029873D01*
X003888Y029825D01*
X003869Y029779D01*
X003846Y029735D01*
X003819Y029692D01*
X003789Y029652D01*
X003757Y029614D01*
X003721Y029579D01*
X003682Y029547D01*
X003641Y029518D01*
X003598Y029492D01*
X003553Y029470D01*
X003507Y029452D01*
X003459Y029437D01*
X003410Y029426D01*
X003361Y029419D01*
X003311Y029416D01*
X003260Y029417D01*
X003211Y029422D01*
X003161Y029431D01*
X003113Y029444D01*
X003066Y029460D01*
X003020Y029481D01*
X002976Y029505D01*
X002934Y029532D01*
X002894Y029562D01*
X002857Y029596D01*
X002823Y029633D01*
X002791Y029672D01*
X002763Y029713D01*
X002738Y029757D01*
X002717Y029802D01*
X002700Y029849D01*
X002686Y029897D01*
X002676Y029946D01*
X002670Y029996D01*
X002668Y030046D01*
D11*
X005900Y028212D03*
X005900Y027503D03*
X004877Y026637D03*
X004719Y026007D03*
X004877Y025377D03*
X005900Y024511D03*
X005900Y023802D03*
X007711Y024511D03*
X008341Y024511D03*
X008971Y024511D03*
X008967Y025145D03*
X009046Y026011D03*
X009597Y026011D03*
X008971Y026873D03*
X008971Y027503D03*
X008341Y027503D03*
X007711Y027503D03*
X011806Y026007D03*
X011963Y025377D03*
X012987Y024511D03*
X012987Y023802D03*
X014798Y024511D03*
X015428Y024511D03*
X016058Y024511D03*
X016054Y025145D03*
X016133Y026011D03*
X016684Y026011D03*
X016058Y026873D03*
X016058Y027503D03*
X015428Y027503D03*
X014798Y027503D03*
X012987Y027503D03*
X012987Y028212D03*
X011963Y026637D03*
X014869Y021428D03*
X014869Y020720D03*
X015892Y019854D03*
X016050Y019224D03*
X015892Y018594D03*
X014869Y017728D03*
X014869Y017019D03*
X013058Y017728D03*
X012428Y017728D03*
X011798Y017728D03*
X011798Y018357D03*
X011723Y019220D03*
X011172Y019220D03*
X011802Y020086D03*
X011798Y020720D03*
X012428Y020720D03*
X013058Y020720D03*
X008806Y019854D03*
X008963Y019224D03*
X008806Y018594D03*
X007782Y017728D03*
X007782Y017019D03*
X005971Y017728D03*
X005341Y017728D03*
X004711Y017728D03*
X004711Y018357D03*
X004637Y019220D03*
X004085Y019220D03*
X004715Y020086D03*
X004711Y020720D03*
X005341Y020720D03*
X005971Y020720D03*
X007782Y020720D03*
X007782Y021428D03*
X005900Y014728D03*
X005900Y014019D03*
X004877Y013153D03*
X004719Y012523D03*
X004877Y011893D03*
X005900Y011027D03*
X005900Y010318D03*
X007711Y011027D03*
X008341Y011027D03*
X008971Y011027D03*
X008967Y011661D03*
X009046Y012527D03*
X009597Y012527D03*
X008971Y013389D03*
X008971Y014019D03*
X008341Y014019D03*
X007711Y014019D03*
X011806Y012523D03*
X011963Y013153D03*
X012987Y014019D03*
X012987Y014728D03*
X014798Y014019D03*
X015428Y014019D03*
X016058Y014019D03*
X016058Y013389D03*
X016133Y012527D03*
X016684Y012527D03*
X016054Y011661D03*
X016058Y011027D03*
X015428Y011027D03*
X014798Y011027D03*
X012987Y011027D03*
X012987Y010318D03*
X011963Y011893D03*
X014869Y007846D03*
X014869Y007137D03*
X015892Y006271D03*
X016050Y005641D03*
X015892Y005011D03*
X014869Y004145D03*
X014869Y003436D03*
X013058Y004145D03*
X012428Y004145D03*
X011798Y004145D03*
X011798Y004775D03*
X011723Y005637D03*
X011172Y005637D03*
X011802Y006503D03*
X011798Y007137D03*
X012428Y007137D03*
X013058Y007137D03*
X008806Y006271D03*
X008963Y005641D03*
X008806Y005011D03*
X007782Y004145D03*
X007782Y003436D03*
X005971Y004145D03*
X005341Y004145D03*
X004711Y004145D03*
X004711Y004775D03*
X004637Y005637D03*
X004085Y005637D03*
X004715Y006503D03*
X004711Y007137D03*
X005341Y007137D03*
X005971Y007137D03*
X007782Y007137D03*
X007782Y007846D03*
X018259Y005637D03*
X018810Y005637D03*
X018885Y004775D03*
X018885Y004145D03*
X019514Y004145D03*
X020144Y004145D03*
X021955Y004145D03*
X021955Y003436D03*
X022979Y005011D03*
X023137Y005641D03*
X022979Y006271D03*
X021955Y007137D03*
X021955Y007846D03*
X020144Y007137D03*
X019514Y007137D03*
X018885Y007137D03*
X018888Y006503D03*
X020074Y010318D03*
X020074Y011027D03*
X019050Y011893D03*
X018892Y012523D03*
X019050Y013153D03*
X020074Y014019D03*
X020074Y014728D03*
X021885Y014019D03*
X022514Y014019D03*
X023144Y014019D03*
X023144Y013389D03*
X023219Y012527D03*
X023770Y012527D03*
X023140Y011661D03*
X023144Y011027D03*
X022514Y011027D03*
X021885Y011027D03*
X026137Y011893D03*
X025979Y012523D03*
X026137Y013153D03*
X027160Y014019D03*
X027160Y014728D03*
X028971Y014019D03*
X029601Y014019D03*
X030231Y014019D03*
X030231Y013389D03*
X030306Y012527D03*
X030857Y012527D03*
X030227Y011661D03*
X030231Y011027D03*
X029601Y011027D03*
X028971Y011027D03*
X027160Y011027D03*
X027160Y010318D03*
X029042Y007846D03*
X029042Y007137D03*
X030066Y006271D03*
X030223Y005641D03*
X030066Y005011D03*
X029042Y004145D03*
X029042Y003436D03*
X027231Y004145D03*
X026601Y004145D03*
X025971Y004145D03*
X025971Y004775D03*
X025896Y005637D03*
X025345Y005637D03*
X025975Y006503D03*
X025971Y007137D03*
X026601Y007137D03*
X027231Y007137D03*
X029042Y017019D03*
X029042Y017728D03*
X030066Y018594D03*
X030223Y019224D03*
X030066Y019854D03*
X029042Y020720D03*
X029042Y021428D03*
X027231Y020720D03*
X026601Y020720D03*
X025971Y020720D03*
X025975Y020086D03*
X025896Y019220D03*
X025345Y019220D03*
X025971Y018357D03*
X025971Y017728D03*
X026601Y017728D03*
X027231Y017728D03*
X023137Y019224D03*
X022979Y019854D03*
X021955Y020720D03*
X021955Y021428D03*
X020144Y020720D03*
X019514Y020720D03*
X018885Y020720D03*
X018888Y020086D03*
X018810Y019220D03*
X018259Y019220D03*
X018885Y018357D03*
X018885Y017728D03*
X019514Y017728D03*
X020144Y017728D03*
X021955Y017728D03*
X021955Y017019D03*
X022979Y018594D03*
X020074Y023802D03*
X020074Y024511D03*
X019050Y025377D03*
X018892Y026007D03*
X019050Y026637D03*
X020074Y027503D03*
X020074Y028212D03*
X021885Y027503D03*
X022514Y027503D03*
X023144Y027503D03*
X023144Y026873D03*
X023219Y026011D03*
X023770Y026011D03*
X023140Y025145D03*
X023144Y024511D03*
X022514Y024511D03*
X021885Y024511D03*
X026137Y025377D03*
X025979Y026007D03*
X026137Y026637D03*
X027160Y027503D03*
X027160Y028212D03*
X028971Y027503D03*
X029601Y027503D03*
X030231Y027503D03*
X030231Y026873D03*
X030306Y026011D03*
X030857Y026011D03*
X030227Y025145D03*
X030231Y024511D03*
X029601Y024511D03*
X028971Y024511D03*
X027160Y024511D03*
X027160Y023802D03*
D12*
X024951Y023255D02*
X024951Y022783D01*
X024637Y022783D01*
X024637Y023255D01*
X024951Y023255D01*
X024951Y023211D02*
X024637Y023211D01*
X024637Y023163D02*
X024951Y023163D01*
X024951Y023114D02*
X024637Y023114D01*
X024637Y023066D02*
X024951Y023066D01*
X024951Y023017D02*
X024637Y023017D01*
X024637Y022969D02*
X024951Y022969D01*
X024951Y022920D02*
X024637Y022920D01*
X024637Y022872D02*
X024951Y022872D01*
X024951Y022823D02*
X024637Y022823D01*
X024715Y022823D02*
X024164Y022823D01*
X024164Y022783D02*
X024715Y022783D01*
X024715Y023255D01*
X024164Y023255D01*
X024164Y022783D01*
X024164Y022872D02*
X024715Y022872D01*
X024715Y022920D02*
X024164Y022920D01*
X024164Y022969D02*
X024715Y022969D01*
X024715Y023017D02*
X024164Y023017D01*
X024164Y023066D02*
X024715Y023066D01*
X024715Y023114D02*
X024164Y023114D01*
X024164Y023163D02*
X024715Y023163D01*
X024715Y023211D02*
X024164Y023211D01*
X024164Y022448D02*
X024164Y021976D01*
X024479Y021976D01*
X024479Y022448D01*
X024164Y022448D01*
X024164Y022435D02*
X024479Y022435D01*
X024479Y022387D02*
X024164Y022387D01*
X024164Y022338D02*
X024479Y022338D01*
X024479Y022290D02*
X024164Y022290D01*
X024164Y022241D02*
X024479Y022241D01*
X024479Y022193D02*
X024164Y022193D01*
X024164Y022144D02*
X024479Y022144D01*
X024479Y022096D02*
X024164Y022096D01*
X024164Y022047D02*
X024479Y022047D01*
X024479Y021999D02*
X024164Y021999D01*
X024400Y021999D02*
X024951Y021999D01*
X024951Y021976D02*
X024951Y022448D01*
X024400Y022448D01*
X024400Y021976D01*
X024951Y021976D01*
X024951Y022047D02*
X024400Y022047D01*
X024400Y022096D02*
X024951Y022096D01*
X024951Y022144D02*
X024400Y022144D01*
X024400Y022193D02*
X024951Y022193D01*
X024951Y022241D02*
X024400Y022241D01*
X024400Y022290D02*
X024951Y022290D01*
X024951Y022338D02*
X024400Y022338D01*
X024400Y022387D02*
X024951Y022387D01*
X024951Y022435D02*
X024400Y022435D01*
X024322Y019456D02*
X024322Y018983D01*
X024873Y018983D01*
X024873Y019456D01*
X024322Y019456D01*
X024322Y019428D02*
X024873Y019428D01*
X024873Y019380D02*
X024322Y019380D01*
X024322Y019331D02*
X024873Y019331D01*
X024873Y019283D02*
X024322Y019283D01*
X024322Y019234D02*
X024873Y019234D01*
X024873Y019186D02*
X024322Y019186D01*
X024322Y019137D02*
X024873Y019137D01*
X024873Y019089D02*
X024322Y019089D01*
X024322Y019040D02*
X024873Y019040D01*
X024873Y018992D02*
X024322Y018992D01*
X024479Y018992D02*
X024164Y018992D01*
X024164Y018983D02*
X024164Y019456D01*
X024479Y019456D01*
X024479Y018983D01*
X024164Y018983D01*
X024164Y019040D02*
X024479Y019040D01*
X024479Y019089D02*
X024164Y019089D01*
X024164Y019137D02*
X024479Y019137D01*
X024479Y019186D02*
X024164Y019186D01*
X024164Y019234D02*
X024479Y019234D01*
X024479Y019283D02*
X024164Y019283D01*
X024164Y019331D02*
X024479Y019331D01*
X024479Y019380D02*
X024164Y019380D01*
X024164Y019428D02*
X024479Y019428D01*
X024479Y016543D02*
X024164Y016543D01*
X024164Y016070D01*
X024479Y016070D01*
X024479Y016543D01*
X024479Y016518D02*
X024164Y016518D01*
X024164Y016470D02*
X024479Y016470D01*
X024479Y016421D02*
X024164Y016421D01*
X024164Y016373D02*
X024479Y016373D01*
X024479Y016324D02*
X024164Y016324D01*
X024164Y016276D02*
X024479Y016276D01*
X024479Y016227D02*
X024164Y016227D01*
X024164Y016179D02*
X024479Y016179D01*
X024479Y016130D02*
X024164Y016130D01*
X024164Y016082D02*
X024479Y016082D01*
X024400Y016082D02*
X024951Y016082D01*
X024951Y016070D02*
X024951Y016543D01*
X024400Y016543D01*
X024400Y016070D01*
X024951Y016070D01*
X024951Y016130D02*
X024400Y016130D01*
X024400Y016179D02*
X024951Y016179D01*
X024951Y016227D02*
X024400Y016227D01*
X024400Y016276D02*
X024951Y016276D01*
X024951Y016324D02*
X024400Y016324D01*
X024400Y016373D02*
X024951Y016373D01*
X024951Y016421D02*
X024400Y016421D01*
X024400Y016470D02*
X024951Y016470D01*
X024951Y016518D02*
X024400Y016518D01*
X024164Y015676D02*
X024164Y015204D01*
X024715Y015204D01*
X024715Y015676D01*
X024164Y015676D01*
X024164Y015645D02*
X024715Y015645D01*
X024715Y015597D02*
X024164Y015597D01*
X024164Y015548D02*
X024715Y015548D01*
X024715Y015500D02*
X024164Y015500D01*
X024164Y015451D02*
X024715Y015451D01*
X024715Y015403D02*
X024164Y015403D01*
X024164Y015354D02*
X024715Y015354D01*
X024715Y015306D02*
X024164Y015306D01*
X024164Y015257D02*
X024715Y015257D01*
X024715Y015209D02*
X024164Y015209D01*
X024637Y015209D02*
X024951Y015209D01*
X024951Y015204D02*
X024951Y015676D01*
X024637Y015676D01*
X024637Y015204D01*
X024951Y015204D01*
X024951Y015257D02*
X024637Y015257D01*
X024637Y015306D02*
X024951Y015306D01*
X024951Y015354D02*
X024637Y015354D01*
X024637Y015403D02*
X024951Y015403D01*
X024951Y015451D02*
X024637Y015451D01*
X024637Y015500D02*
X024951Y015500D01*
X024951Y015548D02*
X024637Y015548D01*
X024637Y015597D02*
X024951Y015597D01*
X024951Y015645D02*
X024637Y015645D01*
X024637Y012763D02*
X024637Y012291D01*
X024951Y012291D01*
X024951Y012763D01*
X024637Y012763D01*
X024637Y012735D02*
X024951Y012735D01*
X024951Y012687D02*
X024637Y012687D01*
X024637Y012638D02*
X024951Y012638D01*
X024951Y012590D02*
X024637Y012590D01*
X024637Y012541D02*
X024951Y012541D01*
X024951Y012493D02*
X024637Y012493D01*
X024637Y012444D02*
X024951Y012444D01*
X024951Y012396D02*
X024637Y012396D01*
X024637Y012347D02*
X024951Y012347D01*
X024951Y012299D02*
X024637Y012299D01*
X024794Y012299D02*
X024243Y012299D01*
X024243Y012291D02*
X024794Y012291D01*
X024794Y012763D01*
X024243Y012763D01*
X024243Y012291D01*
X024243Y012347D02*
X024794Y012347D01*
X024794Y012396D02*
X024243Y012396D01*
X024243Y012444D02*
X024794Y012444D01*
X024794Y012493D02*
X024243Y012493D01*
X024243Y012541D02*
X024794Y012541D01*
X024794Y012590D02*
X024243Y012590D01*
X024243Y012638D02*
X024794Y012638D01*
X024794Y012687D02*
X024243Y012687D01*
X024243Y012735D02*
X024794Y012735D01*
X024715Y009771D02*
X024164Y009771D01*
X024164Y009298D01*
X024715Y009298D01*
X024715Y009771D01*
X024715Y009728D02*
X024164Y009728D01*
X024164Y009680D02*
X024715Y009680D01*
X024715Y009631D02*
X024164Y009631D01*
X024164Y009583D02*
X024715Y009583D01*
X024715Y009534D02*
X024164Y009534D01*
X024164Y009486D02*
X024715Y009486D01*
X024715Y009437D02*
X024164Y009437D01*
X024164Y009389D02*
X024715Y009389D01*
X024715Y009340D02*
X024164Y009340D01*
X024637Y009340D02*
X024951Y009340D01*
X024951Y009298D02*
X024951Y009771D01*
X024637Y009771D01*
X024637Y009298D01*
X024951Y009298D01*
X024951Y009389D02*
X024637Y009389D01*
X024637Y009437D02*
X024951Y009437D01*
X024951Y009486D02*
X024637Y009486D01*
X024637Y009534D02*
X024951Y009534D01*
X024951Y009583D02*
X024637Y009583D01*
X024637Y009631D02*
X024951Y009631D01*
X024951Y009680D02*
X024637Y009680D01*
X024637Y009728D02*
X024951Y009728D01*
X024951Y008865D02*
X024400Y008865D01*
X024400Y008393D01*
X024951Y008393D01*
X024951Y008865D01*
X024951Y008855D02*
X024400Y008855D01*
X024400Y008807D02*
X024951Y008807D01*
X024951Y008758D02*
X024400Y008758D01*
X024400Y008710D02*
X024951Y008710D01*
X024951Y008661D02*
X024400Y008661D01*
X024400Y008613D02*
X024951Y008613D01*
X024951Y008564D02*
X024400Y008564D01*
X024400Y008516D02*
X024951Y008516D01*
X024951Y008467D02*
X024400Y008467D01*
X024400Y008419D02*
X024951Y008419D01*
X024479Y008419D02*
X024164Y008419D01*
X024164Y008393D02*
X024164Y008865D01*
X024479Y008865D01*
X024479Y008393D01*
X024164Y008393D01*
X024164Y008467D02*
X024479Y008467D01*
X024479Y008516D02*
X024164Y008516D01*
X024164Y008564D02*
X024479Y008564D01*
X024479Y008613D02*
X024164Y008613D01*
X024164Y008661D02*
X024479Y008661D01*
X024479Y008710D02*
X024164Y008710D01*
X024164Y008758D02*
X024479Y008758D01*
X024479Y008807D02*
X024164Y008807D01*
X024164Y008855D02*
X024479Y008855D01*
X024479Y005873D02*
X024164Y005873D01*
X024164Y005401D01*
X024479Y005401D01*
X024479Y005873D01*
X024479Y005848D02*
X024164Y005848D01*
X024164Y005800D02*
X024479Y005800D01*
X024479Y005751D02*
X024164Y005751D01*
X024164Y005703D02*
X024479Y005703D01*
X024479Y005654D02*
X024164Y005654D01*
X024164Y005606D02*
X024479Y005606D01*
X024479Y005557D02*
X024164Y005557D01*
X024164Y005509D02*
X024479Y005509D01*
X024479Y005460D02*
X024164Y005460D01*
X024164Y005412D02*
X024479Y005412D01*
X024322Y005412D02*
X024873Y005412D01*
X024873Y005401D02*
X024873Y005873D01*
X024322Y005873D01*
X024322Y005401D01*
X024873Y005401D01*
X024873Y005460D02*
X024322Y005460D01*
X024322Y005509D02*
X024873Y005509D01*
X024873Y005557D02*
X024322Y005557D01*
X024322Y005606D02*
X024873Y005606D01*
X024873Y005654D02*
X024322Y005654D01*
X024322Y005703D02*
X024873Y005703D01*
X024873Y005751D02*
X024322Y005751D01*
X024322Y005800D02*
X024873Y005800D01*
X024873Y005848D02*
X024322Y005848D01*
X024400Y002960D02*
X024400Y002487D01*
X024951Y002487D01*
X024951Y002960D01*
X024400Y002960D01*
X024400Y002938D02*
X024951Y002938D01*
X024951Y002890D02*
X024400Y002890D01*
X024400Y002841D02*
X024951Y002841D01*
X024951Y002793D02*
X024400Y002793D01*
X024400Y002744D02*
X024951Y002744D01*
X024951Y002696D02*
X024400Y002696D01*
X024400Y002647D02*
X024951Y002647D01*
X024951Y002599D02*
X024400Y002599D01*
X024400Y002550D02*
X024951Y002550D01*
X024951Y002502D02*
X024400Y002502D01*
X024479Y002502D02*
X024164Y002502D01*
X024164Y002487D02*
X024164Y002960D01*
X024479Y002960D01*
X024479Y002487D01*
X024164Y002487D01*
X024164Y002550D02*
X024479Y002550D01*
X024479Y002599D02*
X024164Y002599D01*
X024164Y002647D02*
X024479Y002647D01*
X024479Y002696D02*
X024164Y002696D01*
X024164Y002744D02*
X024479Y002744D01*
X024479Y002793D02*
X024164Y002793D01*
X024164Y002841D02*
X024479Y002841D01*
X024479Y002890D02*
X024164Y002890D01*
X024164Y002938D02*
X024479Y002938D01*
X017865Y002938D02*
X017314Y002938D01*
X017314Y002960D02*
X017314Y002487D01*
X017865Y002487D01*
X017865Y002960D01*
X017314Y002960D01*
X017314Y002890D02*
X017865Y002890D01*
X017865Y002841D02*
X017314Y002841D01*
X017314Y002793D02*
X017865Y002793D01*
X017865Y002744D02*
X017314Y002744D01*
X017314Y002696D02*
X017865Y002696D01*
X017865Y002647D02*
X017314Y002647D01*
X017314Y002599D02*
X017865Y002599D01*
X017865Y002550D02*
X017314Y002550D01*
X017314Y002502D02*
X017865Y002502D01*
X017392Y002502D02*
X017077Y002502D01*
X017077Y002487D02*
X017077Y002960D01*
X017392Y002960D01*
X017392Y002487D01*
X017077Y002487D01*
X017077Y002550D02*
X017392Y002550D01*
X017392Y002599D02*
X017077Y002599D01*
X017077Y002647D02*
X017392Y002647D01*
X017392Y002696D02*
X017077Y002696D01*
X017077Y002744D02*
X017392Y002744D01*
X017392Y002793D02*
X017077Y002793D01*
X017077Y002841D02*
X017392Y002841D01*
X017392Y002890D02*
X017077Y002890D01*
X017077Y002938D02*
X017392Y002938D01*
X017392Y005401D02*
X017077Y005401D01*
X017077Y005873D01*
X017392Y005873D01*
X017392Y005401D01*
X017392Y005412D02*
X017077Y005412D01*
X017077Y005460D02*
X017392Y005460D01*
X017392Y005509D02*
X017077Y005509D01*
X017077Y005557D02*
X017392Y005557D01*
X017392Y005606D02*
X017077Y005606D01*
X017077Y005654D02*
X017392Y005654D01*
X017392Y005703D02*
X017077Y005703D01*
X017077Y005751D02*
X017392Y005751D01*
X017392Y005800D02*
X017077Y005800D01*
X017077Y005848D02*
X017392Y005848D01*
X017235Y005848D02*
X017786Y005848D01*
X017786Y005873D02*
X017235Y005873D01*
X017235Y005401D01*
X017786Y005401D01*
X017786Y005873D01*
X017786Y005800D02*
X017235Y005800D01*
X017235Y005751D02*
X017786Y005751D01*
X017786Y005703D02*
X017235Y005703D01*
X017235Y005654D02*
X017786Y005654D01*
X017786Y005606D02*
X017235Y005606D01*
X017235Y005557D02*
X017786Y005557D01*
X017786Y005509D02*
X017235Y005509D01*
X017235Y005460D02*
X017786Y005460D01*
X017786Y005412D02*
X017235Y005412D01*
X017314Y008393D02*
X017314Y008865D01*
X017865Y008865D01*
X017865Y008393D01*
X017314Y008393D01*
X017314Y008419D02*
X017865Y008419D01*
X017865Y008467D02*
X017314Y008467D01*
X017314Y008516D02*
X017865Y008516D01*
X017865Y008564D02*
X017314Y008564D01*
X017314Y008613D02*
X017865Y008613D01*
X017865Y008661D02*
X017314Y008661D01*
X017314Y008710D02*
X017865Y008710D01*
X017865Y008758D02*
X017314Y008758D01*
X017314Y008807D02*
X017865Y008807D01*
X017865Y008855D02*
X017314Y008855D01*
X017392Y008855D02*
X017077Y008855D01*
X017077Y008865D02*
X017077Y008393D01*
X017392Y008393D01*
X017392Y008865D01*
X017077Y008865D01*
X017077Y008807D02*
X017392Y008807D01*
X017392Y008758D02*
X017077Y008758D01*
X017077Y008710D02*
X017392Y008710D01*
X017392Y008661D02*
X017077Y008661D01*
X017077Y008613D02*
X017392Y008613D01*
X017392Y008564D02*
X017077Y008564D01*
X017077Y008516D02*
X017392Y008516D01*
X017392Y008467D02*
X017077Y008467D01*
X017077Y008419D02*
X017392Y008419D01*
X017550Y009298D02*
X017865Y009298D01*
X017865Y009771D01*
X017550Y009771D01*
X017550Y009298D01*
X017550Y009340D02*
X017865Y009340D01*
X017865Y009389D02*
X017550Y009389D01*
X017550Y009437D02*
X017865Y009437D01*
X017865Y009486D02*
X017550Y009486D01*
X017550Y009534D02*
X017865Y009534D01*
X017865Y009583D02*
X017550Y009583D01*
X017550Y009631D02*
X017865Y009631D01*
X017865Y009680D02*
X017550Y009680D01*
X017550Y009728D02*
X017865Y009728D01*
X017629Y009728D02*
X017077Y009728D01*
X017077Y009771D02*
X017077Y009298D01*
X017629Y009298D01*
X017629Y009771D01*
X017077Y009771D01*
X017077Y009680D02*
X017629Y009680D01*
X017629Y009631D02*
X017077Y009631D01*
X017077Y009583D02*
X017629Y009583D01*
X017629Y009534D02*
X017077Y009534D01*
X017077Y009486D02*
X017629Y009486D01*
X017629Y009437D02*
X017077Y009437D01*
X017077Y009389D02*
X017629Y009389D01*
X017629Y009340D02*
X017077Y009340D01*
X017156Y012291D02*
X017707Y012291D01*
X017707Y012763D01*
X017156Y012763D01*
X017156Y012291D01*
X017156Y012299D02*
X017707Y012299D01*
X017707Y012347D02*
X017156Y012347D01*
X017156Y012396D02*
X017707Y012396D01*
X017707Y012444D02*
X017156Y012444D01*
X017156Y012493D02*
X017707Y012493D01*
X017707Y012541D02*
X017156Y012541D01*
X017156Y012590D02*
X017707Y012590D01*
X017707Y012638D02*
X017156Y012638D01*
X017156Y012687D02*
X017707Y012687D01*
X017707Y012735D02*
X017156Y012735D01*
X017550Y012735D02*
X017865Y012735D01*
X017865Y012763D02*
X017865Y012291D01*
X017550Y012291D01*
X017550Y012763D01*
X017865Y012763D01*
X017865Y012687D02*
X017550Y012687D01*
X017550Y012638D02*
X017865Y012638D01*
X017865Y012590D02*
X017550Y012590D01*
X017550Y012541D02*
X017865Y012541D01*
X017865Y012493D02*
X017550Y012493D01*
X017550Y012444D02*
X017865Y012444D01*
X017865Y012396D02*
X017550Y012396D01*
X017550Y012347D02*
X017865Y012347D01*
X017865Y012299D02*
X017550Y012299D01*
X017550Y015204D02*
X017865Y015204D01*
X017865Y015676D01*
X017550Y015676D01*
X017550Y015204D01*
X017550Y015209D02*
X017865Y015209D01*
X017865Y015257D02*
X017550Y015257D01*
X017550Y015306D02*
X017865Y015306D01*
X017865Y015354D02*
X017550Y015354D01*
X017550Y015403D02*
X017865Y015403D01*
X017865Y015451D02*
X017550Y015451D01*
X017550Y015500D02*
X017865Y015500D01*
X017865Y015548D02*
X017550Y015548D01*
X017550Y015597D02*
X017865Y015597D01*
X017865Y015645D02*
X017550Y015645D01*
X017629Y015645D02*
X017077Y015645D01*
X017077Y015676D02*
X017077Y015204D01*
X017629Y015204D01*
X017629Y015676D01*
X017077Y015676D01*
X017077Y015597D02*
X017629Y015597D01*
X017629Y015548D02*
X017077Y015548D01*
X017077Y015500D02*
X017629Y015500D01*
X017629Y015451D02*
X017077Y015451D01*
X017077Y015403D02*
X017629Y015403D01*
X017629Y015354D02*
X017077Y015354D01*
X017077Y015306D02*
X017629Y015306D01*
X017629Y015257D02*
X017077Y015257D01*
X017077Y015209D02*
X017629Y015209D01*
X017865Y016070D02*
X017314Y016070D01*
X017314Y016543D01*
X017865Y016543D01*
X017865Y016070D01*
X017865Y016082D02*
X017314Y016082D01*
X017314Y016130D02*
X017865Y016130D01*
X017865Y016179D02*
X017314Y016179D01*
X017314Y016227D02*
X017865Y016227D01*
X017865Y016276D02*
X017314Y016276D01*
X017314Y016324D02*
X017865Y016324D01*
X017865Y016373D02*
X017314Y016373D01*
X017314Y016421D02*
X017865Y016421D01*
X017865Y016470D02*
X017314Y016470D01*
X017314Y016518D02*
X017865Y016518D01*
X017392Y016518D02*
X017077Y016518D01*
X017077Y016543D02*
X017077Y016070D01*
X017392Y016070D01*
X017392Y016543D01*
X017077Y016543D01*
X017077Y016470D02*
X017392Y016470D01*
X017392Y016421D02*
X017077Y016421D01*
X017077Y016373D02*
X017392Y016373D01*
X017392Y016324D02*
X017077Y016324D01*
X017077Y016276D02*
X017392Y016276D01*
X017392Y016227D02*
X017077Y016227D01*
X017077Y016179D02*
X017392Y016179D01*
X017392Y016130D02*
X017077Y016130D01*
X017077Y016082D02*
X017392Y016082D01*
X017392Y018983D02*
X017077Y018983D01*
X017077Y019456D01*
X017392Y019456D01*
X017392Y018983D01*
X017392Y018992D02*
X017077Y018992D01*
X017077Y019040D02*
X017392Y019040D01*
X017392Y019089D02*
X017077Y019089D01*
X017077Y019137D02*
X017392Y019137D01*
X017392Y019186D02*
X017077Y019186D01*
X017077Y019234D02*
X017392Y019234D01*
X017392Y019283D02*
X017077Y019283D01*
X017077Y019331D02*
X017392Y019331D01*
X017392Y019380D02*
X017077Y019380D01*
X017077Y019428D02*
X017392Y019428D01*
X017235Y019428D02*
X017786Y019428D01*
X017786Y019456D02*
X017235Y019456D01*
X017235Y018983D01*
X017786Y018983D01*
X017786Y019456D01*
X017786Y019380D02*
X017235Y019380D01*
X017235Y019331D02*
X017786Y019331D01*
X017786Y019283D02*
X017235Y019283D01*
X017235Y019234D02*
X017786Y019234D01*
X017786Y019186D02*
X017235Y019186D01*
X017235Y019137D02*
X017786Y019137D01*
X017786Y019089D02*
X017235Y019089D01*
X017235Y019040D02*
X017786Y019040D01*
X017786Y018992D02*
X017235Y018992D01*
X017314Y021976D02*
X017314Y022448D01*
X017865Y022448D01*
X017865Y021976D01*
X017314Y021976D01*
X017314Y021999D02*
X017865Y021999D01*
X017865Y022047D02*
X017314Y022047D01*
X017314Y022096D02*
X017865Y022096D01*
X017865Y022144D02*
X017314Y022144D01*
X017314Y022193D02*
X017865Y022193D01*
X017865Y022241D02*
X017314Y022241D01*
X017314Y022290D02*
X017865Y022290D01*
X017865Y022338D02*
X017314Y022338D01*
X017314Y022387D02*
X017865Y022387D01*
X017865Y022435D02*
X017314Y022435D01*
X017392Y022435D02*
X017077Y022435D01*
X017077Y022448D02*
X017077Y021976D01*
X017392Y021976D01*
X017392Y022448D01*
X017077Y022448D01*
X017077Y022387D02*
X017392Y022387D01*
X017392Y022338D02*
X017077Y022338D01*
X017077Y022290D02*
X017392Y022290D01*
X017392Y022241D02*
X017077Y022241D01*
X017077Y022193D02*
X017392Y022193D01*
X017392Y022144D02*
X017077Y022144D01*
X017077Y022096D02*
X017392Y022096D01*
X017392Y022047D02*
X017077Y022047D01*
X017077Y021999D02*
X017392Y021999D01*
X017550Y022783D02*
X017865Y022783D01*
X017865Y023255D01*
X017550Y023255D01*
X017550Y022783D01*
X017550Y022823D02*
X017865Y022823D01*
X017865Y022872D02*
X017550Y022872D01*
X017550Y022920D02*
X017865Y022920D01*
X017865Y022969D02*
X017550Y022969D01*
X017550Y023017D02*
X017865Y023017D01*
X017865Y023066D02*
X017550Y023066D01*
X017550Y023114D02*
X017865Y023114D01*
X017865Y023163D02*
X017550Y023163D01*
X017550Y023211D02*
X017865Y023211D01*
X017629Y023211D02*
X017077Y023211D01*
X017077Y023255D02*
X017077Y022783D01*
X017629Y022783D01*
X017629Y023255D01*
X017077Y023255D01*
X017077Y023163D02*
X017629Y023163D01*
X017629Y023114D02*
X017077Y023114D01*
X017077Y023066D02*
X017629Y023066D01*
X017629Y023017D02*
X017077Y023017D01*
X017077Y022969D02*
X017629Y022969D01*
X017629Y022920D02*
X017077Y022920D01*
X017077Y022872D02*
X017629Y022872D01*
X017629Y022823D02*
X017077Y022823D01*
X017156Y025775D02*
X017707Y025775D01*
X017707Y026247D01*
X017156Y026247D01*
X017156Y025775D01*
X017156Y025782D02*
X017707Y025782D01*
X017707Y025830D02*
X017156Y025830D01*
X017156Y025879D02*
X017707Y025879D01*
X017707Y025927D02*
X017156Y025927D01*
X017156Y025976D02*
X017707Y025976D01*
X017707Y026024D02*
X017156Y026024D01*
X017156Y026073D02*
X017707Y026073D01*
X017707Y026121D02*
X017156Y026121D01*
X017156Y026170D02*
X017707Y026170D01*
X017707Y026218D02*
X017156Y026218D01*
X017550Y026218D02*
X017865Y026218D01*
X017865Y026247D02*
X017865Y025775D01*
X017550Y025775D01*
X017550Y026247D01*
X017865Y026247D01*
X017865Y026170D02*
X017550Y026170D01*
X017550Y026121D02*
X017865Y026121D01*
X017865Y026073D02*
X017550Y026073D01*
X017550Y026024D02*
X017865Y026024D01*
X017865Y025976D02*
X017550Y025976D01*
X017550Y025927D02*
X017865Y025927D01*
X017865Y025879D02*
X017550Y025879D01*
X017550Y025830D02*
X017865Y025830D01*
X017865Y025782D02*
X017550Y025782D01*
X017550Y028688D02*
X017865Y028688D01*
X017865Y029161D01*
X017550Y029161D01*
X017550Y028688D01*
X017550Y028692D02*
X017865Y028692D01*
X017865Y028740D02*
X017550Y028740D01*
X017550Y028789D02*
X017865Y028789D01*
X017865Y028837D02*
X017550Y028837D01*
X017550Y028886D02*
X017865Y028886D01*
X017865Y028934D02*
X017550Y028934D01*
X017550Y028983D02*
X017865Y028983D01*
X017865Y029031D02*
X017550Y029031D01*
X017550Y029080D02*
X017865Y029080D01*
X017865Y029128D02*
X017550Y029128D01*
X017629Y029128D02*
X017077Y029128D01*
X017077Y029161D02*
X017077Y028688D01*
X017629Y028688D01*
X017629Y029161D01*
X017077Y029161D01*
X017077Y029080D02*
X017629Y029080D01*
X017629Y029031D02*
X017077Y029031D01*
X017077Y028983D02*
X017629Y028983D01*
X017629Y028934D02*
X017077Y028934D01*
X017077Y028886D02*
X017629Y028886D01*
X017629Y028837D02*
X017077Y028837D01*
X017077Y028789D02*
X017629Y028789D01*
X017629Y028740D02*
X017077Y028740D01*
X017077Y028692D02*
X017629Y028692D01*
X024164Y028692D02*
X024715Y028692D01*
X024715Y028688D02*
X024715Y029161D01*
X024164Y029161D01*
X024164Y028688D01*
X024715Y028688D01*
X024715Y028740D02*
X024164Y028740D01*
X024164Y028789D02*
X024715Y028789D01*
X024715Y028837D02*
X024164Y028837D01*
X024164Y028886D02*
X024715Y028886D01*
X024715Y028934D02*
X024164Y028934D01*
X024164Y028983D02*
X024715Y028983D01*
X024715Y029031D02*
X024164Y029031D01*
X024164Y029080D02*
X024715Y029080D01*
X024715Y029128D02*
X024164Y029128D01*
X024637Y029128D02*
X024951Y029128D01*
X024951Y029161D02*
X024951Y028688D01*
X024637Y028688D01*
X024637Y029161D01*
X024951Y029161D01*
X024951Y029080D02*
X024637Y029080D01*
X024637Y029031D02*
X024951Y029031D01*
X024951Y028983D02*
X024637Y028983D01*
X024637Y028934D02*
X024951Y028934D01*
X024951Y028886D02*
X024637Y028886D01*
X024637Y028837D02*
X024951Y028837D01*
X024951Y028789D02*
X024637Y028789D01*
X024637Y028740D02*
X024951Y028740D01*
X024951Y028692D02*
X024637Y028692D01*
X024637Y026247D02*
X024637Y025775D01*
X024951Y025775D01*
X024951Y026247D01*
X024637Y026247D01*
X024637Y026218D02*
X024951Y026218D01*
X024951Y026170D02*
X024637Y026170D01*
X024637Y026121D02*
X024951Y026121D01*
X024951Y026073D02*
X024637Y026073D01*
X024637Y026024D02*
X024951Y026024D01*
X024951Y025976D02*
X024637Y025976D01*
X024637Y025927D02*
X024951Y025927D01*
X024951Y025879D02*
X024637Y025879D01*
X024637Y025830D02*
X024951Y025830D01*
X024951Y025782D02*
X024637Y025782D01*
X024794Y025782D02*
X024243Y025782D01*
X024243Y025775D02*
X024794Y025775D01*
X024794Y026247D01*
X024243Y026247D01*
X024243Y025775D01*
X024243Y025830D02*
X024794Y025830D01*
X024794Y025879D02*
X024243Y025879D01*
X024243Y025927D02*
X024794Y025927D01*
X024794Y025976D02*
X024243Y025976D01*
X024243Y026024D02*
X024794Y026024D01*
X024794Y026073D02*
X024243Y026073D01*
X024243Y026121D02*
X024794Y026121D01*
X024794Y026170D02*
X024243Y026170D01*
X024243Y026218D02*
X024794Y026218D01*
X031329Y026218D02*
X031881Y026218D01*
X031881Y026247D02*
X031881Y025775D01*
X031329Y025775D01*
X031329Y026247D01*
X031881Y026247D01*
X031881Y026170D02*
X031329Y026170D01*
X031329Y026121D02*
X031881Y026121D01*
X031881Y026073D02*
X031329Y026073D01*
X031329Y026024D02*
X031881Y026024D01*
X031881Y025976D02*
X031329Y025976D01*
X031329Y025927D02*
X031881Y025927D01*
X031881Y025879D02*
X031329Y025879D01*
X031329Y025830D02*
X031881Y025830D01*
X031881Y025782D02*
X031329Y025782D01*
X031251Y023255D02*
X031251Y022783D01*
X031802Y022783D01*
X031802Y023255D01*
X031251Y023255D01*
X031251Y023211D02*
X031802Y023211D01*
X031802Y023163D02*
X031251Y023163D01*
X031251Y023114D02*
X031802Y023114D01*
X031802Y023066D02*
X031251Y023066D01*
X031251Y023017D02*
X031802Y023017D01*
X031802Y022969D02*
X031251Y022969D01*
X031251Y022920D02*
X031802Y022920D01*
X031802Y022872D02*
X031251Y022872D01*
X031251Y022823D02*
X031802Y022823D01*
X031566Y022448D02*
X031251Y022448D01*
X031251Y021976D01*
X031566Y021976D01*
X031566Y022448D01*
X031566Y022435D02*
X031251Y022435D01*
X031251Y022387D02*
X031566Y022387D01*
X031566Y022338D02*
X031251Y022338D01*
X031251Y022290D02*
X031566Y022290D01*
X031566Y022241D02*
X031251Y022241D01*
X031251Y022193D02*
X031566Y022193D01*
X031566Y022144D02*
X031251Y022144D01*
X031251Y022096D02*
X031566Y022096D01*
X031566Y022047D02*
X031251Y022047D01*
X031251Y021999D02*
X031566Y021999D01*
X031566Y019456D02*
X031251Y019456D01*
X031251Y018983D01*
X031566Y018983D01*
X031566Y019456D01*
X031566Y019428D02*
X031251Y019428D01*
X031251Y019380D02*
X031566Y019380D01*
X031566Y019331D02*
X031251Y019331D01*
X031251Y019283D02*
X031566Y019283D01*
X031566Y019234D02*
X031251Y019234D01*
X031251Y019186D02*
X031566Y019186D01*
X031566Y019137D02*
X031251Y019137D01*
X031251Y019089D02*
X031566Y019089D01*
X031566Y019040D02*
X031251Y019040D01*
X031251Y018992D02*
X031566Y018992D01*
X031566Y016543D02*
X031251Y016543D01*
X031251Y016070D01*
X031566Y016070D01*
X031566Y016543D01*
X031566Y016518D02*
X031251Y016518D01*
X031251Y016470D02*
X031566Y016470D01*
X031566Y016421D02*
X031251Y016421D01*
X031251Y016373D02*
X031566Y016373D01*
X031566Y016324D02*
X031251Y016324D01*
X031251Y016276D02*
X031566Y016276D01*
X031566Y016227D02*
X031251Y016227D01*
X031251Y016179D02*
X031566Y016179D01*
X031566Y016130D02*
X031251Y016130D01*
X031251Y016082D02*
X031566Y016082D01*
X031802Y015676D02*
X031251Y015676D01*
X031251Y015204D01*
X031802Y015204D01*
X031802Y015676D01*
X031802Y015645D02*
X031251Y015645D01*
X031251Y015597D02*
X031802Y015597D01*
X031802Y015548D02*
X031251Y015548D01*
X031251Y015500D02*
X031802Y015500D01*
X031802Y015451D02*
X031251Y015451D01*
X031251Y015403D02*
X031802Y015403D01*
X031802Y015354D02*
X031251Y015354D01*
X031251Y015306D02*
X031802Y015306D01*
X031802Y015257D02*
X031251Y015257D01*
X031251Y015209D02*
X031802Y015209D01*
X031881Y012763D02*
X031329Y012763D01*
X031329Y012291D01*
X031881Y012291D01*
X031881Y012763D01*
X031881Y012735D02*
X031329Y012735D01*
X031329Y012687D02*
X031881Y012687D01*
X031881Y012638D02*
X031329Y012638D01*
X031329Y012590D02*
X031881Y012590D01*
X031881Y012541D02*
X031329Y012541D01*
X031329Y012493D02*
X031881Y012493D01*
X031881Y012444D02*
X031329Y012444D01*
X031329Y012396D02*
X031881Y012396D01*
X031881Y012347D02*
X031329Y012347D01*
X031329Y012299D02*
X031881Y012299D01*
X031802Y009771D02*
X031251Y009771D01*
X031251Y009298D01*
X031802Y009298D01*
X031802Y009771D01*
X031802Y009728D02*
X031251Y009728D01*
X031251Y009680D02*
X031802Y009680D01*
X031802Y009631D02*
X031251Y009631D01*
X031251Y009583D02*
X031802Y009583D01*
X031802Y009534D02*
X031251Y009534D01*
X031251Y009486D02*
X031802Y009486D01*
X031802Y009437D02*
X031251Y009437D01*
X031251Y009389D02*
X031802Y009389D01*
X031802Y009340D02*
X031251Y009340D01*
X031251Y008865D02*
X031251Y008393D01*
X031566Y008393D01*
X031566Y008865D01*
X031251Y008865D01*
X031251Y008855D02*
X031566Y008855D01*
X031566Y008807D02*
X031251Y008807D01*
X031251Y008758D02*
X031566Y008758D01*
X031566Y008710D02*
X031251Y008710D01*
X031251Y008661D02*
X031566Y008661D01*
X031566Y008613D02*
X031251Y008613D01*
X031251Y008564D02*
X031566Y008564D01*
X031566Y008516D02*
X031251Y008516D01*
X031251Y008467D02*
X031566Y008467D01*
X031566Y008419D02*
X031251Y008419D01*
X031251Y005873D02*
X031251Y005401D01*
X031566Y005401D01*
X031566Y005873D01*
X031251Y005873D01*
X031251Y005848D02*
X031566Y005848D01*
X031566Y005800D02*
X031251Y005800D01*
X031251Y005751D02*
X031566Y005751D01*
X031566Y005703D02*
X031251Y005703D01*
X031251Y005654D02*
X031566Y005654D01*
X031566Y005606D02*
X031251Y005606D01*
X031251Y005557D02*
X031566Y005557D01*
X031566Y005509D02*
X031251Y005509D01*
X031251Y005460D02*
X031566Y005460D01*
X031566Y005412D02*
X031251Y005412D01*
X031251Y002960D02*
X031251Y002487D01*
X031566Y002487D01*
X031566Y002960D01*
X031251Y002960D01*
X031251Y002938D02*
X031566Y002938D01*
X031566Y002890D02*
X031251Y002890D01*
X031251Y002841D02*
X031566Y002841D01*
X031566Y002793D02*
X031251Y002793D01*
X031251Y002744D02*
X031566Y002744D01*
X031566Y002696D02*
X031251Y002696D01*
X031251Y002647D02*
X031566Y002647D01*
X031566Y002599D02*
X031251Y002599D01*
X031251Y002550D02*
X031566Y002550D01*
X031566Y002502D02*
X031251Y002502D01*
X010778Y002502D02*
X010227Y002502D01*
X010227Y002487D02*
X010227Y002960D01*
X010778Y002960D01*
X010778Y002487D01*
X010227Y002487D01*
X010227Y002550D02*
X010778Y002550D01*
X010778Y002599D02*
X010227Y002599D01*
X010227Y002647D02*
X010778Y002647D01*
X010778Y002696D02*
X010227Y002696D01*
X010227Y002744D02*
X010778Y002744D01*
X010778Y002793D02*
X010227Y002793D01*
X010227Y002841D02*
X010778Y002841D01*
X010778Y002890D02*
X010227Y002890D01*
X010227Y002938D02*
X010778Y002938D01*
X010306Y002938D02*
X009991Y002938D01*
X009991Y002960D02*
X009991Y002487D01*
X010306Y002487D01*
X010306Y002960D01*
X009991Y002960D01*
X009991Y002890D02*
X010306Y002890D01*
X010306Y002841D02*
X009991Y002841D01*
X009991Y002793D02*
X010306Y002793D01*
X010306Y002744D02*
X009991Y002744D01*
X009991Y002696D02*
X010306Y002696D01*
X010306Y002647D02*
X009991Y002647D01*
X009991Y002599D02*
X010306Y002599D01*
X010306Y002550D02*
X009991Y002550D01*
X009991Y002502D02*
X010306Y002502D01*
X010306Y005401D02*
X009991Y005401D01*
X009991Y005873D01*
X010306Y005873D01*
X010306Y005401D01*
X010306Y005412D02*
X009991Y005412D01*
X009991Y005460D02*
X010306Y005460D01*
X010306Y005509D02*
X009991Y005509D01*
X009991Y005557D02*
X010306Y005557D01*
X010306Y005606D02*
X009991Y005606D01*
X009991Y005654D02*
X010306Y005654D01*
X010306Y005703D02*
X009991Y005703D01*
X009991Y005751D02*
X010306Y005751D01*
X010306Y005800D02*
X009991Y005800D01*
X009991Y005848D02*
X010306Y005848D01*
X010148Y005848D02*
X010700Y005848D01*
X010700Y005873D02*
X010148Y005873D01*
X010148Y005401D01*
X010700Y005401D01*
X010700Y005873D01*
X010700Y005800D02*
X010148Y005800D01*
X010148Y005751D02*
X010700Y005751D01*
X010700Y005703D02*
X010148Y005703D01*
X010148Y005654D02*
X010700Y005654D01*
X010700Y005606D02*
X010148Y005606D01*
X010148Y005557D02*
X010700Y005557D01*
X010700Y005509D02*
X010148Y005509D01*
X010148Y005460D02*
X010700Y005460D01*
X010700Y005412D02*
X010148Y005412D01*
X010227Y008393D02*
X010227Y008865D01*
X010778Y008865D01*
X010778Y008393D01*
X010227Y008393D01*
X010227Y008419D02*
X010778Y008419D01*
X010778Y008467D02*
X010227Y008467D01*
X010227Y008516D02*
X010778Y008516D01*
X010778Y008564D02*
X010227Y008564D01*
X010227Y008613D02*
X010778Y008613D01*
X010778Y008661D02*
X010227Y008661D01*
X010227Y008710D02*
X010778Y008710D01*
X010778Y008758D02*
X010227Y008758D01*
X010227Y008807D02*
X010778Y008807D01*
X010778Y008855D02*
X010227Y008855D01*
X010306Y008855D02*
X009991Y008855D01*
X009991Y008865D02*
X009991Y008393D01*
X010306Y008393D01*
X010306Y008865D01*
X009991Y008865D01*
X009991Y008807D02*
X010306Y008807D01*
X010306Y008758D02*
X009991Y008758D01*
X009991Y008710D02*
X010306Y008710D01*
X010306Y008661D02*
X009991Y008661D01*
X009991Y008613D02*
X010306Y008613D01*
X010306Y008564D02*
X009991Y008564D01*
X009991Y008516D02*
X010306Y008516D01*
X010306Y008467D02*
X009991Y008467D01*
X009991Y008419D02*
X010306Y008419D01*
X010463Y009298D02*
X010778Y009298D01*
X010778Y009771D01*
X010463Y009771D01*
X010463Y009298D01*
X010463Y009340D02*
X010778Y009340D01*
X010778Y009389D02*
X010463Y009389D01*
X010463Y009437D02*
X010778Y009437D01*
X010778Y009486D02*
X010463Y009486D01*
X010463Y009534D02*
X010778Y009534D01*
X010778Y009583D02*
X010463Y009583D01*
X010463Y009631D02*
X010778Y009631D01*
X010778Y009680D02*
X010463Y009680D01*
X010463Y009728D02*
X010778Y009728D01*
X010542Y009728D02*
X009991Y009728D01*
X009991Y009771D02*
X009991Y009298D01*
X010542Y009298D01*
X010542Y009771D01*
X009991Y009771D01*
X009991Y009680D02*
X010542Y009680D01*
X010542Y009631D02*
X009991Y009631D01*
X009991Y009583D02*
X010542Y009583D01*
X010542Y009534D02*
X009991Y009534D01*
X009991Y009486D02*
X010542Y009486D01*
X010542Y009437D02*
X009991Y009437D01*
X009991Y009389D02*
X010542Y009389D01*
X010542Y009340D02*
X009991Y009340D01*
X010070Y012291D02*
X010621Y012291D01*
X010621Y012763D01*
X010070Y012763D01*
X010070Y012291D01*
X010070Y012299D02*
X010621Y012299D01*
X010621Y012347D02*
X010070Y012347D01*
X010070Y012396D02*
X010621Y012396D01*
X010621Y012444D02*
X010070Y012444D01*
X010070Y012493D02*
X010621Y012493D01*
X010621Y012541D02*
X010070Y012541D01*
X010070Y012590D02*
X010621Y012590D01*
X010621Y012638D02*
X010070Y012638D01*
X010070Y012687D02*
X010621Y012687D01*
X010621Y012735D02*
X010070Y012735D01*
X010463Y012735D02*
X010778Y012735D01*
X010778Y012763D02*
X010778Y012291D01*
X010463Y012291D01*
X010463Y012763D01*
X010778Y012763D01*
X010778Y012687D02*
X010463Y012687D01*
X010463Y012638D02*
X010778Y012638D01*
X010778Y012590D02*
X010463Y012590D01*
X010463Y012541D02*
X010778Y012541D01*
X010778Y012493D02*
X010463Y012493D01*
X010463Y012444D02*
X010778Y012444D01*
X010778Y012396D02*
X010463Y012396D01*
X010463Y012347D02*
X010778Y012347D01*
X010778Y012299D02*
X010463Y012299D01*
X010463Y015204D02*
X010778Y015204D01*
X010778Y015676D01*
X010463Y015676D01*
X010463Y015204D01*
X010463Y015209D02*
X010778Y015209D01*
X010778Y015257D02*
X010463Y015257D01*
X010463Y015306D02*
X010778Y015306D01*
X010778Y015354D02*
X010463Y015354D01*
X010463Y015403D02*
X010778Y015403D01*
X010778Y015451D02*
X010463Y015451D01*
X010463Y015500D02*
X010778Y015500D01*
X010778Y015548D02*
X010463Y015548D01*
X010463Y015597D02*
X010778Y015597D01*
X010778Y015645D02*
X010463Y015645D01*
X010542Y015645D02*
X009991Y015645D01*
X009991Y015676D02*
X009991Y015204D01*
X010542Y015204D01*
X010542Y015676D01*
X009991Y015676D01*
X009991Y015597D02*
X010542Y015597D01*
X010542Y015548D02*
X009991Y015548D01*
X009991Y015500D02*
X010542Y015500D01*
X010542Y015451D02*
X009991Y015451D01*
X009991Y015403D02*
X010542Y015403D01*
X010542Y015354D02*
X009991Y015354D01*
X009991Y015306D02*
X010542Y015306D01*
X010542Y015257D02*
X009991Y015257D01*
X009991Y015209D02*
X010542Y015209D01*
X010306Y016070D02*
X009991Y016070D01*
X009991Y016543D01*
X010306Y016543D01*
X010306Y016070D01*
X010306Y016082D02*
X009991Y016082D01*
X009991Y016130D02*
X010306Y016130D01*
X010306Y016179D02*
X009991Y016179D01*
X009991Y016227D02*
X010306Y016227D01*
X010306Y016276D02*
X009991Y016276D01*
X009991Y016324D02*
X010306Y016324D01*
X010306Y016373D02*
X009991Y016373D01*
X009991Y016421D02*
X010306Y016421D01*
X010306Y016470D02*
X009991Y016470D01*
X009991Y016518D02*
X010306Y016518D01*
X010227Y016518D02*
X010778Y016518D01*
X010778Y016543D02*
X010227Y016543D01*
X010227Y016070D01*
X010778Y016070D01*
X010778Y016543D01*
X010778Y016470D02*
X010227Y016470D01*
X010227Y016421D02*
X010778Y016421D01*
X010778Y016373D02*
X010227Y016373D01*
X010227Y016324D02*
X010778Y016324D01*
X010778Y016276D02*
X010227Y016276D01*
X010227Y016227D02*
X010778Y016227D01*
X010778Y016179D02*
X010227Y016179D01*
X010227Y016130D02*
X010778Y016130D01*
X010778Y016082D02*
X010227Y016082D01*
X010148Y018983D02*
X010148Y019456D01*
X010700Y019456D01*
X010700Y018983D01*
X010148Y018983D01*
X010148Y018992D02*
X010700Y018992D01*
X010700Y019040D02*
X010148Y019040D01*
X010148Y019089D02*
X010700Y019089D01*
X010700Y019137D02*
X010148Y019137D01*
X010148Y019186D02*
X010700Y019186D01*
X010700Y019234D02*
X010148Y019234D01*
X010148Y019283D02*
X010700Y019283D01*
X010700Y019331D02*
X010148Y019331D01*
X010148Y019380D02*
X010700Y019380D01*
X010700Y019428D02*
X010148Y019428D01*
X009991Y019428D02*
X010306Y019428D01*
X010306Y019456D02*
X009991Y019456D01*
X009991Y018983D01*
X010306Y018983D01*
X010306Y019456D01*
X010306Y019380D02*
X009991Y019380D01*
X009991Y019331D02*
X010306Y019331D01*
X010306Y019283D02*
X009991Y019283D01*
X009991Y019234D02*
X010306Y019234D01*
X010306Y019186D02*
X009991Y019186D01*
X009991Y019137D02*
X010306Y019137D01*
X010306Y019089D02*
X009991Y019089D01*
X009991Y019040D02*
X010306Y019040D01*
X010306Y018992D02*
X009991Y018992D01*
X009991Y021976D02*
X009991Y022448D01*
X010306Y022448D01*
X010306Y021976D01*
X009991Y021976D01*
X009991Y021999D02*
X010306Y021999D01*
X010306Y022047D02*
X009991Y022047D01*
X009991Y022096D02*
X010306Y022096D01*
X010306Y022144D02*
X009991Y022144D01*
X009991Y022193D02*
X010306Y022193D01*
X010306Y022241D02*
X009991Y022241D01*
X009991Y022290D02*
X010306Y022290D01*
X010306Y022338D02*
X009991Y022338D01*
X009991Y022387D02*
X010306Y022387D01*
X010306Y022435D02*
X009991Y022435D01*
X010227Y022435D02*
X010778Y022435D01*
X010778Y022448D02*
X010227Y022448D01*
X010227Y021976D01*
X010778Y021976D01*
X010778Y022448D01*
X010778Y022387D02*
X010227Y022387D01*
X010227Y022338D02*
X010778Y022338D01*
X010778Y022290D02*
X010227Y022290D01*
X010227Y022241D02*
X010778Y022241D01*
X010778Y022193D02*
X010227Y022193D01*
X010227Y022144D02*
X010778Y022144D01*
X010778Y022096D02*
X010227Y022096D01*
X010227Y022047D02*
X010778Y022047D01*
X010778Y021999D02*
X010227Y021999D01*
X009991Y022783D02*
X010542Y022783D01*
X010542Y023255D01*
X009991Y023255D01*
X009991Y022783D01*
X009991Y022823D02*
X010542Y022823D01*
X010542Y022872D02*
X009991Y022872D01*
X009991Y022920D02*
X010542Y022920D01*
X010542Y022969D02*
X009991Y022969D01*
X009991Y023017D02*
X010542Y023017D01*
X010542Y023066D02*
X009991Y023066D01*
X009991Y023114D02*
X010542Y023114D01*
X010542Y023163D02*
X009991Y023163D01*
X009991Y023211D02*
X010542Y023211D01*
X010463Y023211D02*
X010778Y023211D01*
X010778Y023255D02*
X010778Y022783D01*
X010463Y022783D01*
X010463Y023255D01*
X010778Y023255D01*
X010778Y023163D02*
X010463Y023163D01*
X010463Y023114D02*
X010778Y023114D01*
X010778Y023066D02*
X010463Y023066D01*
X010463Y023017D02*
X010778Y023017D01*
X010778Y022969D02*
X010463Y022969D01*
X010463Y022920D02*
X010778Y022920D01*
X010778Y022872D02*
X010463Y022872D01*
X010463Y022823D02*
X010778Y022823D01*
X010778Y025775D02*
X010463Y025775D01*
X010463Y026247D01*
X010778Y026247D01*
X010778Y025775D01*
X010778Y025782D02*
X010463Y025782D01*
X010463Y025830D02*
X010778Y025830D01*
X010778Y025879D02*
X010463Y025879D01*
X010463Y025927D02*
X010778Y025927D01*
X010778Y025976D02*
X010463Y025976D01*
X010463Y026024D02*
X010778Y026024D01*
X010778Y026073D02*
X010463Y026073D01*
X010463Y026121D02*
X010778Y026121D01*
X010778Y026170D02*
X010463Y026170D01*
X010463Y026218D02*
X010778Y026218D01*
X010621Y026218D02*
X010070Y026218D01*
X010070Y026247D02*
X010070Y025775D01*
X010621Y025775D01*
X010621Y026247D01*
X010070Y026247D01*
X010070Y026170D02*
X010621Y026170D01*
X010621Y026121D02*
X010070Y026121D01*
X010070Y026073D02*
X010621Y026073D01*
X010621Y026024D02*
X010070Y026024D01*
X010070Y025976D02*
X010621Y025976D01*
X010621Y025927D02*
X010070Y025927D01*
X010070Y025879D02*
X010621Y025879D01*
X010621Y025830D02*
X010070Y025830D01*
X010070Y025782D02*
X010621Y025782D01*
X010542Y028688D02*
X009991Y028688D01*
X009991Y029161D01*
X010542Y029161D01*
X010542Y028688D01*
X010542Y028692D02*
X009991Y028692D01*
X009991Y028740D02*
X010542Y028740D01*
X010542Y028789D02*
X009991Y028789D01*
X009991Y028837D02*
X010542Y028837D01*
X010542Y028886D02*
X009991Y028886D01*
X009991Y028934D02*
X010542Y028934D01*
X010542Y028983D02*
X009991Y028983D01*
X009991Y029031D02*
X010542Y029031D01*
X010542Y029080D02*
X009991Y029080D01*
X009991Y029128D02*
X010542Y029128D01*
X010463Y029128D02*
X010778Y029128D01*
X010778Y029161D02*
X010778Y028688D01*
X010463Y028688D01*
X010463Y029161D01*
X010778Y029161D01*
X010778Y029080D02*
X010463Y029080D01*
X010463Y029031D02*
X010778Y029031D01*
X010778Y028983D02*
X010463Y028983D01*
X010463Y028934D02*
X010778Y028934D01*
X010778Y028886D02*
X010463Y028886D01*
X010463Y028837D02*
X010778Y028837D01*
X010778Y028789D02*
X010463Y028789D01*
X010463Y028740D02*
X010778Y028740D01*
X010778Y028692D02*
X010463Y028692D01*
X003692Y028692D02*
X003377Y028692D01*
X003377Y028688D02*
X003692Y028688D01*
X003692Y029161D01*
X003377Y029161D01*
X003377Y028688D01*
X003377Y028740D02*
X003692Y028740D01*
X003692Y028789D02*
X003377Y028789D01*
X003377Y028837D02*
X003692Y028837D01*
X003692Y028886D02*
X003377Y028886D01*
X003377Y028934D02*
X003692Y028934D01*
X003692Y028983D02*
X003377Y028983D01*
X003377Y029031D02*
X003692Y029031D01*
X003692Y029080D02*
X003377Y029080D01*
X003377Y029128D02*
X003692Y029128D01*
X003692Y026247D02*
X003377Y026247D01*
X003377Y025775D01*
X003692Y025775D01*
X003692Y026247D01*
X003692Y026218D02*
X003377Y026218D01*
X003377Y026170D02*
X003692Y026170D01*
X003692Y026121D02*
X003377Y026121D01*
X003377Y026073D02*
X003692Y026073D01*
X003692Y026024D02*
X003377Y026024D01*
X003377Y025976D02*
X003692Y025976D01*
X003692Y025927D02*
X003377Y025927D01*
X003377Y025879D02*
X003692Y025879D01*
X003692Y025830D02*
X003377Y025830D01*
X003377Y025782D02*
X003692Y025782D01*
X003692Y023255D02*
X003377Y023255D01*
X003377Y022783D01*
X003692Y022783D01*
X003692Y023255D01*
X003692Y023211D02*
X003377Y023211D01*
X003377Y023163D02*
X003692Y023163D01*
X003692Y023114D02*
X003377Y023114D01*
X003377Y023066D02*
X003692Y023066D01*
X003692Y023017D02*
X003377Y023017D01*
X003377Y022969D02*
X003692Y022969D01*
X003692Y022920D02*
X003377Y022920D01*
X003377Y022872D02*
X003692Y022872D01*
X003692Y022823D02*
X003377Y022823D01*
X003140Y022448D02*
X003140Y021976D01*
X003692Y021976D01*
X003692Y022448D01*
X003140Y022448D01*
X003140Y022435D02*
X003692Y022435D01*
X003692Y022387D02*
X003140Y022387D01*
X003140Y022338D02*
X003692Y022338D01*
X003692Y022290D02*
X003140Y022290D01*
X003140Y022241D02*
X003692Y022241D01*
X003692Y022193D02*
X003140Y022193D01*
X003140Y022144D02*
X003692Y022144D01*
X003692Y022096D02*
X003140Y022096D01*
X003140Y022047D02*
X003692Y022047D01*
X003692Y021999D02*
X003140Y021999D01*
X003062Y019456D02*
X003062Y018983D01*
X003613Y018983D01*
X003613Y019456D01*
X003062Y019456D01*
X003062Y019428D02*
X003613Y019428D01*
X003613Y019380D02*
X003062Y019380D01*
X003062Y019331D02*
X003613Y019331D01*
X003613Y019283D02*
X003062Y019283D01*
X003062Y019234D02*
X003613Y019234D01*
X003613Y019186D02*
X003062Y019186D01*
X003062Y019137D02*
X003613Y019137D01*
X003613Y019089D02*
X003062Y019089D01*
X003062Y019040D02*
X003613Y019040D01*
X003613Y018992D02*
X003062Y018992D01*
X003140Y016543D02*
X003140Y016070D01*
X003692Y016070D01*
X003692Y016543D01*
X003140Y016543D01*
X003140Y016518D02*
X003692Y016518D01*
X003692Y016470D02*
X003140Y016470D01*
X003140Y016421D02*
X003692Y016421D01*
X003692Y016373D02*
X003140Y016373D01*
X003140Y016324D02*
X003692Y016324D01*
X003692Y016276D02*
X003140Y016276D01*
X003140Y016227D02*
X003692Y016227D01*
X003692Y016179D02*
X003140Y016179D01*
X003140Y016130D02*
X003692Y016130D01*
X003692Y016082D02*
X003140Y016082D01*
X003377Y015676D02*
X003377Y015204D01*
X003692Y015204D01*
X003692Y015676D01*
X003377Y015676D01*
X003377Y015645D02*
X003692Y015645D01*
X003692Y015597D02*
X003377Y015597D01*
X003377Y015548D02*
X003692Y015548D01*
X003692Y015500D02*
X003377Y015500D01*
X003377Y015451D02*
X003692Y015451D01*
X003692Y015403D02*
X003377Y015403D01*
X003377Y015354D02*
X003692Y015354D01*
X003692Y015306D02*
X003377Y015306D01*
X003377Y015257D02*
X003692Y015257D01*
X003692Y015209D02*
X003377Y015209D01*
X003377Y012763D02*
X003377Y012291D01*
X003692Y012291D01*
X003692Y012763D01*
X003377Y012763D01*
X003377Y012735D02*
X003692Y012735D01*
X003692Y012687D02*
X003377Y012687D01*
X003377Y012638D02*
X003692Y012638D01*
X003692Y012590D02*
X003377Y012590D01*
X003377Y012541D02*
X003692Y012541D01*
X003692Y012493D02*
X003377Y012493D01*
X003377Y012444D02*
X003692Y012444D01*
X003692Y012396D02*
X003377Y012396D01*
X003377Y012347D02*
X003692Y012347D01*
X003692Y012299D02*
X003377Y012299D01*
X003377Y009771D02*
X003377Y009298D01*
X003692Y009298D01*
X003692Y009771D01*
X003377Y009771D01*
X003377Y009728D02*
X003692Y009728D01*
X003692Y009680D02*
X003377Y009680D01*
X003377Y009631D02*
X003692Y009631D01*
X003692Y009583D02*
X003377Y009583D01*
X003377Y009534D02*
X003692Y009534D01*
X003692Y009486D02*
X003377Y009486D01*
X003377Y009437D02*
X003692Y009437D01*
X003692Y009389D02*
X003377Y009389D01*
X003377Y009340D02*
X003692Y009340D01*
X003692Y008865D02*
X003140Y008865D01*
X003140Y008393D01*
X003692Y008393D01*
X003692Y008865D01*
X003692Y008855D02*
X003140Y008855D01*
X003140Y008807D02*
X003692Y008807D01*
X003692Y008758D02*
X003140Y008758D01*
X003140Y008710D02*
X003692Y008710D01*
X003692Y008661D02*
X003140Y008661D01*
X003140Y008613D02*
X003692Y008613D01*
X003692Y008564D02*
X003140Y008564D01*
X003140Y008516D02*
X003692Y008516D01*
X003692Y008467D02*
X003140Y008467D01*
X003140Y008419D02*
X003692Y008419D01*
X003613Y005873D02*
X003062Y005873D01*
X003062Y005401D01*
X003613Y005401D01*
X003613Y005873D01*
X003613Y005848D02*
X003062Y005848D01*
X003062Y005800D02*
X003613Y005800D01*
X003613Y005751D02*
X003062Y005751D01*
X003062Y005703D02*
X003613Y005703D01*
X003613Y005654D02*
X003062Y005654D01*
X003062Y005606D02*
X003613Y005606D01*
X003613Y005557D02*
X003062Y005557D01*
X003062Y005509D02*
X003613Y005509D01*
X003613Y005460D02*
X003062Y005460D01*
X003062Y005412D02*
X003613Y005412D01*
X003692Y002960D02*
X003140Y002960D01*
X003140Y002487D01*
X003692Y002487D01*
X003692Y002960D01*
X003692Y002938D02*
X003140Y002938D01*
X003140Y002890D02*
X003692Y002890D01*
X003692Y002841D02*
X003140Y002841D01*
X003140Y002793D02*
X003692Y002793D01*
X003692Y002744D02*
X003140Y002744D01*
X003140Y002696D02*
X003692Y002696D01*
X003692Y002647D02*
X003140Y002647D01*
X003140Y002599D02*
X003692Y002599D01*
X003692Y002550D02*
X003140Y002550D01*
X003140Y002502D02*
X003692Y002502D01*
X031251Y028688D02*
X031802Y028688D01*
X031802Y029161D01*
X031251Y029161D01*
X031251Y028688D01*
X031251Y028692D02*
X031802Y028692D01*
X031802Y028740D02*
X031251Y028740D01*
X031251Y028789D02*
X031802Y028789D01*
X031802Y028837D02*
X031251Y028837D01*
X031251Y028886D02*
X031802Y028886D01*
X031802Y028934D02*
X031251Y028934D01*
X031251Y028983D02*
X031802Y028983D01*
X031802Y029031D02*
X031251Y029031D01*
X031251Y029080D02*
X031802Y029080D01*
X031802Y029128D02*
X031251Y029128D01*
D13*
X031644Y030046D03*
X003298Y030046D03*
X003298Y001700D03*
X031644Y001700D03*
D14*
X019967Y001705D02*
X019967Y001105D01*
X018967Y001105D02*
X018967Y001705D01*
X017967Y001705D02*
X017967Y001105D01*
D15*
X021113Y001385D03*
X021861Y001385D03*
X022727Y001365D03*
X023475Y001365D03*
M02*
