G75*
G70*
%OFA0B0*%
%FSLAX24Y24*%
%IPPOS*%
%LPD*%
%AMOC8*
5,1,8,0,0,1.08239X$1,22.5*
%
%ADD10C,0.0000*%
%ADD11C,0.0040*%
%ADD12R,0.0157X0.0157*%
%ADD13C,0.0079*%
%ADD14C,0.0060*%
%ADD15C,0.0010*%
D10*
X001723Y000125D02*
X001723Y031621D01*
X033219Y031621D01*
X033219Y000125D01*
X001723Y000125D01*
X002668Y001700D02*
X002670Y001750D01*
X002676Y001800D01*
X002686Y001849D01*
X002700Y001897D01*
X002717Y001944D01*
X002738Y001989D01*
X002763Y002033D01*
X002791Y002074D01*
X002823Y002113D01*
X002857Y002150D01*
X002894Y002184D01*
X002934Y002214D01*
X002976Y002241D01*
X003020Y002265D01*
X003066Y002286D01*
X003113Y002302D01*
X003161Y002315D01*
X003211Y002324D01*
X003260Y002329D01*
X003311Y002330D01*
X003361Y002327D01*
X003410Y002320D01*
X003459Y002309D01*
X003507Y002294D01*
X003553Y002276D01*
X003598Y002254D01*
X003641Y002228D01*
X003682Y002199D01*
X003721Y002167D01*
X003757Y002132D01*
X003789Y002094D01*
X003819Y002054D01*
X003846Y002011D01*
X003869Y001967D01*
X003888Y001921D01*
X003904Y001873D01*
X003916Y001824D01*
X003924Y001775D01*
X003928Y001725D01*
X003928Y001675D01*
X003924Y001625D01*
X003916Y001576D01*
X003904Y001527D01*
X003888Y001479D01*
X003869Y001433D01*
X003846Y001389D01*
X003819Y001346D01*
X003789Y001306D01*
X003757Y001268D01*
X003721Y001233D01*
X003682Y001201D01*
X003641Y001172D01*
X003598Y001146D01*
X003553Y001124D01*
X003507Y001106D01*
X003459Y001091D01*
X003410Y001080D01*
X003361Y001073D01*
X003311Y001070D01*
X003260Y001071D01*
X003211Y001076D01*
X003161Y001085D01*
X003113Y001098D01*
X003066Y001114D01*
X003020Y001135D01*
X002976Y001159D01*
X002934Y001186D01*
X002894Y001216D01*
X002857Y001250D01*
X002823Y001287D01*
X002791Y001326D01*
X002763Y001367D01*
X002738Y001411D01*
X002717Y001456D01*
X002700Y001503D01*
X002686Y001551D01*
X002676Y001600D01*
X002670Y001650D01*
X002668Y001700D01*
X003357Y002350D02*
X003357Y008924D01*
X010325Y008924D01*
X010325Y002350D01*
X003357Y002350D01*
X010444Y002350D02*
X010444Y008924D01*
X017412Y008924D01*
X017412Y002350D01*
X010444Y002350D01*
X017530Y002350D02*
X017530Y008924D01*
X024499Y008924D01*
X024499Y002350D01*
X017530Y002350D01*
X024617Y002350D02*
X024617Y008924D01*
X031585Y008924D01*
X031585Y002350D01*
X024617Y002350D01*
X031014Y001700D02*
X031016Y001750D01*
X031022Y001800D01*
X031032Y001849D01*
X031046Y001897D01*
X031063Y001944D01*
X031084Y001989D01*
X031109Y002033D01*
X031137Y002074D01*
X031169Y002113D01*
X031203Y002150D01*
X031240Y002184D01*
X031280Y002214D01*
X031322Y002241D01*
X031366Y002265D01*
X031412Y002286D01*
X031459Y002302D01*
X031507Y002315D01*
X031557Y002324D01*
X031606Y002329D01*
X031657Y002330D01*
X031707Y002327D01*
X031756Y002320D01*
X031805Y002309D01*
X031853Y002294D01*
X031899Y002276D01*
X031944Y002254D01*
X031987Y002228D01*
X032028Y002199D01*
X032067Y002167D01*
X032103Y002132D01*
X032135Y002094D01*
X032165Y002054D01*
X032192Y002011D01*
X032215Y001967D01*
X032234Y001921D01*
X032250Y001873D01*
X032262Y001824D01*
X032270Y001775D01*
X032274Y001725D01*
X032274Y001675D01*
X032270Y001625D01*
X032262Y001576D01*
X032250Y001527D01*
X032234Y001479D01*
X032215Y001433D01*
X032192Y001389D01*
X032165Y001346D01*
X032135Y001306D01*
X032103Y001268D01*
X032067Y001233D01*
X032028Y001201D01*
X031987Y001172D01*
X031944Y001146D01*
X031899Y001124D01*
X031853Y001106D01*
X031805Y001091D01*
X031756Y001080D01*
X031707Y001073D01*
X031657Y001070D01*
X031606Y001071D01*
X031557Y001076D01*
X031507Y001085D01*
X031459Y001098D01*
X031412Y001114D01*
X031366Y001135D01*
X031322Y001159D01*
X031280Y001186D01*
X031240Y001216D01*
X031203Y001250D01*
X031169Y001287D01*
X031137Y001326D01*
X031109Y001367D01*
X031084Y001411D01*
X031063Y001456D01*
X031046Y001503D01*
X031032Y001551D01*
X031022Y001600D01*
X031016Y001650D01*
X031014Y001700D01*
X031585Y009239D02*
X024617Y009239D01*
X024617Y015814D01*
X031585Y015814D01*
X031585Y009239D01*
X024499Y009239D02*
X024499Y015814D01*
X017530Y015814D01*
X017530Y009239D01*
X024499Y009239D01*
X024499Y015932D02*
X017530Y015932D01*
X017530Y022507D01*
X024499Y022507D01*
X024499Y015932D01*
X024617Y015932D02*
X024617Y022507D01*
X031585Y022507D01*
X031585Y015932D01*
X024617Y015932D01*
X024617Y022724D02*
X031585Y022724D01*
X031585Y029298D01*
X024617Y029298D01*
X024617Y022724D01*
X024499Y022724D02*
X024499Y029298D01*
X017530Y029298D01*
X017530Y022724D01*
X024499Y022724D01*
X017412Y022724D02*
X017412Y029298D01*
X010444Y029298D01*
X010444Y022724D01*
X017412Y022724D01*
X017412Y022507D02*
X010444Y022507D01*
X010444Y015932D01*
X017412Y015932D01*
X017412Y022507D01*
X010325Y022507D02*
X010325Y015932D01*
X003357Y015932D01*
X003357Y022507D01*
X010325Y022507D01*
X010325Y022724D02*
X010325Y029298D01*
X003357Y029298D01*
X003357Y022724D01*
X010325Y022724D01*
X010325Y015814D02*
X003357Y015814D01*
X003357Y009239D01*
X010325Y009239D01*
X010325Y015814D01*
X010444Y015814D02*
X010444Y009239D01*
X017412Y009239D01*
X017412Y015814D01*
X010444Y015814D01*
X002668Y030046D02*
X002670Y030096D01*
X002676Y030146D01*
X002686Y030195D01*
X002700Y030243D01*
X002717Y030290D01*
X002738Y030335D01*
X002763Y030379D01*
X002791Y030420D01*
X002823Y030459D01*
X002857Y030496D01*
X002894Y030530D01*
X002934Y030560D01*
X002976Y030587D01*
X003020Y030611D01*
X003066Y030632D01*
X003113Y030648D01*
X003161Y030661D01*
X003211Y030670D01*
X003260Y030675D01*
X003311Y030676D01*
X003361Y030673D01*
X003410Y030666D01*
X003459Y030655D01*
X003507Y030640D01*
X003553Y030622D01*
X003598Y030600D01*
X003641Y030574D01*
X003682Y030545D01*
X003721Y030513D01*
X003757Y030478D01*
X003789Y030440D01*
X003819Y030400D01*
X003846Y030357D01*
X003869Y030313D01*
X003888Y030267D01*
X003904Y030219D01*
X003916Y030170D01*
X003924Y030121D01*
X003928Y030071D01*
X003928Y030021D01*
X003924Y029971D01*
X003916Y029922D01*
X003904Y029873D01*
X003888Y029825D01*
X003869Y029779D01*
X003846Y029735D01*
X003819Y029692D01*
X003789Y029652D01*
X003757Y029614D01*
X003721Y029579D01*
X003682Y029547D01*
X003641Y029518D01*
X003598Y029492D01*
X003553Y029470D01*
X003507Y029452D01*
X003459Y029437D01*
X003410Y029426D01*
X003361Y029419D01*
X003311Y029416D01*
X003260Y029417D01*
X003211Y029422D01*
X003161Y029431D01*
X003113Y029444D01*
X003066Y029460D01*
X003020Y029481D01*
X002976Y029505D01*
X002934Y029532D01*
X002894Y029562D01*
X002857Y029596D01*
X002823Y029633D01*
X002791Y029672D01*
X002763Y029713D01*
X002738Y029757D01*
X002717Y029802D01*
X002700Y029849D01*
X002686Y029897D01*
X002676Y029946D01*
X002670Y029996D01*
X002668Y030046D01*
X031014Y030046D02*
X031016Y030096D01*
X031022Y030146D01*
X031032Y030195D01*
X031046Y030243D01*
X031063Y030290D01*
X031084Y030335D01*
X031109Y030379D01*
X031137Y030420D01*
X031169Y030459D01*
X031203Y030496D01*
X031240Y030530D01*
X031280Y030560D01*
X031322Y030587D01*
X031366Y030611D01*
X031412Y030632D01*
X031459Y030648D01*
X031507Y030661D01*
X031557Y030670D01*
X031606Y030675D01*
X031657Y030676D01*
X031707Y030673D01*
X031756Y030666D01*
X031805Y030655D01*
X031853Y030640D01*
X031899Y030622D01*
X031944Y030600D01*
X031987Y030574D01*
X032028Y030545D01*
X032067Y030513D01*
X032103Y030478D01*
X032135Y030440D01*
X032165Y030400D01*
X032192Y030357D01*
X032215Y030313D01*
X032234Y030267D01*
X032250Y030219D01*
X032262Y030170D01*
X032270Y030121D01*
X032274Y030071D01*
X032274Y030021D01*
X032270Y029971D01*
X032262Y029922D01*
X032250Y029873D01*
X032234Y029825D01*
X032215Y029779D01*
X032192Y029735D01*
X032165Y029692D01*
X032135Y029652D01*
X032103Y029614D01*
X032067Y029579D01*
X032028Y029547D01*
X031987Y029518D01*
X031944Y029492D01*
X031899Y029470D01*
X031853Y029452D01*
X031805Y029437D01*
X031756Y029426D01*
X031707Y029419D01*
X031657Y029416D01*
X031606Y029417D01*
X031557Y029422D01*
X031507Y029431D01*
X031459Y029444D01*
X031412Y029460D01*
X031366Y029481D01*
X031322Y029505D01*
X031280Y029532D01*
X031240Y029562D01*
X031203Y029596D01*
X031169Y029633D01*
X031137Y029672D01*
X031109Y029713D01*
X031084Y029757D01*
X031063Y029802D01*
X031046Y029849D01*
X031032Y029897D01*
X031022Y029946D01*
X031016Y029996D01*
X031014Y030046D01*
D11*
X029262Y027673D02*
X029262Y027212D01*
X028955Y027212D01*
X028802Y027212D02*
X028495Y027212D01*
X028341Y027212D02*
X028111Y027212D01*
X028034Y027289D01*
X028034Y027596D01*
X028111Y027673D01*
X028341Y027673D01*
X028341Y027212D01*
X028648Y027442D02*
X028802Y027442D01*
X028802Y027212D02*
X028802Y027673D01*
X028495Y027673D01*
X027881Y027519D02*
X027728Y027673D01*
X027728Y027212D01*
X027881Y027212D02*
X027574Y027212D01*
X027421Y027289D02*
X027344Y027212D01*
X027190Y027212D01*
X027114Y027289D01*
X027114Y027366D01*
X027190Y027442D01*
X027421Y027442D01*
X027421Y027289D01*
X027421Y027442D02*
X027267Y027596D01*
X027114Y027673D01*
X022176Y027673D02*
X022176Y027212D01*
X021869Y027212D01*
X021715Y027212D02*
X021408Y027212D01*
X021255Y027212D02*
X021025Y027212D01*
X020948Y027289D01*
X020948Y027596D01*
X021025Y027673D01*
X021255Y027673D01*
X021255Y027212D01*
X021562Y027442D02*
X021715Y027442D01*
X021715Y027212D02*
X021715Y027673D01*
X021408Y027673D01*
X020794Y027519D02*
X020641Y027673D01*
X020641Y027212D01*
X020794Y027212D02*
X020487Y027212D01*
X015089Y027212D02*
X014782Y027212D01*
X014629Y027212D02*
X014322Y027212D01*
X014168Y027212D02*
X013938Y027212D01*
X013861Y027289D01*
X013861Y027596D01*
X013938Y027673D01*
X014168Y027673D01*
X014168Y027212D01*
X014475Y027442D02*
X014629Y027442D01*
X014629Y027212D02*
X014629Y027673D01*
X014322Y027673D01*
X013708Y027596D02*
X013631Y027673D01*
X013478Y027673D01*
X013401Y027596D01*
X013401Y027519D01*
X013708Y027212D01*
X013401Y027212D01*
X015089Y027212D02*
X015089Y027673D01*
X008002Y027673D02*
X008002Y027212D01*
X007695Y027212D01*
X007542Y027212D02*
X007235Y027212D01*
X007082Y027212D02*
X006851Y027212D01*
X006775Y027289D01*
X006775Y027596D01*
X006851Y027673D01*
X007082Y027673D01*
X007082Y027212D01*
X007388Y027442D02*
X007542Y027442D01*
X007542Y027212D02*
X007542Y027673D01*
X007235Y027673D01*
X006621Y027596D02*
X006544Y027673D01*
X006391Y027673D01*
X006314Y027596D01*
X006314Y027519D01*
X006391Y027442D01*
X006314Y027366D01*
X006314Y027289D01*
X006391Y027212D01*
X006544Y027212D01*
X006621Y027289D01*
X006468Y027442D02*
X006391Y027442D01*
X006331Y018019D02*
X006254Y017942D01*
X006254Y017635D01*
X006331Y017559D01*
X006561Y017559D01*
X006561Y018019D01*
X006331Y018019D01*
X006101Y017789D02*
X005794Y017789D01*
X005870Y018019D02*
X006101Y017789D01*
X005870Y017559D02*
X005870Y018019D01*
X006714Y018019D02*
X007021Y018019D01*
X007021Y017559D01*
X006714Y017559D01*
X006868Y017789D02*
X007021Y017789D01*
X007175Y017559D02*
X007482Y017559D01*
X007482Y018019D01*
X007542Y014188D02*
X007235Y014188D01*
X007082Y014188D02*
X006851Y014188D01*
X006775Y014112D01*
X006775Y013805D01*
X006851Y013728D01*
X007082Y013728D01*
X007082Y014188D01*
X007388Y013958D02*
X007542Y013958D01*
X007542Y013728D02*
X007235Y013728D01*
X007542Y013728D02*
X007542Y014188D01*
X008002Y014188D02*
X008002Y013728D01*
X007695Y013728D01*
X006621Y013805D02*
X006544Y013728D01*
X006391Y013728D01*
X006314Y013805D01*
X006314Y014112D01*
X006391Y014188D01*
X006544Y014188D01*
X006621Y014112D01*
X006621Y014035D01*
X006544Y013958D01*
X006314Y013958D01*
X012880Y017635D02*
X012957Y017559D01*
X013110Y017559D01*
X013187Y017635D01*
X013341Y017635D02*
X013341Y017942D01*
X013417Y018019D01*
X013648Y018019D01*
X013648Y017559D01*
X013417Y017559D01*
X013341Y017635D01*
X013187Y017789D02*
X013034Y017866D01*
X012957Y017866D01*
X012880Y017789D01*
X012880Y017635D01*
X013187Y017789D02*
X013187Y018019D01*
X012880Y018019D01*
X013801Y018019D02*
X014108Y018019D01*
X014108Y017559D01*
X013801Y017559D01*
X013954Y017789D02*
X014108Y017789D01*
X014261Y017559D02*
X014568Y017559D01*
X014568Y018019D01*
X014629Y014188D02*
X014322Y014188D01*
X014168Y014188D02*
X013938Y014188D01*
X013861Y014112D01*
X013861Y013805D01*
X013938Y013728D01*
X014168Y013728D01*
X014168Y014188D01*
X014475Y013958D02*
X014629Y013958D01*
X014629Y013728D02*
X014322Y013728D01*
X014629Y013728D02*
X014629Y014188D01*
X014782Y013728D02*
X015089Y013728D01*
X015089Y014188D01*
X013708Y014112D02*
X013708Y014035D01*
X013631Y013958D01*
X013478Y013958D01*
X013401Y013881D01*
X013401Y013805D01*
X013478Y013728D01*
X013631Y013728D01*
X013708Y013805D01*
X013708Y013881D01*
X013631Y013958D01*
X013478Y013958D02*
X013401Y014035D01*
X013401Y014112D01*
X013478Y014188D01*
X013631Y014188D01*
X013708Y014112D01*
X019967Y017635D02*
X019967Y017712D01*
X020044Y017789D01*
X020274Y017789D01*
X020274Y017635D01*
X020197Y017559D01*
X020044Y017559D01*
X019967Y017635D01*
X020120Y017942D02*
X020274Y017789D01*
X020427Y017942D02*
X020504Y018019D01*
X020734Y018019D01*
X020734Y017559D01*
X020504Y017559D01*
X020427Y017635D01*
X020427Y017942D01*
X020120Y017942D02*
X019967Y018019D01*
X020888Y018019D02*
X021195Y018019D01*
X021195Y017559D01*
X020888Y017559D01*
X021041Y017789D02*
X021195Y017789D01*
X021348Y017559D02*
X021655Y017559D01*
X021655Y018019D01*
X021715Y014188D02*
X021408Y014188D01*
X021255Y014188D02*
X021255Y013728D01*
X021025Y013728D01*
X020948Y013805D01*
X020948Y014112D01*
X021025Y014188D01*
X021255Y014188D01*
X021562Y013958D02*
X021715Y013958D01*
X021715Y013728D02*
X021408Y013728D01*
X021715Y013728D02*
X021715Y014188D01*
X022176Y014188D02*
X022176Y013728D01*
X021869Y013728D01*
X020794Y013728D02*
X020794Y013805D01*
X020487Y014112D01*
X020487Y014188D01*
X020794Y014188D01*
X027114Y013958D02*
X027421Y013958D01*
X027190Y014188D01*
X027190Y013728D01*
X027574Y013728D02*
X027881Y013728D01*
X027728Y013728D02*
X027728Y014188D01*
X027881Y014035D01*
X028034Y014112D02*
X028034Y013805D01*
X028111Y013728D01*
X028341Y013728D01*
X028341Y014188D01*
X028111Y014188D01*
X028034Y014112D01*
X028495Y014188D02*
X028802Y014188D01*
X028802Y013728D01*
X028495Y013728D01*
X028648Y013958D02*
X028802Y013958D01*
X028955Y013728D02*
X029262Y013728D01*
X029262Y014188D01*
X029202Y017559D02*
X028895Y017559D01*
X028742Y017559D02*
X028435Y017559D01*
X028281Y017559D02*
X028281Y018019D01*
X028051Y018019D01*
X027974Y017942D01*
X027974Y017635D01*
X028051Y017559D01*
X028281Y017559D01*
X028588Y017789D02*
X028742Y017789D01*
X028742Y018019D02*
X028742Y017559D01*
X029202Y017559D02*
X029202Y018019D01*
X028742Y018019D02*
X028435Y018019D01*
X027821Y017866D02*
X027667Y018019D01*
X027667Y017559D01*
X027514Y017559D02*
X027821Y017559D01*
X027360Y017635D02*
X027284Y017559D01*
X027130Y017559D01*
X027053Y017635D01*
X027053Y017789D01*
X027130Y017866D01*
X027207Y017866D01*
X027360Y017789D01*
X027360Y018019D01*
X027053Y018019D01*
X027130Y004436D02*
X027053Y004360D01*
X027053Y004283D01*
X027130Y004206D01*
X027053Y004129D01*
X027053Y004053D01*
X027130Y003976D01*
X027284Y003976D01*
X027360Y004053D01*
X027514Y003976D02*
X027821Y003976D01*
X027667Y003976D02*
X027667Y004436D01*
X027821Y004283D01*
X027974Y004360D02*
X027974Y004053D01*
X028051Y003976D01*
X028281Y003976D01*
X028281Y004436D01*
X028051Y004436D01*
X027974Y004360D01*
X028435Y004436D02*
X028742Y004436D01*
X028742Y003976D01*
X028435Y003976D01*
X028588Y004206D02*
X028742Y004206D01*
X028895Y003976D02*
X029202Y003976D01*
X029202Y004436D01*
X027360Y004360D02*
X027284Y004436D01*
X027130Y004436D01*
X027130Y004206D02*
X027207Y004206D01*
X022115Y003976D02*
X021808Y003976D01*
X021655Y003976D02*
X021655Y004436D01*
X021348Y004436D01*
X021195Y004436D02*
X021195Y003976D01*
X020964Y003976D01*
X020888Y004053D01*
X020888Y004360D01*
X020964Y004436D01*
X021195Y004436D01*
X021501Y004206D02*
X021655Y004206D01*
X021655Y003976D02*
X021348Y003976D01*
X020734Y003976D02*
X020427Y003976D01*
X020274Y003976D02*
X019967Y004283D01*
X019967Y004360D01*
X020044Y004436D01*
X020197Y004436D01*
X020274Y004360D01*
X020581Y004436D02*
X020581Y003976D01*
X020274Y003976D02*
X019967Y003976D01*
X020581Y004436D02*
X020734Y004283D01*
X022115Y004436D02*
X022115Y003976D01*
X015029Y003976D02*
X014722Y003976D01*
X014568Y003976D02*
X014568Y004436D01*
X014261Y004436D01*
X014108Y004436D02*
X013878Y004436D01*
X013801Y004360D01*
X013801Y004053D01*
X013878Y003976D01*
X014108Y003976D01*
X014108Y004436D01*
X014415Y004206D02*
X014568Y004206D01*
X014568Y003976D02*
X014261Y003976D01*
X013648Y003976D02*
X013341Y003976D01*
X013494Y003976D02*
X013494Y004436D01*
X013648Y004283D01*
X013187Y004283D02*
X013034Y004436D01*
X013034Y003976D01*
X013187Y003976D02*
X012880Y003976D01*
X015029Y003976D02*
X015029Y004436D01*
X007942Y004436D02*
X007942Y003976D01*
X007635Y003976D01*
X007482Y003976D02*
X007175Y003976D01*
X007021Y003976D02*
X006791Y003976D01*
X006714Y004053D01*
X006714Y004360D01*
X006791Y004436D01*
X007021Y004436D01*
X007021Y003976D01*
X007328Y004206D02*
X007482Y004206D01*
X007482Y004436D02*
X007482Y003976D01*
X007482Y004436D02*
X007175Y004436D01*
X006561Y004283D02*
X006407Y004436D01*
X006407Y003976D01*
X006254Y003976D02*
X006561Y003976D01*
X006101Y004053D02*
X006101Y004360D01*
X006024Y004436D01*
X005870Y004436D01*
X005794Y004360D01*
X006101Y004053D01*
X006024Y003976D01*
X005870Y003976D01*
X005794Y004053D01*
X005794Y004360D01*
D12*
X006841Y005145D03*
X006841Y005637D03*
X006841Y006129D03*
X006841Y012035D03*
X006841Y012527D03*
X006841Y013019D03*
X006841Y018728D03*
X006841Y019220D03*
X006841Y019712D03*
X006841Y025519D03*
X006841Y026011D03*
X006841Y026503D03*
X013928Y026503D03*
X013928Y026011D03*
X013928Y025519D03*
X013928Y019712D03*
X013928Y019220D03*
X013928Y018728D03*
X013928Y013019D03*
X013928Y012527D03*
X013928Y012035D03*
X013928Y006129D03*
X013928Y005637D03*
X013928Y005145D03*
X021014Y005145D03*
X021014Y005637D03*
X021014Y006129D03*
X021014Y012035D03*
X021014Y012527D03*
X021014Y013019D03*
X021014Y018728D03*
X021014Y019220D03*
X021014Y019712D03*
X021014Y025519D03*
X021014Y026011D03*
X021014Y026503D03*
X028101Y026503D03*
X028101Y026011D03*
X028101Y025519D03*
X028101Y019712D03*
X028101Y019220D03*
X028101Y018728D03*
X028101Y013019D03*
X028101Y012527D03*
X028101Y012035D03*
X028101Y006129D03*
X028101Y005637D03*
X028101Y005145D03*
D13*
X026411Y004153D02*
X026413Y004179D01*
X026419Y004204D01*
X026428Y004228D01*
X026441Y004251D01*
X026457Y004271D01*
X026477Y004289D01*
X026498Y004304D01*
X026521Y004315D01*
X026546Y004323D01*
X026572Y004327D01*
X026598Y004327D01*
X026624Y004323D01*
X026649Y004315D01*
X026672Y004304D01*
X026693Y004289D01*
X026713Y004271D01*
X026729Y004251D01*
X026742Y004228D01*
X026751Y004204D01*
X026757Y004179D01*
X026759Y004153D01*
X026757Y004127D01*
X026751Y004102D01*
X026742Y004078D01*
X026729Y004055D01*
X026713Y004035D01*
X026693Y004017D01*
X026672Y004002D01*
X026649Y003991D01*
X026624Y003983D01*
X026598Y003979D01*
X026572Y003979D01*
X026546Y003983D01*
X026521Y003991D01*
X026498Y004002D01*
X026477Y004017D01*
X026457Y004035D01*
X026441Y004055D01*
X026428Y004078D01*
X026419Y004102D01*
X026413Y004127D01*
X026411Y004153D01*
X019325Y004153D02*
X019327Y004179D01*
X019333Y004204D01*
X019342Y004228D01*
X019355Y004251D01*
X019371Y004271D01*
X019391Y004289D01*
X019412Y004304D01*
X019435Y004315D01*
X019460Y004323D01*
X019486Y004327D01*
X019512Y004327D01*
X019538Y004323D01*
X019563Y004315D01*
X019586Y004304D01*
X019607Y004289D01*
X019627Y004271D01*
X019643Y004251D01*
X019656Y004228D01*
X019665Y004204D01*
X019671Y004179D01*
X019673Y004153D01*
X019671Y004127D01*
X019665Y004102D01*
X019656Y004078D01*
X019643Y004055D01*
X019627Y004035D01*
X019607Y004017D01*
X019586Y004002D01*
X019563Y003991D01*
X019538Y003983D01*
X019512Y003979D01*
X019486Y003979D01*
X019460Y003983D01*
X019435Y003991D01*
X019412Y004002D01*
X019391Y004017D01*
X019371Y004035D01*
X019355Y004055D01*
X019342Y004078D01*
X019333Y004102D01*
X019327Y004127D01*
X019325Y004153D01*
X012238Y004153D02*
X012240Y004179D01*
X012246Y004204D01*
X012255Y004228D01*
X012268Y004251D01*
X012284Y004271D01*
X012304Y004289D01*
X012325Y004304D01*
X012348Y004315D01*
X012373Y004323D01*
X012399Y004327D01*
X012425Y004327D01*
X012451Y004323D01*
X012476Y004315D01*
X012499Y004304D01*
X012520Y004289D01*
X012540Y004271D01*
X012556Y004251D01*
X012569Y004228D01*
X012578Y004204D01*
X012584Y004179D01*
X012586Y004153D01*
X012584Y004127D01*
X012578Y004102D01*
X012569Y004078D01*
X012556Y004055D01*
X012540Y004035D01*
X012520Y004017D01*
X012499Y004002D01*
X012476Y003991D01*
X012451Y003983D01*
X012425Y003979D01*
X012399Y003979D01*
X012373Y003983D01*
X012348Y003991D01*
X012325Y004002D01*
X012304Y004017D01*
X012284Y004035D01*
X012268Y004055D01*
X012255Y004078D01*
X012246Y004102D01*
X012240Y004127D01*
X012238Y004153D01*
X005151Y004153D02*
X005153Y004179D01*
X005159Y004204D01*
X005168Y004228D01*
X005181Y004251D01*
X005197Y004271D01*
X005217Y004289D01*
X005238Y004304D01*
X005261Y004315D01*
X005286Y004323D01*
X005312Y004327D01*
X005338Y004327D01*
X005364Y004323D01*
X005389Y004315D01*
X005412Y004304D01*
X005433Y004289D01*
X005453Y004271D01*
X005469Y004251D01*
X005482Y004228D01*
X005491Y004204D01*
X005497Y004179D01*
X005499Y004153D01*
X005497Y004127D01*
X005491Y004102D01*
X005482Y004078D01*
X005469Y004055D01*
X005453Y004035D01*
X005433Y004017D01*
X005412Y004002D01*
X005389Y003991D01*
X005364Y003983D01*
X005338Y003979D01*
X005312Y003979D01*
X005286Y003983D01*
X005261Y003991D01*
X005238Y004002D01*
X005217Y004017D01*
X005197Y004035D01*
X005181Y004055D01*
X005168Y004078D01*
X005159Y004102D01*
X005153Y004127D01*
X005151Y004153D01*
X008183Y014011D02*
X008185Y014037D01*
X008191Y014062D01*
X008200Y014086D01*
X008213Y014109D01*
X008229Y014129D01*
X008249Y014147D01*
X008270Y014162D01*
X008293Y014173D01*
X008318Y014181D01*
X008344Y014185D01*
X008370Y014185D01*
X008396Y014181D01*
X008421Y014173D01*
X008444Y014162D01*
X008465Y014147D01*
X008485Y014129D01*
X008501Y014109D01*
X008514Y014086D01*
X008523Y014062D01*
X008529Y014037D01*
X008531Y014011D01*
X008529Y013985D01*
X008523Y013960D01*
X008514Y013936D01*
X008501Y013913D01*
X008485Y013893D01*
X008465Y013875D01*
X008444Y013860D01*
X008421Y013849D01*
X008396Y013841D01*
X008370Y013837D01*
X008344Y013837D01*
X008318Y013841D01*
X008293Y013849D01*
X008270Y013860D01*
X008249Y013875D01*
X008229Y013893D01*
X008213Y013913D01*
X008200Y013936D01*
X008191Y013960D01*
X008185Y013985D01*
X008183Y014011D01*
X005151Y017735D02*
X005153Y017761D01*
X005159Y017786D01*
X005168Y017810D01*
X005181Y017833D01*
X005197Y017853D01*
X005217Y017871D01*
X005238Y017886D01*
X005261Y017897D01*
X005286Y017905D01*
X005312Y017909D01*
X005338Y017909D01*
X005364Y017905D01*
X005389Y017897D01*
X005412Y017886D01*
X005433Y017871D01*
X005453Y017853D01*
X005469Y017833D01*
X005482Y017810D01*
X005491Y017786D01*
X005497Y017761D01*
X005499Y017735D01*
X005497Y017709D01*
X005491Y017684D01*
X005482Y017660D01*
X005469Y017637D01*
X005453Y017617D01*
X005433Y017599D01*
X005412Y017584D01*
X005389Y017573D01*
X005364Y017565D01*
X005338Y017561D01*
X005312Y017561D01*
X005286Y017565D01*
X005261Y017573D01*
X005238Y017584D01*
X005217Y017599D01*
X005197Y017617D01*
X005181Y017637D01*
X005168Y017660D01*
X005159Y017684D01*
X005153Y017709D01*
X005151Y017735D01*
X012238Y017735D02*
X012240Y017761D01*
X012246Y017786D01*
X012255Y017810D01*
X012268Y017833D01*
X012284Y017853D01*
X012304Y017871D01*
X012325Y017886D01*
X012348Y017897D01*
X012373Y017905D01*
X012399Y017909D01*
X012425Y017909D01*
X012451Y017905D01*
X012476Y017897D01*
X012499Y017886D01*
X012520Y017871D01*
X012540Y017853D01*
X012556Y017833D01*
X012569Y017810D01*
X012578Y017786D01*
X012584Y017761D01*
X012586Y017735D01*
X012584Y017709D01*
X012578Y017684D01*
X012569Y017660D01*
X012556Y017637D01*
X012540Y017617D01*
X012520Y017599D01*
X012499Y017584D01*
X012476Y017573D01*
X012451Y017565D01*
X012425Y017561D01*
X012399Y017561D01*
X012373Y017565D01*
X012348Y017573D01*
X012325Y017584D01*
X012304Y017599D01*
X012284Y017617D01*
X012268Y017637D01*
X012255Y017660D01*
X012246Y017684D01*
X012240Y017709D01*
X012238Y017735D01*
X015270Y014011D02*
X015272Y014037D01*
X015278Y014062D01*
X015287Y014086D01*
X015300Y014109D01*
X015316Y014129D01*
X015336Y014147D01*
X015357Y014162D01*
X015380Y014173D01*
X015405Y014181D01*
X015431Y014185D01*
X015457Y014185D01*
X015483Y014181D01*
X015508Y014173D01*
X015531Y014162D01*
X015552Y014147D01*
X015572Y014129D01*
X015588Y014109D01*
X015601Y014086D01*
X015610Y014062D01*
X015616Y014037D01*
X015618Y014011D01*
X015616Y013985D01*
X015610Y013960D01*
X015601Y013936D01*
X015588Y013913D01*
X015572Y013893D01*
X015552Y013875D01*
X015531Y013860D01*
X015508Y013849D01*
X015483Y013841D01*
X015457Y013837D01*
X015431Y013837D01*
X015405Y013841D01*
X015380Y013849D01*
X015357Y013860D01*
X015336Y013875D01*
X015316Y013893D01*
X015300Y013913D01*
X015287Y013936D01*
X015278Y013960D01*
X015272Y013985D01*
X015270Y014011D01*
X019325Y017735D02*
X019327Y017761D01*
X019333Y017786D01*
X019342Y017810D01*
X019355Y017833D01*
X019371Y017853D01*
X019391Y017871D01*
X019412Y017886D01*
X019435Y017897D01*
X019460Y017905D01*
X019486Y017909D01*
X019512Y017909D01*
X019538Y017905D01*
X019563Y017897D01*
X019586Y017886D01*
X019607Y017871D01*
X019627Y017853D01*
X019643Y017833D01*
X019656Y017810D01*
X019665Y017786D01*
X019671Y017761D01*
X019673Y017735D01*
X019671Y017709D01*
X019665Y017684D01*
X019656Y017660D01*
X019643Y017637D01*
X019627Y017617D01*
X019607Y017599D01*
X019586Y017584D01*
X019563Y017573D01*
X019538Y017565D01*
X019512Y017561D01*
X019486Y017561D01*
X019460Y017565D01*
X019435Y017573D01*
X019412Y017584D01*
X019391Y017599D01*
X019371Y017617D01*
X019355Y017637D01*
X019342Y017660D01*
X019333Y017684D01*
X019327Y017709D01*
X019325Y017735D01*
X022356Y014011D02*
X022358Y014037D01*
X022364Y014062D01*
X022373Y014086D01*
X022386Y014109D01*
X022402Y014129D01*
X022422Y014147D01*
X022443Y014162D01*
X022466Y014173D01*
X022491Y014181D01*
X022517Y014185D01*
X022543Y014185D01*
X022569Y014181D01*
X022594Y014173D01*
X022617Y014162D01*
X022638Y014147D01*
X022658Y014129D01*
X022674Y014109D01*
X022687Y014086D01*
X022696Y014062D01*
X022702Y014037D01*
X022704Y014011D01*
X022702Y013985D01*
X022696Y013960D01*
X022687Y013936D01*
X022674Y013913D01*
X022658Y013893D01*
X022638Y013875D01*
X022617Y013860D01*
X022594Y013849D01*
X022569Y013841D01*
X022543Y013837D01*
X022517Y013837D01*
X022491Y013841D01*
X022466Y013849D01*
X022443Y013860D01*
X022422Y013875D01*
X022402Y013893D01*
X022386Y013913D01*
X022373Y013936D01*
X022364Y013960D01*
X022358Y013985D01*
X022356Y014011D01*
X026411Y017735D02*
X026413Y017761D01*
X026419Y017786D01*
X026428Y017810D01*
X026441Y017833D01*
X026457Y017853D01*
X026477Y017871D01*
X026498Y017886D01*
X026521Y017897D01*
X026546Y017905D01*
X026572Y017909D01*
X026598Y017909D01*
X026624Y017905D01*
X026649Y017897D01*
X026672Y017886D01*
X026693Y017871D01*
X026713Y017853D01*
X026729Y017833D01*
X026742Y017810D01*
X026751Y017786D01*
X026757Y017761D01*
X026759Y017735D01*
X026757Y017709D01*
X026751Y017684D01*
X026742Y017660D01*
X026729Y017637D01*
X026713Y017617D01*
X026693Y017599D01*
X026672Y017584D01*
X026649Y017573D01*
X026624Y017565D01*
X026598Y017561D01*
X026572Y017561D01*
X026546Y017565D01*
X026521Y017573D01*
X026498Y017584D01*
X026477Y017599D01*
X026457Y017617D01*
X026441Y017637D01*
X026428Y017660D01*
X026419Y017684D01*
X026413Y017709D01*
X026411Y017735D01*
X029443Y014011D02*
X029445Y014037D01*
X029451Y014062D01*
X029460Y014086D01*
X029473Y014109D01*
X029489Y014129D01*
X029509Y014147D01*
X029530Y014162D01*
X029553Y014173D01*
X029578Y014181D01*
X029604Y014185D01*
X029630Y014185D01*
X029656Y014181D01*
X029681Y014173D01*
X029704Y014162D01*
X029725Y014147D01*
X029745Y014129D01*
X029761Y014109D01*
X029774Y014086D01*
X029783Y014062D01*
X029789Y014037D01*
X029791Y014011D01*
X029789Y013985D01*
X029783Y013960D01*
X029774Y013936D01*
X029761Y013913D01*
X029745Y013893D01*
X029725Y013875D01*
X029704Y013860D01*
X029681Y013849D01*
X029656Y013841D01*
X029630Y013837D01*
X029604Y013837D01*
X029578Y013841D01*
X029553Y013849D01*
X029530Y013860D01*
X029509Y013875D01*
X029489Y013893D01*
X029473Y013913D01*
X029460Y013936D01*
X029451Y013960D01*
X029445Y013985D01*
X029443Y014011D01*
X029443Y027495D02*
X029445Y027521D01*
X029451Y027546D01*
X029460Y027570D01*
X029473Y027593D01*
X029489Y027613D01*
X029509Y027631D01*
X029530Y027646D01*
X029553Y027657D01*
X029578Y027665D01*
X029604Y027669D01*
X029630Y027669D01*
X029656Y027665D01*
X029681Y027657D01*
X029704Y027646D01*
X029725Y027631D01*
X029745Y027613D01*
X029761Y027593D01*
X029774Y027570D01*
X029783Y027546D01*
X029789Y027521D01*
X029791Y027495D01*
X029789Y027469D01*
X029783Y027444D01*
X029774Y027420D01*
X029761Y027397D01*
X029745Y027377D01*
X029725Y027359D01*
X029704Y027344D01*
X029681Y027333D01*
X029656Y027325D01*
X029630Y027321D01*
X029604Y027321D01*
X029578Y027325D01*
X029553Y027333D01*
X029530Y027344D01*
X029509Y027359D01*
X029489Y027377D01*
X029473Y027397D01*
X029460Y027420D01*
X029451Y027444D01*
X029445Y027469D01*
X029443Y027495D01*
X022356Y027495D02*
X022358Y027521D01*
X022364Y027546D01*
X022373Y027570D01*
X022386Y027593D01*
X022402Y027613D01*
X022422Y027631D01*
X022443Y027646D01*
X022466Y027657D01*
X022491Y027665D01*
X022517Y027669D01*
X022543Y027669D01*
X022569Y027665D01*
X022594Y027657D01*
X022617Y027646D01*
X022638Y027631D01*
X022658Y027613D01*
X022674Y027593D01*
X022687Y027570D01*
X022696Y027546D01*
X022702Y027521D01*
X022704Y027495D01*
X022702Y027469D01*
X022696Y027444D01*
X022687Y027420D01*
X022674Y027397D01*
X022658Y027377D01*
X022638Y027359D01*
X022617Y027344D01*
X022594Y027333D01*
X022569Y027325D01*
X022543Y027321D01*
X022517Y027321D01*
X022491Y027325D01*
X022466Y027333D01*
X022443Y027344D01*
X022422Y027359D01*
X022402Y027377D01*
X022386Y027397D01*
X022373Y027420D01*
X022364Y027444D01*
X022358Y027469D01*
X022356Y027495D01*
X015270Y027495D02*
X015272Y027521D01*
X015278Y027546D01*
X015287Y027570D01*
X015300Y027593D01*
X015316Y027613D01*
X015336Y027631D01*
X015357Y027646D01*
X015380Y027657D01*
X015405Y027665D01*
X015431Y027669D01*
X015457Y027669D01*
X015483Y027665D01*
X015508Y027657D01*
X015531Y027646D01*
X015552Y027631D01*
X015572Y027613D01*
X015588Y027593D01*
X015601Y027570D01*
X015610Y027546D01*
X015616Y027521D01*
X015618Y027495D01*
X015616Y027469D01*
X015610Y027444D01*
X015601Y027420D01*
X015588Y027397D01*
X015572Y027377D01*
X015552Y027359D01*
X015531Y027344D01*
X015508Y027333D01*
X015483Y027325D01*
X015457Y027321D01*
X015431Y027321D01*
X015405Y027325D01*
X015380Y027333D01*
X015357Y027344D01*
X015336Y027359D01*
X015316Y027377D01*
X015300Y027397D01*
X015287Y027420D01*
X015278Y027444D01*
X015272Y027469D01*
X015270Y027495D01*
X008183Y027495D02*
X008185Y027521D01*
X008191Y027546D01*
X008200Y027570D01*
X008213Y027593D01*
X008229Y027613D01*
X008249Y027631D01*
X008270Y027646D01*
X008293Y027657D01*
X008318Y027665D01*
X008344Y027669D01*
X008370Y027669D01*
X008396Y027665D01*
X008421Y027657D01*
X008444Y027646D01*
X008465Y027631D01*
X008485Y027613D01*
X008501Y027593D01*
X008514Y027570D01*
X008523Y027546D01*
X008529Y027521D01*
X008531Y027495D01*
X008529Y027469D01*
X008523Y027444D01*
X008514Y027420D01*
X008501Y027397D01*
X008485Y027377D01*
X008465Y027359D01*
X008444Y027344D01*
X008421Y027333D01*
X008396Y027325D01*
X008370Y027321D01*
X008344Y027321D01*
X008318Y027325D01*
X008293Y027333D01*
X008270Y027344D01*
X008249Y027359D01*
X008229Y027377D01*
X008213Y027397D01*
X008200Y027420D01*
X008191Y027444D01*
X008185Y027469D01*
X008183Y027495D01*
D14*
X020538Y016523D02*
X020538Y016106D01*
X020538Y015682D02*
X020538Y015284D01*
X021055Y015284D01*
X021058Y015737D02*
X021058Y016075D01*
X021055Y016523D02*
X020538Y016523D01*
D15*
X020618Y015161D02*
X020618Y015061D01*
X020693Y015136D01*
X020543Y015136D01*
X020568Y015014D02*
X020543Y014989D01*
X020543Y014939D01*
X020568Y014914D01*
X020668Y014914D01*
X020693Y014939D01*
X020693Y014989D01*
X020668Y015014D01*
X020693Y014866D02*
X020693Y014816D01*
X020693Y014841D02*
X020543Y014841D01*
X020543Y014816D02*
X020543Y014866D01*
M02*
