%
M48
M72
T01C0.0236
T02C0.0315
T03C0.0400
T04C0.1260
%
T01
X20778Y15440
X20778Y15913
X20778Y16405
T02
X21955Y17019
X21955Y17728
X22979Y18594
X23137Y19224
X22979Y19854
X21955Y20720
X21955Y21428
X20144Y20720
X19514Y20720
X18885Y20720
X18888Y20086
X18810Y19220
X18259Y19220
X18885Y18357
X18885Y17728
X19514Y17728
X20144Y17728
X20074Y14728
X20074Y14019
X19050Y13153
X18892Y12523
X19050Y11893
X20074Y11027
X20074Y10318
X21885Y11027
X22514Y11027
X23144Y11027
X23140Y11661
X23219Y12527
X23770Y12527
X23144Y13389
X23144Y14019
X22514Y14019
X21885Y14019
X26137Y13153
X25979Y12523
X26137Y11893
X27160Y11027
X27160Y10318
X28971Y11027
X29601Y11027
X30231Y11027
X30227Y11661
X30306Y12527
X30857Y12527
X30231Y13389
X30231Y14019
X29601Y14019
X28971Y14019
X27160Y14019
X27160Y14728
X29042Y17019
X29042Y17728
X30066Y18594
X30223Y19224
X30066Y19854
X29042Y20720
X29042Y21428
X27231Y20720
X26601Y20720
X25971Y20720
X25975Y20086
X25896Y19220
X25345Y19220
X25971Y18357
X25971Y17728
X26601Y17728
X27231Y17728
X27160Y23802
X27160Y24511
X26137Y25377
X25979Y26007
X26137Y26637
X27160Y27503
X27160Y28212
X28971Y27503
X29601Y27503
X30231Y27503
X30231Y26873
X30306Y26011
X30857Y26011
X30227Y25145
X30231Y24511
X29601Y24511
X28971Y24511
X23770Y26011
X23219Y26011
X23140Y25145
X23144Y24511
X22514Y24511
X21885Y24511
X20074Y24511
X20074Y23802
X19050Y25377
X18892Y26007
X19050Y26637
X20074Y27503
X20074Y28212
X21885Y27503
X22514Y27503
X23144Y27503
X23144Y26873
X16684Y26011
X16133Y26011
X16054Y25145
X16058Y24511
X15428Y24511
X14798Y24511
X12987Y24511
X12987Y23802
X11963Y25377
X11806Y26007
X11963Y26637
X12987Y27503
X12987Y28212
X14798Y27503
X15428Y27503
X16058Y27503
X16058Y26873
X14869Y21428
X14869Y20720
X15892Y19854
X16050Y19224
X15892Y18594
X14869Y17728
X14869Y17019
X13058Y17728
X12428Y17728
X11798Y17728
X11798Y18357
X11723Y19220
X11172Y19220
X11802Y20086
X11798Y20720
X12428Y20720
X13058Y20720
X8806Y19854
X8963Y19224
X8806Y18594
X7782Y17728
X7782Y17019
X5971Y17728
X5341Y17728
X4711Y17728
X4711Y18357
X4637Y19220
X4085Y19220
X4715Y20086
X4711Y20720
X5341Y20720
X5971Y20720
X7782Y20720
X7782Y21428
X5900Y23802
X5900Y24511
X4877Y25377
X4719Y26007
X4877Y26637
X5900Y27503
X5900Y28212
X7711Y27503
X8341Y27503
X8971Y27503
X8971Y26873
X9046Y26011
X9597Y26011
X8967Y25145
X8971Y24511
X8341Y24511
X7711Y24511
X5900Y14728
X5900Y14019
X4877Y13153
X4719Y12523
X4877Y11893
X5900Y11027
X5900Y10318
X7711Y11027
X8341Y11027
X8971Y11027
X8967Y11661
X9046Y12527
X9597Y12527
X8971Y13389
X8971Y14019
X8341Y14019
X7711Y14019
X11806Y12523
X11963Y13153
X12987Y14019
X12987Y14728
X14798Y14019
X15428Y14019
X16058Y14019
X16058Y13389
X16133Y12527
X16684Y12527
X16054Y11661
X16058Y11027
X15428Y11027
X14798Y11027
X12987Y11027
X12987Y10318
X11963Y11893
X14869Y7846
X14869Y7137
X15892Y6271
X16050Y5641
X15892Y5011
X14869Y4145
X14869Y3436
X13058Y4145
X12428Y4145
X11798Y4145
X11798Y4775
X11723Y5637
X11172Y5637
X11802Y6503
X11798Y7137
X12428Y7137
X13058Y7137
X8806Y6271
X8963Y5641
X8806Y5011
X7782Y4145
X7782Y3436
X5971Y4145
X5341Y4145
X4711Y4145
X4711Y4775
X4637Y5637
X4085Y5637
X4715Y6503
X4711Y7137
X5341Y7137
X5971Y7137
X7782Y7137
X7782Y7846
X18259Y5637
X18810Y5637
X18885Y4775
X18885Y4145
X19514Y4145
X20144Y4145
X21955Y4145
X21955Y3436
X22979Y5011
X23137Y5641
X22979Y6271
X21955Y7137
X21955Y7846
X20144Y7137
X19514Y7137
X18885Y7137
X18888Y6503
X25345Y5637
X25896Y5637
X25971Y4775
X25971Y4145
X26601Y4145
X27231Y4145
X29042Y4145
X29042Y3436
X30066Y5011
X30223Y5641
X30066Y6271
X29042Y7137
X29042Y7846
X27231Y7137
X26601Y7137
X25971Y7137
X25975Y6503
T03
X19967Y1405
X18967Y1405
X17967Y1405
T04
X3298Y1700
X31644Y1700
X31644Y30046
X3298Y30046
M30
