G75*
G70*
%OFA0B0*%
%FSLAX24Y24*%
%IPPOS*%
%LPD*%
%AMOC8*
5,1,8,0,0,1.08239X$1,22.5*
%
%ADD10C,0.0000*%
%ADD11R,0.1143X0.0592*%
%ADD12R,0.0946X0.0592*%
%ADD13C,0.0595*%
%ADD14R,0.0356X0.0316*%
%ADD15C,0.1340*%
%ADD16C,0.0680*%
D10*
X001723Y000125D02*
X001723Y031621D01*
X033219Y031621D01*
X033219Y000125D01*
X001723Y000125D01*
X002668Y001700D02*
X002670Y001750D01*
X002676Y001800D01*
X002686Y001849D01*
X002700Y001897D01*
X002717Y001944D01*
X002738Y001989D01*
X002763Y002033D01*
X002791Y002074D01*
X002823Y002113D01*
X002857Y002150D01*
X002894Y002184D01*
X002934Y002214D01*
X002976Y002241D01*
X003020Y002265D01*
X003066Y002286D01*
X003113Y002302D01*
X003161Y002315D01*
X003211Y002324D01*
X003260Y002329D01*
X003311Y002330D01*
X003361Y002327D01*
X003410Y002320D01*
X003459Y002309D01*
X003507Y002294D01*
X003553Y002276D01*
X003598Y002254D01*
X003641Y002228D01*
X003682Y002199D01*
X003721Y002167D01*
X003757Y002132D01*
X003789Y002094D01*
X003819Y002054D01*
X003846Y002011D01*
X003869Y001967D01*
X003888Y001921D01*
X003904Y001873D01*
X003916Y001824D01*
X003924Y001775D01*
X003928Y001725D01*
X003928Y001675D01*
X003924Y001625D01*
X003916Y001576D01*
X003904Y001527D01*
X003888Y001479D01*
X003869Y001433D01*
X003846Y001389D01*
X003819Y001346D01*
X003789Y001306D01*
X003757Y001268D01*
X003721Y001233D01*
X003682Y001201D01*
X003641Y001172D01*
X003598Y001146D01*
X003553Y001124D01*
X003507Y001106D01*
X003459Y001091D01*
X003410Y001080D01*
X003361Y001073D01*
X003311Y001070D01*
X003260Y001071D01*
X003211Y001076D01*
X003161Y001085D01*
X003113Y001098D01*
X003066Y001114D01*
X003020Y001135D01*
X002976Y001159D01*
X002934Y001186D01*
X002894Y001216D01*
X002857Y001250D01*
X002823Y001287D01*
X002791Y001326D01*
X002763Y001367D01*
X002738Y001411D01*
X002717Y001456D01*
X002700Y001503D01*
X002686Y001551D01*
X002676Y001600D01*
X002670Y001650D01*
X002668Y001700D01*
X031014Y001700D02*
X031016Y001750D01*
X031022Y001800D01*
X031032Y001849D01*
X031046Y001897D01*
X031063Y001944D01*
X031084Y001989D01*
X031109Y002033D01*
X031137Y002074D01*
X031169Y002113D01*
X031203Y002150D01*
X031240Y002184D01*
X031280Y002214D01*
X031322Y002241D01*
X031366Y002265D01*
X031412Y002286D01*
X031459Y002302D01*
X031507Y002315D01*
X031557Y002324D01*
X031606Y002329D01*
X031657Y002330D01*
X031707Y002327D01*
X031756Y002320D01*
X031805Y002309D01*
X031853Y002294D01*
X031899Y002276D01*
X031944Y002254D01*
X031987Y002228D01*
X032028Y002199D01*
X032067Y002167D01*
X032103Y002132D01*
X032135Y002094D01*
X032165Y002054D01*
X032192Y002011D01*
X032215Y001967D01*
X032234Y001921D01*
X032250Y001873D01*
X032262Y001824D01*
X032270Y001775D01*
X032274Y001725D01*
X032274Y001675D01*
X032270Y001625D01*
X032262Y001576D01*
X032250Y001527D01*
X032234Y001479D01*
X032215Y001433D01*
X032192Y001389D01*
X032165Y001346D01*
X032135Y001306D01*
X032103Y001268D01*
X032067Y001233D01*
X032028Y001201D01*
X031987Y001172D01*
X031944Y001146D01*
X031899Y001124D01*
X031853Y001106D01*
X031805Y001091D01*
X031756Y001080D01*
X031707Y001073D01*
X031657Y001070D01*
X031606Y001071D01*
X031557Y001076D01*
X031507Y001085D01*
X031459Y001098D01*
X031412Y001114D01*
X031366Y001135D01*
X031322Y001159D01*
X031280Y001186D01*
X031240Y001216D01*
X031203Y001250D01*
X031169Y001287D01*
X031137Y001326D01*
X031109Y001367D01*
X031084Y001411D01*
X031063Y001456D01*
X031046Y001503D01*
X031032Y001551D01*
X031022Y001600D01*
X031016Y001650D01*
X031014Y001700D01*
X031014Y030046D02*
X031016Y030096D01*
X031022Y030146D01*
X031032Y030195D01*
X031046Y030243D01*
X031063Y030290D01*
X031084Y030335D01*
X031109Y030379D01*
X031137Y030420D01*
X031169Y030459D01*
X031203Y030496D01*
X031240Y030530D01*
X031280Y030560D01*
X031322Y030587D01*
X031366Y030611D01*
X031412Y030632D01*
X031459Y030648D01*
X031507Y030661D01*
X031557Y030670D01*
X031606Y030675D01*
X031657Y030676D01*
X031707Y030673D01*
X031756Y030666D01*
X031805Y030655D01*
X031853Y030640D01*
X031899Y030622D01*
X031944Y030600D01*
X031987Y030574D01*
X032028Y030545D01*
X032067Y030513D01*
X032103Y030478D01*
X032135Y030440D01*
X032165Y030400D01*
X032192Y030357D01*
X032215Y030313D01*
X032234Y030267D01*
X032250Y030219D01*
X032262Y030170D01*
X032270Y030121D01*
X032274Y030071D01*
X032274Y030021D01*
X032270Y029971D01*
X032262Y029922D01*
X032250Y029873D01*
X032234Y029825D01*
X032215Y029779D01*
X032192Y029735D01*
X032165Y029692D01*
X032135Y029652D01*
X032103Y029614D01*
X032067Y029579D01*
X032028Y029547D01*
X031987Y029518D01*
X031944Y029492D01*
X031899Y029470D01*
X031853Y029452D01*
X031805Y029437D01*
X031756Y029426D01*
X031707Y029419D01*
X031657Y029416D01*
X031606Y029417D01*
X031557Y029422D01*
X031507Y029431D01*
X031459Y029444D01*
X031412Y029460D01*
X031366Y029481D01*
X031322Y029505D01*
X031280Y029532D01*
X031240Y029562D01*
X031203Y029596D01*
X031169Y029633D01*
X031137Y029672D01*
X031109Y029713D01*
X031084Y029757D01*
X031063Y029802D01*
X031046Y029849D01*
X031032Y029897D01*
X031022Y029946D01*
X031016Y029996D01*
X031014Y030046D01*
X002668Y030046D02*
X002670Y030096D01*
X002676Y030146D01*
X002686Y030195D01*
X002700Y030243D01*
X002717Y030290D01*
X002738Y030335D01*
X002763Y030379D01*
X002791Y030420D01*
X002823Y030459D01*
X002857Y030496D01*
X002894Y030530D01*
X002934Y030560D01*
X002976Y030587D01*
X003020Y030611D01*
X003066Y030632D01*
X003113Y030648D01*
X003161Y030661D01*
X003211Y030670D01*
X003260Y030675D01*
X003311Y030676D01*
X003361Y030673D01*
X003410Y030666D01*
X003459Y030655D01*
X003507Y030640D01*
X003553Y030622D01*
X003598Y030600D01*
X003641Y030574D01*
X003682Y030545D01*
X003721Y030513D01*
X003757Y030478D01*
X003789Y030440D01*
X003819Y030400D01*
X003846Y030357D01*
X003869Y030313D01*
X003888Y030267D01*
X003904Y030219D01*
X003916Y030170D01*
X003924Y030121D01*
X003928Y030071D01*
X003928Y030021D01*
X003924Y029971D01*
X003916Y029922D01*
X003904Y029873D01*
X003888Y029825D01*
X003869Y029779D01*
X003846Y029735D01*
X003819Y029692D01*
X003789Y029652D01*
X003757Y029614D01*
X003721Y029579D01*
X003682Y029547D01*
X003641Y029518D01*
X003598Y029492D01*
X003553Y029470D01*
X003507Y029452D01*
X003459Y029437D01*
X003410Y029426D01*
X003361Y029419D01*
X003311Y029416D01*
X003260Y029417D01*
X003211Y029422D01*
X003161Y029431D01*
X003113Y029444D01*
X003066Y029460D01*
X003020Y029481D01*
X002976Y029505D01*
X002934Y029532D01*
X002894Y029562D01*
X002857Y029596D01*
X002823Y029633D01*
X002791Y029672D01*
X002763Y029713D01*
X002738Y029757D01*
X002717Y029802D01*
X002700Y029849D01*
X002686Y029897D01*
X002676Y029946D01*
X002670Y029996D01*
X002668Y030046D01*
D11*
X005759Y026011D03*
X007924Y026011D03*
X007924Y025312D03*
X007924Y026710D03*
X012845Y026011D03*
X015011Y026011D03*
X015011Y025312D03*
X015011Y026710D03*
X019932Y026011D03*
X022097Y026011D03*
X022097Y025312D03*
X022097Y026710D03*
X027018Y026011D03*
X029184Y026011D03*
X029184Y025312D03*
X029184Y026710D03*
X027018Y019919D03*
X027018Y019220D03*
X027018Y018521D03*
X029184Y019220D03*
X029184Y013226D03*
X029184Y012527D03*
X029184Y011828D03*
X027018Y012527D03*
X022097Y012527D03*
X022097Y013226D03*
X022097Y011828D03*
X019932Y012527D03*
X015011Y012527D03*
X015011Y013226D03*
X015011Y011828D03*
X012845Y012527D03*
X007924Y012527D03*
X007924Y013226D03*
X007924Y011828D03*
X005759Y012527D03*
X005759Y018521D03*
X005759Y019220D03*
X005759Y019919D03*
X007924Y019220D03*
X012845Y019220D03*
X012845Y019919D03*
X012845Y018521D03*
X015011Y019220D03*
X019932Y019220D03*
X019932Y019919D03*
X019932Y018521D03*
X022097Y019220D03*
X019932Y006336D03*
X019932Y005637D03*
X019932Y004938D03*
X022097Y005637D03*
X027018Y005637D03*
X027018Y004938D03*
X027018Y006336D03*
X029184Y005637D03*
X015011Y005637D03*
X012845Y005637D03*
X012845Y004938D03*
X012845Y006336D03*
X007924Y005637D03*
X005759Y005637D03*
X005759Y004938D03*
X005759Y006336D03*
D12*
X007825Y006336D03*
X007825Y004938D03*
X014912Y004938D03*
X014912Y006336D03*
X012944Y011828D03*
X012944Y013226D03*
X014912Y018521D03*
X014912Y019919D03*
X012944Y025312D03*
X012944Y026710D03*
X020030Y026710D03*
X020030Y025312D03*
X021999Y019919D03*
X021999Y018521D03*
X020030Y013226D03*
X020030Y011828D03*
X021999Y006336D03*
X021999Y004938D03*
X029085Y004938D03*
X029085Y006336D03*
X027117Y011828D03*
X027117Y013226D03*
X029085Y018521D03*
X029085Y019919D03*
X027117Y025312D03*
X027117Y026710D03*
X007825Y019919D03*
X007825Y018521D03*
X005857Y013226D03*
X005857Y011828D03*
X005857Y025312D03*
X005857Y026710D03*
D13*
X005900Y027503D03*
X005900Y028212D03*
X004877Y026637D03*
X004719Y026007D03*
X004877Y025377D03*
X005900Y024511D03*
X005900Y023802D03*
X007711Y024511D03*
X008341Y024511D03*
X008971Y024511D03*
X008967Y025145D03*
X009046Y026011D03*
X009597Y026011D03*
X008971Y026873D03*
X008971Y027503D03*
X008341Y027503D03*
X007711Y027503D03*
X011806Y026007D03*
X011963Y025377D03*
X012987Y024511D03*
X012987Y023802D03*
X014798Y024511D03*
X015428Y024511D03*
X016058Y024511D03*
X016054Y025145D03*
X016133Y026011D03*
X016684Y026011D03*
X016058Y026873D03*
X016058Y027503D03*
X015428Y027503D03*
X014798Y027503D03*
X012987Y027503D03*
X012987Y028212D03*
X011963Y026637D03*
X014869Y021428D03*
X014869Y020720D03*
X015892Y019854D03*
X016050Y019224D03*
X015892Y018594D03*
X014869Y017728D03*
X014869Y017019D03*
X013058Y017728D03*
X012428Y017728D03*
X011798Y017728D03*
X011798Y018357D03*
X011723Y019220D03*
X011172Y019220D03*
X011802Y020086D03*
X011798Y020720D03*
X012428Y020720D03*
X013058Y020720D03*
X008806Y019854D03*
X008963Y019224D03*
X008806Y018594D03*
X007782Y017728D03*
X007782Y017019D03*
X005971Y017728D03*
X005341Y017728D03*
X004711Y017728D03*
X004711Y018357D03*
X004637Y019220D03*
X004085Y019220D03*
X004715Y020086D03*
X004711Y020720D03*
X005341Y020720D03*
X005971Y020720D03*
X007782Y020720D03*
X007782Y021428D03*
X005900Y014728D03*
X005900Y014019D03*
X004877Y013153D03*
X004719Y012523D03*
X004877Y011893D03*
X005900Y011027D03*
X005900Y010318D03*
X007711Y011027D03*
X008341Y011027D03*
X008971Y011027D03*
X008967Y011661D03*
X009046Y012527D03*
X009597Y012527D03*
X008971Y013389D03*
X008971Y014019D03*
X008341Y014019D03*
X007711Y014019D03*
X011806Y012523D03*
X011963Y013153D03*
X012987Y014019D03*
X012987Y014728D03*
X014798Y014019D03*
X015428Y014019D03*
X016058Y014019D03*
X016058Y013389D03*
X016133Y012527D03*
X016684Y012527D03*
X016054Y011661D03*
X016058Y011027D03*
X015428Y011027D03*
X014798Y011027D03*
X012987Y011027D03*
X012987Y010318D03*
X011963Y011893D03*
X014869Y007846D03*
X014869Y007137D03*
X015892Y006271D03*
X016050Y005641D03*
X015892Y005011D03*
X014869Y004145D03*
X014869Y003436D03*
X013058Y004145D03*
X012428Y004145D03*
X011798Y004145D03*
X011798Y004775D03*
X011723Y005637D03*
X011172Y005637D03*
X011802Y006503D03*
X011798Y007137D03*
X012428Y007137D03*
X013058Y007137D03*
X008806Y006271D03*
X008963Y005641D03*
X008806Y005011D03*
X007782Y004145D03*
X007782Y003436D03*
X005971Y004145D03*
X005341Y004145D03*
X004711Y004145D03*
X004711Y004775D03*
X004637Y005637D03*
X004085Y005637D03*
X004715Y006503D03*
X004711Y007137D03*
X005341Y007137D03*
X005971Y007137D03*
X007782Y007137D03*
X007782Y007846D03*
X018259Y005637D03*
X018810Y005637D03*
X018885Y004775D03*
X018885Y004145D03*
X019514Y004145D03*
X020144Y004145D03*
X021955Y004145D03*
X021955Y003436D03*
X022979Y005011D03*
X023137Y005641D03*
X022979Y006271D03*
X021955Y007137D03*
X021955Y007846D03*
X020144Y007137D03*
X019514Y007137D03*
X018885Y007137D03*
X018888Y006503D03*
X020074Y010318D03*
X020074Y011027D03*
X019050Y011893D03*
X018892Y012523D03*
X019050Y013153D03*
X020074Y014019D03*
X020074Y014728D03*
X021885Y014019D03*
X022514Y014019D03*
X023144Y014019D03*
X023144Y013389D03*
X023219Y012527D03*
X023770Y012527D03*
X023140Y011661D03*
X023144Y011027D03*
X022514Y011027D03*
X021885Y011027D03*
X026137Y011893D03*
X025979Y012523D03*
X026137Y013153D03*
X027160Y014019D03*
X027160Y014728D03*
X028971Y014019D03*
X029601Y014019D03*
X030231Y014019D03*
X030231Y013389D03*
X030306Y012527D03*
X030857Y012527D03*
X030227Y011661D03*
X030231Y011027D03*
X029601Y011027D03*
X028971Y011027D03*
X027160Y011027D03*
X027160Y010318D03*
X029042Y007846D03*
X029042Y007137D03*
X030066Y006271D03*
X030223Y005641D03*
X030066Y005011D03*
X029042Y004145D03*
X029042Y003436D03*
X027231Y004145D03*
X026601Y004145D03*
X025971Y004145D03*
X025971Y004775D03*
X025896Y005637D03*
X025345Y005637D03*
X025975Y006503D03*
X025971Y007137D03*
X026601Y007137D03*
X027231Y007137D03*
X029042Y017019D03*
X029042Y017728D03*
X030066Y018594D03*
X030223Y019224D03*
X030066Y019854D03*
X029042Y020720D03*
X029042Y021428D03*
X027231Y020720D03*
X026601Y020720D03*
X025971Y020720D03*
X025975Y020086D03*
X025896Y019220D03*
X025345Y019220D03*
X025971Y018357D03*
X025971Y017728D03*
X026601Y017728D03*
X027231Y017728D03*
X023137Y019224D03*
X022979Y019854D03*
X021955Y020720D03*
X021955Y021428D03*
X020144Y020720D03*
X019514Y020720D03*
X018885Y020720D03*
X018888Y020086D03*
X018810Y019220D03*
X018259Y019220D03*
X018885Y018357D03*
X018885Y017728D03*
X019514Y017728D03*
X020144Y017728D03*
X021955Y017728D03*
X021955Y017019D03*
X022979Y018594D03*
X020074Y023802D03*
X020074Y024511D03*
X019050Y025377D03*
X018892Y026007D03*
X019050Y026637D03*
X020074Y027503D03*
X020074Y028212D03*
X021885Y027503D03*
X022514Y027503D03*
X023144Y027503D03*
X023144Y026873D03*
X023219Y026011D03*
X023770Y026011D03*
X023140Y025145D03*
X023144Y024511D03*
X022514Y024511D03*
X021885Y024511D03*
X026137Y025377D03*
X025979Y026007D03*
X026137Y026637D03*
X027160Y027503D03*
X027160Y028212D03*
X028971Y027503D03*
X029601Y027503D03*
X030231Y027503D03*
X030231Y026873D03*
X030306Y026011D03*
X030857Y026011D03*
X030227Y025145D03*
X030231Y024511D03*
X029601Y024511D03*
X028971Y024511D03*
X027160Y024511D03*
X027160Y023802D03*
D14*
X021192Y016277D03*
X020404Y015903D03*
X021192Y015529D03*
D15*
X031644Y001700D03*
X003298Y001700D03*
X003298Y030046D03*
X031644Y030046D03*
D16*
X019967Y001705D02*
X019967Y001105D01*
X018967Y001105D02*
X018967Y001705D01*
X017967Y001705D02*
X017967Y001105D01*
M02*
