G75*
G70*
%OFA0B0*%
%FSLAX24Y24*%
%IPPOS*%
%LPD*%
%AMOC8*
5,1,8,0,0,1.08239X$1,22.5*
%
%ADD10C,0.0000*%
D10*
X001723Y000125D02*
X001723Y031621D01*
X033219Y031621D01*
X033219Y000125D01*
X001723Y000125D01*
X002668Y001700D02*
X002670Y001750D01*
X002676Y001800D01*
X002686Y001849D01*
X002700Y001897D01*
X002717Y001944D01*
X002738Y001989D01*
X002763Y002033D01*
X002791Y002074D01*
X002823Y002113D01*
X002857Y002150D01*
X002894Y002184D01*
X002934Y002214D01*
X002976Y002241D01*
X003020Y002265D01*
X003066Y002286D01*
X003113Y002302D01*
X003161Y002315D01*
X003211Y002324D01*
X003260Y002329D01*
X003311Y002330D01*
X003361Y002327D01*
X003410Y002320D01*
X003459Y002309D01*
X003507Y002294D01*
X003553Y002276D01*
X003598Y002254D01*
X003641Y002228D01*
X003682Y002199D01*
X003721Y002167D01*
X003757Y002132D01*
X003789Y002094D01*
X003819Y002054D01*
X003846Y002011D01*
X003869Y001967D01*
X003888Y001921D01*
X003904Y001873D01*
X003916Y001824D01*
X003924Y001775D01*
X003928Y001725D01*
X003928Y001675D01*
X003924Y001625D01*
X003916Y001576D01*
X003904Y001527D01*
X003888Y001479D01*
X003869Y001433D01*
X003846Y001389D01*
X003819Y001346D01*
X003789Y001306D01*
X003757Y001268D01*
X003721Y001233D01*
X003682Y001201D01*
X003641Y001172D01*
X003598Y001146D01*
X003553Y001124D01*
X003507Y001106D01*
X003459Y001091D01*
X003410Y001080D01*
X003361Y001073D01*
X003311Y001070D01*
X003260Y001071D01*
X003211Y001076D01*
X003161Y001085D01*
X003113Y001098D01*
X003066Y001114D01*
X003020Y001135D01*
X002976Y001159D01*
X002934Y001186D01*
X002894Y001216D01*
X002857Y001250D01*
X002823Y001287D01*
X002791Y001326D01*
X002763Y001367D01*
X002738Y001411D01*
X002717Y001456D01*
X002700Y001503D01*
X002686Y001551D01*
X002676Y001600D01*
X002670Y001650D01*
X002668Y001700D01*
X031014Y001700D02*
X031016Y001750D01*
X031022Y001800D01*
X031032Y001849D01*
X031046Y001897D01*
X031063Y001944D01*
X031084Y001989D01*
X031109Y002033D01*
X031137Y002074D01*
X031169Y002113D01*
X031203Y002150D01*
X031240Y002184D01*
X031280Y002214D01*
X031322Y002241D01*
X031366Y002265D01*
X031412Y002286D01*
X031459Y002302D01*
X031507Y002315D01*
X031557Y002324D01*
X031606Y002329D01*
X031657Y002330D01*
X031707Y002327D01*
X031756Y002320D01*
X031805Y002309D01*
X031853Y002294D01*
X031899Y002276D01*
X031944Y002254D01*
X031987Y002228D01*
X032028Y002199D01*
X032067Y002167D01*
X032103Y002132D01*
X032135Y002094D01*
X032165Y002054D01*
X032192Y002011D01*
X032215Y001967D01*
X032234Y001921D01*
X032250Y001873D01*
X032262Y001824D01*
X032270Y001775D01*
X032274Y001725D01*
X032274Y001675D01*
X032270Y001625D01*
X032262Y001576D01*
X032250Y001527D01*
X032234Y001479D01*
X032215Y001433D01*
X032192Y001389D01*
X032165Y001346D01*
X032135Y001306D01*
X032103Y001268D01*
X032067Y001233D01*
X032028Y001201D01*
X031987Y001172D01*
X031944Y001146D01*
X031899Y001124D01*
X031853Y001106D01*
X031805Y001091D01*
X031756Y001080D01*
X031707Y001073D01*
X031657Y001070D01*
X031606Y001071D01*
X031557Y001076D01*
X031507Y001085D01*
X031459Y001098D01*
X031412Y001114D01*
X031366Y001135D01*
X031322Y001159D01*
X031280Y001186D01*
X031240Y001216D01*
X031203Y001250D01*
X031169Y001287D01*
X031137Y001326D01*
X031109Y001367D01*
X031084Y001411D01*
X031063Y001456D01*
X031046Y001503D01*
X031032Y001551D01*
X031022Y001600D01*
X031016Y001650D01*
X031014Y001700D01*
X031014Y030046D02*
X031016Y030096D01*
X031022Y030146D01*
X031032Y030195D01*
X031046Y030243D01*
X031063Y030290D01*
X031084Y030335D01*
X031109Y030379D01*
X031137Y030420D01*
X031169Y030459D01*
X031203Y030496D01*
X031240Y030530D01*
X031280Y030560D01*
X031322Y030587D01*
X031366Y030611D01*
X031412Y030632D01*
X031459Y030648D01*
X031507Y030661D01*
X031557Y030670D01*
X031606Y030675D01*
X031657Y030676D01*
X031707Y030673D01*
X031756Y030666D01*
X031805Y030655D01*
X031853Y030640D01*
X031899Y030622D01*
X031944Y030600D01*
X031987Y030574D01*
X032028Y030545D01*
X032067Y030513D01*
X032103Y030478D01*
X032135Y030440D01*
X032165Y030400D01*
X032192Y030357D01*
X032215Y030313D01*
X032234Y030267D01*
X032250Y030219D01*
X032262Y030170D01*
X032270Y030121D01*
X032274Y030071D01*
X032274Y030021D01*
X032270Y029971D01*
X032262Y029922D01*
X032250Y029873D01*
X032234Y029825D01*
X032215Y029779D01*
X032192Y029735D01*
X032165Y029692D01*
X032135Y029652D01*
X032103Y029614D01*
X032067Y029579D01*
X032028Y029547D01*
X031987Y029518D01*
X031944Y029492D01*
X031899Y029470D01*
X031853Y029452D01*
X031805Y029437D01*
X031756Y029426D01*
X031707Y029419D01*
X031657Y029416D01*
X031606Y029417D01*
X031557Y029422D01*
X031507Y029431D01*
X031459Y029444D01*
X031412Y029460D01*
X031366Y029481D01*
X031322Y029505D01*
X031280Y029532D01*
X031240Y029562D01*
X031203Y029596D01*
X031169Y029633D01*
X031137Y029672D01*
X031109Y029713D01*
X031084Y029757D01*
X031063Y029802D01*
X031046Y029849D01*
X031032Y029897D01*
X031022Y029946D01*
X031016Y029996D01*
X031014Y030046D01*
X002668Y030046D02*
X002670Y030096D01*
X002676Y030146D01*
X002686Y030195D01*
X002700Y030243D01*
X002717Y030290D01*
X002738Y030335D01*
X002763Y030379D01*
X002791Y030420D01*
X002823Y030459D01*
X002857Y030496D01*
X002894Y030530D01*
X002934Y030560D01*
X002976Y030587D01*
X003020Y030611D01*
X003066Y030632D01*
X003113Y030648D01*
X003161Y030661D01*
X003211Y030670D01*
X003260Y030675D01*
X003311Y030676D01*
X003361Y030673D01*
X003410Y030666D01*
X003459Y030655D01*
X003507Y030640D01*
X003553Y030622D01*
X003598Y030600D01*
X003641Y030574D01*
X003682Y030545D01*
X003721Y030513D01*
X003757Y030478D01*
X003789Y030440D01*
X003819Y030400D01*
X003846Y030357D01*
X003869Y030313D01*
X003888Y030267D01*
X003904Y030219D01*
X003916Y030170D01*
X003924Y030121D01*
X003928Y030071D01*
X003928Y030021D01*
X003924Y029971D01*
X003916Y029922D01*
X003904Y029873D01*
X003888Y029825D01*
X003869Y029779D01*
X003846Y029735D01*
X003819Y029692D01*
X003789Y029652D01*
X003757Y029614D01*
X003721Y029579D01*
X003682Y029547D01*
X003641Y029518D01*
X003598Y029492D01*
X003553Y029470D01*
X003507Y029452D01*
X003459Y029437D01*
X003410Y029426D01*
X003361Y029419D01*
X003311Y029416D01*
X003260Y029417D01*
X003211Y029422D01*
X003161Y029431D01*
X003113Y029444D01*
X003066Y029460D01*
X003020Y029481D01*
X002976Y029505D01*
X002934Y029532D01*
X002894Y029562D01*
X002857Y029596D01*
X002823Y029633D01*
X002791Y029672D01*
X002763Y029713D01*
X002738Y029757D01*
X002717Y029802D01*
X002700Y029849D01*
X002686Y029897D01*
X002676Y029946D01*
X002670Y029996D01*
X002668Y030046D01*
M02*
