G75*
G70*
%OFA0B0*%
%FSLAX24Y24*%
%IPPOS*%
%LPD*%
%AMOC8*
5,1,8,0,0,1.08239X$1,22.5*
%
%ADD10C,0.0000*%
%ADD11R,0.0647X0.0155*%
%ADD12R,0.0155X0.0647*%
%ADD13C,0.0078*%
%ADD14C,0.0136*%
%ADD15R,0.0332X0.0175*%
%ADD16R,0.0608X0.0529*%
%ADD17R,0.0529X0.0608*%
%ADD18R,0.0348X0.0421*%
%ADD19R,0.0482X0.0470*%
%ADD20R,0.0273X0.0529*%
%ADD21R,0.0332X0.0411*%
%ADD22C,0.0572*%
%ADD23R,0.0470X0.0482*%
%ADD24R,0.0569X0.0687*%
%ADD25C,0.0647*%
%ADD26R,0.0569X0.0647*%
%ADD27R,0.0647X0.0647*%
D10*
X000505Y000937D02*
X000505Y013930D01*
X009954Y013930D01*
X009954Y000937D01*
X000505Y000937D01*
D11*
X003143Y003910D03*
X003143Y004107D03*
X003143Y004304D03*
X003143Y004500D03*
X003143Y004697D03*
X003143Y004894D03*
X003143Y005091D03*
X003143Y005288D03*
X003143Y005485D03*
X003143Y005681D03*
X003143Y005878D03*
X003143Y006075D03*
X006529Y006075D03*
X006529Y005878D03*
X006529Y005681D03*
X006529Y005485D03*
X006529Y005288D03*
X006529Y005091D03*
X006529Y004894D03*
X006529Y004697D03*
X006529Y004500D03*
X006529Y004304D03*
X006529Y004107D03*
X006529Y003910D03*
D12*
X005918Y003300D03*
X005722Y003300D03*
X005525Y003300D03*
X005328Y003300D03*
X005131Y003300D03*
X004934Y003300D03*
X004737Y003300D03*
X004540Y003300D03*
X004344Y003300D03*
X004147Y003300D03*
X003950Y003300D03*
X003753Y003300D03*
X003753Y006685D03*
X003950Y006685D03*
X004147Y006685D03*
X004344Y006685D03*
X004540Y006685D03*
X004737Y006685D03*
X004934Y006685D03*
X005131Y006685D03*
X005328Y006685D03*
X005525Y006685D03*
X005722Y006685D03*
X005918Y006685D03*
D13*
X005563Y008035D02*
X005487Y008035D01*
X005487Y008289D01*
X005563Y008289D01*
X005563Y008035D01*
X005563Y008112D02*
X005487Y008112D01*
X005487Y008189D02*
X005563Y008189D01*
X005563Y008266D02*
X005487Y008266D01*
X005366Y008035D02*
X005290Y008035D01*
X005290Y008289D01*
X005366Y008289D01*
X005366Y008035D01*
X005366Y008112D02*
X005290Y008112D01*
X005290Y008189D02*
X005366Y008189D01*
X005366Y008266D02*
X005290Y008266D01*
X005169Y008035D02*
X005093Y008035D01*
X005093Y008289D01*
X005169Y008289D01*
X005169Y008035D01*
X005169Y008112D02*
X005093Y008112D01*
X005093Y008189D02*
X005169Y008189D01*
X005169Y008266D02*
X005093Y008266D01*
X004972Y008035D02*
X004896Y008035D01*
X004896Y008289D01*
X004972Y008289D01*
X004972Y008035D01*
X004972Y008112D02*
X004896Y008112D01*
X004896Y008189D02*
X004972Y008189D01*
X004972Y008266D02*
X004896Y008266D01*
X004775Y008035D02*
X004699Y008035D01*
X004699Y008289D01*
X004775Y008289D01*
X004775Y008035D01*
X004775Y008112D02*
X004699Y008112D01*
X004699Y008189D02*
X004775Y008189D01*
X004775Y008266D02*
X004699Y008266D01*
X004578Y008035D02*
X004502Y008035D01*
X004502Y008289D01*
X004578Y008289D01*
X004578Y008035D01*
X004578Y008112D02*
X004502Y008112D01*
X004502Y008189D02*
X004578Y008189D01*
X004578Y008266D02*
X004502Y008266D01*
X004382Y008035D02*
X004306Y008035D01*
X004306Y008289D01*
X004382Y008289D01*
X004382Y008035D01*
X004382Y008112D02*
X004306Y008112D01*
X004306Y008189D02*
X004382Y008189D01*
X004382Y008266D02*
X004306Y008266D01*
X004185Y008035D02*
X004109Y008035D01*
X004109Y008289D01*
X004185Y008289D01*
X004185Y008035D01*
X004185Y008112D02*
X004109Y008112D01*
X004109Y008189D02*
X004185Y008189D01*
X004185Y008266D02*
X004109Y008266D01*
X003744Y008399D02*
X003744Y008475D01*
X003998Y008475D01*
X003998Y008399D01*
X003744Y008399D01*
X003744Y008596D02*
X003744Y008672D01*
X003998Y008672D01*
X003998Y008596D01*
X003744Y008596D01*
X003744Y008793D02*
X003744Y008869D01*
X003998Y008869D01*
X003998Y008793D01*
X003744Y008793D01*
X003744Y008990D02*
X003744Y009066D01*
X003998Y009066D01*
X003998Y008990D01*
X003744Y008990D01*
X003744Y009187D02*
X003744Y009263D01*
X003998Y009263D01*
X003998Y009187D01*
X003744Y009187D01*
X003744Y009384D02*
X003744Y009460D01*
X003998Y009460D01*
X003998Y009384D01*
X003744Y009384D01*
X003744Y009581D02*
X003744Y009657D01*
X003998Y009657D01*
X003998Y009581D01*
X003744Y009581D01*
X003744Y009777D02*
X003744Y009853D01*
X003998Y009853D01*
X003998Y009777D01*
X003744Y009777D01*
X004109Y009964D02*
X004185Y009964D01*
X004109Y009964D02*
X004109Y010218D01*
X004185Y010218D01*
X004185Y009964D01*
X004185Y010041D02*
X004109Y010041D01*
X004109Y010118D02*
X004185Y010118D01*
X004185Y010195D02*
X004109Y010195D01*
X004306Y009964D02*
X004382Y009964D01*
X004306Y009964D02*
X004306Y010218D01*
X004382Y010218D01*
X004382Y009964D01*
X004382Y010041D02*
X004306Y010041D01*
X004306Y010118D02*
X004382Y010118D01*
X004382Y010195D02*
X004306Y010195D01*
X004502Y009964D02*
X004578Y009964D01*
X004502Y009964D02*
X004502Y010218D01*
X004578Y010218D01*
X004578Y009964D01*
X004578Y010041D02*
X004502Y010041D01*
X004502Y010118D02*
X004578Y010118D01*
X004578Y010195D02*
X004502Y010195D01*
X004699Y009964D02*
X004775Y009964D01*
X004699Y009964D02*
X004699Y010218D01*
X004775Y010218D01*
X004775Y009964D01*
X004775Y010041D02*
X004699Y010041D01*
X004699Y010118D02*
X004775Y010118D01*
X004775Y010195D02*
X004699Y010195D01*
X004896Y009964D02*
X004972Y009964D01*
X004896Y009964D02*
X004896Y010218D01*
X004972Y010218D01*
X004972Y009964D01*
X004972Y010041D02*
X004896Y010041D01*
X004896Y010118D02*
X004972Y010118D01*
X004972Y010195D02*
X004896Y010195D01*
X005093Y009964D02*
X005169Y009964D01*
X005093Y009964D02*
X005093Y010218D01*
X005169Y010218D01*
X005169Y009964D01*
X005169Y010041D02*
X005093Y010041D01*
X005093Y010118D02*
X005169Y010118D01*
X005169Y010195D02*
X005093Y010195D01*
X005290Y009964D02*
X005366Y009964D01*
X005290Y009964D02*
X005290Y010218D01*
X005366Y010218D01*
X005366Y009964D01*
X005366Y010041D02*
X005290Y010041D01*
X005290Y010118D02*
X005366Y010118D01*
X005366Y010195D02*
X005290Y010195D01*
X005487Y009964D02*
X005563Y009964D01*
X005487Y009964D02*
X005487Y010218D01*
X005563Y010218D01*
X005563Y009964D01*
X005563Y010041D02*
X005487Y010041D01*
X005487Y010118D02*
X005563Y010118D01*
X005563Y010195D02*
X005487Y010195D01*
X005673Y009853D02*
X005673Y009777D01*
X005673Y009853D02*
X005927Y009853D01*
X005927Y009777D01*
X005673Y009777D01*
X005673Y009657D02*
X005673Y009581D01*
X005673Y009657D02*
X005927Y009657D01*
X005927Y009581D01*
X005673Y009581D01*
X005673Y009460D02*
X005673Y009384D01*
X005673Y009460D02*
X005927Y009460D01*
X005927Y009384D01*
X005673Y009384D01*
X005673Y009263D02*
X005673Y009187D01*
X005673Y009263D02*
X005927Y009263D01*
X005927Y009187D01*
X005673Y009187D01*
X005673Y009066D02*
X005673Y008990D01*
X005673Y009066D02*
X005927Y009066D01*
X005927Y008990D01*
X005673Y008990D01*
X005673Y008869D02*
X005673Y008793D01*
X005673Y008869D02*
X005927Y008869D01*
X005927Y008793D01*
X005673Y008793D01*
X005673Y008672D02*
X005673Y008596D01*
X005673Y008672D02*
X005927Y008672D01*
X005927Y008596D01*
X005673Y008596D01*
X005673Y008475D02*
X005673Y008399D01*
X005673Y008475D02*
X005927Y008475D01*
X005927Y008399D01*
X005673Y008399D01*
D14*
X004226Y008516D02*
X004226Y009736D01*
X005446Y009736D01*
X005446Y008516D01*
X004226Y008516D01*
X004226Y008651D02*
X005446Y008651D01*
X005446Y008786D02*
X004226Y008786D01*
X004226Y008921D02*
X005446Y008921D01*
X005446Y009056D02*
X004226Y009056D01*
X004226Y009191D02*
X005446Y009191D01*
X005446Y009326D02*
X004226Y009326D01*
X004226Y009461D02*
X005446Y009461D01*
X005446Y009596D02*
X004226Y009596D01*
X004226Y009731D02*
X005446Y009731D01*
D15*
X005092Y011469D03*
X005092Y011725D03*
X005092Y011981D03*
X004580Y011981D03*
X004580Y011725D03*
X004580Y011469D03*
D16*
X007001Y008300D03*
X007001Y007670D03*
X007867Y007670D03*
X007867Y008300D03*
D17*
X007119Y002591D03*
X006489Y002591D03*
X006489Y001725D03*
X007119Y001725D03*
D18*
X007729Y001725D03*
X007729Y002197D03*
X005918Y002119D03*
X005918Y002591D03*
X006391Y007374D03*
X006391Y007847D03*
X008438Y007867D03*
X008438Y008339D03*
X005072Y010662D03*
X005072Y011134D03*
X004599Y011134D03*
X004599Y010662D03*
X004580Y012315D03*
X004580Y012788D03*
D19*
X007178Y009904D03*
X007729Y009904D03*
X007729Y009215D03*
X007178Y009215D03*
X003103Y008644D03*
X003103Y007955D03*
X002454Y007955D03*
X002454Y008644D03*
X007867Y003546D03*
X007867Y002857D03*
X008615Y003014D03*
X008615Y003703D03*
D20*
X002237Y003949D03*
X001863Y003949D03*
X001489Y003949D03*
X001489Y002926D03*
X002237Y002926D03*
D21*
X001844Y004776D03*
X001844Y005248D03*
X001332Y005248D03*
X001332Y004776D03*
D22*
X000505Y004481D03*
X000505Y003693D03*
X000505Y002906D03*
X000505Y002119D03*
X000505Y001331D03*
X000505Y005268D03*
X000505Y006056D03*
X000505Y006843D03*
X000505Y007630D03*
X000505Y008418D03*
X000505Y009205D03*
X000505Y009993D03*
X000505Y010780D03*
X009954Y010780D03*
X009954Y009993D03*
X009954Y009205D03*
X009954Y008418D03*
X009954Y007630D03*
X009954Y006843D03*
X009954Y006056D03*
X009954Y005268D03*
X009954Y004481D03*
X009954Y003693D03*
X009954Y002906D03*
X009954Y002119D03*
X009954Y001331D03*
D23*
X008231Y005229D03*
X007542Y005229D03*
X007562Y006587D03*
X008251Y006587D03*
X003881Y001548D03*
X003192Y001548D03*
D24*
X007454Y005918D03*
X008241Y005918D03*
D25*
X008615Y002394D03*
X003911Y002178D03*
X002474Y001725D03*
X001686Y001725D03*
D26*
X008596Y009402D03*
X009344Y009402D03*
D27*
X004580Y013359D03*
M02*
