G75*
G70*
%OFA0B0*%
%FSLAX24Y24*%
%IPPOS*%
%LPD*%
%AMOC8*
5,1,8,0,0,1.08239X$1,22.5*
%
%ADD10C,0.0000*%
%ADD11R,0.0591X0.0098*%
%ADD12R,0.0098X0.0591*%
%ADD13C,0.0049*%
%ADD14R,0.0236X0.0236*%
%ADD15R,0.0276X0.0118*%
%ADD16R,0.0551X0.0472*%
%ADD17R,0.0472X0.0551*%
%ADD18R,0.0291X0.0364*%
%ADD19R,0.0425X0.0413*%
%ADD20R,0.0217X0.0472*%
%ADD21R,0.0276X0.0354*%
%ADD22R,0.0413X0.0425*%
%ADD23R,0.0512X0.0630*%
%ADD24R,0.0512X0.0591*%
D10*
X000505Y000937D02*
X000505Y013930D01*
X009954Y013930D01*
X009954Y000937D01*
X000505Y000937D01*
D11*
X003143Y003910D03*
X003143Y004107D03*
X003143Y004304D03*
X003143Y004500D03*
X003143Y004697D03*
X003143Y004894D03*
X003143Y005091D03*
X003143Y005288D03*
X003143Y005485D03*
X003143Y005681D03*
X003143Y005878D03*
X003143Y006075D03*
X006529Y006075D03*
X006529Y005878D03*
X006529Y005681D03*
X006529Y005485D03*
X006529Y005288D03*
X006529Y005091D03*
X006529Y004894D03*
X006529Y004697D03*
X006529Y004500D03*
X006529Y004304D03*
X006529Y004107D03*
X006529Y003910D03*
D12*
X005918Y003300D03*
X005722Y003300D03*
X005525Y003300D03*
X005328Y003300D03*
X005131Y003300D03*
X004934Y003300D03*
X004737Y003300D03*
X004540Y003300D03*
X004344Y003300D03*
X004147Y003300D03*
X003950Y003300D03*
X003753Y003300D03*
X003753Y006685D03*
X003950Y006685D03*
X004147Y006685D03*
X004344Y006685D03*
X004540Y006685D03*
X004737Y006685D03*
X004934Y006685D03*
X005131Y006685D03*
X005328Y006685D03*
X005525Y006685D03*
X005722Y006685D03*
X005918Y006685D03*
D13*
X005550Y008048D02*
X005500Y008048D01*
X005500Y008276D01*
X005550Y008276D01*
X005550Y008048D01*
X005550Y008096D02*
X005500Y008096D01*
X005500Y008144D02*
X005550Y008144D01*
X005550Y008192D02*
X005500Y008192D01*
X005500Y008240D02*
X005550Y008240D01*
X005686Y008412D02*
X005686Y008462D01*
X005914Y008462D01*
X005914Y008412D01*
X005686Y008412D01*
X005686Y008460D02*
X005914Y008460D01*
X005686Y008609D02*
X005686Y008659D01*
X005914Y008659D01*
X005914Y008609D01*
X005686Y008609D01*
X005686Y008657D02*
X005914Y008657D01*
X005686Y008806D02*
X005686Y008856D01*
X005914Y008856D01*
X005914Y008806D01*
X005686Y008806D01*
X005686Y008854D02*
X005914Y008854D01*
X005686Y009003D02*
X005686Y009053D01*
X005914Y009053D01*
X005914Y009003D01*
X005686Y009003D01*
X005686Y009051D02*
X005914Y009051D01*
X005686Y009200D02*
X005686Y009250D01*
X005914Y009250D01*
X005914Y009200D01*
X005686Y009200D01*
X005686Y009248D02*
X005914Y009248D01*
X005686Y009397D02*
X005686Y009447D01*
X005914Y009447D01*
X005914Y009397D01*
X005686Y009397D01*
X005686Y009445D02*
X005914Y009445D01*
X005686Y009594D02*
X005686Y009644D01*
X005914Y009644D01*
X005914Y009594D01*
X005686Y009594D01*
X005686Y009642D02*
X005914Y009642D01*
X005686Y009790D02*
X005686Y009840D01*
X005914Y009840D01*
X005914Y009790D01*
X005686Y009790D01*
X005686Y009838D02*
X005914Y009838D01*
X005550Y009977D02*
X005500Y009977D01*
X005500Y010205D01*
X005550Y010205D01*
X005550Y009977D01*
X005550Y010025D02*
X005500Y010025D01*
X005500Y010073D02*
X005550Y010073D01*
X005550Y010121D02*
X005500Y010121D01*
X005500Y010169D02*
X005550Y010169D01*
X005353Y009977D02*
X005303Y009977D01*
X005303Y010205D01*
X005353Y010205D01*
X005353Y009977D01*
X005353Y010025D02*
X005303Y010025D01*
X005303Y010073D02*
X005353Y010073D01*
X005353Y010121D02*
X005303Y010121D01*
X005303Y010169D02*
X005353Y010169D01*
X005156Y009977D02*
X005106Y009977D01*
X005106Y010205D01*
X005156Y010205D01*
X005156Y009977D01*
X005156Y010025D02*
X005106Y010025D01*
X005106Y010073D02*
X005156Y010073D01*
X005156Y010121D02*
X005106Y010121D01*
X005106Y010169D02*
X005156Y010169D01*
X004959Y009977D02*
X004909Y009977D01*
X004909Y010205D01*
X004959Y010205D01*
X004959Y009977D01*
X004959Y010025D02*
X004909Y010025D01*
X004909Y010073D02*
X004959Y010073D01*
X004959Y010121D02*
X004909Y010121D01*
X004909Y010169D02*
X004959Y010169D01*
X004762Y009977D02*
X004712Y009977D01*
X004712Y010205D01*
X004762Y010205D01*
X004762Y009977D01*
X004762Y010025D02*
X004712Y010025D01*
X004712Y010073D02*
X004762Y010073D01*
X004762Y010121D02*
X004712Y010121D01*
X004712Y010169D02*
X004762Y010169D01*
X004565Y009977D02*
X004515Y009977D01*
X004515Y010205D01*
X004565Y010205D01*
X004565Y009977D01*
X004565Y010025D02*
X004515Y010025D01*
X004515Y010073D02*
X004565Y010073D01*
X004565Y010121D02*
X004515Y010121D01*
X004515Y010169D02*
X004565Y010169D01*
X004369Y009977D02*
X004319Y009977D01*
X004319Y010205D01*
X004369Y010205D01*
X004369Y009977D01*
X004369Y010025D02*
X004319Y010025D01*
X004319Y010073D02*
X004369Y010073D01*
X004369Y010121D02*
X004319Y010121D01*
X004319Y010169D02*
X004369Y010169D01*
X004172Y009977D02*
X004122Y009977D01*
X004122Y010205D01*
X004172Y010205D01*
X004172Y009977D01*
X004172Y010025D02*
X004122Y010025D01*
X004122Y010073D02*
X004172Y010073D01*
X004172Y010121D02*
X004122Y010121D01*
X004122Y010169D02*
X004172Y010169D01*
X003757Y009840D02*
X003757Y009790D01*
X003757Y009840D02*
X003985Y009840D01*
X003985Y009790D01*
X003757Y009790D01*
X003757Y009838D02*
X003985Y009838D01*
X003757Y009644D02*
X003757Y009594D01*
X003757Y009644D02*
X003985Y009644D01*
X003985Y009594D01*
X003757Y009594D01*
X003757Y009642D02*
X003985Y009642D01*
X003757Y009447D02*
X003757Y009397D01*
X003757Y009447D02*
X003985Y009447D01*
X003985Y009397D01*
X003757Y009397D01*
X003757Y009445D02*
X003985Y009445D01*
X003757Y009250D02*
X003757Y009200D01*
X003757Y009250D02*
X003985Y009250D01*
X003985Y009200D01*
X003757Y009200D01*
X003757Y009248D02*
X003985Y009248D01*
X003757Y009053D02*
X003757Y009003D01*
X003757Y009053D02*
X003985Y009053D01*
X003985Y009003D01*
X003757Y009003D01*
X003757Y009051D02*
X003985Y009051D01*
X003757Y008856D02*
X003757Y008806D01*
X003757Y008856D02*
X003985Y008856D01*
X003985Y008806D01*
X003757Y008806D01*
X003757Y008854D02*
X003985Y008854D01*
X003757Y008659D02*
X003757Y008609D01*
X003757Y008659D02*
X003985Y008659D01*
X003985Y008609D01*
X003757Y008609D01*
X003757Y008657D02*
X003985Y008657D01*
X003757Y008462D02*
X003757Y008412D01*
X003757Y008462D02*
X003985Y008462D01*
X003985Y008412D01*
X003757Y008412D01*
X003757Y008460D02*
X003985Y008460D01*
X004122Y008048D02*
X004172Y008048D01*
X004122Y008048D02*
X004122Y008276D01*
X004172Y008276D01*
X004172Y008048D01*
X004172Y008096D02*
X004122Y008096D01*
X004122Y008144D02*
X004172Y008144D01*
X004172Y008192D02*
X004122Y008192D01*
X004122Y008240D02*
X004172Y008240D01*
X004319Y008048D02*
X004369Y008048D01*
X004319Y008048D02*
X004319Y008276D01*
X004369Y008276D01*
X004369Y008048D01*
X004369Y008096D02*
X004319Y008096D01*
X004319Y008144D02*
X004369Y008144D01*
X004369Y008192D02*
X004319Y008192D01*
X004319Y008240D02*
X004369Y008240D01*
X004515Y008048D02*
X004565Y008048D01*
X004515Y008048D02*
X004515Y008276D01*
X004565Y008276D01*
X004565Y008048D01*
X004565Y008096D02*
X004515Y008096D01*
X004515Y008144D02*
X004565Y008144D01*
X004565Y008192D02*
X004515Y008192D01*
X004515Y008240D02*
X004565Y008240D01*
X004712Y008048D02*
X004762Y008048D01*
X004712Y008048D02*
X004712Y008276D01*
X004762Y008276D01*
X004762Y008048D01*
X004762Y008096D02*
X004712Y008096D01*
X004712Y008144D02*
X004762Y008144D01*
X004762Y008192D02*
X004712Y008192D01*
X004712Y008240D02*
X004762Y008240D01*
X004909Y008048D02*
X004959Y008048D01*
X004909Y008048D02*
X004909Y008276D01*
X004959Y008276D01*
X004959Y008048D01*
X004959Y008096D02*
X004909Y008096D01*
X004909Y008144D02*
X004959Y008144D01*
X004959Y008192D02*
X004909Y008192D01*
X004909Y008240D02*
X004959Y008240D01*
X005106Y008048D02*
X005156Y008048D01*
X005106Y008048D02*
X005106Y008276D01*
X005156Y008276D01*
X005156Y008048D01*
X005156Y008096D02*
X005106Y008096D01*
X005106Y008144D02*
X005156Y008144D01*
X005156Y008192D02*
X005106Y008192D01*
X005106Y008240D02*
X005156Y008240D01*
X005303Y008048D02*
X005353Y008048D01*
X005303Y008048D02*
X005303Y008276D01*
X005353Y008276D01*
X005353Y008048D01*
X005353Y008096D02*
X005303Y008096D01*
X005303Y008144D02*
X005353Y008144D01*
X005353Y008192D02*
X005303Y008192D01*
X005303Y008240D02*
X005353Y008240D01*
D14*
X005308Y008654D03*
X005308Y008969D03*
X004993Y008969D03*
X004993Y008654D03*
X004678Y008654D03*
X004678Y008969D03*
X004363Y008969D03*
X004363Y008654D03*
X004363Y009284D03*
X004363Y009599D03*
X004678Y009599D03*
X004678Y009284D03*
X004993Y009284D03*
X004993Y009599D03*
X005308Y009599D03*
X005308Y009284D03*
D15*
X005092Y011469D03*
X005092Y011725D03*
X005092Y011981D03*
X004580Y011981D03*
X004580Y011725D03*
X004580Y011469D03*
D16*
X007001Y008300D03*
X007001Y007670D03*
X007867Y007670D03*
X007867Y008300D03*
D17*
X007119Y002591D03*
X006489Y002591D03*
X006489Y001725D03*
X007119Y001725D03*
D18*
X007729Y001725D03*
X007729Y002197D03*
X005918Y002119D03*
X005918Y002591D03*
X006391Y007374D03*
X006391Y007847D03*
X008438Y007867D03*
X008438Y008339D03*
X005072Y010662D03*
X005072Y011134D03*
X004599Y011134D03*
X004599Y010662D03*
X004580Y012315D03*
X004580Y012788D03*
D19*
X007178Y009904D03*
X007729Y009904D03*
X007729Y009215D03*
X007178Y009215D03*
X003103Y008644D03*
X003103Y007955D03*
X002454Y007955D03*
X002454Y008644D03*
X007867Y003546D03*
X007867Y002857D03*
X008615Y003014D03*
X008615Y003703D03*
D20*
X002237Y003949D03*
X001863Y003949D03*
X001489Y003949D03*
X001489Y002926D03*
X002237Y002926D03*
D21*
X001844Y004776D03*
X001844Y005248D03*
X001332Y005248D03*
X001332Y004776D03*
D22*
X003192Y001548D03*
X003881Y001548D03*
X007542Y005229D03*
X008231Y005229D03*
X008251Y006587D03*
X007562Y006587D03*
D23*
X007454Y005918D03*
X008241Y005918D03*
D24*
X008596Y009402D03*
X009344Y009402D03*
M02*
