G75*
G70*
%OFA0B0*%
%FSLAX24Y24*%
%IPPOS*%
%LPD*%
%AMOC8*
5,1,8,0,0,1.08239X$1,22.5*
%
%ADD10C,0.0000*%
%ADD11C,0.0080*%
%ADD12C,0.0160*%
%ADD13C,0.0157*%
%ADD14C,0.0030*%
%ADD15C,0.0039*%
%ADD16C,0.0050*%
%ADD17R,0.0100X0.0100*%
%ADD18C,0.0040*%
D10*
X000505Y000937D02*
X000505Y013930D01*
X009954Y013930D01*
X009954Y000937D01*
X000505Y000937D01*
D11*
X003497Y003772D02*
X003615Y003654D01*
X006056Y003654D01*
X006174Y003772D01*
X006174Y006213D01*
X006056Y006331D01*
X003615Y006331D01*
X003497Y006213D01*
X003497Y003772D01*
D12*
X006470Y003534D02*
X006472Y003549D01*
X006477Y003562D01*
X006486Y003574D01*
X006497Y003584D01*
X006511Y003590D01*
X006525Y003593D01*
X006540Y003592D01*
X006554Y003587D01*
X006567Y003579D01*
X006577Y003569D01*
X006584Y003556D01*
X006588Y003541D01*
X006588Y003527D01*
X006584Y003512D01*
X006577Y003499D01*
X006567Y003489D01*
X006554Y003481D01*
X006540Y003476D01*
X006525Y003475D01*
X006511Y003478D01*
X006497Y003484D01*
X006486Y003494D01*
X006477Y003506D01*
X006472Y003519D01*
X006470Y003534D01*
X005820Y010189D02*
X005822Y010201D01*
X005827Y010212D01*
X005836Y010221D01*
X005847Y010226D01*
X005859Y010228D01*
X005871Y010226D01*
X005882Y010221D01*
X005891Y010212D01*
X005896Y010201D01*
X005898Y010189D01*
X005896Y010177D01*
X005891Y010166D01*
X005882Y010157D01*
X005871Y010152D01*
X005859Y010150D01*
X005847Y010152D01*
X005836Y010157D01*
X005827Y010166D01*
X005822Y010177D01*
X005820Y010189D01*
D13*
X005702Y004067D02*
X005704Y004085D01*
X005710Y004101D01*
X005719Y004116D01*
X005732Y004129D01*
X005747Y004138D01*
X005763Y004144D01*
X005781Y004146D01*
X005799Y004144D01*
X005815Y004138D01*
X005830Y004129D01*
X005843Y004116D01*
X005852Y004101D01*
X005858Y004085D01*
X005860Y004067D01*
X005858Y004049D01*
X005852Y004033D01*
X005843Y004018D01*
X005830Y004005D01*
X005815Y003996D01*
X005799Y003990D01*
X005781Y003988D01*
X005763Y003990D01*
X005747Y003996D01*
X005732Y004005D01*
X005719Y004018D01*
X005710Y004033D01*
X005704Y004049D01*
X005702Y004067D01*
D14*
X006767Y003321D02*
X006767Y003272D01*
X006864Y003175D01*
X006864Y003030D01*
X006864Y003175D02*
X006961Y003272D01*
X006961Y003321D01*
X007062Y003272D02*
X007110Y003321D01*
X007207Y003321D01*
X007255Y003272D01*
X007255Y003224D01*
X007062Y003030D01*
X007255Y003030D01*
X007793Y003926D02*
X007986Y003926D01*
X008034Y003974D01*
X008034Y004071D01*
X007986Y004120D01*
X007986Y004221D02*
X007938Y004221D01*
X007889Y004269D01*
X007889Y004366D01*
X007938Y004414D01*
X007986Y004414D01*
X008034Y004366D01*
X008034Y004269D01*
X007986Y004221D01*
X007889Y004269D02*
X007841Y004221D01*
X007793Y004221D01*
X007744Y004269D01*
X007744Y004366D01*
X007793Y004414D01*
X007841Y004414D01*
X007889Y004366D01*
X007793Y004120D02*
X007744Y004071D01*
X007744Y003974D01*
X007793Y003926D01*
X008492Y004132D02*
X008541Y004084D01*
X008734Y004084D01*
X008782Y004132D01*
X008782Y004229D01*
X008734Y004277D01*
X008734Y004378D02*
X008782Y004427D01*
X008782Y004523D01*
X008734Y004572D01*
X008541Y004572D01*
X008492Y004523D01*
X008492Y004427D01*
X008541Y004378D01*
X008589Y004378D01*
X008637Y004427D01*
X008637Y004572D01*
X008541Y004277D02*
X008492Y004229D01*
X008492Y004132D01*
X008620Y005106D02*
X008571Y005154D01*
X008571Y005348D01*
X008620Y005396D01*
X008716Y005396D01*
X008765Y005348D01*
X008866Y005299D02*
X008963Y005396D01*
X008963Y005106D01*
X009059Y005106D02*
X008866Y005106D01*
X008765Y005154D02*
X008716Y005106D01*
X008620Y005106D01*
X008698Y005687D02*
X008650Y005735D01*
X008650Y005929D01*
X008698Y005977D01*
X008795Y005977D01*
X008843Y005929D01*
X008945Y005880D02*
X009041Y005977D01*
X009041Y005687D01*
X008945Y005687D02*
X009138Y005687D01*
X009239Y005687D02*
X009239Y005735D01*
X009433Y005929D01*
X009433Y005977D01*
X009239Y005977D01*
X009229Y006267D02*
X009325Y006267D01*
X009374Y006316D01*
X009374Y006364D01*
X009325Y006412D01*
X009180Y006412D01*
X009180Y006316D01*
X009229Y006267D01*
X009180Y006412D02*
X009277Y006509D01*
X009374Y006558D01*
X009079Y006267D02*
X008886Y006267D01*
X008982Y006267D02*
X008982Y006558D01*
X008886Y006461D01*
X008784Y006509D02*
X008736Y006558D01*
X008639Y006558D01*
X008591Y006509D01*
X008591Y006316D01*
X008639Y006267D01*
X008736Y006267D01*
X008784Y006316D01*
X008843Y005735D02*
X008795Y005687D01*
X008698Y005687D01*
X009160Y005396D02*
X009160Y005251D01*
X009257Y005299D01*
X009306Y005299D01*
X009354Y005251D01*
X009354Y005154D01*
X009306Y005106D01*
X009209Y005106D01*
X009160Y005154D01*
X009160Y005396D02*
X009354Y005396D01*
X007728Y006928D02*
X007534Y006928D01*
X007631Y006928D02*
X007631Y007218D01*
X007534Y007121D01*
X007433Y007170D02*
X007433Y007218D01*
X007433Y007170D02*
X007336Y007073D01*
X007336Y006928D01*
X007336Y007073D02*
X007240Y007170D01*
X007240Y007218D01*
X006396Y008256D02*
X006445Y008304D01*
X006445Y008401D01*
X006396Y008449D01*
X006300Y008550D02*
X006300Y008744D01*
X006445Y008695D02*
X006154Y008695D01*
X006300Y008550D01*
X006203Y008449D02*
X006154Y008401D01*
X006154Y008304D01*
X006203Y008256D01*
X006396Y008256D01*
X005310Y007207D02*
X005117Y007207D01*
X005213Y007207D02*
X005213Y007497D01*
X005117Y007401D01*
X005016Y007449D02*
X004967Y007497D01*
X004870Y007497D01*
X004822Y007449D01*
X004822Y007401D01*
X004870Y007352D01*
X004967Y007352D01*
X005016Y007304D01*
X005016Y007256D01*
X004967Y007207D01*
X004870Y007207D01*
X004822Y007256D01*
X004721Y007256D02*
X004721Y007497D01*
X004527Y007497D02*
X004527Y007256D01*
X004576Y007207D01*
X004673Y007207D01*
X004721Y007256D01*
X004919Y007159D02*
X004919Y007546D01*
X003271Y007496D02*
X003271Y007399D01*
X003222Y007351D01*
X003271Y007250D02*
X003271Y007056D01*
X003271Y007153D02*
X002980Y007153D01*
X003077Y007056D01*
X003029Y006955D02*
X002980Y006906D01*
X002980Y006810D01*
X003029Y006761D01*
X003222Y006761D01*
X003271Y006810D01*
X003271Y006906D01*
X003222Y006955D01*
X003029Y007351D02*
X002980Y007399D01*
X002980Y007496D01*
X003029Y007544D01*
X003077Y007544D01*
X003126Y007496D01*
X003174Y007544D01*
X003222Y007544D01*
X003271Y007496D01*
X003126Y007496D02*
X003126Y007447D01*
X002621Y007399D02*
X002573Y007351D01*
X002379Y007544D01*
X002573Y007544D01*
X002621Y007496D01*
X002621Y007399D01*
X002573Y007351D02*
X002379Y007351D01*
X002331Y007399D01*
X002331Y007496D01*
X002379Y007544D01*
X002621Y007250D02*
X002621Y007056D01*
X002621Y007153D02*
X002331Y007153D01*
X002428Y007056D01*
X002379Y006955D02*
X002331Y006906D01*
X002331Y006810D01*
X002379Y006761D01*
X002573Y006761D01*
X002621Y006810D01*
X002621Y006906D01*
X002573Y006955D01*
X002580Y005410D02*
X002483Y005410D01*
X002435Y005362D01*
X002334Y005362D02*
X002334Y005265D01*
X002285Y005216D01*
X002140Y005216D01*
X002140Y005120D02*
X002140Y005410D01*
X002285Y005410D01*
X002334Y005362D01*
X002237Y005216D02*
X002334Y005120D01*
X002435Y005120D02*
X002628Y005313D01*
X002628Y005362D01*
X002580Y005410D01*
X002628Y005120D02*
X002435Y005120D01*
X002531Y004938D02*
X002531Y004647D01*
X002435Y004647D02*
X002628Y004647D01*
X002435Y004841D02*
X002531Y004938D01*
X002334Y004889D02*
X002334Y004792D01*
X002285Y004744D01*
X002140Y004744D01*
X002140Y004647D02*
X002140Y004938D01*
X002285Y004938D01*
X002334Y004889D01*
X002237Y004744D02*
X002334Y004647D01*
X001168Y003735D02*
X001168Y003542D01*
X000975Y003735D01*
X000926Y003735D01*
X000878Y003687D01*
X000878Y003590D01*
X000926Y003542D01*
X000878Y003440D02*
X001120Y003440D01*
X001168Y003392D01*
X001168Y003295D01*
X001120Y003247D01*
X000878Y003247D01*
X001209Y002542D02*
X001402Y002542D01*
X001306Y002542D02*
X001306Y002252D01*
X001504Y002252D02*
X001504Y002542D01*
X001649Y002542D01*
X001697Y002494D01*
X001697Y002397D01*
X001649Y002348D01*
X001504Y002348D01*
X001798Y002300D02*
X001847Y002252D01*
X001943Y002252D01*
X001992Y002300D01*
X001992Y002348D01*
X001943Y002397D01*
X001895Y002397D01*
X001943Y002397D02*
X001992Y002445D01*
X001992Y002494D01*
X001943Y002542D01*
X001847Y002542D01*
X001798Y002494D01*
X002193Y002542D02*
X002387Y002542D01*
X002290Y002542D02*
X002290Y002252D01*
X002488Y002252D02*
X002488Y002542D01*
X002633Y002542D01*
X002681Y002494D01*
X002681Y002397D01*
X002633Y002348D01*
X002488Y002348D01*
X002782Y002252D02*
X002976Y002445D01*
X002976Y002494D01*
X002928Y002542D01*
X002831Y002542D01*
X002782Y002494D01*
X002782Y002252D02*
X002976Y002252D01*
X003136Y002508D02*
X003136Y002798D01*
X003040Y002798D02*
X003233Y002798D01*
X003334Y002798D02*
X003479Y002798D01*
X003528Y002749D01*
X003528Y002653D01*
X003479Y002604D01*
X003334Y002604D01*
X003334Y002508D02*
X003334Y002798D01*
X003629Y002701D02*
X003726Y002798D01*
X003726Y002508D01*
X003822Y002508D02*
X003629Y002508D01*
X004212Y001671D02*
X004164Y001622D01*
X004164Y001429D01*
X004212Y001380D01*
X004309Y001380D01*
X004357Y001429D01*
X004458Y001380D02*
X004652Y001380D01*
X004555Y001380D02*
X004555Y001671D01*
X004458Y001574D01*
X004357Y001622D02*
X004309Y001671D01*
X004212Y001671D01*
X004753Y001526D02*
X004946Y001526D01*
X004898Y001671D02*
X004898Y001380D01*
X004753Y001526D02*
X004898Y001671D01*
X005313Y002026D02*
X005313Y002122D01*
X005361Y002171D01*
X005361Y002272D02*
X005313Y002320D01*
X005313Y002417D01*
X005361Y002465D01*
X005410Y002465D01*
X005603Y002272D01*
X005603Y002465D01*
X005555Y002171D02*
X005603Y002122D01*
X005603Y002026D01*
X005555Y001977D01*
X005361Y001977D01*
X005313Y002026D01*
X008044Y001974D02*
X008334Y001974D01*
X008334Y002070D02*
X008334Y001877D01*
X008286Y001776D02*
X008334Y001727D01*
X008334Y001631D01*
X008286Y001582D01*
X008093Y001582D01*
X008044Y001631D01*
X008044Y001727D01*
X008093Y001776D01*
X008141Y001877D02*
X008044Y001974D01*
X008532Y002030D02*
X008725Y002030D01*
X008629Y002030D02*
X008629Y001740D01*
X008826Y001740D02*
X008826Y002030D01*
X008972Y002030D01*
X009020Y001982D01*
X009020Y001885D01*
X008972Y001837D01*
X008826Y001837D01*
X009121Y001885D02*
X009315Y001885D01*
X009266Y001740D02*
X009266Y002030D01*
X009121Y001885D01*
X009059Y007725D02*
X008865Y007725D01*
X008817Y007774D01*
X008817Y007870D01*
X008865Y007919D01*
X008865Y008020D02*
X008817Y008068D01*
X008817Y008165D01*
X008865Y008213D01*
X008914Y008213D01*
X008962Y008165D01*
X009010Y008213D01*
X009059Y008213D01*
X009107Y008165D01*
X009107Y008068D01*
X009059Y008020D01*
X009059Y007919D02*
X009107Y007870D01*
X009107Y007774D01*
X009059Y007725D01*
X008962Y008117D02*
X008962Y008165D01*
X008931Y009917D02*
X008931Y010207D01*
X009077Y010207D01*
X009125Y010159D01*
X009125Y010062D01*
X009077Y010014D01*
X008931Y010014D01*
X009028Y010014D02*
X009125Y009917D01*
X009226Y009965D02*
X009274Y009917D01*
X009371Y009917D01*
X009420Y009965D01*
X009420Y010014D01*
X009371Y010062D01*
X009323Y010062D01*
X009371Y010062D02*
X009420Y010110D01*
X009420Y010159D01*
X009371Y010207D01*
X009274Y010207D01*
X009226Y010159D01*
X007852Y010292D02*
X007852Y010389D01*
X007804Y010437D01*
X007852Y010538D02*
X007852Y010732D01*
X007852Y010635D02*
X007562Y010635D01*
X007659Y010538D01*
X007610Y010437D02*
X007562Y010389D01*
X007562Y010292D01*
X007610Y010244D01*
X007804Y010244D01*
X007852Y010292D01*
X007852Y010833D02*
X007852Y011027D01*
X007852Y010930D02*
X007562Y010930D01*
X007659Y010833D01*
X007301Y010833D02*
X007108Y011027D01*
X007059Y011027D01*
X007011Y010978D01*
X007011Y010881D01*
X007059Y010833D01*
X007011Y010635D02*
X007301Y010635D01*
X007301Y010538D02*
X007301Y010732D01*
X007301Y010833D02*
X007301Y011027D01*
X007011Y010635D02*
X007108Y010538D01*
X007059Y010437D02*
X007011Y010389D01*
X007011Y010292D01*
X007059Y010244D01*
X007253Y010244D01*
X007301Y010292D01*
X007301Y010389D01*
X007253Y010437D01*
X005697Y010725D02*
X005697Y010822D01*
X005648Y010870D01*
X005648Y010971D02*
X005552Y010971D01*
X005552Y011117D01*
X005600Y011165D01*
X005648Y011165D01*
X005697Y011117D01*
X005697Y011020D01*
X005648Y010971D01*
X005552Y010971D02*
X005455Y011068D01*
X005406Y011165D01*
X005455Y010870D02*
X005406Y010822D01*
X005406Y010725D01*
X005455Y010677D01*
X005648Y010677D01*
X005697Y010725D01*
X005260Y012273D02*
X005066Y012273D01*
X005018Y012321D01*
X005018Y012418D01*
X005066Y012466D01*
X005018Y012567D02*
X005018Y012761D01*
X005066Y012761D01*
X005260Y012567D01*
X005308Y012567D01*
X005260Y012466D02*
X005308Y012418D01*
X005308Y012321D01*
X005260Y012273D01*
X004211Y011086D02*
X004260Y011038D01*
X004260Y010941D01*
X004211Y010893D01*
X004115Y010893D02*
X004066Y010989D01*
X004066Y011038D01*
X004115Y011086D01*
X004211Y011086D01*
X004115Y010893D02*
X003969Y010893D01*
X003969Y011086D01*
X003959Y011497D02*
X003959Y011642D01*
X004007Y011691D01*
X004056Y011691D01*
X004104Y011642D01*
X004104Y011497D01*
X003814Y011497D01*
X003814Y011642D01*
X003862Y011691D01*
X003911Y011691D01*
X003959Y011642D01*
X003911Y011792D02*
X003814Y011889D01*
X004104Y011889D01*
X004104Y011985D02*
X004104Y011792D01*
X004018Y010792D02*
X003969Y010743D01*
X003969Y010646D01*
X004018Y010598D01*
X004211Y010598D01*
X004260Y010646D01*
X004260Y010743D01*
X004211Y010792D01*
X003733Y010026D02*
X003540Y010026D01*
X003637Y010026D02*
X003637Y010317D01*
X003540Y010220D01*
X003439Y010317D02*
X003439Y010075D01*
X003390Y010026D01*
X003294Y010026D01*
X003245Y010075D01*
X003245Y010317D01*
D15*
X003851Y010111D02*
X003851Y009993D01*
X003851Y010111D02*
X003970Y010111D01*
X003851Y008260D02*
X003851Y008142D01*
X003970Y008142D01*
X005702Y008142D02*
X005820Y008142D01*
X005820Y008260D01*
X005820Y009993D02*
X005820Y010111D01*
X005702Y010111D01*
D16*
X005082Y011331D02*
X004590Y011331D01*
X004590Y012119D02*
X005082Y012119D01*
X002414Y003752D02*
X002375Y003752D01*
X002414Y003752D02*
X002414Y003122D01*
X002375Y003122D01*
X002099Y003122D02*
X001627Y003122D01*
X001351Y003122D02*
X001312Y003122D01*
X001312Y003752D01*
X001351Y003752D01*
X001627Y003752D02*
X001706Y003752D01*
X002021Y003752D02*
X002099Y003752D01*
D17*
X004836Y011975D03*
D18*
X006661Y008616D02*
X008208Y008616D01*
X008209Y008610D02*
X008209Y007360D01*
X008208Y007353D02*
X006661Y007353D01*
X006659Y007360D02*
X006659Y008610D01*
X006179Y002933D02*
X007429Y002933D01*
X007436Y002931D02*
X007436Y001384D01*
X007429Y001383D02*
X006179Y001383D01*
X006173Y001384D02*
X006173Y002931D01*
M02*
