G75*
G70*
%OFA0B0*%
%FSLAX24Y24*%
%IPPOS*%
%LPD*%
%AMOC8*
5,1,8,0,0,1.08239X$1,22.5*
%
%ADD10C,0.0000*%
%ADD11C,0.0515*%
%ADD12C,0.0317*%
%ADD13C,0.0160*%
%ADD14C,0.0100*%
%ADD15C,0.0278*%
%ADD16C,0.0079*%
D10*
X000505Y000937D02*
X000505Y013930D01*
X009954Y013930D01*
X009954Y000937D01*
X000505Y000937D01*
D11*
X000505Y001331D03*
X000505Y002119D03*
X000505Y002906D03*
X000505Y003693D03*
X000505Y004481D03*
X000505Y005268D03*
X000505Y006056D03*
X000505Y006843D03*
X000505Y007630D03*
X000505Y008418D03*
X000505Y009205D03*
X000505Y009993D03*
X000505Y010780D03*
X009954Y010780D03*
X009954Y009993D03*
X009954Y009205D03*
X009954Y008418D03*
X009954Y007630D03*
X009954Y006843D03*
X009954Y006056D03*
X009954Y005268D03*
X009954Y004481D03*
X009954Y003693D03*
X009954Y002906D03*
X009954Y002119D03*
X009954Y001331D03*
D12*
X009442Y001252D03*
X008812Y001252D03*
X008162Y001233D03*
X007552Y001213D03*
X007257Y003201D03*
X006745Y003201D03*
X006371Y003496D03*
X005288Y004304D03*
X005643Y004776D03*
X005367Y005544D03*
X005033Y005780D03*
X004442Y006056D03*
X003792Y005760D03*
X004186Y005229D03*
X004718Y004953D03*
X004107Y003949D03*
X003773Y004500D03*
X003123Y003516D03*
X002198Y003457D03*
X001863Y002788D03*
X001509Y003457D03*
X002257Y004678D03*
X001194Y006016D03*
X002040Y008300D03*
X002139Y009205D03*
X003103Y009107D03*
X003517Y008300D03*
X003832Y007965D03*
X004481Y007748D03*
X004540Y007355D03*
X005328Y007355D03*
X005918Y007374D03*
X005899Y008083D03*
X005210Y008713D03*
X005092Y009520D03*
X004501Y008713D03*
X004048Y010681D03*
X004048Y011272D03*
X004048Y011863D03*
X003458Y011863D03*
X003458Y011272D03*
X003458Y010681D03*
X002867Y010681D03*
X002867Y011272D03*
X002867Y011863D03*
X002277Y011863D03*
X002277Y011272D03*
X002277Y010681D03*
X001686Y010681D03*
X001686Y011272D03*
X001686Y011863D03*
X001096Y011863D03*
X001096Y011272D03*
X001096Y010681D03*
X005643Y010681D03*
X005643Y011272D03*
X005643Y011863D03*
X006233Y011863D03*
X006233Y011272D03*
X006233Y010681D03*
X006824Y010681D03*
X006824Y011272D03*
X006824Y011863D03*
X007414Y011863D03*
X007414Y011272D03*
X007414Y010681D03*
X008005Y010681D03*
X008005Y011272D03*
X008005Y011863D03*
X008596Y011863D03*
X008596Y011272D03*
X008596Y010681D03*
X009186Y011272D03*
X009186Y011863D03*
X009304Y009953D03*
X008911Y009953D03*
X008418Y009953D03*
X006725Y009914D03*
X006194Y009855D03*
X008773Y005485D03*
X009029Y005209D03*
X009166Y003969D03*
X009147Y003398D03*
X005387Y001449D03*
X004974Y001449D03*
X004560Y001449D03*
X003202Y002000D03*
X002729Y001213D03*
X002080Y001233D03*
X001214Y001252D03*
X004836Y003910D03*
D13*
X005288Y004304D02*
X003970Y004304D01*
X003773Y004500D01*
X003123Y004048D02*
X003477Y003693D01*
X003477Y002276D01*
X003202Y002000D01*
X003261Y001941D01*
X003261Y001115D01*
X008950Y001115D01*
X009166Y001331D01*
X009954Y001331D01*
X004029Y008142D02*
X003123Y007237D01*
X003123Y004048D01*
X002257Y004678D02*
X001686Y005248D01*
X001686Y006843D01*
X001017Y007512D01*
X001017Y009481D01*
X000505Y009993D01*
X002218Y009993D01*
X003103Y009107D01*
X001863Y002788D02*
X001863Y002689D01*
X000505Y001331D01*
X000840Y001331D01*
X001056Y001115D01*
X003261Y001115D01*
D14*
X004273Y001392D02*
X004316Y001286D01*
X004397Y001205D01*
X004503Y001162D01*
X004617Y001162D01*
X004723Y001205D01*
X004767Y001249D01*
X004811Y001205D01*
X004916Y001162D01*
X005031Y001162D01*
X005136Y001205D01*
X005180Y001249D01*
X005224Y001205D01*
X005330Y001162D01*
X005444Y001162D01*
X005550Y001205D01*
X005631Y001286D01*
X005674Y001392D01*
X005674Y001458D01*
X009531Y001458D01*
X009592Y001519D01*
X009576Y001488D01*
X009556Y001427D01*
X009546Y001363D01*
X009546Y001360D01*
X009825Y001360D01*
X009825Y001302D01*
X009546Y001302D01*
X009546Y001299D01*
X009556Y001236D01*
X009576Y001175D01*
X009605Y001118D01*
X009643Y001066D01*
X000816Y001066D01*
X000854Y001118D01*
X000883Y001175D01*
X000902Y001236D01*
X000912Y001299D01*
X000912Y001302D01*
X000634Y001302D01*
X000634Y001360D01*
X000912Y001360D01*
X000912Y001363D01*
X000902Y001427D01*
X000883Y001488D01*
X000854Y001545D01*
X000816Y001597D01*
X000770Y001642D01*
X000719Y001680D01*
X000661Y001709D01*
X000634Y001718D01*
X000634Y001754D01*
X000724Y001791D01*
X000832Y001900D01*
X000891Y002042D01*
X000891Y002195D01*
X000832Y002337D01*
X000724Y002446D01*
X000634Y002483D01*
X000634Y002541D01*
X000724Y002578D01*
X000832Y002687D01*
X000891Y002829D01*
X000891Y002983D01*
X000832Y003125D01*
X000724Y003233D01*
X000634Y003271D01*
X000634Y003329D01*
X000724Y003366D01*
X000832Y003475D01*
X000853Y003525D01*
X001203Y003525D01*
X001221Y003507D01*
X001221Y003400D01*
X000758Y003400D01*
X000842Y003498D02*
X001221Y003498D01*
X001221Y003400D02*
X001265Y003294D01*
X001346Y003213D01*
X001452Y003170D01*
X001559Y003170D01*
X001735Y002994D01*
X001833Y002895D01*
X002386Y002895D01*
X002838Y003348D01*
X002885Y003348D01*
X002960Y003272D01*
X003066Y003229D01*
X003180Y003229D01*
X003286Y003272D01*
X003367Y003353D01*
X003411Y003459D01*
X003411Y003573D01*
X003367Y003679D01*
X003286Y003760D01*
X003180Y003804D01*
X003066Y003804D01*
X002960Y003760D01*
X002885Y003684D01*
X002699Y003684D01*
X002485Y003470D01*
X002485Y003514D01*
X002442Y003620D01*
X002361Y003701D01*
X002255Y003745D01*
X002148Y003745D01*
X001342Y004550D01*
X001244Y004649D01*
X000911Y004649D01*
X001264Y005002D01*
X001362Y005100D01*
X001362Y005778D01*
X001438Y005853D01*
X001477Y005949D01*
X001477Y005162D01*
X001969Y004670D01*
X001969Y004620D01*
X002013Y004515D01*
X002094Y004434D01*
X002200Y004390D01*
X002314Y004390D01*
X002420Y004434D01*
X002501Y004515D01*
X002544Y004620D01*
X002544Y004735D01*
X002501Y004840D01*
X002420Y004921D01*
X002314Y004965D01*
X002265Y004965D01*
X001895Y005335D01*
X001895Y006929D01*
X001588Y007237D01*
X003959Y007237D01*
X003959Y005868D01*
X004412Y005415D01*
X004510Y005317D01*
X005188Y005317D01*
X005204Y005300D01*
X005310Y005256D01*
X005424Y005256D01*
X005530Y005300D01*
X005611Y005381D01*
X005655Y005487D01*
X005655Y005593D01*
X005712Y005651D01*
X009394Y005651D01*
X009613Y005870D01*
X009626Y005837D01*
X009735Y005728D01*
X009825Y005691D01*
X009825Y005633D01*
X009735Y005596D01*
X009626Y005487D01*
X009568Y005345D01*
X009568Y005191D01*
X009626Y005049D01*
X009735Y004941D01*
X009825Y004903D01*
X009825Y004845D01*
X009735Y004808D01*
X009626Y004699D01*
X009568Y004558D01*
X009568Y004404D01*
X009626Y004262D01*
X009735Y004153D01*
X009825Y004116D01*
X009825Y004058D01*
X009735Y004021D01*
X009626Y003912D01*
X009568Y003770D01*
X009568Y003616D01*
X009589Y003566D01*
X009136Y003113D01*
X009136Y002188D01*
X009057Y002109D01*
X004983Y002109D01*
X004884Y002011D01*
X004610Y001737D01*
X004503Y001737D01*
X004397Y001693D01*
X004316Y001612D01*
X004273Y001506D01*
X004273Y001392D01*
X004273Y001430D02*
X000901Y001430D01*
X000862Y001528D02*
X004282Y001528D01*
X004331Y001627D02*
X000785Y001627D01*
X000634Y001725D02*
X004476Y001725D01*
X004697Y001824D02*
X000757Y001824D01*
X000842Y001922D02*
X004796Y001922D01*
X004894Y002021D02*
X000883Y002021D01*
X000891Y002119D02*
X009067Y002119D01*
X009136Y002218D02*
X000882Y002218D01*
X000841Y002316D02*
X009136Y002316D01*
X009136Y002415D02*
X000755Y002415D01*
X000634Y002513D02*
X009136Y002513D01*
X009136Y002612D02*
X000757Y002612D01*
X000842Y002710D02*
X009136Y002710D01*
X009136Y002809D02*
X000883Y002809D01*
X000891Y002907D02*
X001821Y002907D01*
X001722Y003006D02*
X000882Y003006D01*
X000841Y003104D02*
X001624Y003104D01*
X001371Y003203D02*
X000754Y003203D01*
X000634Y003301D02*
X001262Y003301D01*
X001902Y003991D02*
X004558Y003991D01*
X004548Y003967D02*
X004548Y003853D01*
X004592Y003747D01*
X004673Y003666D01*
X004779Y003622D01*
X004893Y003622D01*
X004999Y003666D01*
X005064Y003731D01*
X005884Y003731D01*
X006084Y003531D01*
X006084Y003439D01*
X006127Y003334D01*
X006208Y003253D01*
X006314Y003209D01*
X006428Y003209D01*
X006534Y003253D01*
X006615Y003334D01*
X006659Y003439D01*
X006659Y003554D01*
X006615Y003659D01*
X006550Y003724D01*
X006550Y004122D01*
X006445Y004226D01*
X005930Y004741D01*
X005930Y004833D01*
X005887Y004939D01*
X005806Y005020D01*
X005700Y005063D01*
X005608Y005063D01*
X005540Y005132D01*
X004945Y005132D01*
X004880Y005197D01*
X004775Y005241D01*
X004660Y005241D01*
X004555Y005197D01*
X004474Y005116D01*
X004430Y005010D01*
X004430Y004896D01*
X004474Y004790D01*
X004555Y004709D01*
X004660Y004666D01*
X004775Y004666D01*
X004880Y004709D01*
X004945Y004774D01*
X005355Y004774D01*
X005355Y004719D01*
X005399Y004613D01*
X005480Y004532D01*
X005586Y004489D01*
X005677Y004489D01*
X006192Y003974D01*
X006192Y003928D01*
X006032Y004089D01*
X005480Y004089D01*
X005532Y004141D01*
X005576Y004246D01*
X005576Y004361D01*
X005532Y004466D01*
X005451Y004547D01*
X005346Y004591D01*
X005231Y004591D01*
X005126Y004547D01*
X005091Y004512D01*
X004060Y004512D01*
X004060Y004558D01*
X004016Y004663D01*
X003936Y004744D01*
X003830Y004788D01*
X003716Y004788D01*
X003610Y004744D01*
X003529Y004663D01*
X003485Y004558D01*
X003485Y004443D01*
X003529Y004338D01*
X003610Y004257D01*
X003716Y004213D01*
X003765Y004213D01*
X003883Y004095D01*
X004614Y004095D01*
X004592Y004073D01*
X004548Y003967D01*
X004548Y003892D02*
X002000Y003892D01*
X002099Y003794D02*
X003042Y003794D01*
X003204Y003794D02*
X004573Y003794D01*
X004644Y003695D02*
X003350Y003695D01*
X003401Y003597D02*
X006018Y003597D01*
X006084Y003498D02*
X003411Y003498D01*
X003386Y003400D02*
X006100Y003400D01*
X006160Y003301D02*
X003315Y003301D01*
X002931Y003301D02*
X002792Y003301D01*
X002693Y003203D02*
X009226Y003203D01*
X009136Y003104D02*
X002595Y003104D01*
X002496Y003006D02*
X009136Y003006D01*
X009136Y002907D02*
X002398Y002907D01*
X002485Y003498D02*
X002513Y003498D01*
X002451Y003597D02*
X002612Y003597D01*
X002366Y003695D02*
X002896Y003695D01*
X002469Y004483D02*
X003485Y004483D01*
X003495Y004582D02*
X002529Y004582D01*
X002544Y004680D02*
X003546Y004680D01*
X003694Y004779D02*
X002526Y004779D01*
X002464Y004877D02*
X004438Y004877D01*
X004430Y004976D02*
X002254Y004976D01*
X002155Y005074D02*
X004457Y005074D01*
X004531Y005173D02*
X002057Y005173D01*
X001958Y005271D02*
X005273Y005271D01*
X005461Y005271D02*
X009568Y005271D01*
X009575Y005173D02*
X004904Y005173D01*
X004718Y004953D02*
X005466Y004953D01*
X005643Y004776D01*
X006371Y004048D01*
X006371Y003496D01*
X005958Y003910D01*
X004836Y003910D01*
X005028Y003695D02*
X005919Y003695D01*
X006129Y003991D02*
X006175Y003991D01*
X006077Y004089D02*
X005481Y004089D01*
X005552Y004188D02*
X005978Y004188D01*
X005880Y004286D02*
X005576Y004286D01*
X005566Y004385D02*
X005781Y004385D01*
X005683Y004483D02*
X005515Y004483D01*
X005430Y004582D02*
X005368Y004582D01*
X005371Y004680D02*
X004810Y004680D01*
X004625Y004680D02*
X003999Y004680D01*
X004050Y004582D02*
X005209Y004582D01*
X005597Y005074D02*
X009616Y005074D01*
X009700Y004976D02*
X005849Y004976D01*
X005912Y004877D02*
X009825Y004877D01*
X009706Y004779D02*
X005930Y004779D01*
X005991Y004680D02*
X009618Y004680D01*
X009578Y004582D02*
X006090Y004582D01*
X006188Y004483D02*
X009568Y004483D01*
X009575Y004385D02*
X006287Y004385D01*
X006385Y004286D02*
X009616Y004286D01*
X009700Y004188D02*
X006484Y004188D01*
X006550Y004089D02*
X009825Y004089D01*
X009705Y003991D02*
X006550Y003991D01*
X006550Y003892D02*
X009618Y003892D01*
X009577Y003794D02*
X006550Y003794D01*
X006579Y003695D02*
X009568Y003695D01*
X009576Y003597D02*
X006641Y003597D01*
X006659Y003498D02*
X009521Y003498D01*
X009423Y003400D02*
X006642Y003400D01*
X006583Y003301D02*
X009324Y003301D01*
X009557Y001430D02*
X005674Y001430D01*
X005649Y001331D02*
X009825Y001331D01*
X009557Y001233D02*
X005577Y001233D01*
X005197Y001233D02*
X005164Y001233D01*
X004783Y001233D02*
X004750Y001233D01*
X004370Y001233D02*
X000902Y001233D01*
X000862Y001134D02*
X009597Y001134D01*
X009578Y005370D02*
X005600Y005370D01*
X005647Y005468D02*
X009619Y005468D01*
X009706Y005567D02*
X005655Y005567D01*
X006017Y006843D02*
X008950Y006843D01*
X008950Y007087D01*
X009039Y007177D01*
X009039Y008811D01*
X009440Y008811D01*
X009392Y008763D01*
X009392Y008113D01*
X009235Y007956D01*
X009235Y007365D01*
X009077Y007208D01*
X008979Y007109D01*
X008979Y006302D01*
X004597Y006302D01*
X004499Y006343D01*
X004385Y006343D01*
X004295Y006306D01*
X004295Y007196D01*
X004297Y007192D01*
X004378Y007111D01*
X004483Y007067D01*
X004598Y007067D01*
X004703Y007111D01*
X004779Y007187D01*
X005089Y007187D01*
X005165Y007111D01*
X005271Y007067D01*
X005385Y007067D01*
X005491Y007111D01*
X005572Y007192D01*
X005590Y007237D01*
X006017Y007237D01*
X006017Y006843D01*
X006017Y006847D02*
X004295Y006847D01*
X004295Y006749D02*
X008979Y006749D01*
X008979Y006847D02*
X008950Y006847D01*
X008950Y006946D02*
X008979Y006946D01*
X008979Y007044D02*
X008950Y007044D01*
X009006Y007143D02*
X009012Y007143D01*
X009039Y007241D02*
X009111Y007241D01*
X009157Y007344D02*
X009157Y008781D01*
X009354Y008781D01*
X009353Y008779D01*
X009353Y008130D01*
X009195Y007972D01*
X009195Y007382D01*
X009157Y007344D01*
X009209Y007340D02*
X009039Y007340D01*
X009039Y007438D02*
X009235Y007438D01*
X009195Y007438D02*
X009157Y007438D01*
X009157Y007537D02*
X009195Y007537D01*
X009235Y007537D02*
X009039Y007537D01*
X009039Y007635D02*
X009235Y007635D01*
X009195Y007635D02*
X009157Y007635D01*
X009157Y007734D02*
X009195Y007734D01*
X009235Y007734D02*
X009039Y007734D01*
X009039Y007832D02*
X009235Y007832D01*
X009195Y007832D02*
X009157Y007832D01*
X009157Y007931D02*
X009195Y007931D01*
X009235Y007931D02*
X009039Y007931D01*
X009039Y008029D02*
X009308Y008029D01*
X009252Y008029D02*
X009157Y008029D01*
X009157Y008128D02*
X009351Y008128D01*
X009392Y008128D02*
X009039Y008128D01*
X009039Y008226D02*
X009392Y008226D01*
X009353Y008226D02*
X009157Y008226D01*
X009157Y008325D02*
X009353Y008325D01*
X009392Y008325D02*
X009039Y008325D01*
X009039Y008423D02*
X009392Y008423D01*
X009353Y008423D02*
X009157Y008423D01*
X009157Y008522D02*
X009353Y008522D01*
X009392Y008522D02*
X009039Y008522D01*
X009039Y008620D02*
X009392Y008620D01*
X009353Y008620D02*
X009157Y008620D01*
X009157Y008719D02*
X009353Y008719D01*
X009392Y008719D02*
X009039Y008719D01*
X008723Y008719D02*
X006342Y008719D01*
X006342Y008781D02*
X008723Y008781D01*
X008723Y007346D01*
X008614Y007237D01*
X006342Y007237D01*
X006342Y008781D01*
X006342Y008620D02*
X008723Y008620D01*
X008723Y008522D02*
X006342Y008522D01*
X006342Y008423D02*
X008723Y008423D01*
X008723Y008325D02*
X006342Y008325D01*
X006342Y008226D02*
X008723Y008226D01*
X008723Y008128D02*
X006342Y008128D01*
X006342Y008029D02*
X008723Y008029D01*
X008723Y007931D02*
X006342Y007931D01*
X006342Y007832D02*
X008723Y007832D01*
X008723Y007734D02*
X006342Y007734D01*
X006342Y007635D02*
X008723Y007635D01*
X008723Y007537D02*
X006342Y007537D01*
X006342Y007438D02*
X008723Y007438D01*
X008717Y007340D02*
X006342Y007340D01*
X006342Y007241D02*
X008619Y007241D01*
X008979Y006650D02*
X004295Y006650D01*
X004295Y006552D02*
X008979Y006552D01*
X008979Y006453D02*
X004295Y006453D01*
X004295Y006355D02*
X008979Y006355D01*
X009506Y005764D02*
X009699Y005764D01*
X009616Y005862D02*
X009605Y005862D01*
X009408Y005665D02*
X009825Y005665D01*
X009530Y009117D02*
X008450Y009117D01*
X008470Y009164D01*
X008470Y009286D01*
X008423Y009399D01*
X008336Y009485D01*
X008224Y009532D01*
X008101Y009532D01*
X007988Y009485D01*
X007946Y009443D01*
X006902Y009443D01*
X006860Y009485D01*
X006747Y009532D01*
X006625Y009532D01*
X006512Y009485D01*
X006499Y009472D01*
X006380Y009472D01*
X005691Y009472D01*
X005593Y009373D01*
X005593Y008606D01*
X004236Y008606D01*
X004236Y009472D01*
X004138Y009570D01*
X003998Y009570D01*
X003900Y009472D01*
X003900Y008368D01*
X003998Y008269D01*
X006006Y008269D01*
X006006Y007237D01*
X005633Y007237D01*
X005655Y007290D01*
X005655Y007420D01*
X005605Y007540D01*
X005513Y007632D01*
X005393Y007682D01*
X005263Y007682D01*
X005143Y007632D01*
X005073Y007562D01*
X004795Y007562D01*
X004769Y007588D01*
X004808Y007683D01*
X004808Y007813D01*
X004758Y007934D01*
X004667Y008026D01*
X004546Y008075D01*
X004416Y008075D01*
X004296Y008026D01*
X004204Y007934D01*
X004168Y007847D01*
X004041Y007720D01*
X003920Y007598D01*
X003920Y007237D01*
X001643Y007237D01*
X001265Y007615D01*
X001265Y009530D01*
X001227Y009621D01*
X001104Y009744D01*
X002115Y009744D01*
X002777Y009083D01*
X002777Y009042D01*
X002826Y008922D01*
X002918Y008830D01*
X003038Y008780D01*
X003168Y008780D01*
X003289Y008830D01*
X003381Y008922D01*
X003430Y009042D01*
X003430Y009172D01*
X003381Y009292D01*
X003289Y009384D01*
X003168Y009434D01*
X003127Y009434D01*
X002540Y010021D01*
X003880Y010021D01*
X003880Y009943D01*
X003979Y009844D01*
X004118Y009844D01*
X004216Y009943D01*
X004216Y010259D01*
X004118Y010357D01*
X000770Y010357D01*
X000756Y010343D01*
X000746Y010353D01*
X000673Y010384D01*
X000673Y012000D01*
X009786Y012000D01*
X009786Y010384D01*
X009768Y010376D01*
X009748Y010397D01*
X005613Y010397D01*
X005514Y010298D01*
X005514Y010159D01*
X005613Y010061D01*
X009528Y010061D01*
X009528Y009908D01*
X009593Y009751D01*
X009713Y009632D01*
X009786Y009601D01*
X009786Y009596D01*
X009713Y009566D01*
X009593Y009446D01*
X009528Y009290D01*
X009528Y009120D01*
X009530Y009117D01*
X009528Y009211D02*
X008470Y009211D01*
X008460Y009310D02*
X009537Y009310D01*
X009577Y009408D02*
X008413Y009408D01*
X008284Y009507D02*
X009654Y009507D01*
X009776Y009605D02*
X002956Y009605D01*
X003054Y009507D02*
X003935Y009507D01*
X003900Y009408D02*
X003229Y009408D01*
X003362Y009310D02*
X003900Y009310D01*
X003900Y009211D02*
X003414Y009211D01*
X003430Y009113D02*
X003900Y009113D01*
X003900Y009014D02*
X003419Y009014D01*
X003375Y008916D02*
X003900Y008916D01*
X003900Y008817D02*
X003259Y008817D01*
X002948Y008817D02*
X001265Y008817D01*
X001265Y008719D02*
X003900Y008719D01*
X003900Y008620D02*
X001265Y008620D01*
X001265Y008522D02*
X003900Y008522D01*
X003900Y008423D02*
X001265Y008423D01*
X001265Y008325D02*
X003943Y008325D01*
X004236Y008620D02*
X005593Y008620D01*
X005593Y008719D02*
X004236Y008719D01*
X004236Y008817D02*
X005593Y008817D01*
X005593Y008916D02*
X004236Y008916D01*
X004236Y009014D02*
X005593Y009014D01*
X005593Y009113D02*
X004236Y009113D01*
X004236Y009211D02*
X005593Y009211D01*
X005593Y009310D02*
X004236Y009310D01*
X004236Y009408D02*
X005628Y009408D01*
X005575Y010098D02*
X004216Y010098D01*
X004216Y010196D02*
X005514Y010196D01*
X005514Y010295D02*
X004180Y010295D01*
X004216Y009999D02*
X009528Y009999D01*
X009531Y009901D02*
X004175Y009901D01*
X003922Y009901D02*
X002660Y009901D01*
X002562Y009999D02*
X003880Y009999D01*
X004201Y009507D02*
X006565Y009507D01*
X006686Y009225D02*
X008162Y009225D01*
X008041Y009507D02*
X006808Y009507D01*
X006006Y008226D02*
X001265Y008226D01*
X001265Y008128D02*
X006006Y008128D01*
X006006Y008029D02*
X004657Y008029D01*
X004760Y007931D02*
X006006Y007931D01*
X006006Y007832D02*
X004800Y007832D01*
X004808Y007734D02*
X006006Y007734D01*
X006006Y007635D02*
X005504Y007635D01*
X005606Y007537D02*
X006006Y007537D01*
X006006Y007438D02*
X005647Y007438D01*
X005655Y007340D02*
X006006Y007340D01*
X006006Y007241D02*
X005635Y007241D01*
X005523Y007143D02*
X006017Y007143D01*
X006017Y007044D02*
X004295Y007044D01*
X004295Y006946D02*
X006017Y006946D01*
X005133Y007143D02*
X004735Y007143D01*
X004346Y007143D02*
X004295Y007143D01*
X003959Y007143D02*
X001681Y007143D01*
X001638Y007241D02*
X003920Y007241D01*
X003920Y007340D02*
X001540Y007340D01*
X001441Y007438D02*
X003920Y007438D01*
X003920Y007537D02*
X001343Y007537D01*
X001265Y007635D02*
X003957Y007635D01*
X004041Y007720D02*
X004041Y007720D01*
X004055Y007734D02*
X001265Y007734D01*
X001265Y007832D02*
X004154Y007832D01*
X004203Y007931D02*
X001265Y007931D01*
X001265Y008029D02*
X004306Y008029D01*
X004788Y007635D02*
X005151Y007635D01*
X003959Y007044D02*
X001780Y007044D01*
X001878Y006946D02*
X003959Y006946D01*
X003959Y006847D02*
X001895Y006847D01*
X001895Y006749D02*
X003959Y006749D01*
X003959Y006650D02*
X001895Y006650D01*
X001895Y006552D02*
X003959Y006552D01*
X003959Y006453D02*
X001895Y006453D01*
X001895Y006355D02*
X003959Y006355D01*
X003959Y006256D02*
X001895Y006256D01*
X001895Y006158D02*
X003959Y006158D01*
X003959Y006059D02*
X001895Y006059D01*
X001895Y005961D02*
X003959Y005961D01*
X003964Y005862D02*
X001895Y005862D01*
X001895Y005764D02*
X004063Y005764D01*
X004161Y005665D02*
X001895Y005665D01*
X001895Y005567D02*
X004260Y005567D01*
X004358Y005468D02*
X001895Y005468D01*
X001895Y005370D02*
X004457Y005370D01*
X004485Y004779D02*
X003852Y004779D01*
X003509Y004385D02*
X001508Y004385D01*
X001606Y004286D02*
X003580Y004286D01*
X003790Y004188D02*
X001705Y004188D01*
X001803Y004089D02*
X004609Y004089D01*
X004107Y003949D02*
X003733Y003949D01*
X003477Y003693D01*
X002045Y004483D02*
X001409Y004483D01*
X001311Y004582D02*
X001985Y004582D01*
X001959Y004680D02*
X000942Y004680D01*
X001041Y004779D02*
X001860Y004779D01*
X001762Y004877D02*
X001139Y004877D01*
X001238Y004976D02*
X001663Y004976D01*
X001565Y005074D02*
X001336Y005074D01*
X001362Y005173D02*
X001477Y005173D01*
X001477Y005271D02*
X001362Y005271D01*
X001362Y005370D02*
X001477Y005370D01*
X001477Y005468D02*
X001362Y005468D01*
X001362Y005567D02*
X001477Y005567D01*
X001477Y005665D02*
X001362Y005665D01*
X001362Y005764D02*
X001477Y005764D01*
X001477Y005862D02*
X001441Y005862D01*
X001265Y008916D02*
X002832Y008916D01*
X002788Y009014D02*
X001265Y009014D01*
X001265Y009113D02*
X002746Y009113D01*
X002648Y009211D02*
X001265Y009211D01*
X001265Y009310D02*
X002549Y009310D01*
X002451Y009408D02*
X001265Y009408D01*
X001265Y009507D02*
X002352Y009507D01*
X002254Y009605D02*
X001234Y009605D01*
X001144Y009704D02*
X002155Y009704D01*
X002759Y009802D02*
X009572Y009802D01*
X009641Y009704D02*
X002857Y009704D01*
X000673Y010393D02*
X005609Y010393D01*
X009751Y010393D02*
X009786Y010393D01*
X009786Y010492D02*
X000673Y010492D01*
X000673Y010590D02*
X009786Y010590D01*
X009786Y010689D02*
X000673Y010689D01*
X000673Y010787D02*
X009786Y010787D01*
X009786Y010886D02*
X000673Y010886D01*
X000673Y010984D02*
X009786Y010984D01*
X009786Y011083D02*
X000673Y011083D01*
X000673Y011181D02*
X009786Y011181D01*
X009786Y011280D02*
X000673Y011280D01*
X000673Y011378D02*
X009786Y011378D01*
X009786Y011477D02*
X000673Y011477D01*
X000673Y011575D02*
X009786Y011575D01*
X009786Y011674D02*
X000673Y011674D01*
X000673Y011772D02*
X009786Y011772D01*
X009786Y011871D02*
X000673Y011871D01*
X000673Y011969D02*
X009786Y011969D01*
X004298Y001331D02*
X000634Y001331D01*
D15*
X002021Y008738D03*
X006194Y006749D03*
X007060Y006749D03*
X006499Y008373D03*
X006686Y009225D03*
X007887Y008757D03*
X008162Y009225D03*
X008694Y008757D03*
X009186Y008659D03*
X009137Y007576D03*
X008438Y007340D03*
X008792Y006671D03*
D16*
X009147Y007040D02*
X009147Y006233D01*
X009048Y006134D01*
X004521Y006134D01*
X004442Y006056D01*
X004127Y005937D02*
X004580Y005485D01*
X005308Y005485D01*
X005367Y005544D01*
X005643Y005819D01*
X009324Y005819D01*
X009560Y006056D01*
X009560Y006981D01*
X009796Y007217D01*
X009796Y007473D01*
X009954Y007630D01*
X009757Y007985D02*
X009757Y008221D01*
X009954Y008418D01*
X009560Y008693D02*
X009796Y008930D01*
X009796Y009048D01*
X009954Y009205D01*
X009560Y008693D02*
X009560Y008044D01*
X009403Y007886D01*
X009403Y007296D01*
X009147Y007040D01*
X009304Y006961D02*
X009304Y006036D01*
X009245Y005977D01*
X005229Y005977D01*
X005033Y005780D01*
X004127Y005937D02*
X004127Y007512D01*
X004363Y007748D01*
X004481Y007748D01*
X004540Y007355D02*
X005328Y007355D01*
X003123Y003516D02*
X002769Y003516D01*
X002316Y003063D01*
X001903Y003063D01*
X001509Y003457D01*
X001273Y003693D01*
X000505Y003693D01*
X000505Y004481D02*
X001194Y005170D01*
X001194Y006016D01*
X001174Y004481D02*
X000505Y004481D01*
X001174Y004481D02*
X002198Y003457D01*
X004560Y001449D02*
X005052Y001941D01*
X009127Y001941D01*
X009304Y002119D01*
X009304Y003044D01*
X009954Y003693D01*
X009954Y002906D02*
X009501Y002453D01*
X009501Y001981D01*
X009304Y001784D01*
X005308Y001784D01*
X004974Y001449D01*
X005387Y001449D02*
X005564Y001626D01*
X009462Y001626D01*
X009954Y002119D01*
X009304Y006961D02*
X009560Y007217D01*
X009560Y007788D01*
X009757Y007985D01*
M02*
