G75*
G70*
%OFA0B0*%
%FSLAX24Y24*%
%IPPOS*%
%LPD*%
%AMOC8*
5,1,8,0,0,1.08239X$1,22.5*
%
%ADD10C,0.0000*%
%ADD11R,0.0591X0.0098*%
%ADD12R,0.0098X0.0591*%
%ADD13C,0.0049*%
%ADD14C,0.0130*%
%ADD15R,0.0276X0.0118*%
%ADD16R,0.0551X0.0472*%
%ADD17R,0.0472X0.0551*%
%ADD18R,0.0291X0.0364*%
%ADD19R,0.0425X0.0413*%
%ADD20R,0.0217X0.0472*%
%ADD21R,0.0276X0.0354*%
%ADD22C,0.0515*%
%ADD23R,0.0413X0.0425*%
%ADD24R,0.0512X0.0630*%
%ADD25C,0.0591*%
%ADD26R,0.0512X0.0591*%
%ADD27R,0.0591X0.0591*%
%ADD28C,0.0079*%
%ADD29C,0.0004*%
%ADD30C,0.0100*%
%ADD31C,0.0317*%
%ADD32C,0.0160*%
%ADD33C,0.0278*%
D10*
X000505Y000937D02*
X000505Y013930D01*
X009954Y013930D01*
X009954Y000937D01*
X000505Y000937D01*
D11*
X003143Y003910D03*
X003143Y004107D03*
X003143Y004304D03*
X003143Y004500D03*
X003143Y004697D03*
X003143Y004894D03*
X003143Y005091D03*
X003143Y005288D03*
X003143Y005485D03*
X003143Y005681D03*
X003143Y005878D03*
X003143Y006075D03*
X006529Y006075D03*
X006529Y005878D03*
X006529Y005681D03*
X006529Y005485D03*
X006529Y005288D03*
X006529Y005091D03*
X006529Y004894D03*
X006529Y004697D03*
X006529Y004500D03*
X006529Y004304D03*
X006529Y004107D03*
X006529Y003910D03*
D12*
X005918Y003300D03*
X005722Y003300D03*
X005525Y003300D03*
X005328Y003300D03*
X005131Y003300D03*
X004934Y003300D03*
X004737Y003300D03*
X004540Y003300D03*
X004344Y003300D03*
X004147Y003300D03*
X003950Y003300D03*
X003753Y003300D03*
X003753Y006685D03*
X003950Y006685D03*
X004147Y006685D03*
X004344Y006685D03*
X004540Y006685D03*
X004737Y006685D03*
X004934Y006685D03*
X005131Y006685D03*
X005328Y006685D03*
X005525Y006685D03*
X005722Y006685D03*
X005918Y006685D03*
D13*
X005550Y008048D02*
X005500Y008048D01*
X005500Y008276D01*
X005550Y008276D01*
X005550Y008048D01*
X005550Y008096D02*
X005500Y008096D01*
X005500Y008144D02*
X005550Y008144D01*
X005550Y008192D02*
X005500Y008192D01*
X005500Y008240D02*
X005550Y008240D01*
X005686Y008412D02*
X005686Y008462D01*
X005914Y008462D01*
X005914Y008412D01*
X005686Y008412D01*
X005686Y008460D02*
X005914Y008460D01*
X005686Y008609D02*
X005686Y008659D01*
X005914Y008659D01*
X005914Y008609D01*
X005686Y008609D01*
X005686Y008657D02*
X005914Y008657D01*
X005686Y008806D02*
X005686Y008856D01*
X005914Y008856D01*
X005914Y008806D01*
X005686Y008806D01*
X005686Y008854D02*
X005914Y008854D01*
X005686Y009003D02*
X005686Y009053D01*
X005914Y009053D01*
X005914Y009003D01*
X005686Y009003D01*
X005686Y009051D02*
X005914Y009051D01*
X005686Y009200D02*
X005686Y009250D01*
X005914Y009250D01*
X005914Y009200D01*
X005686Y009200D01*
X005686Y009248D02*
X005914Y009248D01*
X005686Y009397D02*
X005686Y009447D01*
X005914Y009447D01*
X005914Y009397D01*
X005686Y009397D01*
X005686Y009445D02*
X005914Y009445D01*
X005686Y009594D02*
X005686Y009644D01*
X005914Y009644D01*
X005914Y009594D01*
X005686Y009594D01*
X005686Y009642D02*
X005914Y009642D01*
X005686Y009790D02*
X005686Y009840D01*
X005914Y009840D01*
X005914Y009790D01*
X005686Y009790D01*
X005686Y009838D02*
X005914Y009838D01*
X005550Y009977D02*
X005500Y009977D01*
X005500Y010205D01*
X005550Y010205D01*
X005550Y009977D01*
X005550Y010025D02*
X005500Y010025D01*
X005500Y010073D02*
X005550Y010073D01*
X005550Y010121D02*
X005500Y010121D01*
X005500Y010169D02*
X005550Y010169D01*
X005353Y009977D02*
X005303Y009977D01*
X005303Y010205D01*
X005353Y010205D01*
X005353Y009977D01*
X005353Y010025D02*
X005303Y010025D01*
X005303Y010073D02*
X005353Y010073D01*
X005353Y010121D02*
X005303Y010121D01*
X005303Y010169D02*
X005353Y010169D01*
X005156Y009977D02*
X005106Y009977D01*
X005106Y010205D01*
X005156Y010205D01*
X005156Y009977D01*
X005156Y010025D02*
X005106Y010025D01*
X005106Y010073D02*
X005156Y010073D01*
X005156Y010121D02*
X005106Y010121D01*
X005106Y010169D02*
X005156Y010169D01*
X004959Y009977D02*
X004909Y009977D01*
X004909Y010205D01*
X004959Y010205D01*
X004959Y009977D01*
X004959Y010025D02*
X004909Y010025D01*
X004909Y010073D02*
X004959Y010073D01*
X004959Y010121D02*
X004909Y010121D01*
X004909Y010169D02*
X004959Y010169D01*
X004762Y009977D02*
X004712Y009977D01*
X004712Y010205D01*
X004762Y010205D01*
X004762Y009977D01*
X004762Y010025D02*
X004712Y010025D01*
X004712Y010073D02*
X004762Y010073D01*
X004762Y010121D02*
X004712Y010121D01*
X004712Y010169D02*
X004762Y010169D01*
X004565Y009977D02*
X004515Y009977D01*
X004515Y010205D01*
X004565Y010205D01*
X004565Y009977D01*
X004565Y010025D02*
X004515Y010025D01*
X004515Y010073D02*
X004565Y010073D01*
X004565Y010121D02*
X004515Y010121D01*
X004515Y010169D02*
X004565Y010169D01*
X004369Y009977D02*
X004319Y009977D01*
X004319Y010205D01*
X004369Y010205D01*
X004369Y009977D01*
X004369Y010025D02*
X004319Y010025D01*
X004319Y010073D02*
X004369Y010073D01*
X004369Y010121D02*
X004319Y010121D01*
X004319Y010169D02*
X004369Y010169D01*
X004172Y009977D02*
X004122Y009977D01*
X004122Y010205D01*
X004172Y010205D01*
X004172Y009977D01*
X004172Y010025D02*
X004122Y010025D01*
X004122Y010073D02*
X004172Y010073D01*
X004172Y010121D02*
X004122Y010121D01*
X004122Y010169D02*
X004172Y010169D01*
X003757Y009840D02*
X003757Y009790D01*
X003757Y009840D02*
X003985Y009840D01*
X003985Y009790D01*
X003757Y009790D01*
X003757Y009838D02*
X003985Y009838D01*
X003757Y009644D02*
X003757Y009594D01*
X003757Y009644D02*
X003985Y009644D01*
X003985Y009594D01*
X003757Y009594D01*
X003757Y009642D02*
X003985Y009642D01*
X003757Y009447D02*
X003757Y009397D01*
X003757Y009447D02*
X003985Y009447D01*
X003985Y009397D01*
X003757Y009397D01*
X003757Y009445D02*
X003985Y009445D01*
X003757Y009250D02*
X003757Y009200D01*
X003757Y009250D02*
X003985Y009250D01*
X003985Y009200D01*
X003757Y009200D01*
X003757Y009248D02*
X003985Y009248D01*
X003757Y009053D02*
X003757Y009003D01*
X003757Y009053D02*
X003985Y009053D01*
X003985Y009003D01*
X003757Y009003D01*
X003757Y009051D02*
X003985Y009051D01*
X003757Y008856D02*
X003757Y008806D01*
X003757Y008856D02*
X003985Y008856D01*
X003985Y008806D01*
X003757Y008806D01*
X003757Y008854D02*
X003985Y008854D01*
X003757Y008659D02*
X003757Y008609D01*
X003757Y008659D02*
X003985Y008659D01*
X003985Y008609D01*
X003757Y008609D01*
X003757Y008657D02*
X003985Y008657D01*
X003757Y008462D02*
X003757Y008412D01*
X003757Y008462D02*
X003985Y008462D01*
X003985Y008412D01*
X003757Y008412D01*
X003757Y008460D02*
X003985Y008460D01*
X004122Y008048D02*
X004172Y008048D01*
X004122Y008048D02*
X004122Y008276D01*
X004172Y008276D01*
X004172Y008048D01*
X004172Y008096D02*
X004122Y008096D01*
X004122Y008144D02*
X004172Y008144D01*
X004172Y008192D02*
X004122Y008192D01*
X004122Y008240D02*
X004172Y008240D01*
X004319Y008048D02*
X004369Y008048D01*
X004319Y008048D02*
X004319Y008276D01*
X004369Y008276D01*
X004369Y008048D01*
X004369Y008096D02*
X004319Y008096D01*
X004319Y008144D02*
X004369Y008144D01*
X004369Y008192D02*
X004319Y008192D01*
X004319Y008240D02*
X004369Y008240D01*
X004515Y008048D02*
X004565Y008048D01*
X004515Y008048D02*
X004515Y008276D01*
X004565Y008276D01*
X004565Y008048D01*
X004565Y008096D02*
X004515Y008096D01*
X004515Y008144D02*
X004565Y008144D01*
X004565Y008192D02*
X004515Y008192D01*
X004515Y008240D02*
X004565Y008240D01*
X004712Y008048D02*
X004762Y008048D01*
X004712Y008048D02*
X004712Y008276D01*
X004762Y008276D01*
X004762Y008048D01*
X004762Y008096D02*
X004712Y008096D01*
X004712Y008144D02*
X004762Y008144D01*
X004762Y008192D02*
X004712Y008192D01*
X004712Y008240D02*
X004762Y008240D01*
X004909Y008048D02*
X004959Y008048D01*
X004909Y008048D02*
X004909Y008276D01*
X004959Y008276D01*
X004959Y008048D01*
X004959Y008096D02*
X004909Y008096D01*
X004909Y008144D02*
X004959Y008144D01*
X004959Y008192D02*
X004909Y008192D01*
X004909Y008240D02*
X004959Y008240D01*
X005106Y008048D02*
X005156Y008048D01*
X005106Y008048D02*
X005106Y008276D01*
X005156Y008276D01*
X005156Y008048D01*
X005156Y008096D02*
X005106Y008096D01*
X005106Y008144D02*
X005156Y008144D01*
X005156Y008192D02*
X005106Y008192D01*
X005106Y008240D02*
X005156Y008240D01*
X005303Y008048D02*
X005353Y008048D01*
X005303Y008048D02*
X005303Y008276D01*
X005353Y008276D01*
X005353Y008048D01*
X005353Y008096D02*
X005303Y008096D01*
X005303Y008144D02*
X005353Y008144D01*
X005353Y008192D02*
X005303Y008192D01*
X005303Y008240D02*
X005353Y008240D01*
D14*
X004252Y008542D02*
X004252Y009710D01*
X005420Y009710D01*
X005420Y008542D01*
X004252Y008542D01*
X004252Y008671D02*
X005420Y008671D01*
X005420Y008800D02*
X004252Y008800D01*
X004252Y008929D02*
X005420Y008929D01*
X005420Y009058D02*
X004252Y009058D01*
X004252Y009187D02*
X005420Y009187D01*
X005420Y009316D02*
X004252Y009316D01*
X004252Y009445D02*
X005420Y009445D01*
X005420Y009574D02*
X004252Y009574D01*
X004252Y009703D02*
X005420Y009703D01*
D15*
X005092Y011469D03*
X005092Y011725D03*
X005092Y011981D03*
X004580Y011981D03*
X004580Y011725D03*
X004580Y011469D03*
D16*
X007001Y008300D03*
X007001Y007670D03*
X007867Y007670D03*
X007867Y008300D03*
D17*
X007119Y002591D03*
X006489Y002591D03*
X006489Y001725D03*
X007119Y001725D03*
D18*
X007729Y001725D03*
X007729Y002197D03*
X005918Y002119D03*
X005918Y002591D03*
X006391Y007374D03*
X006391Y007847D03*
X008438Y007867D03*
X008438Y008339D03*
X005072Y010662D03*
X005072Y011134D03*
X004599Y011134D03*
X004599Y010662D03*
X004580Y012315D03*
X004580Y012788D03*
D19*
X007178Y009904D03*
X007729Y009904D03*
X007729Y009215D03*
X007178Y009215D03*
X003103Y008644D03*
X003103Y007955D03*
X002454Y007955D03*
X002454Y008644D03*
X007867Y003546D03*
X007867Y002857D03*
X008615Y003014D03*
X008615Y003703D03*
D20*
X002237Y003949D03*
X001863Y003949D03*
X001489Y003949D03*
X001489Y002926D03*
X002237Y002926D03*
D21*
X001844Y004776D03*
X001844Y005248D03*
X001332Y005248D03*
X001332Y004776D03*
D22*
X000505Y004481D03*
X000505Y003693D03*
X000505Y002906D03*
X000505Y002119D03*
X000505Y001331D03*
X000505Y005268D03*
X000505Y006056D03*
X000505Y006843D03*
X000505Y007630D03*
X000505Y008418D03*
X000505Y009205D03*
X000505Y009993D03*
X000505Y010780D03*
X009954Y010780D03*
X009954Y009993D03*
X009954Y009205D03*
X009954Y008418D03*
X009954Y007630D03*
X009954Y006843D03*
X009954Y006056D03*
X009954Y005268D03*
X009954Y004481D03*
X009954Y003693D03*
X009954Y002906D03*
X009954Y002119D03*
X009954Y001331D03*
D23*
X008231Y005229D03*
X007542Y005229D03*
X007562Y006587D03*
X008251Y006587D03*
X003881Y001548D03*
X003192Y001548D03*
D24*
X007454Y005918D03*
X008241Y005918D03*
D25*
X008615Y002394D03*
X003911Y002178D03*
X002474Y001725D03*
X001686Y001725D03*
D26*
X008596Y009402D03*
X009344Y009402D03*
D27*
X004580Y013359D03*
D28*
X004580Y011725D02*
X004442Y011725D01*
X004324Y011607D01*
X004324Y010426D01*
X004403Y010347D01*
X004462Y010347D01*
X004540Y010268D01*
X004540Y010091D01*
X004344Y010091D02*
X004324Y010111D01*
X004344Y010091D02*
X004344Y009619D01*
X004412Y009550D01*
X004442Y009520D02*
X004836Y009126D01*
X004403Y008693D01*
X004344Y008634D01*
X004344Y008162D01*
X004344Y008004D01*
X004245Y007906D01*
X003911Y007906D01*
X003891Y007926D01*
X003133Y007926D01*
X003103Y007955D01*
X002454Y007955D01*
X002080Y007630D02*
X001745Y007965D01*
X001745Y009363D01*
X002119Y009737D01*
X003399Y009737D01*
X003714Y009422D01*
X003871Y009422D01*
X003871Y009225D02*
X003674Y009225D01*
X003320Y009579D01*
X002513Y009579D01*
X002139Y009205D01*
X002454Y009087D02*
X002454Y008644D01*
X002454Y008664D01*
X002454Y009087D02*
X002769Y009402D01*
X003261Y009402D01*
X003635Y009028D01*
X003674Y009028D01*
X003635Y008989D01*
X003635Y008870D01*
X003674Y008831D01*
X003871Y008831D01*
X003871Y008634D02*
X003113Y008634D01*
X003103Y008644D01*
X003084Y008664D01*
X003635Y008359D02*
X003635Y008181D01*
X003891Y007926D01*
X003792Y007630D02*
X002080Y007630D01*
X002001Y007473D02*
X001588Y007886D01*
X001588Y009520D01*
X001962Y009894D01*
X003497Y009894D01*
X003891Y010288D01*
X004107Y010288D01*
X004147Y010248D01*
X004147Y010091D01*
X004599Y010445D02*
X004599Y010662D01*
X004599Y010445D02*
X004737Y010307D01*
X004737Y010091D01*
X004934Y010091D02*
X004934Y010307D01*
X005072Y010445D01*
X005072Y010662D01*
X005229Y010347D02*
X005131Y010248D01*
X005229Y010347D02*
X005269Y010347D01*
X005348Y010426D01*
X005348Y011666D01*
X005288Y011725D01*
X005092Y011469D02*
X005072Y011449D01*
X004599Y011449D02*
X004580Y011469D01*
X005525Y009815D02*
X005318Y009609D01*
X005180Y009471D01*
X005131Y009422D01*
X004836Y009126D01*
X004934Y009028D01*
X004934Y008162D01*
X004737Y008162D02*
X004737Y007906D01*
X004855Y007788D01*
X004855Y007158D01*
X004737Y007040D01*
X004737Y006685D01*
X004737Y006213D01*
X004639Y006115D01*
X004501Y006115D01*
X004442Y006056D01*
X004344Y006685D02*
X004344Y007079D01*
X003792Y007630D01*
X003714Y007473D02*
X002001Y007473D01*
X001922Y007315D02*
X001430Y007807D01*
X001430Y008280D01*
X000505Y009205D01*
X000505Y008418D02*
X001056Y008418D01*
X001273Y008201D01*
X001273Y007729D01*
X001844Y007158D01*
X002690Y007158D01*
X003655Y006193D01*
X003851Y006193D01*
X003950Y006292D01*
X003950Y006685D01*
X004147Y006685D02*
X004147Y007040D01*
X003714Y007473D01*
X003458Y007315D02*
X001922Y007315D01*
X001686Y006843D02*
X000505Y006843D01*
X000505Y006056D02*
X000859Y005701D01*
X002119Y005701D01*
X002533Y005288D01*
X003143Y005288D01*
X003143Y005485D02*
X002572Y005485D01*
X002040Y006016D01*
X001194Y006016D01*
X000781Y005544D02*
X002040Y005544D01*
X002277Y005307D01*
X002277Y005052D01*
X002631Y004697D01*
X003143Y004697D01*
X003143Y004894D02*
X003911Y004894D01*
X004127Y004678D01*
X004127Y004402D01*
X003812Y004087D01*
X003812Y003969D01*
X003438Y003595D01*
X003202Y003595D01*
X003123Y003516D01*
X003143Y003910D02*
X002808Y003910D01*
X002710Y003811D01*
X002710Y002650D01*
X002395Y002335D01*
X001273Y002335D01*
X001056Y002119D01*
X000505Y002119D01*
X000505Y002906D02*
X000938Y002906D01*
X001351Y002493D01*
X002316Y002493D01*
X002493Y002670D01*
X002493Y003910D01*
X002690Y004107D01*
X003143Y004107D01*
X003143Y004304D02*
X001942Y004304D01*
X001863Y004225D01*
X001863Y003949D01*
X001489Y003949D02*
X001489Y003477D01*
X001509Y003457D01*
X001489Y003122D02*
X001332Y003122D01*
X001214Y003241D01*
X001214Y004264D01*
X001332Y004382D01*
X001686Y004382D01*
X001844Y004540D01*
X001844Y004776D01*
X001942Y004678D01*
X002257Y004678D01*
X001844Y004776D02*
X001844Y005248D01*
X001332Y005248D02*
X001273Y005248D01*
X000505Y004481D01*
X000958Y004579D02*
X000958Y003930D01*
X000722Y003693D01*
X000505Y003693D01*
X000958Y004579D02*
X001155Y004776D01*
X001332Y004776D01*
X001332Y005248D02*
X001312Y005268D01*
X000781Y005544D02*
X000505Y005268D01*
X001686Y006843D02*
X002651Y005878D01*
X003143Y005878D01*
X003143Y006075D02*
X002690Y006075D01*
X001135Y007630D01*
X000505Y007630D01*
X002237Y003949D02*
X002237Y003496D01*
X002198Y003457D01*
X001489Y003122D02*
X001489Y002926D01*
X002139Y002178D02*
X001686Y001725D01*
X002139Y002178D02*
X002513Y002178D01*
X003103Y002768D01*
X003615Y002768D01*
X003753Y002906D01*
X003753Y003300D01*
X004147Y003300D02*
X004147Y002867D01*
X003871Y002591D01*
X003340Y002591D01*
X002474Y001725D01*
X003911Y002178D02*
X004344Y002611D01*
X004344Y003300D01*
X004737Y003300D02*
X004737Y001626D01*
X004560Y001449D01*
X004934Y001489D02*
X004974Y001449D01*
X004934Y001489D02*
X004934Y003300D01*
X005131Y003300D02*
X005131Y001705D01*
X005387Y001449D01*
X005328Y001922D02*
X006096Y001154D01*
X006863Y001154D01*
X007119Y001410D01*
X007119Y001725D01*
X007729Y001725D01*
X007651Y002119D02*
X007729Y002197D01*
X007651Y002119D02*
X005918Y002119D01*
X005918Y002591D02*
X005643Y002591D01*
X005525Y002709D01*
X005525Y003300D01*
X005328Y003300D02*
X005328Y001922D01*
X005918Y002591D02*
X006489Y002591D01*
X005918Y003300D02*
X006115Y003496D01*
X006371Y003496D01*
X006529Y004304D02*
X009777Y004304D01*
X009954Y004481D01*
X009521Y005071D02*
X009147Y004697D01*
X006529Y004697D01*
X006529Y004500D02*
X009186Y004500D01*
X009954Y005268D01*
X009521Y005071D02*
X009521Y005859D01*
X009718Y006056D01*
X009954Y006056D01*
X009324Y006213D02*
X009954Y006843D01*
X009324Y006213D02*
X009324Y005111D01*
X009107Y004894D01*
X006529Y004894D01*
X006529Y005288D02*
X006844Y005288D01*
X005918Y005485D02*
X005918Y006016D01*
X005918Y006685D01*
X005525Y007040D02*
X005623Y007138D01*
X005623Y007768D01*
X005525Y007867D01*
X005525Y008162D01*
X005328Y008162D02*
X005328Y007355D01*
X005033Y007138D02*
X005033Y007807D01*
X005131Y007906D01*
X005131Y008162D01*
X005131Y008831D02*
X004836Y009126D01*
X004540Y009422D01*
X004737Y009225D02*
X004836Y009126D01*
X004737Y009225D02*
X003871Y009225D01*
X003871Y009028D02*
X003674Y009028D01*
X003714Y008437D02*
X003871Y008437D01*
X003714Y008437D02*
X003635Y008359D01*
X003458Y007315D02*
X003753Y007020D01*
X003753Y006685D01*
X004540Y006685D02*
X004540Y007355D01*
X004481Y007748D02*
X004540Y007807D01*
X004540Y008162D01*
X005033Y007138D02*
X005131Y007040D01*
X005131Y006685D01*
X005131Y005878D01*
X005033Y005780D01*
X005328Y005583D02*
X005367Y005544D01*
X005328Y005583D02*
X005328Y006685D01*
X005525Y006685D02*
X005525Y007040D01*
X006391Y007374D02*
X006529Y007237D01*
X007985Y007237D01*
X007867Y007355D01*
X007867Y007650D01*
X007729Y007788D01*
X007631Y007788D01*
X007139Y008280D01*
X006981Y008280D01*
X006824Y007847D02*
X007001Y007670D01*
X006391Y007847D02*
X006391Y008083D01*
X006036Y008437D01*
X005800Y008437D01*
X005800Y008634D02*
X006529Y008634D01*
X006548Y008654D01*
X007513Y008654D01*
X007867Y008300D01*
X007887Y008752D02*
X007808Y008831D01*
X008753Y008831D01*
X008733Y008634D02*
X008733Y008004D01*
X008596Y007867D01*
X008438Y007867D01*
X008438Y007433D01*
X008241Y007237D01*
X007985Y007237D01*
X007867Y007650D02*
X007808Y007650D01*
X007631Y007827D01*
X007867Y007670D02*
X007867Y007650D01*
X007808Y008831D02*
X005800Y008831D01*
X005741Y009422D02*
X006036Y009422D01*
X006194Y009579D01*
X006194Y009855D01*
X006155Y009815D01*
X005761Y009815D01*
X005741Y009619D02*
X005958Y009619D01*
X006194Y009855D01*
X005151Y009619D02*
X005131Y009599D01*
X005131Y009422D01*
X005918Y005485D02*
X005288Y004855D01*
X005288Y004304D01*
X007867Y003556D02*
X007867Y003546D01*
D29*
X005218Y011311D02*
X004926Y011311D01*
X004926Y011315D01*
X005218Y011315D01*
X005218Y011311D01*
X005218Y011313D02*
X004926Y011313D01*
X004926Y011315D02*
X004954Y011410D01*
X004954Y011414D01*
X005227Y011414D01*
X005227Y011394D01*
X005218Y011315D01*
X005218Y011318D02*
X004927Y011318D01*
X004928Y011320D02*
X005218Y011320D01*
X005218Y011323D02*
X004928Y011323D01*
X004929Y011325D02*
X005219Y011325D01*
X005219Y011327D02*
X004930Y011327D01*
X004930Y011330D02*
X005219Y011330D01*
X005220Y011332D02*
X004931Y011332D01*
X004932Y011335D02*
X005220Y011335D01*
X005220Y011337D02*
X004933Y011337D01*
X004933Y011340D02*
X005221Y011340D01*
X005221Y011342D02*
X004934Y011342D01*
X004935Y011344D02*
X005221Y011344D01*
X005222Y011347D02*
X004935Y011347D01*
X004936Y011349D02*
X005222Y011349D01*
X005222Y011352D02*
X004937Y011352D01*
X004938Y011354D02*
X005222Y011354D01*
X005223Y011357D02*
X004938Y011357D01*
X004939Y011359D02*
X005223Y011359D01*
X005223Y011362D02*
X004940Y011362D01*
X004940Y011364D02*
X005224Y011364D01*
X005224Y011366D02*
X004941Y011366D01*
X004942Y011369D02*
X005224Y011369D01*
X005225Y011371D02*
X004943Y011371D01*
X004943Y011374D02*
X005225Y011374D01*
X005225Y011376D02*
X004944Y011376D01*
X004945Y011379D02*
X005226Y011379D01*
X005226Y011381D02*
X004945Y011381D01*
X004946Y011383D02*
X005226Y011383D01*
X005226Y011386D02*
X004947Y011386D01*
X004948Y011388D02*
X005227Y011388D01*
X005227Y011391D02*
X004948Y011391D01*
X004949Y011393D02*
X005227Y011393D01*
X005227Y011396D02*
X004950Y011396D01*
X004950Y011398D02*
X005227Y011398D01*
X005227Y011401D02*
X004951Y011401D01*
X004952Y011403D02*
X005227Y011403D01*
X005227Y011405D02*
X004953Y011405D01*
X004953Y011408D02*
X005227Y011408D01*
X005227Y011410D02*
X004954Y011410D01*
X004954Y011413D02*
X005227Y011413D01*
X004745Y011315D02*
X004745Y011311D01*
X004454Y011311D01*
X004454Y011315D01*
X004745Y011315D01*
X004718Y011410D01*
X004718Y011414D01*
X004444Y011414D01*
X004444Y011394D01*
X004454Y011315D01*
X004454Y011313D02*
X004745Y011313D01*
X004744Y011318D02*
X004454Y011318D01*
X004453Y011320D02*
X004744Y011320D01*
X004743Y011323D02*
X004453Y011323D01*
X004453Y011325D02*
X004742Y011325D01*
X004742Y011327D02*
X004452Y011327D01*
X004452Y011330D02*
X004741Y011330D01*
X004740Y011332D02*
X004452Y011332D01*
X004451Y011335D02*
X004740Y011335D01*
X004739Y011337D02*
X004451Y011337D01*
X004451Y011340D02*
X004738Y011340D01*
X004737Y011342D02*
X004450Y011342D01*
X004450Y011344D02*
X004737Y011344D01*
X004736Y011347D02*
X004450Y011347D01*
X004450Y011349D02*
X004735Y011349D01*
X004735Y011352D02*
X004449Y011352D01*
X004449Y011354D02*
X004734Y011354D01*
X004733Y011357D02*
X004449Y011357D01*
X004448Y011359D02*
X004732Y011359D01*
X004732Y011362D02*
X004448Y011362D01*
X004448Y011364D02*
X004731Y011364D01*
X004730Y011366D02*
X004447Y011366D01*
X004447Y011369D02*
X004730Y011369D01*
X004729Y011371D02*
X004447Y011371D01*
X004447Y011374D02*
X004728Y011374D01*
X004727Y011376D02*
X004446Y011376D01*
X004446Y011379D02*
X004727Y011379D01*
X004726Y011381D02*
X004446Y011381D01*
X004445Y011383D02*
X004725Y011383D01*
X004725Y011386D02*
X004445Y011386D01*
X004445Y011388D02*
X004724Y011388D01*
X004723Y011391D02*
X004444Y011391D01*
X004444Y011393D02*
X004722Y011393D01*
X004722Y011396D02*
X004444Y011396D01*
X004444Y011398D02*
X004721Y011398D01*
X004720Y011401D02*
X004444Y011401D01*
X004444Y011403D02*
X004720Y011403D01*
X004719Y011405D02*
X004444Y011405D01*
X004444Y011408D02*
X004718Y011408D01*
X004718Y011410D02*
X004444Y011410D01*
X004444Y011413D02*
X004718Y011413D01*
X004718Y012036D02*
X004442Y012036D01*
X004442Y012040D01*
X004434Y012134D01*
X004725Y012134D01*
X004718Y012040D01*
X004718Y012036D01*
X004718Y012037D02*
X004442Y012037D01*
X004442Y012039D02*
X004718Y012039D01*
X004718Y012042D02*
X004442Y012042D01*
X004442Y012044D02*
X004718Y012044D01*
X004718Y012046D02*
X004441Y012046D01*
X004441Y012049D02*
X004718Y012049D01*
X004719Y012051D02*
X004441Y012051D01*
X004441Y012054D02*
X004719Y012054D01*
X004719Y012056D02*
X004441Y012056D01*
X004440Y012059D02*
X004719Y012059D01*
X004719Y012061D02*
X004440Y012061D01*
X004440Y012063D02*
X004720Y012063D01*
X004720Y012066D02*
X004440Y012066D01*
X004440Y012068D02*
X004720Y012068D01*
X004720Y012071D02*
X004439Y012071D01*
X004439Y012073D02*
X004720Y012073D01*
X004721Y012076D02*
X004439Y012076D01*
X004439Y012078D02*
X004721Y012078D01*
X004721Y012081D02*
X004439Y012081D01*
X004438Y012083D02*
X004721Y012083D01*
X004721Y012085D02*
X004438Y012085D01*
X004438Y012088D02*
X004722Y012088D01*
X004722Y012090D02*
X004438Y012090D01*
X004438Y012093D02*
X004722Y012093D01*
X004722Y012095D02*
X004437Y012095D01*
X004437Y012098D02*
X004722Y012098D01*
X004723Y012100D02*
X004437Y012100D01*
X004437Y012102D02*
X004723Y012102D01*
X004723Y012105D02*
X004437Y012105D01*
X004436Y012107D02*
X004723Y012107D01*
X004723Y012110D02*
X004436Y012110D01*
X004436Y012112D02*
X004724Y012112D01*
X004724Y012115D02*
X004436Y012115D01*
X004436Y012117D02*
X004724Y012117D01*
X004724Y012120D02*
X004435Y012120D01*
X004435Y012122D02*
X004724Y012122D01*
X004725Y012124D02*
X004435Y012124D01*
X004435Y012127D02*
X004725Y012127D01*
X004725Y012129D02*
X004435Y012129D01*
X004434Y012132D02*
X004725Y012132D01*
X004725Y012134D02*
X004725Y012138D01*
X004434Y012138D01*
X004434Y012134D01*
X004434Y012137D02*
X004725Y012137D01*
X004725Y012945D02*
X004434Y012945D01*
X004434Y012949D01*
X004285Y013063D01*
X004874Y013063D01*
X004875Y013063D02*
X004725Y012949D01*
X004725Y012945D01*
X004725Y012946D02*
X004434Y012946D01*
X004434Y012948D02*
X004725Y012948D01*
X004727Y012951D02*
X004432Y012951D01*
X004429Y012953D02*
X004731Y012953D01*
X004734Y012956D02*
X004426Y012956D01*
X004423Y012958D02*
X004737Y012958D01*
X004740Y012960D02*
X004420Y012960D01*
X004416Y012963D02*
X004743Y012963D01*
X004746Y012965D02*
X004413Y012965D01*
X004410Y012968D02*
X004750Y012968D01*
X004753Y012970D02*
X004407Y012970D01*
X004404Y012973D02*
X004756Y012973D01*
X004759Y012975D02*
X004400Y012975D01*
X004397Y012977D02*
X004762Y012977D01*
X004766Y012980D02*
X004394Y012980D01*
X004391Y012982D02*
X004769Y012982D01*
X004772Y012985D02*
X004388Y012985D01*
X004384Y012987D02*
X004775Y012987D01*
X004778Y012990D02*
X004381Y012990D01*
X004378Y012992D02*
X004782Y012992D01*
X004785Y012994D02*
X004375Y012994D01*
X004372Y012997D02*
X004788Y012997D01*
X004791Y012999D02*
X004368Y012999D01*
X004365Y013002D02*
X004794Y013002D01*
X004798Y013004D02*
X004362Y013004D01*
X004359Y013007D02*
X004801Y013007D01*
X004804Y013009D02*
X004356Y013009D01*
X004352Y013012D02*
X004807Y013012D01*
X004810Y013014D02*
X004349Y013014D01*
X004346Y013016D02*
X004814Y013016D01*
X004817Y013019D02*
X004343Y013019D01*
X004340Y013021D02*
X004820Y013021D01*
X004823Y013024D02*
X004336Y013024D01*
X004333Y013026D02*
X004826Y013026D01*
X004830Y013029D02*
X004330Y013029D01*
X004327Y013031D02*
X004833Y013031D01*
X004836Y013033D02*
X004324Y013033D01*
X004321Y013036D02*
X004839Y013036D01*
X004842Y013038D02*
X004317Y013038D01*
X004314Y013041D02*
X004845Y013041D01*
X004849Y013043D02*
X004311Y013043D01*
X004308Y013046D02*
X004852Y013046D01*
X004855Y013048D02*
X004305Y013048D01*
X004301Y013051D02*
X004858Y013051D01*
X004861Y013053D02*
X004298Y013053D01*
X004295Y013055D02*
X004865Y013055D01*
X004868Y013058D02*
X004292Y013058D01*
X004289Y013060D02*
X004871Y013060D01*
X004875Y013063D02*
X004875Y013067D01*
X004285Y013067D01*
X004285Y013063D01*
X004285Y013065D02*
X004875Y013065D01*
D30*
X005092Y011981D02*
X005379Y011981D01*
X005379Y012000D01*
X009786Y012000D01*
X009786Y011152D01*
X009740Y011128D01*
X009688Y011091D01*
X009643Y011045D01*
X009605Y010993D01*
X009576Y010936D01*
X009556Y010875D01*
X009546Y010812D01*
X009546Y010809D01*
X009786Y010809D01*
X009786Y010751D01*
X009546Y010751D01*
X009546Y010748D01*
X009556Y010685D01*
X009576Y010624D01*
X009605Y010566D01*
X009643Y010514D01*
X009688Y010469D01*
X009740Y010431D01*
X009786Y010408D01*
X009786Y010384D01*
X009768Y010376D01*
X009748Y010397D01*
X005372Y010397D01*
X005386Y010410D01*
X005386Y011328D01*
X005398Y011340D01*
X005398Y011598D01*
X005373Y011622D01*
X005379Y011646D01*
X005379Y011725D01*
X005379Y011804D01*
X005369Y011842D01*
X005363Y011853D01*
X005369Y011864D01*
X005379Y011902D01*
X005379Y011981D01*
X005092Y011981D01*
X005092Y011981D01*
X005269Y011981D01*
X005328Y011922D01*
X005328Y011764D01*
X005288Y011725D01*
X005092Y011725D01*
X005379Y011725D01*
X005092Y011725D01*
X005092Y011725D01*
X005092Y011725D01*
X005092Y011981D01*
X005092Y011981D01*
X005092Y011934D01*
X005092Y011725D01*
X004580Y011725D01*
X004868Y011725D01*
X005092Y011725D01*
X005092Y011725D01*
X004580Y011725D01*
X004580Y011725D01*
X004580Y011725D01*
X004292Y011725D01*
X004292Y011804D01*
X004298Y011828D01*
X004274Y011852D01*
X004274Y012000D01*
X000673Y012000D01*
X000673Y011152D01*
X000719Y011128D01*
X000770Y011091D01*
X000816Y011045D01*
X000854Y010993D01*
X000883Y010936D01*
X000902Y010875D01*
X000912Y010812D01*
X000912Y010809D01*
X000673Y010809D01*
X000673Y010751D01*
X000912Y010751D01*
X000912Y010748D01*
X000902Y010685D01*
X000883Y010624D01*
X000854Y010566D01*
X000816Y010514D01*
X000770Y010469D01*
X000719Y010431D01*
X000673Y010408D01*
X000673Y010384D01*
X000746Y010353D01*
X000756Y010343D01*
X000770Y010357D01*
X003665Y010357D01*
X003666Y010357D01*
X003683Y010374D01*
X003805Y010495D01*
X004193Y010495D01*
X004310Y010379D01*
X004317Y010379D01*
X004286Y010410D01*
X004286Y011328D01*
X004274Y011340D01*
X004274Y011598D01*
X004298Y011622D01*
X004292Y011646D01*
X004292Y011725D01*
X004580Y011725D01*
X004580Y011981D02*
X004619Y011981D01*
X004292Y011772D02*
X000673Y011772D01*
X000673Y011674D02*
X004292Y011674D01*
X004274Y011575D02*
X000673Y011575D01*
X000673Y011477D02*
X004274Y011477D01*
X004274Y011378D02*
X000673Y011378D01*
X000673Y011280D02*
X004286Y011280D01*
X004286Y011181D02*
X000673Y011181D01*
X000778Y011083D02*
X004286Y011083D01*
X004286Y010984D02*
X000858Y010984D01*
X000899Y010886D02*
X004286Y010886D01*
X004286Y010787D02*
X000673Y010787D01*
X000903Y010689D02*
X004286Y010689D01*
X004286Y010590D02*
X000866Y010590D01*
X000793Y010492D02*
X003802Y010492D01*
X003703Y010393D02*
X000673Y010393D01*
X000673Y011871D02*
X004274Y011871D01*
X004274Y011969D02*
X000673Y011969D01*
X002205Y009529D02*
X002603Y009529D01*
X002561Y009488D01*
X002368Y009294D01*
X002246Y009173D01*
X002246Y009019D01*
X002172Y009019D01*
X002073Y008920D01*
X002073Y008368D01*
X002155Y008285D01*
X002149Y008282D01*
X002121Y008254D01*
X002101Y008220D01*
X002091Y008182D01*
X002091Y008005D01*
X002404Y008005D01*
X002404Y007905D01*
X002098Y007905D01*
X001953Y008051D01*
X001953Y009277D01*
X002205Y009529D01*
X002183Y009507D02*
X002580Y009507D01*
X002482Y009408D02*
X002084Y009408D01*
X001986Y009310D02*
X002383Y009310D01*
X002285Y009211D02*
X001953Y009211D01*
X001953Y009113D02*
X002246Y009113D01*
X002167Y009014D02*
X001953Y009014D01*
X001953Y008916D02*
X002073Y008916D01*
X002073Y008817D02*
X001953Y008817D01*
X001953Y008719D02*
X002073Y008719D01*
X002073Y008620D02*
X001953Y008620D01*
X001953Y008522D02*
X002073Y008522D01*
X002073Y008423D02*
X001953Y008423D01*
X001953Y008325D02*
X002116Y008325D01*
X002105Y008226D02*
X001953Y008226D01*
X001953Y008128D02*
X002091Y008128D01*
X002091Y008029D02*
X001974Y008029D01*
X002073Y007931D02*
X002404Y007931D01*
X002504Y007931D02*
X003053Y007931D01*
X003053Y007905D02*
X002816Y007905D01*
X002504Y007905D01*
X002504Y008005D01*
X003053Y008005D01*
X003053Y007905D01*
X003153Y007905D02*
X003153Y008005D01*
X003466Y008005D01*
X003466Y008182D01*
X003456Y008220D01*
X003436Y008254D01*
X003408Y008282D01*
X003402Y008285D01*
X003484Y008368D01*
X003484Y008427D01*
X003583Y008427D01*
X003583Y008390D01*
X003595Y008345D01*
X003605Y008329D01*
X003605Y008269D01*
X003703Y008171D01*
X003929Y008171D01*
X003929Y007969D01*
X004042Y007856D01*
X004172Y007856D01*
X004155Y007813D01*
X004155Y007683D01*
X004204Y007563D01*
X004253Y007515D01*
X004238Y007478D01*
X004000Y007716D01*
X004000Y007716D01*
X003878Y007838D01*
X003466Y007838D01*
X003466Y007905D01*
X003153Y007905D01*
X003153Y007931D02*
X003967Y007931D01*
X003929Y008029D02*
X003466Y008029D01*
X003466Y008128D02*
X003929Y008128D01*
X003884Y007832D02*
X004162Y007832D01*
X004155Y007734D02*
X003982Y007734D01*
X004081Y007635D02*
X004174Y007635D01*
X004179Y007537D02*
X004231Y007537D01*
X003648Y008226D02*
X003452Y008226D01*
X003441Y008325D02*
X003605Y008325D01*
X003583Y008423D02*
X003484Y008423D01*
X003871Y008437D02*
X004147Y008437D01*
X004403Y008693D01*
X005131Y008831D02*
X005800Y008831D01*
X005800Y009028D02*
X006489Y009028D01*
X006686Y009225D01*
X007178Y009225D01*
X007178Y009215D01*
X007178Y009225D02*
X007198Y009225D01*
X007493Y009559D02*
X007729Y009323D01*
X007729Y009215D01*
X007729Y009205D01*
X007493Y009559D02*
X006509Y009559D01*
X006174Y009225D01*
X005800Y009225D01*
X005800Y009422D02*
X005741Y009422D01*
X005229Y009422D01*
X005180Y009471D01*
X005131Y009638D02*
X005131Y010091D01*
X005131Y010248D01*
X005386Y010492D02*
X009666Y010492D01*
X009593Y010590D02*
X005386Y010590D01*
X005386Y010689D02*
X009556Y010689D01*
X009560Y010886D02*
X005386Y010886D01*
X005386Y010984D02*
X009601Y010984D01*
X009681Y011083D02*
X005386Y011083D01*
X005386Y011181D02*
X009786Y011181D01*
X009786Y011280D02*
X005386Y011280D01*
X005398Y011378D02*
X009786Y011378D01*
X009786Y011477D02*
X005398Y011477D01*
X005398Y011575D02*
X009786Y011575D01*
X009786Y011674D02*
X005379Y011674D01*
X005379Y011772D02*
X009786Y011772D01*
X009786Y011871D02*
X005371Y011871D01*
X005379Y011969D02*
X009786Y011969D01*
X009786Y010787D02*
X005386Y010787D01*
X006049Y010061D02*
X006816Y010061D01*
X006816Y009954D01*
X007128Y009954D01*
X007128Y009854D01*
X006816Y009854D01*
X006816Y009778D01*
X006419Y009778D01*
X006291Y009650D01*
X006126Y009485D01*
X006126Y009590D01*
X006088Y009628D01*
X006088Y009666D01*
X006086Y009672D01*
X006086Y009762D01*
X006088Y009768D01*
X006088Y009806D01*
X006126Y009844D01*
X006126Y009983D01*
X006049Y010061D01*
X006110Y009999D02*
X006816Y009999D01*
X006816Y009802D02*
X006088Y009802D01*
X006086Y009704D02*
X006345Y009704D01*
X006246Y009605D02*
X006110Y009605D01*
X006126Y009507D02*
X006148Y009507D01*
X005800Y009619D02*
X005741Y009619D01*
X005328Y009619D01*
X005318Y009609D01*
X005525Y009815D02*
X005761Y009815D01*
X005800Y009815D01*
X006126Y009901D02*
X007128Y009901D01*
X007228Y009901D02*
X007679Y009901D01*
X007679Y009854D02*
X007228Y009854D01*
X007228Y009954D01*
X007541Y009954D01*
X007679Y009954D01*
X007679Y009854D01*
X007779Y009854D02*
X007779Y009954D01*
X008092Y009954D01*
X008092Y010061D01*
X009528Y010061D01*
X009528Y009918D01*
X009476Y009865D01*
X009018Y009865D01*
X008970Y009817D01*
X008921Y009865D01*
X008270Y009865D01*
X008172Y009767D01*
X008172Y009532D01*
X008101Y009532D01*
X008079Y009523D01*
X008028Y009574D01*
X008034Y009577D01*
X008062Y009605D01*
X008082Y009639D01*
X008092Y009677D01*
X008092Y009854D01*
X007779Y009854D01*
X007779Y009901D02*
X009511Y009901D01*
X009528Y009999D02*
X008092Y009999D01*
X008092Y009802D02*
X008207Y009802D01*
X008172Y009704D02*
X008092Y009704D01*
X008062Y009605D02*
X008172Y009605D01*
X008162Y009225D02*
X008418Y009225D01*
X008596Y009402D01*
X008723Y008781D02*
X007679Y008781D01*
X007756Y008704D01*
X008212Y008704D01*
X008227Y008689D01*
X008653Y008689D01*
X008723Y008620D01*
X008723Y008781D01*
X008723Y008719D02*
X007741Y008719D01*
X007148Y008350D02*
X007148Y008250D01*
X007051Y008250D01*
X007051Y008350D01*
X007148Y008350D01*
X007148Y008325D02*
X007051Y008325D01*
X006951Y008325D02*
X006442Y008325D01*
X006443Y008427D02*
X006341Y008427D01*
X006570Y008197D01*
X006575Y008197D01*
X006575Y008250D01*
X006951Y008250D01*
X006951Y008350D01*
X006575Y008350D01*
X006575Y008427D01*
X006443Y008427D01*
X006344Y008423D02*
X006575Y008423D01*
X006575Y008226D02*
X006541Y008226D01*
X006037Y008144D02*
X006006Y008113D01*
X006006Y007237D01*
X005831Y007237D01*
X005831Y007854D01*
X005732Y007952D01*
X005732Y007959D01*
X005742Y007969D01*
X005742Y008220D01*
X005960Y008220D01*
X006037Y008144D01*
X006021Y008128D02*
X005742Y008128D01*
X005742Y008029D02*
X006006Y008029D01*
X006006Y007931D02*
X005754Y007931D01*
X005831Y007832D02*
X006006Y007832D01*
X006006Y007734D02*
X005831Y007734D01*
X005831Y007635D02*
X006006Y007635D01*
X006006Y007537D02*
X005831Y007537D01*
X005831Y007438D02*
X006006Y007438D01*
X006006Y007340D02*
X005831Y007340D01*
X005831Y007241D02*
X006006Y007241D01*
X006096Y006843D02*
X007227Y006843D01*
X007227Y006658D01*
X006379Y006658D01*
X006206Y006658D01*
X006096Y006548D01*
X006096Y006843D01*
X006096Y006749D02*
X007227Y006749D01*
X007633Y007237D02*
X007679Y007283D01*
X007817Y007283D01*
X007817Y007620D01*
X007720Y007620D01*
X007720Y007720D01*
X007817Y007720D01*
X007817Y007620D01*
X007917Y007620D01*
X007917Y007283D01*
X008163Y007283D01*
X008201Y007294D01*
X008235Y007313D01*
X008263Y007341D01*
X008283Y007376D01*
X008293Y007414D01*
X008293Y007534D01*
X008415Y007534D01*
X008415Y007844D01*
X008461Y007844D01*
X008461Y007889D01*
X008723Y007889D01*
X008723Y007844D01*
X008461Y007844D01*
X008461Y007534D01*
X008603Y007534D01*
X008642Y007545D01*
X008676Y007564D01*
X008704Y007592D01*
X008723Y007625D01*
X008723Y007237D01*
X007633Y007237D01*
X007637Y007241D02*
X008723Y007241D01*
X008723Y007340D02*
X008261Y007340D01*
X008293Y007438D02*
X008723Y007438D01*
X008723Y007537D02*
X008613Y007537D01*
X008461Y007537D02*
X008415Y007537D01*
X008415Y007635D02*
X008461Y007635D01*
X008461Y007734D02*
X008415Y007734D01*
X008415Y007832D02*
X008461Y007832D01*
X007917Y007537D02*
X007817Y007537D01*
X007817Y007635D02*
X007720Y007635D01*
X007817Y007438D02*
X007917Y007438D01*
X007917Y007340D02*
X007817Y007340D01*
X008301Y006637D02*
X008608Y006637D01*
X008608Y006819D01*
X008601Y006843D01*
X008950Y006843D01*
X008950Y007087D01*
X009010Y007147D01*
X009039Y007177D01*
X009039Y008811D01*
X009825Y008811D01*
X009825Y008782D01*
X009735Y008745D01*
X009626Y008636D01*
X009568Y008495D01*
X009568Y008341D01*
X009626Y008199D01*
X009735Y008090D01*
X009825Y008053D01*
X009825Y007995D01*
X009735Y007958D01*
X009626Y007849D01*
X009568Y007707D01*
X009568Y007553D01*
X009626Y007412D01*
X009735Y007303D01*
X009825Y007266D01*
X009825Y007208D01*
X009735Y007170D01*
X009626Y007062D01*
X009568Y006920D01*
X009568Y006766D01*
X009589Y006715D01*
X009156Y006283D01*
X009156Y005180D01*
X009038Y005062D01*
X008588Y005062D01*
X008588Y005179D01*
X008281Y005179D01*
X008281Y005279D01*
X008181Y005279D01*
X008181Y005453D01*
X008191Y005453D01*
X008191Y005868D01*
X008291Y005868D01*
X008291Y005968D01*
X008191Y005968D01*
X008191Y006224D01*
X008201Y006224D01*
X008201Y006537D01*
X008301Y006537D01*
X008301Y006383D01*
X008291Y006383D01*
X008291Y005968D01*
X008647Y005968D01*
X008647Y006252D01*
X008637Y006291D01*
X008617Y006325D01*
X008603Y006339D01*
X008608Y006355D01*
X009228Y006355D01*
X009156Y006256D02*
X008646Y006256D01*
X008647Y006158D02*
X009156Y006158D01*
X009156Y006059D02*
X008647Y006059D01*
X008647Y005868D02*
X008291Y005868D01*
X008291Y005591D01*
X008281Y005591D01*
X008281Y005279D01*
X008588Y005279D01*
X008588Y005461D01*
X008583Y005479D01*
X008589Y005483D01*
X008617Y005511D01*
X008637Y005545D01*
X008647Y005583D01*
X008647Y005868D01*
X008647Y005862D02*
X009156Y005862D01*
X009156Y005764D02*
X008647Y005764D01*
X008647Y005665D02*
X009156Y005665D01*
X009156Y005567D02*
X008643Y005567D01*
X008586Y005468D02*
X009156Y005468D01*
X009156Y005370D02*
X008588Y005370D01*
X008588Y005173D02*
X009148Y005173D01*
X009156Y005271D02*
X008281Y005271D01*
X008281Y005370D02*
X008181Y005370D01*
X008191Y005468D02*
X008281Y005468D01*
X008281Y005567D02*
X008191Y005567D01*
X008191Y005665D02*
X008291Y005665D01*
X008291Y005764D02*
X008191Y005764D01*
X008191Y005862D02*
X008291Y005862D01*
X008291Y005961D02*
X009156Y005961D01*
X009327Y006453D02*
X008608Y006453D01*
X008608Y006537D02*
X008608Y006355D01*
X008608Y006537D02*
X008301Y006537D01*
X008301Y006637D01*
X008301Y006552D02*
X009425Y006552D01*
X009524Y006650D02*
X008608Y006650D01*
X008608Y006749D02*
X009575Y006749D01*
X009568Y006847D02*
X008950Y006847D01*
X008950Y006946D02*
X009578Y006946D01*
X009619Y007044D02*
X008950Y007044D01*
X009006Y007143D02*
X009708Y007143D01*
X009786Y007237D02*
X009786Y007239D01*
X009713Y007270D01*
X009593Y007389D01*
X009528Y007546D01*
X009528Y007715D01*
X009593Y007871D01*
X009713Y007991D01*
X009786Y008021D01*
X009786Y008027D01*
X009713Y008057D01*
X009593Y008177D01*
X009528Y008333D01*
X009528Y008502D01*
X009593Y008659D01*
X009713Y008779D01*
X009786Y008809D01*
X009786Y008814D01*
X009754Y008827D01*
X009708Y008781D01*
X009157Y008781D01*
X009157Y007237D01*
X009786Y007237D01*
X009781Y007241D02*
X009157Y007241D01*
X009157Y007340D02*
X009642Y007340D01*
X009698Y007340D02*
X009039Y007340D01*
X009039Y007438D02*
X009615Y007438D01*
X009573Y007438D02*
X009157Y007438D01*
X009157Y007537D02*
X009532Y007537D01*
X009574Y007537D02*
X009039Y007537D01*
X009039Y007635D02*
X009568Y007635D01*
X009528Y007635D02*
X009157Y007635D01*
X009157Y007734D02*
X009536Y007734D01*
X009579Y007734D02*
X009039Y007734D01*
X009039Y007832D02*
X009619Y007832D01*
X009577Y007832D02*
X009157Y007832D01*
X009157Y007931D02*
X009653Y007931D01*
X009708Y007931D02*
X009039Y007931D01*
X009039Y008029D02*
X009825Y008029D01*
X009779Y008029D02*
X009157Y008029D01*
X009157Y008128D02*
X009642Y008128D01*
X009697Y008128D02*
X009039Y008128D01*
X009039Y008226D02*
X009615Y008226D01*
X009572Y008226D02*
X009157Y008226D01*
X009157Y008325D02*
X009532Y008325D01*
X009574Y008325D02*
X009039Y008325D01*
X009039Y008423D02*
X009568Y008423D01*
X009528Y008423D02*
X009157Y008423D01*
X009157Y008522D02*
X009536Y008522D01*
X009579Y008522D02*
X009039Y008522D01*
X009039Y008620D02*
X009620Y008620D01*
X009577Y008620D02*
X009157Y008620D01*
X009157Y008719D02*
X009653Y008719D01*
X009709Y008719D02*
X009039Y008719D01*
X008723Y008620D02*
X008722Y008620D01*
X009745Y008817D02*
X009778Y008817D01*
X009825Y007241D02*
X009039Y007241D01*
X008301Y006453D02*
X008201Y006453D01*
X008201Y006355D02*
X008291Y006355D01*
X008291Y006256D02*
X008201Y006256D01*
X008191Y006158D02*
X008291Y006158D01*
X008291Y006059D02*
X008191Y006059D01*
X007542Y005229D02*
X007405Y005091D01*
X006529Y005091D01*
X006155Y005091D01*
X005977Y004914D01*
X005977Y003930D01*
X005958Y003910D01*
X005781Y003910D01*
X005722Y003851D01*
X005288Y004284D01*
X005288Y004304D01*
X005025Y004188D02*
X004916Y004188D01*
X004893Y004197D02*
X004999Y004154D01*
X005079Y004073D01*
X005123Y003967D01*
X005123Y003853D01*
X005079Y003747D01*
X005056Y003724D01*
X005543Y003724D01*
X005543Y003777D01*
X005303Y004016D01*
X005231Y004016D01*
X005126Y004060D01*
X005045Y004141D01*
X005001Y004246D01*
X005001Y004361D01*
X005045Y004466D01*
X005120Y004542D01*
X005120Y004924D01*
X005472Y005276D01*
X005424Y005256D01*
X005310Y005256D01*
X005204Y005300D01*
X005123Y005381D01*
X005080Y005487D01*
X005080Y005492D01*
X004975Y005492D01*
X004896Y005525D01*
X004896Y005181D01*
X004961Y005116D01*
X005005Y005010D01*
X005005Y004896D01*
X004961Y004790D01*
X004880Y004709D01*
X004775Y004666D01*
X004660Y004666D01*
X004555Y004709D01*
X004474Y004790D01*
X004430Y004896D01*
X004430Y005010D01*
X004474Y005116D01*
X004539Y005181D01*
X004539Y005784D01*
X004499Y005768D01*
X004385Y005768D01*
X004279Y005812D01*
X004198Y005893D01*
X004155Y005998D01*
X004155Y006113D01*
X004198Y006218D01*
X004241Y006261D01*
X004118Y006261D01*
X004118Y006222D01*
X004020Y006124D01*
X003921Y006025D01*
X003585Y006025D01*
X003567Y006043D01*
X003567Y005062D01*
X003980Y005062D01*
X004295Y004747D01*
X004295Y004332D01*
X004197Y004234D01*
X003980Y004017D01*
X003980Y003899D01*
X003882Y003801D01*
X003882Y003801D01*
X003805Y003724D01*
X003824Y003724D01*
X003843Y003735D01*
X003881Y003745D01*
X003950Y003745D01*
X003950Y003300D01*
X003950Y003300D01*
X003950Y003745D01*
X004019Y003745D01*
X004057Y003735D01*
X004076Y003724D01*
X004362Y003724D01*
X004362Y003767D01*
X004548Y003954D01*
X004548Y003967D01*
X004592Y004073D01*
X004673Y004154D01*
X004779Y004197D01*
X004893Y004197D01*
X004756Y004188D02*
X004151Y004188D01*
X004249Y004286D02*
X005001Y004286D01*
X005011Y004385D02*
X004295Y004385D01*
X004295Y004483D02*
X005062Y004483D01*
X005120Y004582D02*
X004295Y004582D01*
X004295Y004680D02*
X004625Y004680D01*
X004810Y004680D02*
X005120Y004680D01*
X005120Y004779D02*
X004950Y004779D01*
X004997Y004877D02*
X005120Y004877D01*
X005172Y004976D02*
X005005Y004976D01*
X004979Y005074D02*
X005270Y005074D01*
X005369Y005173D02*
X004904Y005173D01*
X004896Y005271D02*
X005273Y005271D01*
X005134Y005370D02*
X004896Y005370D01*
X004896Y005468D02*
X005087Y005468D01*
X004718Y005937D02*
X004718Y004953D01*
X004531Y005173D02*
X003567Y005173D01*
X003567Y005271D02*
X004539Y005271D01*
X004539Y005370D02*
X003567Y005370D01*
X003567Y005468D02*
X004539Y005468D01*
X004539Y005567D02*
X003567Y005567D01*
X003567Y005665D02*
X004539Y005665D01*
X004539Y005764D02*
X003567Y005764D01*
X003567Y005862D02*
X004229Y005862D01*
X004170Y005961D02*
X003567Y005961D01*
X003955Y006059D02*
X004155Y006059D01*
X004173Y006158D02*
X004054Y006158D01*
X004118Y006256D02*
X004236Y006256D01*
X004718Y005937D02*
X004934Y006154D01*
X004934Y006685D01*
X005461Y005271D02*
X005467Y005271D01*
X005643Y004953D02*
X005643Y004776D01*
X005643Y004953D02*
X005977Y005288D01*
X006529Y005288D01*
X006844Y005288D02*
X006962Y005288D01*
X007178Y005504D01*
X007178Y005642D01*
X007454Y005918D01*
X008588Y005074D02*
X009050Y005074D01*
X008483Y004089D02*
X006974Y004089D01*
X009825Y004089D01*
X009825Y004116D02*
X009825Y004058D01*
X009735Y004021D01*
X009626Y003912D01*
X009568Y003770D01*
X009568Y003616D01*
X009626Y003475D01*
X009735Y003366D01*
X009825Y003329D01*
X009825Y003271D01*
X009735Y003233D01*
X009626Y003125D01*
X009568Y002983D01*
X009568Y002829D01*
X009626Y002687D01*
X009735Y002578D01*
X009825Y002541D01*
X009825Y002483D01*
X009735Y002446D01*
X009626Y002337D01*
X009568Y002195D01*
X009568Y002042D01*
X009626Y001900D01*
X009735Y001791D01*
X009825Y001754D01*
X009825Y001718D01*
X009797Y001709D01*
X009740Y001680D01*
X009688Y001642D01*
X009643Y001597D01*
X009605Y001545D01*
X009576Y001488D01*
X009556Y001427D01*
X009546Y001363D01*
X009546Y001360D01*
X009825Y001360D01*
X009825Y001302D01*
X009546Y001302D01*
X009546Y001299D01*
X009556Y001236D01*
X009576Y001175D01*
X009605Y001118D01*
X009643Y001066D01*
X007013Y001066D01*
X007189Y001242D01*
X007268Y001320D01*
X007409Y001320D01*
X007484Y001396D01*
X007484Y001460D01*
X007530Y001414D01*
X007928Y001414D01*
X008004Y001489D01*
X008004Y001938D01*
X008015Y001957D01*
X008025Y001995D01*
X008025Y002174D01*
X007752Y002174D01*
X007752Y002220D01*
X008025Y002220D01*
X008025Y002399D01*
X008015Y002437D01*
X007995Y002471D01*
X007967Y002499D01*
X007966Y002500D01*
X008100Y002500D01*
X008138Y002510D01*
X008172Y002530D01*
X008200Y002558D01*
X008201Y002560D01*
X008181Y002498D01*
X008172Y002444D01*
X008565Y002444D01*
X008565Y002344D01*
X008172Y002344D01*
X008181Y002290D01*
X008203Y002223D01*
X008234Y002161D01*
X008276Y002104D01*
X008325Y002054D01*
X008382Y002013D01*
X008444Y001981D01*
X008511Y001960D01*
X008565Y001951D01*
X008565Y002344D01*
X008665Y002344D01*
X008665Y001951D01*
X008720Y001960D01*
X008786Y001981D01*
X008849Y002013D01*
X008905Y002054D01*
X008955Y002104D01*
X008996Y002161D01*
X009028Y002223D01*
X009050Y002290D01*
X009058Y002344D01*
X008665Y002344D01*
X008665Y002444D01*
X008565Y002444D01*
X008565Y002837D01*
X008565Y002964D01*
X008253Y002964D01*
X008253Y002788D01*
X008263Y002750D01*
X008283Y002715D01*
X008295Y002703D01*
X008276Y002684D01*
X008234Y002627D01*
X008223Y002605D01*
X008230Y002630D01*
X008230Y002807D01*
X007917Y002807D01*
X007917Y002907D01*
X008230Y002907D01*
X008230Y003083D01*
X008220Y003121D01*
X008200Y003155D01*
X008172Y003183D01*
X008138Y003203D01*
X008253Y003203D01*
X008253Y003241D02*
X008253Y003064D01*
X008565Y003064D01*
X008565Y002964D01*
X008665Y002964D01*
X008665Y002444D01*
X009058Y002444D01*
X009050Y002498D01*
X009028Y002565D01*
X008996Y002627D01*
X008955Y002684D01*
X008936Y002703D01*
X008948Y002715D01*
X008968Y002750D01*
X008978Y002788D01*
X008978Y002964D01*
X008665Y002964D01*
X008665Y003064D01*
X008978Y003064D01*
X008978Y003241D01*
X008968Y003279D01*
X008948Y003313D01*
X008920Y003341D01*
X008886Y003361D01*
X008859Y003368D01*
X008881Y003368D01*
X008957Y003443D01*
X008957Y003963D01*
X008881Y004039D01*
X008533Y004039D01*
X008483Y004089D01*
X008409Y003910D02*
X008615Y003703D01*
X008409Y003910D02*
X006529Y003910D01*
X005958Y003910D01*
X005722Y003851D02*
X005722Y003300D01*
X006096Y002951D02*
X006047Y002902D01*
X006117Y002902D01*
X006124Y002895D01*
X006124Y002920D01*
X006200Y002995D01*
X006779Y002995D01*
X006789Y002985D01*
X006791Y002987D01*
X006825Y003006D01*
X006863Y003017D01*
X007069Y003017D01*
X007069Y002641D01*
X007169Y002641D01*
X007169Y003017D01*
X007375Y003017D01*
X007413Y003006D01*
X007447Y002987D01*
X007475Y002959D01*
X007495Y002924D01*
X007505Y002886D01*
X007505Y002807D01*
X007817Y002807D01*
X007817Y002907D01*
X007505Y002907D01*
X007505Y003083D01*
X007515Y003121D01*
X007535Y003155D01*
X007563Y003183D01*
X007597Y003203D01*
X007623Y003210D01*
X007601Y003210D01*
X007526Y003286D01*
X007526Y003377D01*
X006633Y003377D01*
X006615Y003334D01*
X006534Y003253D01*
X006428Y003209D01*
X006314Y003209D01*
X006208Y003253D01*
X006159Y003302D01*
X006096Y003240D01*
X006096Y002951D01*
X006124Y002907D02*
X006053Y002907D01*
X006096Y003006D02*
X006824Y003006D01*
X007069Y003006D02*
X007169Y003006D01*
X007169Y002907D02*
X007069Y002907D01*
X007069Y002809D02*
X007169Y002809D01*
X007169Y002710D02*
X007069Y002710D01*
X007169Y002641D02*
X007505Y002641D01*
X007505Y002630D01*
X007515Y002592D01*
X007535Y002558D01*
X007563Y002530D01*
X007564Y002529D01*
X007526Y002519D01*
X007505Y002507D01*
X007505Y002541D01*
X007169Y002541D01*
X007169Y002165D01*
X007375Y002165D01*
X007413Y002176D01*
X007447Y002195D01*
X007472Y002220D01*
X007707Y002220D01*
X007707Y002174D01*
X007434Y002174D01*
X007434Y002104D01*
X007409Y002129D01*
X006830Y002129D01*
X006819Y002119D01*
X006818Y002120D01*
X006783Y002140D01*
X006745Y002150D01*
X006539Y002150D01*
X006539Y001775D01*
X006439Y001775D01*
X006439Y001675D01*
X006103Y001675D01*
X006103Y001429D01*
X006113Y001391D01*
X006133Y001357D01*
X006161Y001329D01*
X006173Y001322D01*
X006165Y001322D01*
X005496Y001991D01*
X005496Y002500D01*
X005573Y002423D01*
X005644Y002423D01*
X005644Y002378D01*
X005633Y002358D01*
X005623Y002320D01*
X005623Y002141D01*
X005896Y002141D01*
X005896Y002096D01*
X005941Y002096D01*
X005941Y001786D01*
X006084Y001786D01*
X006103Y001792D01*
X006103Y001775D01*
X006439Y001775D01*
X006439Y002150D01*
X006233Y002150D01*
X006214Y002145D01*
X006214Y002187D01*
X006779Y002187D01*
X006789Y002197D01*
X006791Y002195D01*
X006825Y002176D01*
X006863Y002165D01*
X007069Y002165D01*
X007069Y002541D01*
X007169Y002541D01*
X007169Y002641D01*
X007169Y002612D02*
X007510Y002612D01*
X007505Y002513D02*
X007516Y002513D01*
X007470Y002218D02*
X007707Y002218D01*
X007752Y002218D02*
X008205Y002218D01*
X008177Y002316D02*
X008025Y002316D01*
X008021Y002415D02*
X008565Y002415D01*
X008565Y002513D02*
X008665Y002513D01*
X008665Y002415D02*
X009704Y002415D01*
X009618Y002316D02*
X009054Y002316D01*
X009025Y002218D02*
X009577Y002218D01*
X009568Y002119D02*
X008966Y002119D01*
X008859Y002021D02*
X009576Y002021D01*
X009617Y001922D02*
X008004Y001922D01*
X008004Y001824D02*
X009702Y001824D01*
X009825Y001725D02*
X008004Y001725D01*
X008004Y001627D02*
X009673Y001627D01*
X009597Y001528D02*
X008004Y001528D01*
X007944Y001430D02*
X009557Y001430D01*
X009557Y001233D02*
X007180Y001233D01*
X007081Y001134D02*
X009597Y001134D01*
X009825Y001331D02*
X007420Y001331D01*
X007484Y001430D02*
X007514Y001430D01*
X007434Y002119D02*
X007418Y002119D01*
X007169Y002218D02*
X007069Y002218D01*
X007069Y002316D02*
X007169Y002316D01*
X007169Y002415D02*
X007069Y002415D01*
X007069Y002513D02*
X007169Y002513D01*
X007505Y002809D02*
X007817Y002809D01*
X007917Y002809D02*
X008253Y002809D01*
X008253Y002907D02*
X008230Y002907D01*
X008230Y003006D02*
X008565Y003006D01*
X008565Y002907D02*
X008665Y002907D01*
X008665Y002809D02*
X008565Y002809D01*
X008565Y002710D02*
X008665Y002710D01*
X008665Y002612D02*
X008565Y002612D01*
X008288Y002710D02*
X008230Y002710D01*
X008225Y002612D02*
X008226Y002612D01*
X008186Y002513D02*
X008143Y002513D01*
X008025Y002119D02*
X008264Y002119D01*
X008371Y002021D02*
X008025Y002021D01*
X008565Y002021D02*
X008665Y002021D01*
X008665Y002119D02*
X008565Y002119D01*
X008565Y002218D02*
X008665Y002218D01*
X008665Y002316D02*
X008565Y002316D01*
X008943Y002710D02*
X009617Y002710D01*
X009576Y002809D02*
X008978Y002809D01*
X008978Y002907D02*
X009568Y002907D01*
X009577Y003006D02*
X008665Y003006D01*
X008978Y003104D02*
X009618Y003104D01*
X009705Y003203D02*
X008978Y003203D01*
X008955Y003301D02*
X009825Y003301D01*
X009701Y003400D02*
X008913Y003400D01*
X008957Y003498D02*
X009617Y003498D01*
X009576Y003597D02*
X008957Y003597D01*
X008957Y003695D02*
X009568Y003695D01*
X009577Y003794D02*
X008957Y003794D01*
X008957Y003892D02*
X009618Y003892D01*
X009705Y003991D02*
X008929Y003991D01*
X008371Y003368D02*
X008345Y003361D01*
X008311Y003341D01*
X008283Y003313D01*
X008263Y003279D01*
X008253Y003241D01*
X008209Y003286D02*
X008209Y003731D01*
X008274Y003731D01*
X008274Y003443D01*
X008349Y003368D01*
X008371Y003368D01*
X008317Y003400D02*
X008209Y003400D01*
X008209Y003498D02*
X008274Y003498D01*
X008274Y003597D02*
X008209Y003597D01*
X008209Y003695D02*
X008274Y003695D01*
X008276Y003301D02*
X008209Y003301D01*
X008209Y003286D02*
X008133Y003210D01*
X008111Y003210D01*
X008138Y003203D01*
X008224Y003104D02*
X008253Y003104D01*
X007867Y003556D02*
X006529Y003556D01*
X006470Y003496D01*
X006371Y003496D01*
X006160Y003301D02*
X006158Y003301D01*
X006096Y003203D02*
X007596Y003203D01*
X007526Y003301D02*
X006583Y003301D01*
X006096Y003104D02*
X007510Y003104D01*
X007505Y003006D02*
X007414Y003006D01*
X007500Y002907D02*
X007505Y002907D01*
X006819Y002119D02*
X006820Y002119D01*
X006539Y002119D02*
X006439Y002119D01*
X006439Y002021D02*
X006539Y002021D01*
X006539Y001922D02*
X006439Y001922D01*
X006439Y001824D02*
X006539Y001824D01*
X006439Y001725D02*
X005762Y001725D01*
X005753Y001786D02*
X005896Y001786D01*
X005896Y002096D01*
X005623Y002096D01*
X005623Y001917D01*
X005633Y001879D01*
X005653Y001844D01*
X005681Y001816D01*
X005715Y001797D01*
X005753Y001786D01*
X005673Y001824D02*
X005663Y001824D01*
X005623Y001922D02*
X005565Y001922D01*
X005623Y002021D02*
X005496Y002021D01*
X005496Y002119D02*
X005896Y002119D01*
X005896Y002021D02*
X005941Y002021D01*
X005941Y001922D02*
X005896Y001922D01*
X005896Y001824D02*
X005941Y001824D01*
X005860Y001627D02*
X006103Y001627D01*
X006103Y001528D02*
X005959Y001528D01*
X006057Y001430D02*
X006103Y001430D01*
X006156Y001331D02*
X006159Y001331D01*
X005927Y001084D02*
X005658Y001353D01*
X005631Y001286D01*
X005550Y001205D01*
X005444Y001162D01*
X005330Y001162D01*
X005224Y001205D01*
X005180Y001249D01*
X005136Y001205D01*
X005031Y001162D01*
X004916Y001162D01*
X004811Y001205D01*
X004767Y001249D01*
X004723Y001205D01*
X004617Y001162D01*
X004503Y001162D01*
X004397Y001205D01*
X004316Y001286D01*
X004273Y001392D01*
X004273Y001496D01*
X004237Y001461D01*
X004216Y001440D01*
X004216Y001282D01*
X004141Y001206D01*
X003621Y001206D01*
X003546Y001282D01*
X003546Y001304D01*
X003538Y001277D01*
X003519Y001243D01*
X003491Y001215D01*
X003457Y001195D01*
X003418Y001185D01*
X003242Y001185D01*
X003242Y001498D01*
X003142Y001498D01*
X003142Y001185D01*
X002966Y001185D01*
X002927Y001195D01*
X002893Y001215D01*
X002865Y001243D01*
X002846Y001277D01*
X002835Y001315D01*
X002835Y001490D01*
X002833Y001485D01*
X002714Y001365D01*
X002558Y001301D01*
X002389Y001301D01*
X002233Y001365D01*
X002114Y001485D01*
X002080Y001567D01*
X002046Y001485D01*
X001926Y001365D01*
X001770Y001301D01*
X001602Y001301D01*
X001446Y001365D01*
X001327Y001485D01*
X001262Y001640D01*
X001262Y001809D01*
X001327Y001965D01*
X001446Y002084D01*
X001602Y002149D01*
X001770Y002149D01*
X001843Y002119D01*
X001841Y002119D01*
X001843Y002119D02*
X001890Y002167D01*
X001342Y002167D01*
X001224Y002049D01*
X001126Y001950D01*
X000853Y001950D01*
X000832Y001900D01*
X000724Y001791D01*
X000634Y001754D01*
X000634Y001718D01*
X000661Y001709D01*
X000719Y001680D01*
X000770Y001642D01*
X000816Y001597D01*
X000854Y001545D01*
X000883Y001488D01*
X000902Y001427D01*
X000912Y001363D01*
X000912Y001360D01*
X000634Y001360D01*
X000634Y001302D01*
X000912Y001302D01*
X000912Y001299D01*
X000902Y001236D01*
X000883Y001175D01*
X000854Y001118D01*
X000816Y001066D01*
X005946Y001066D01*
X005927Y001084D01*
X005877Y001134D02*
X000862Y001134D01*
X000902Y001233D02*
X002875Y001233D01*
X002835Y001331D02*
X002632Y001331D01*
X002778Y001430D02*
X002835Y001430D01*
X003142Y001430D02*
X003242Y001430D01*
X003242Y001331D02*
X003142Y001331D01*
X003142Y001233D02*
X003242Y001233D01*
X003509Y001233D02*
X003594Y001233D01*
X003242Y001598D02*
X003142Y001598D01*
X003142Y001910D01*
X002966Y001910D01*
X002927Y001900D01*
X002893Y001880D01*
X002875Y001862D01*
X002868Y001881D01*
X003409Y002423D01*
X003556Y002423D01*
X003551Y002418D01*
X003486Y002262D01*
X003486Y002093D01*
X003551Y001937D01*
X003610Y001878D01*
X003546Y001814D01*
X003546Y001792D01*
X003538Y001818D01*
X003519Y001852D01*
X003491Y001880D01*
X003457Y001900D01*
X003418Y001910D01*
X003242Y001910D01*
X003242Y001598D01*
X003242Y001627D02*
X003142Y001627D01*
X003142Y001725D02*
X003242Y001725D01*
X003242Y001824D02*
X003142Y001824D01*
X003007Y002021D02*
X003516Y002021D01*
X003486Y002119D02*
X003106Y002119D01*
X003204Y002218D02*
X003486Y002218D01*
X003509Y002316D02*
X003303Y002316D01*
X003401Y002415D02*
X003550Y002415D01*
X003566Y001922D02*
X002909Y001922D01*
X002315Y001331D02*
X001844Y001331D01*
X001991Y001430D02*
X002169Y001430D01*
X002096Y001528D02*
X002064Y001528D01*
X001528Y001331D02*
X000634Y001331D01*
X000901Y001430D02*
X001381Y001430D01*
X001309Y001528D02*
X000862Y001528D01*
X000785Y001627D02*
X001268Y001627D01*
X001262Y001725D02*
X000634Y001725D01*
X000757Y001824D02*
X001268Y001824D01*
X001309Y001922D02*
X000842Y001922D01*
X001196Y002021D02*
X001383Y002021D01*
X001295Y002119D02*
X001531Y002119D01*
X001726Y002661D02*
X001726Y003215D01*
X001700Y003241D01*
X001753Y003294D01*
X001796Y003400D01*
X001910Y003400D01*
X001954Y003294D01*
X002017Y003232D01*
X002000Y003215D01*
X002000Y002661D01*
X001726Y002661D01*
X001726Y002710D02*
X002000Y002710D01*
X002000Y002809D02*
X001726Y002809D01*
X001726Y002907D02*
X002000Y002907D01*
X002000Y003006D02*
X001726Y003006D01*
X001726Y003104D02*
X002000Y003104D01*
X002000Y003203D02*
X001726Y003203D01*
X001756Y003301D02*
X001951Y003301D01*
X001910Y003400D02*
X001910Y003514D01*
X001931Y003563D01*
X001867Y003563D01*
X001867Y003945D01*
X001859Y003945D01*
X001859Y003563D01*
X001776Y003563D01*
X001796Y003514D01*
X001796Y003400D01*
X001796Y003498D02*
X001910Y003498D01*
X001867Y003597D02*
X001859Y003597D01*
X001859Y003695D02*
X001867Y003695D01*
X001859Y003794D02*
X001867Y003794D01*
X001859Y003892D02*
X001867Y003892D01*
X001867Y003953D02*
X001867Y004326D01*
X001859Y004318D01*
X001859Y003953D01*
X001867Y003953D01*
X001859Y003991D02*
X001867Y003991D01*
X001859Y004089D02*
X001867Y004089D01*
X001859Y004188D02*
X001867Y004188D01*
X001859Y004286D02*
X001867Y004286D01*
X001877Y004335D02*
X001913Y004372D01*
X002012Y004470D01*
X002035Y004470D01*
X002046Y004482D01*
X002094Y004434D01*
X002200Y004390D01*
X002292Y004390D01*
X002360Y004322D01*
X002698Y004322D01*
X002698Y004304D01*
X003143Y004304D01*
X003143Y004304D01*
X002698Y004304D01*
X002698Y004275D01*
X002620Y004275D01*
X002474Y004129D01*
X002474Y004239D01*
X002399Y004314D01*
X002076Y004314D01*
X002065Y004304D01*
X002064Y004306D01*
X002029Y004325D01*
X001991Y004335D01*
X001877Y004335D01*
X001926Y004385D02*
X002297Y004385D01*
X002427Y004286D02*
X002698Y004286D01*
X002534Y004188D02*
X002474Y004188D01*
X002434Y004500D02*
X003143Y004500D01*
X003773Y004500D01*
X004052Y004089D02*
X004609Y004089D01*
X004558Y003991D02*
X003980Y003991D01*
X003973Y003892D02*
X004487Y003892D01*
X004388Y003794D02*
X003875Y003794D01*
X003950Y003792D02*
X004107Y003949D01*
X003950Y003792D02*
X003950Y003300D01*
X003950Y003301D02*
X003950Y003301D01*
X003950Y003400D02*
X003950Y003400D01*
X003950Y003498D02*
X003950Y003498D01*
X003950Y003597D02*
X003950Y003597D01*
X003950Y003695D02*
X003950Y003695D01*
X004540Y003693D02*
X004540Y003300D01*
X004540Y002059D01*
X004363Y001882D01*
X004273Y001430D02*
X004216Y001430D01*
X004216Y001331D02*
X004298Y001331D01*
X004370Y001233D02*
X004168Y001233D01*
X004750Y001233D02*
X004783Y001233D01*
X005164Y001233D02*
X005197Y001233D01*
X005577Y001233D02*
X005779Y001233D01*
X005680Y001331D02*
X005649Y001331D01*
X005623Y002218D02*
X005496Y002218D01*
X005496Y002316D02*
X005623Y002316D01*
X005644Y002415D02*
X005496Y002415D01*
X004540Y003693D02*
X004757Y003910D01*
X004836Y003910D01*
X005099Y003794D02*
X005526Y003794D01*
X005427Y003892D02*
X005123Y003892D01*
X005113Y003991D02*
X005329Y003991D01*
X005096Y004089D02*
X005063Y004089D01*
X004485Y004779D02*
X004263Y004779D01*
X004165Y004877D02*
X004438Y004877D01*
X004430Y004976D02*
X004066Y004976D01*
X004457Y005074D02*
X003567Y005074D01*
X002434Y004500D02*
X002257Y004678D01*
X003535Y001824D02*
X003556Y001824D01*
X006529Y004107D02*
X007159Y004107D01*
X006974Y004107D02*
X006974Y004135D01*
X009778Y004135D01*
X009825Y004116D01*
X009702Y002612D02*
X009004Y002612D01*
X009045Y002513D02*
X009825Y002513D01*
X006974Y004089D02*
X006974Y004107D01*
X006529Y004107D01*
X006529Y004107D01*
X006974Y004107D01*
X006100Y006552D02*
X006096Y006552D01*
X006096Y006650D02*
X006198Y006650D01*
X004412Y009550D02*
X004540Y009678D01*
X004540Y010091D01*
X004302Y010393D02*
X004295Y010393D01*
X004286Y010492D02*
X004197Y010492D01*
X005092Y011772D02*
X005092Y011772D01*
X005092Y011871D02*
X005092Y011871D01*
X005092Y011969D02*
X005092Y011969D01*
X009751Y010393D02*
X009786Y010393D01*
D31*
X009304Y009953D03*
X008911Y009953D03*
X008418Y009953D03*
X008596Y010681D03*
X008596Y011272D03*
X008596Y011863D03*
X009186Y011863D03*
X009186Y011272D03*
X008005Y011272D03*
X008005Y010681D03*
X007414Y010681D03*
X007414Y011272D03*
X007414Y011863D03*
X006824Y011863D03*
X006824Y011272D03*
X006824Y010681D03*
X006233Y010681D03*
X006233Y011272D03*
X006233Y011863D03*
X005643Y011863D03*
X005643Y011272D03*
X005643Y010681D03*
X006194Y009855D03*
X006725Y009914D03*
X005899Y008083D03*
X005918Y007374D03*
X005328Y007355D03*
X004540Y007355D03*
X004481Y007748D03*
X003832Y007965D03*
X003517Y008300D03*
X003103Y009107D03*
X002139Y009205D03*
X002040Y008300D03*
X002277Y010681D03*
X002277Y011272D03*
X002277Y011863D03*
X001686Y011863D03*
X001686Y011272D03*
X001686Y010681D03*
X001096Y010681D03*
X001096Y011272D03*
X001096Y011863D03*
X002867Y011863D03*
X002867Y011272D03*
X002867Y010681D03*
X003458Y010681D03*
X003458Y011272D03*
X003458Y011863D03*
X004048Y011863D03*
X004048Y011272D03*
X004048Y010681D03*
X005092Y009520D03*
X005210Y008713D03*
X004501Y008713D03*
X004442Y006056D03*
X005033Y005780D03*
X005367Y005544D03*
X005643Y004776D03*
X005288Y004304D03*
X004836Y003910D03*
X004107Y003949D03*
X003773Y004500D03*
X004186Y005229D03*
X003792Y005760D03*
X004718Y004953D03*
X006371Y003496D03*
X006745Y003201D03*
X007257Y003201D03*
X007552Y001213D03*
X008162Y001233D03*
X008812Y001252D03*
X009442Y001252D03*
X009147Y003398D03*
X009166Y003969D03*
X009029Y005209D03*
X008773Y005485D03*
X005387Y001449D03*
X004974Y001449D03*
X004560Y001449D03*
X003202Y002000D03*
X002729Y001213D03*
X002080Y001233D03*
X001214Y001252D03*
X001863Y002788D03*
X002198Y003457D03*
X001509Y003457D03*
X002257Y004678D03*
X003123Y003516D03*
X001194Y006016D03*
X008005Y011863D03*
D32*
X009098Y010455D02*
X009629Y010455D01*
X009954Y010780D01*
X009954Y009993D02*
X009363Y009402D01*
X009344Y009402D01*
X008438Y008339D02*
X008399Y008300D01*
X007867Y008300D01*
X007001Y007670D02*
X006903Y007768D01*
X006627Y007768D01*
X006548Y007847D01*
X006391Y007847D01*
X006292Y006449D02*
X007424Y006449D01*
X007562Y006587D01*
X006292Y006449D02*
X005918Y006075D01*
X005918Y006016D01*
X004442Y009520D02*
X004412Y009550D01*
X003103Y009107D02*
X003103Y008644D01*
X001863Y003949D02*
X001863Y002788D01*
X003202Y002000D02*
X003202Y001754D01*
X003881Y001548D02*
X004029Y001548D01*
X004363Y001882D01*
X007729Y002197D02*
X008694Y002197D01*
X009009Y001882D01*
X009344Y001882D01*
X009895Y001331D01*
X009954Y001331D01*
D33*
X008792Y006671D03*
X008438Y007340D03*
X009137Y007576D03*
X009186Y008659D03*
X008694Y008757D03*
X008162Y009225D03*
X007887Y008757D03*
X006686Y009225D03*
X006499Y008373D03*
X006194Y006749D03*
X007060Y006749D03*
X002021Y008738D03*
M02*
