%
M48
M72
T01C0.0118
T02C0.0157
T03C0.0315
%
T01
X6194Y6749
X7060Y6749
X6499Y8373
X6686Y9225
X7887Y8757
X8162Y9225
X8694Y8757
X9186Y8659
X9137Y7576
X8438Y7340
X8792Y6671
X2021Y8738
T02
X2040Y8300
X2139Y9205
X3103Y9107
X3517Y8300
X3832Y7965
X4481Y7748
X4540Y7355
X5328Y7355
X5918Y7374
X5899Y8083
X5210Y8713
X5092Y9520
X4501Y8713
X4048Y10681
X4048Y11272
X4048Y11863
X3458Y11863
X3458Y11272
X3458Y10681
X2867Y10681
X2867Y11272
X2867Y11863
X2277Y11863
X2277Y11272
X2277Y10681
X1686Y10681
X1686Y11272
X1686Y11863
X1096Y11863
X1096Y11272
X1096Y10681
X4442Y6056
X5033Y5780
X5367Y5544
X5643Y4776
X5288Y4304
X4836Y3910
X4107Y3949
X3773Y4500
X4186Y5229
X3792Y5760
X4718Y4953
X6371Y3496
X6745Y3201
X7257Y3201
X7552Y1213
X8162Y1233
X8812Y1252
X9442Y1252
X9147Y3398
X9166Y3969
X9029Y5209
X8773Y5485
X8911Y9953
X9304Y9953
X8596Y10681
X8596Y11272
X8596Y11863
X9186Y11863
X9186Y11272
X8418Y9953
X8005Y10681
X8005Y11272
X8005Y11863
X7414Y11863
X7414Y11272
X7414Y10681
X6824Y10681
X6824Y11272
X6824Y11863
X6233Y11863
X6233Y11272
X6233Y10681
X5643Y10681
X5643Y11272
X5643Y11863
X6194Y9855
X6725Y9914
X2257Y4678
X3123Y3516
X2198Y3457
X1863Y2788
X1509Y3457
X1214Y1252
X2080Y1233
X2729Y1213
X3202Y2000
X4560Y1449
X4974Y1449
X5387Y1449
X1194Y6016
T03
X505Y1331
X505Y2119
X505Y2906
X505Y3693
X505Y4481
X505Y5268
X505Y6056
X505Y6843
X505Y7630
X505Y8418
X505Y9205
X505Y9993
X505Y10780
X9954Y10780
X9954Y9993
X9954Y9205
X9954Y8418
X9954Y7630
X9954Y6843
X9954Y6056
X9954Y5268
X9954Y4481
X9954Y3693
X9954Y2906
X9954Y2119
X9954Y1331
M30
