%
M48
M72
T01C0.0118
T02C0.0400
%
T01
X4273Y1439
X5179Y2502
X6675Y966
X7226Y3210
X7935Y3328
X5572Y5257
X5376Y5454
X5572Y5651
X5179Y5651
X4982Y5454
X5179Y5257
X4785Y5257
X4785Y5651
X4431Y6006
X4785Y6360
X4431Y6439
X5691Y6360
X1872Y6281
T02
X3769Y9155
X4769Y9155
X5769Y9155
X6769Y9155
X7769Y9155
X9982Y8163
X9982Y7163
X9982Y6163
X9982Y5163
X9982Y4163
M30
