G75*
G70*
%OFA0B0*%
%FSLAX24Y24*%
%IPPOS*%
%LPD*%
%AMOC8*
5,1,8,0,0,1.08239X$1,22.5*
%
%ADD10C,0.0000*%
%ADD11R,0.1043X0.0650*%
%ADD12R,0.0236X0.0098*%
%ADD13R,0.0098X0.0236*%
%ADD14R,0.0591X0.0512*%
%ADD15R,0.0512X0.0591*%
%ADD16R,0.0394X0.0433*%
%ADD17R,0.0433X0.0394*%
%ADD18R,0.0945X0.0945*%
%ADD19R,0.1339X0.0748*%
%ADD20C,0.0600*%
%ADD21C,0.0238*%
%ADD22C,0.0098*%
%ADD23C,0.0240*%
%ADD24C,0.0660*%
%ADD25C,0.0160*%
D10*
X000100Y000100D02*
X010730Y000100D01*
X010730Y010336D01*
X000100Y010336D01*
X000100Y000100D01*
D11*
X005179Y005454D03*
D12*
X005927Y005356D03*
X005927Y005553D03*
X005927Y005750D03*
X005927Y005159D03*
X004431Y005159D03*
X004431Y005356D03*
X004431Y005553D03*
X004431Y005750D03*
D13*
X004687Y006006D03*
X004883Y006006D03*
X005080Y006006D03*
X005277Y006006D03*
X005474Y006006D03*
X005671Y006006D03*
X005671Y004903D03*
X005474Y004903D03*
X005277Y004903D03*
X005080Y004903D03*
X004883Y004903D03*
X004687Y004903D03*
D14*
X002265Y002482D03*
X002265Y001734D03*
D15*
X005159Y001990D03*
X005907Y001990D03*
X005907Y001084D03*
X005159Y001084D03*
D16*
X006104Y003092D03*
X006773Y003092D03*
X006281Y003781D03*
X006281Y004450D03*
X008761Y004450D03*
X008761Y003781D03*
X005238Y006872D03*
X005789Y007226D03*
X006458Y007226D03*
X004569Y006872D03*
X002994Y006281D03*
X002324Y006281D03*
X002324Y007935D03*
X002994Y007935D03*
D17*
X002994Y007108D03*
X002324Y007108D03*
X006104Y006399D03*
X006773Y006399D03*
X007108Y004450D03*
X007108Y003781D03*
X007935Y003781D03*
X007935Y004450D03*
D18*
X003919Y004076D03*
X003919Y002344D03*
D19*
X002305Y003348D03*
X002305Y004883D03*
D20*
X003769Y008855D02*
X003769Y009455D01*
X004769Y009455D02*
X004769Y008855D01*
X005769Y008855D02*
X005769Y009455D01*
X006769Y009455D02*
X006769Y008855D01*
X007769Y008855D02*
X007769Y009455D01*
X009682Y008163D02*
X010282Y008163D01*
X010282Y007163D02*
X009682Y007163D01*
X009682Y006163D02*
X010282Y006163D01*
X010282Y005163D02*
X009682Y005163D01*
X009682Y004163D02*
X010282Y004163D01*
D21*
X007935Y003328D03*
X007226Y003210D03*
X005179Y002502D03*
X004273Y001439D03*
X006675Y000966D03*
X005572Y005257D03*
X005376Y005454D03*
X005572Y005651D03*
X005179Y005651D03*
X004982Y005454D03*
X005179Y005257D03*
X004785Y005257D03*
X004785Y005651D03*
X004431Y006006D03*
X004785Y006360D03*
X004431Y006439D03*
X005691Y006360D03*
X001872Y006281D03*
D22*
X002324Y006281D01*
X002324Y007108D01*
X002994Y007108D02*
X002994Y007935D01*
X002324Y007935D02*
X002246Y008013D01*
X000572Y008013D01*
X002994Y007108D02*
X003210Y007108D01*
X003998Y006320D01*
X003998Y005533D01*
X004175Y005356D01*
X004431Y005356D01*
X004431Y005553D02*
X004254Y005553D01*
X004194Y005612D01*
X004194Y007895D01*
X004588Y008289D01*
X007265Y008289D01*
X007769Y008793D01*
X007769Y009155D01*
X009037Y007895D02*
X009313Y008171D01*
X009974Y008171D01*
X009982Y008163D01*
X009037Y007895D02*
X009037Y006990D01*
X007600Y005553D01*
X005927Y005553D01*
X005927Y005750D02*
X005671Y005750D01*
X005572Y005651D01*
X005474Y005750D01*
X005474Y006006D01*
X005474Y006143D01*
X005691Y006360D01*
X006065Y006360D01*
X006104Y006399D01*
X005671Y006006D02*
X005671Y005750D01*
X005277Y006006D02*
X005277Y006301D01*
X005572Y006596D01*
X005572Y007009D01*
X005789Y007226D01*
X005238Y006872D02*
X005218Y006852D01*
X005218Y006596D01*
X005080Y006458D01*
X005080Y006006D01*
X004883Y006006D02*
X004883Y006261D01*
X004785Y006360D01*
X004431Y006439D02*
X004431Y006734D01*
X004569Y006872D01*
X003801Y006242D02*
X003761Y006281D01*
X002994Y006281D01*
X003801Y006242D02*
X003801Y005494D01*
X004135Y005159D01*
X004431Y005159D01*
X004594Y005001D02*
X004614Y005020D01*
X004706Y005020D01*
X004706Y003683D01*
X003083Y003683D01*
X003083Y003767D01*
X003019Y003831D01*
X001675Y003831D01*
X001675Y005218D01*
X003852Y005218D01*
X004070Y005001D01*
X004594Y005001D01*
X004706Y004946D02*
X001675Y004946D01*
X001675Y004849D02*
X004706Y004849D01*
X004687Y004805D02*
X004628Y004746D01*
X004706Y004752D02*
X001675Y004752D01*
X001675Y004655D02*
X004706Y004655D01*
X004706Y004559D02*
X001675Y004559D01*
X001675Y004462D02*
X004706Y004462D01*
X004706Y004365D02*
X001675Y004365D01*
X001675Y004268D02*
X004706Y004268D01*
X004706Y004171D02*
X001675Y004171D01*
X001675Y004074D02*
X004706Y004074D01*
X004706Y003977D02*
X001675Y003977D01*
X001675Y003880D02*
X004706Y003880D01*
X004706Y003783D02*
X003067Y003783D01*
X003083Y003686D02*
X004706Y003686D01*
X004864Y003686D02*
X005286Y003686D01*
X005383Y003589D02*
X004864Y003589D01*
X004864Y003565D02*
X004864Y005021D01*
X004922Y005021D01*
X004922Y004740D01*
X004986Y004676D01*
X005119Y004676D01*
X005119Y003853D01*
X005798Y003174D01*
X005798Y002830D01*
X005862Y002766D01*
X006006Y002766D01*
X006006Y002698D01*
X006439Y002738D01*
X006439Y000376D01*
X000454Y000376D01*
X000454Y003053D01*
X000861Y003385D01*
X001127Y003119D01*
X001526Y003119D01*
X001526Y002929D01*
X001590Y002865D01*
X002027Y002865D01*
X002027Y002847D01*
X001925Y002847D01*
X001861Y002783D01*
X001861Y002181D01*
X001925Y002117D01*
X002606Y002117D01*
X002670Y002181D01*
X002670Y002783D01*
X002606Y002847D01*
X002486Y002847D01*
X002485Y002865D01*
X003019Y002865D01*
X003083Y002929D01*
X003083Y003541D01*
X003352Y003544D01*
X003401Y003495D01*
X004437Y003495D01*
X004501Y003559D01*
X004501Y003560D01*
X004864Y003565D01*
X004864Y003783D02*
X005189Y003783D01*
X005119Y003880D02*
X004864Y003880D01*
X004864Y003977D02*
X005119Y003977D01*
X005119Y004074D02*
X004864Y004074D01*
X004864Y004171D02*
X005119Y004171D01*
X005119Y004268D02*
X004864Y004268D01*
X004864Y004365D02*
X005119Y004365D01*
X005119Y004462D02*
X004864Y004462D01*
X004864Y004559D02*
X005119Y004559D01*
X005119Y004655D02*
X004864Y004655D01*
X004864Y004752D02*
X004922Y004752D01*
X004922Y004849D02*
X004864Y004849D01*
X004903Y004883D02*
X004883Y004903D01*
X004883Y005159D01*
X004785Y005257D01*
X004982Y005454D01*
X005179Y005454D01*
X004922Y004946D02*
X004864Y004946D01*
X004687Y004903D02*
X004687Y004805D01*
X005277Y004903D02*
X005277Y003919D01*
X006104Y003092D01*
X005798Y003105D02*
X003083Y003105D01*
X003083Y003202D02*
X005770Y003202D01*
X005673Y003299D02*
X003083Y003299D01*
X003083Y003395D02*
X005577Y003395D01*
X005480Y003492D02*
X003083Y003492D01*
X003083Y003008D02*
X005798Y003008D01*
X005798Y002911D02*
X004451Y002911D01*
X004437Y002926D02*
X003401Y002926D01*
X003337Y002862D01*
X003337Y001826D01*
X003401Y001762D01*
X004437Y001762D01*
X004501Y001826D01*
X004501Y001905D01*
X004623Y001905D01*
X004720Y001808D01*
X004720Y001628D01*
X004407Y001628D01*
X004368Y001667D01*
X004179Y001667D01*
X004045Y001533D01*
X004045Y001344D01*
X004179Y001210D01*
X004368Y001210D01*
X004407Y001249D01*
X004720Y001249D01*
X004720Y000997D01*
X004787Y000835D01*
X004794Y000828D01*
X004794Y000744D01*
X004858Y000680D01*
X004988Y000680D01*
X005072Y000645D01*
X005246Y000645D01*
X005330Y000680D01*
X005460Y000680D01*
X005524Y000744D01*
X005524Y000828D01*
X005531Y000835D01*
X005598Y000997D01*
X005598Y002077D01*
X005531Y002239D01*
X005524Y002246D01*
X005524Y002330D01*
X005460Y002394D01*
X005394Y002394D01*
X005407Y002407D01*
X005407Y002596D01*
X005273Y002730D01*
X005084Y002730D01*
X005062Y002708D01*
X005054Y002716D01*
X004892Y002783D01*
X004501Y002783D01*
X004501Y002862D01*
X004437Y002926D01*
X004501Y002814D02*
X005814Y002814D01*
X005907Y002679D02*
X005907Y001990D01*
X005907Y001084D01*
X005598Y001069D02*
X006439Y001069D01*
X006439Y000972D02*
X005588Y000972D01*
X005548Y000875D02*
X006439Y000875D01*
X006439Y000778D02*
X005524Y000778D01*
X005462Y000682D02*
X006439Y000682D01*
X006439Y000585D02*
X000454Y000585D01*
X000454Y000682D02*
X004856Y000682D01*
X004794Y000778D02*
X000454Y000778D01*
X000454Y000875D02*
X004770Y000875D01*
X004730Y000972D02*
X000454Y000972D01*
X000454Y001069D02*
X004720Y001069D01*
X004720Y001166D02*
X000454Y001166D01*
X000454Y001263D02*
X004126Y001263D01*
X004045Y001360D02*
X000454Y001360D01*
X000454Y001457D02*
X004045Y001457D01*
X004066Y001554D02*
X000454Y001554D01*
X000454Y001651D02*
X004163Y001651D01*
X004384Y001651D02*
X004720Y001651D01*
X004720Y001748D02*
X000454Y001748D01*
X000454Y001845D02*
X003337Y001845D01*
X003337Y001942D02*
X000454Y001942D01*
X000454Y002039D02*
X003337Y002039D01*
X003337Y002135D02*
X002625Y002135D01*
X002670Y002232D02*
X003337Y002232D01*
X003337Y002329D02*
X002670Y002329D01*
X002670Y002426D02*
X003337Y002426D01*
X003337Y002523D02*
X002670Y002523D01*
X002670Y002620D02*
X003337Y002620D01*
X003337Y002717D02*
X002670Y002717D01*
X002639Y002814D02*
X003337Y002814D01*
X003386Y002911D02*
X003065Y002911D01*
X001892Y002814D02*
X000454Y002814D01*
X000454Y002911D02*
X001544Y002911D01*
X001526Y003008D02*
X000454Y003008D01*
X000518Y003105D02*
X001526Y003105D01*
X001861Y002717D02*
X000454Y002717D01*
X000454Y002620D02*
X001861Y002620D01*
X001861Y002523D02*
X000454Y002523D01*
X000454Y002426D02*
X001861Y002426D01*
X001861Y002329D02*
X000454Y002329D01*
X000454Y002232D02*
X001861Y002232D01*
X001906Y002135D02*
X000454Y002135D01*
X000636Y003202D02*
X001044Y003202D01*
X000947Y003299D02*
X000755Y003299D01*
X001675Y005043D02*
X004027Y005043D01*
X003930Y005140D02*
X001675Y005140D01*
X004431Y005750D02*
X004431Y006006D01*
X005474Y004903D02*
X005474Y004687D01*
X005612Y004549D01*
X006183Y004549D01*
X006281Y004450D01*
X007108Y004450D01*
X007935Y004450D01*
X008761Y004450D01*
X008801Y004903D02*
X009076Y005179D01*
X009966Y005179D01*
X009982Y005163D01*
X009982Y006163D02*
X009155Y006163D01*
X008151Y005159D01*
X005927Y005159D01*
X005927Y005356D02*
X007797Y005356D01*
X009234Y006793D01*
X009234Y007029D01*
X009352Y007147D01*
X009966Y007147D01*
X009982Y007163D01*
X008801Y004903D02*
X005671Y004903D01*
X006281Y003781D02*
X007108Y003781D01*
X007226Y003663D01*
X007226Y003210D01*
X007108Y003092D01*
X006773Y003092D01*
X006439Y002717D02*
X006210Y002717D01*
X006006Y002717D02*
X005286Y002717D01*
X005383Y002620D02*
X006439Y002620D01*
X006439Y002523D02*
X005407Y002523D01*
X005407Y002426D02*
X006439Y002426D01*
X006439Y002329D02*
X005524Y002329D01*
X005534Y002232D02*
X006439Y002232D01*
X006439Y002135D02*
X005574Y002135D01*
X005598Y002039D02*
X006439Y002039D01*
X006439Y001942D02*
X005598Y001942D01*
X005598Y001845D02*
X006439Y001845D01*
X006439Y001748D02*
X005598Y001748D01*
X005598Y001651D02*
X006439Y001651D01*
X006439Y001554D02*
X005598Y001554D01*
X005598Y001457D02*
X006439Y001457D01*
X006439Y001360D02*
X005598Y001360D01*
X005598Y001263D02*
X006439Y001263D01*
X006439Y001166D02*
X005598Y001166D01*
X006439Y000488D02*
X000454Y000488D01*
X000454Y000391D02*
X006439Y000391D01*
X004683Y001845D02*
X004501Y001845D01*
X004913Y002236D02*
X005179Y002502D01*
X005071Y002717D02*
X005052Y002717D01*
X007935Y003328D02*
X007935Y003781D01*
X008761Y003781D01*
X006773Y006399D02*
X006773Y006576D01*
X006458Y006891D01*
X006458Y007226D01*
D23*
X004628Y004746D02*
X004588Y004746D01*
X003919Y004076D01*
X002305Y003348D02*
X002246Y003289D01*
X002265Y002482D01*
X002305Y003348D02*
X001222Y003348D01*
X000572Y003998D01*
X000572Y008013D01*
X000572Y008328D01*
X001399Y009155D01*
X003769Y009155D01*
X009982Y004163D02*
X009982Y003604D01*
X007305Y000927D01*
X006714Y000927D01*
X006675Y000966D01*
D24*
X005159Y001084D02*
X005159Y001990D01*
X004913Y002236D01*
X004805Y002344D01*
X003919Y002344D01*
X003919Y004076D02*
X003112Y004883D01*
X002305Y004883D01*
D25*
X004273Y001439D02*
X005139Y001439D01*
X005139Y001104D01*
X005159Y001084D01*
M02*
