G75*
G70*
%OFA0B0*%
%FSLAX24Y24*%
%IPPOS*%
%LPD*%
%AMOC8*
5,1,8,0,0,1.08239X$1,22.5*
%
%ADD10C,0.0000*%
%ADD11C,0.0600*%
%ADD12C,0.0238*%
%ADD13C,0.0098*%
%ADD14C,0.0240*%
%ADD15C,0.0160*%
D10*
X000100Y000100D02*
X010730Y000100D01*
X010730Y010336D01*
X000100Y010336D01*
X000100Y000100D01*
D11*
X003769Y008855D02*
X003769Y009455D01*
X004769Y009455D02*
X004769Y008855D01*
X005769Y008855D02*
X005769Y009455D01*
X006769Y009455D02*
X006769Y008855D01*
X007769Y008855D02*
X007769Y009455D01*
X009682Y008163D02*
X010282Y008163D01*
X010282Y007163D02*
X009682Y007163D01*
X009682Y006163D02*
X010282Y006163D01*
X010282Y005163D02*
X009682Y005163D01*
X009682Y004163D02*
X010282Y004163D01*
D12*
X007935Y003328D03*
X007226Y003210D03*
X005179Y002502D03*
X004273Y001439D03*
X006675Y000966D03*
X005572Y005257D03*
X005376Y005454D03*
X005572Y005651D03*
X005179Y005651D03*
X004982Y005454D03*
X005179Y005257D03*
X004785Y005257D03*
X004785Y005651D03*
X004431Y006006D03*
X004785Y006360D03*
X004431Y006439D03*
X005691Y006360D03*
X001872Y006281D03*
D13*
X001714Y006281D01*
X000966Y006303D02*
X004036Y006303D01*
X004036Y006206D02*
X000966Y006206D01*
X000966Y006109D02*
X004063Y006109D01*
X004036Y006137D02*
X004129Y006044D01*
X004202Y005970D01*
X004202Y005911D01*
X004336Y005777D01*
X004525Y005777D01*
X004659Y005911D01*
X004659Y006100D01*
X004525Y006234D01*
X004387Y006234D01*
X004353Y006268D01*
X004353Y007830D01*
X004733Y008209D01*
X004875Y008209D01*
X004823Y008158D01*
X004627Y007961D01*
X004627Y006524D01*
X004557Y006454D01*
X004557Y006265D01*
X004690Y006132D01*
X004880Y006132D01*
X005013Y006265D01*
X005013Y006454D01*
X004943Y006524D01*
X004943Y007830D01*
X005048Y007934D01*
X005772Y007934D01*
X006206Y008368D01*
X009324Y008368D01*
X009273Y008244D01*
X009273Y008082D01*
X009335Y007931D01*
X009450Y007816D01*
X009600Y007754D01*
X010363Y007754D01*
X010444Y007787D01*
X010494Y007738D01*
X010494Y007518D01*
X010363Y007572D01*
X009600Y007572D01*
X009450Y007510D01*
X009335Y007395D01*
X009273Y007244D01*
X009273Y007082D01*
X009335Y006931D01*
X009450Y006816D01*
X009600Y006754D01*
X010363Y006754D01*
X010494Y006808D01*
X010494Y006518D01*
X010363Y006572D01*
X009600Y006572D01*
X009450Y006510D01*
X009335Y006395D01*
X009273Y006244D01*
X009273Y006082D01*
X009335Y005931D01*
X009450Y005816D01*
X009600Y005754D01*
X010363Y005754D01*
X010494Y005808D01*
X010494Y005518D01*
X010363Y005572D01*
X009600Y005572D01*
X009450Y005510D01*
X009335Y005395D01*
X009273Y005244D01*
X009273Y005082D01*
X009335Y004931D01*
X009450Y004816D01*
X009600Y004754D01*
X010363Y004754D01*
X010494Y004808D01*
X010494Y004518D01*
X010363Y004572D01*
X009600Y004572D01*
X009450Y004510D01*
X009335Y004395D01*
X009273Y004244D01*
X009273Y004082D01*
X009335Y003931D01*
X009450Y003816D01*
X009600Y003754D01*
X010363Y003754D01*
X010494Y003808D01*
X010494Y001242D01*
X009667Y000415D01*
X001202Y000415D01*
X000494Y001124D01*
X000494Y004037D01*
X000769Y004313D01*
X004234Y004313D01*
X005061Y005218D01*
X005061Y005376D01*
X004982Y005415D01*
X004746Y005572D01*
X004470Y005376D01*
X004313Y005179D01*
X001399Y005179D01*
X000966Y005612D01*
X000966Y007935D01*
X001399Y008368D01*
X004443Y008368D01*
X004036Y007961D01*
X004036Y006137D01*
X004194Y006202D02*
X004194Y007895D01*
X004667Y008368D01*
X005218Y008368D01*
X005769Y008919D01*
X005769Y009155D01*
X006177Y008339D02*
X009312Y008339D01*
X009273Y008242D02*
X006080Y008242D01*
X005983Y008145D02*
X009273Y008145D01*
X009287Y008048D02*
X005886Y008048D01*
X005789Y007951D02*
X009327Y007951D01*
X009412Y007854D02*
X004968Y007854D01*
X004943Y007757D02*
X009592Y007757D01*
X009579Y007563D02*
X004943Y007563D01*
X004943Y007466D02*
X009407Y007466D01*
X009324Y007369D02*
X004943Y007369D01*
X004943Y007272D02*
X009284Y007272D01*
X009273Y007176D02*
X004943Y007176D01*
X004943Y007079D02*
X009274Y007079D01*
X009314Y006982D02*
X004943Y006982D01*
X004943Y006885D02*
X009381Y006885D01*
X009518Y006788D02*
X004943Y006788D01*
X004943Y006691D02*
X010494Y006691D01*
X010494Y006788D02*
X010446Y006788D01*
X010494Y006594D02*
X004943Y006594D01*
X004971Y006497D02*
X009437Y006497D01*
X009340Y006400D02*
X005013Y006400D01*
X005013Y006303D02*
X009297Y006303D01*
X009273Y006206D02*
X004954Y006206D01*
X004785Y006360D02*
X004785Y007895D01*
X004982Y008092D01*
X005706Y008092D01*
X006769Y009155D01*
X004943Y007660D02*
X010494Y007660D01*
X010494Y007563D02*
X010385Y007563D01*
X010371Y007757D02*
X010474Y007757D01*
X009273Y006109D02*
X004650Y006109D01*
X004659Y006012D02*
X009301Y006012D01*
X009351Y005916D02*
X004659Y005916D01*
X004567Y005819D02*
X009448Y005819D01*
X009493Y005528D02*
X004813Y005528D01*
X004958Y005431D02*
X009371Y005431D01*
X009310Y005334D02*
X005061Y005334D01*
X005061Y005237D02*
X009273Y005237D01*
X009273Y005140D02*
X004989Y005140D01*
X004901Y005043D02*
X009289Y005043D01*
X009329Y004946D02*
X004812Y004946D01*
X004724Y004849D02*
X009417Y004849D01*
X009568Y004559D02*
X004458Y004559D01*
X004547Y004655D02*
X010494Y004655D01*
X010494Y004559D02*
X010396Y004559D01*
X010494Y004752D02*
X004635Y004752D01*
X004370Y004462D02*
X009402Y004462D01*
X009323Y004365D02*
X004281Y004365D01*
X004359Y005237D02*
X001341Y005237D01*
X001244Y005334D02*
X004437Y005334D01*
X004548Y005431D02*
X001147Y005431D01*
X001050Y005528D02*
X004683Y005528D01*
X004295Y005819D02*
X000966Y005819D01*
X000966Y005916D02*
X004202Y005916D01*
X004160Y006012D02*
X000966Y006012D01*
X000966Y005722D02*
X010494Y005722D01*
X010494Y005625D02*
X000966Y005625D01*
X000966Y006400D02*
X004036Y006400D01*
X004036Y006497D02*
X000966Y006497D01*
X000966Y006594D02*
X004036Y006594D01*
X004036Y006691D02*
X000966Y006691D01*
X000966Y006788D02*
X004036Y006788D01*
X004036Y006885D02*
X000966Y006885D01*
X000966Y006982D02*
X004036Y006982D01*
X004036Y007079D02*
X000966Y007079D01*
X000966Y007176D02*
X004036Y007176D01*
X004036Y007272D02*
X000966Y007272D01*
X000966Y007369D02*
X004036Y007369D01*
X004036Y007466D02*
X000966Y007466D01*
X000966Y007563D02*
X004036Y007563D01*
X004036Y007660D02*
X000966Y007660D01*
X000966Y007757D02*
X004036Y007757D01*
X004036Y007854D02*
X000966Y007854D01*
X000982Y007951D02*
X004036Y007951D01*
X004123Y008048D02*
X001079Y008048D01*
X001176Y008145D02*
X004220Y008145D01*
X004317Y008242D02*
X001273Y008242D01*
X001370Y008339D02*
X004414Y008339D01*
X004668Y008145D02*
X004811Y008145D01*
X004714Y008048D02*
X004571Y008048D01*
X004627Y007951D02*
X004474Y007951D01*
X004377Y007854D02*
X004627Y007854D01*
X004627Y007757D02*
X004353Y007757D01*
X004353Y007660D02*
X004627Y007660D01*
X004627Y007563D02*
X004353Y007563D01*
X004353Y007466D02*
X004627Y007466D01*
X004627Y007369D02*
X004353Y007369D01*
X004353Y007272D02*
X004627Y007272D01*
X004627Y007176D02*
X004353Y007176D01*
X004353Y007079D02*
X004627Y007079D01*
X004627Y006982D02*
X004353Y006982D01*
X004353Y006885D02*
X004627Y006885D01*
X004627Y006788D02*
X004353Y006788D01*
X004353Y006691D02*
X004627Y006691D01*
X004627Y006594D02*
X004353Y006594D01*
X004353Y006497D02*
X004599Y006497D01*
X004557Y006400D02*
X004353Y006400D01*
X004431Y006439D02*
X004431Y006360D01*
X004353Y006303D02*
X004557Y006303D01*
X004553Y006206D02*
X004616Y006206D01*
X004431Y006006D02*
X004391Y006006D01*
X004194Y006202D01*
X007226Y003210D02*
X007423Y003210D01*
X007487Y003105D02*
X000494Y003105D01*
X000494Y003202D02*
X007584Y003202D01*
X007681Y003299D02*
X000494Y003299D01*
X000494Y003395D02*
X007706Y003395D01*
X007706Y003423D02*
X007706Y003324D01*
X007042Y002660D01*
X005343Y002660D01*
X005273Y002730D01*
X005084Y002730D01*
X004950Y002596D01*
X004950Y002407D01*
X005084Y002273D01*
X005273Y002273D01*
X005343Y002343D01*
X007173Y002343D01*
X007266Y002436D01*
X007930Y003100D01*
X008029Y003100D01*
X008163Y003234D01*
X008163Y003423D01*
X008029Y003557D01*
X007840Y003557D01*
X007706Y003423D01*
X007776Y003492D02*
X000494Y003492D01*
X000494Y003589D02*
X010494Y003589D01*
X010494Y003492D02*
X008093Y003492D01*
X008163Y003395D02*
X010494Y003395D01*
X010494Y003299D02*
X008163Y003299D01*
X008131Y003202D02*
X010494Y003202D01*
X010494Y003105D02*
X008034Y003105D01*
X007838Y003008D02*
X010494Y003008D01*
X010494Y002911D02*
X007741Y002911D01*
X007644Y002814D02*
X010494Y002814D01*
X010494Y002717D02*
X007547Y002717D01*
X007450Y002620D02*
X010494Y002620D01*
X010494Y002523D02*
X007353Y002523D01*
X007257Y002426D02*
X010494Y002426D01*
X010494Y002329D02*
X005329Y002329D01*
X005179Y002502D02*
X007108Y002502D01*
X007935Y003328D01*
X007390Y003008D02*
X000494Y003008D01*
X000494Y002911D02*
X007293Y002911D01*
X007196Y002814D02*
X000494Y002814D01*
X000494Y002717D02*
X005071Y002717D01*
X004974Y002620D02*
X000494Y002620D01*
X000494Y002523D02*
X004950Y002523D01*
X004950Y002426D02*
X000494Y002426D01*
X000494Y002329D02*
X005028Y002329D01*
X005286Y002717D02*
X007099Y002717D01*
X006769Y001194D02*
X006580Y001194D01*
X006541Y001155D01*
X004824Y001155D01*
X004501Y001478D01*
X004501Y001533D01*
X004368Y001667D01*
X004179Y001667D01*
X004045Y001533D01*
X004045Y001344D01*
X004179Y001210D01*
X004234Y001210D01*
X004667Y000777D01*
X006541Y000777D01*
X006580Y000738D01*
X006769Y000738D01*
X006903Y000872D01*
X006903Y001061D01*
X006769Y001194D01*
X006798Y001166D02*
X010418Y001166D01*
X010494Y001263D02*
X004716Y001263D01*
X004619Y001360D02*
X010494Y001360D01*
X010494Y001457D02*
X004522Y001457D01*
X004481Y001554D02*
X010494Y001554D01*
X010494Y001651D02*
X004384Y001651D01*
X004163Y001651D02*
X000494Y001651D01*
X000494Y001748D02*
X010494Y001748D01*
X010494Y001845D02*
X000494Y001845D01*
X000494Y001942D02*
X010494Y001942D01*
X010494Y002039D02*
X000494Y002039D01*
X000494Y002135D02*
X010494Y002135D01*
X010494Y002232D02*
X000494Y002232D01*
X000494Y001554D02*
X004066Y001554D01*
X004045Y001457D02*
X000494Y001457D01*
X000494Y001360D02*
X004045Y001360D01*
X004126Y001263D02*
X000494Y001263D01*
X000494Y001166D02*
X004278Y001166D01*
X004375Y001069D02*
X000548Y001069D01*
X000645Y000972D02*
X004472Y000972D01*
X004569Y000875D02*
X000742Y000875D01*
X000839Y000778D02*
X004666Y000778D01*
X004813Y001166D02*
X006552Y001166D01*
X006895Y001069D02*
X010321Y001069D01*
X010224Y000972D02*
X006903Y000972D01*
X006903Y000875D02*
X010127Y000875D01*
X010030Y000778D02*
X006810Y000778D01*
X009740Y000488D02*
X001130Y000488D01*
X001033Y000585D02*
X009837Y000585D01*
X009934Y000682D02*
X000936Y000682D01*
X000494Y003686D02*
X010494Y003686D01*
X010494Y003783D02*
X010434Y003783D01*
X009530Y003783D02*
X000494Y003783D01*
X000494Y003880D02*
X009386Y003880D01*
X009316Y003977D02*
X000494Y003977D01*
X000531Y004074D02*
X009276Y004074D01*
X009273Y004171D02*
X000628Y004171D01*
X000724Y004268D02*
X009282Y004268D01*
X010470Y005528D02*
X010494Y005528D01*
D14*
X004785Y005257D02*
X004234Y004706D01*
X001320Y004706D01*
X000572Y005454D01*
X000572Y008328D01*
X001399Y009155D01*
X002738Y009155D01*
X003013Y009431D01*
X003013Y009588D01*
X003446Y010021D01*
X004273Y010021D01*
X004470Y009824D01*
X004470Y009454D01*
X004769Y009155D01*
D15*
X004273Y001439D02*
X004746Y000966D01*
X006675Y000966D01*
M02*
