G75*
G70*
%OFA0B0*%
%FSLAX24Y24*%
%IPPOS*%
%LPD*%
%AMOC8*
5,1,8,0,0,1.08239X$1,22.5*
%
%ADD10C,0.0000*%
%ADD11R,0.1083X0.0690*%
%ADD12R,0.0276X0.0138*%
%ADD13R,0.0138X0.0276*%
%ADD14R,0.0631X0.0552*%
%ADD15R,0.0552X0.0631*%
%ADD16R,0.0434X0.0473*%
%ADD17R,0.0473X0.0434*%
%ADD18R,0.0985X0.0985*%
%ADD19R,0.1379X0.0788*%
%ADD20C,0.0640*%
D10*
X000100Y000100D02*
X010730Y000100D01*
X010730Y010336D01*
X000100Y010336D01*
X000100Y000100D01*
D11*
X005179Y005454D03*
D12*
X005927Y005356D03*
X005927Y005553D03*
X005927Y005750D03*
X005927Y005159D03*
X004431Y005159D03*
X004431Y005356D03*
X004431Y005553D03*
X004431Y005750D03*
D13*
X004687Y006006D03*
X004883Y006006D03*
X005080Y006006D03*
X005277Y006006D03*
X005474Y006006D03*
X005671Y006006D03*
X005671Y004903D03*
X005474Y004903D03*
X005277Y004903D03*
X005080Y004903D03*
X004883Y004903D03*
X004687Y004903D03*
D14*
X002265Y002482D03*
X002265Y001734D03*
D15*
X005159Y001990D03*
X005907Y001990D03*
X005907Y001084D03*
X005159Y001084D03*
D16*
X006104Y003092D03*
X006773Y003092D03*
X006281Y003781D03*
X006281Y004450D03*
X008761Y004450D03*
X008761Y003781D03*
X005238Y006872D03*
X005789Y007226D03*
X006458Y007226D03*
X004569Y006872D03*
X002994Y006281D03*
X002324Y006281D03*
X002324Y007935D03*
X002994Y007935D03*
D17*
X002994Y007108D03*
X002324Y007108D03*
X006104Y006399D03*
X006773Y006399D03*
X007108Y004450D03*
X007108Y003781D03*
X007935Y003781D03*
X007935Y004450D03*
D18*
X003919Y004076D03*
X003919Y002344D03*
D19*
X002305Y003348D03*
X002305Y004883D03*
D20*
X003769Y008855D02*
X003769Y009455D01*
X004769Y009455D02*
X004769Y008855D01*
X005769Y008855D02*
X005769Y009455D01*
X006769Y009455D02*
X006769Y008855D01*
X007769Y008855D02*
X007769Y009455D01*
X009682Y008163D02*
X010282Y008163D01*
X010282Y007163D02*
X009682Y007163D01*
X009682Y006163D02*
X010282Y006163D01*
X010282Y005163D02*
X009682Y005163D01*
X009682Y004163D02*
X010282Y004163D01*
M02*
