G75*
G70*
%OFA0B0*%
%FSLAX24Y24*%
%IPPOS*%
%LPD*%
%AMOC8*
5,1,8,0,0,1.08239X$1,22.5*
%
%ADD10C,0.0000*%
%ADD11C,0.0080*%
%ADD12C,0.0020*%
%ADD13C,0.0001*%
%ADD14C,0.0060*%
%ADD15C,0.0100*%
%ADD16C,0.0050*%
%ADD17C,0.0040*%
%ADD18C,0.0348*%
%ADD19R,0.0059X0.0118*%
%ADD20R,0.0118X0.0118*%
%ADD21R,0.0240X0.0620*%
D10*
X000877Y000978D02*
X000877Y020663D01*
X020562Y020663D01*
X020562Y000978D01*
X000877Y000978D01*
X002456Y003313D02*
X002458Y003339D01*
X002464Y003365D01*
X002474Y003390D01*
X002487Y003413D01*
X002503Y003433D01*
X002523Y003451D01*
X002545Y003466D01*
X002568Y003478D01*
X002594Y003486D01*
X002620Y003490D01*
X002646Y003490D01*
X002672Y003486D01*
X002698Y003478D01*
X002722Y003466D01*
X002743Y003451D01*
X002763Y003433D01*
X002779Y003413D01*
X002792Y003390D01*
X002802Y003365D01*
X002808Y003339D01*
X002810Y003313D01*
X002808Y003287D01*
X002802Y003261D01*
X002792Y003236D01*
X002779Y003213D01*
X002763Y003193D01*
X002743Y003175D01*
X002721Y003160D01*
X002698Y003148D01*
X002672Y003140D01*
X002646Y003136D01*
X002620Y003136D01*
X002594Y003140D01*
X002568Y003148D01*
X002544Y003160D01*
X002523Y003175D01*
X002503Y003193D01*
X002487Y003213D01*
X002474Y003236D01*
X002464Y003261D01*
X002458Y003287D01*
X002456Y003313D01*
X004188Y003313D02*
X004190Y003339D01*
X004196Y003365D01*
X004206Y003390D01*
X004219Y003413D01*
X004235Y003433D01*
X004255Y003451D01*
X004277Y003466D01*
X004300Y003478D01*
X004326Y003486D01*
X004352Y003490D01*
X004378Y003490D01*
X004404Y003486D01*
X004430Y003478D01*
X004454Y003466D01*
X004475Y003451D01*
X004495Y003433D01*
X004511Y003413D01*
X004524Y003390D01*
X004534Y003365D01*
X004540Y003339D01*
X004542Y003313D01*
X004540Y003287D01*
X004534Y003261D01*
X004524Y003236D01*
X004511Y003213D01*
X004495Y003193D01*
X004475Y003175D01*
X004453Y003160D01*
X004430Y003148D01*
X004404Y003140D01*
X004378Y003136D01*
X004352Y003136D01*
X004326Y003140D01*
X004300Y003148D01*
X004276Y003160D01*
X004255Y003175D01*
X004235Y003193D01*
X004219Y003213D01*
X004206Y003236D01*
X004196Y003261D01*
X004190Y003287D01*
X004188Y003313D01*
X013310Y016402D02*
X013312Y016452D01*
X013318Y016502D01*
X013328Y016551D01*
X013341Y016600D01*
X013359Y016647D01*
X013380Y016693D01*
X013404Y016736D01*
X013432Y016778D01*
X013463Y016818D01*
X013497Y016855D01*
X013534Y016889D01*
X013574Y016920D01*
X013616Y016948D01*
X013659Y016972D01*
X013705Y016993D01*
X013752Y017011D01*
X013801Y017024D01*
X013850Y017034D01*
X013900Y017040D01*
X013950Y017042D01*
X014000Y017040D01*
X014050Y017034D01*
X014099Y017024D01*
X014148Y017011D01*
X014195Y016993D01*
X014241Y016972D01*
X014284Y016948D01*
X014326Y016920D01*
X014366Y016889D01*
X014403Y016855D01*
X014437Y016818D01*
X014468Y016778D01*
X014496Y016736D01*
X014520Y016693D01*
X014541Y016647D01*
X014559Y016600D01*
X014572Y016551D01*
X014582Y016502D01*
X014588Y016452D01*
X014590Y016402D01*
X014588Y016352D01*
X014582Y016302D01*
X014572Y016253D01*
X014559Y016204D01*
X014541Y016157D01*
X014520Y016111D01*
X014496Y016068D01*
X014468Y016026D01*
X014437Y015986D01*
X014403Y015949D01*
X014366Y015915D01*
X014326Y015884D01*
X014284Y015856D01*
X014241Y015832D01*
X014195Y015811D01*
X014148Y015793D01*
X014099Y015780D01*
X014050Y015770D01*
X014000Y015764D01*
X013950Y015762D01*
X013900Y015764D01*
X013850Y015770D01*
X013801Y015780D01*
X013752Y015793D01*
X013705Y015811D01*
X013659Y015832D01*
X013616Y015856D01*
X013574Y015884D01*
X013534Y015915D01*
X013497Y015949D01*
X013463Y015986D01*
X013432Y016026D01*
X013404Y016068D01*
X013380Y016111D01*
X013359Y016157D01*
X013341Y016204D01*
X013328Y016253D01*
X013318Y016302D01*
X013312Y016352D01*
X013310Y016402D01*
X017810Y016402D02*
X017812Y016452D01*
X017818Y016502D01*
X017828Y016551D01*
X017841Y016600D01*
X017859Y016647D01*
X017880Y016693D01*
X017904Y016736D01*
X017932Y016778D01*
X017963Y016818D01*
X017997Y016855D01*
X018034Y016889D01*
X018074Y016920D01*
X018116Y016948D01*
X018159Y016972D01*
X018205Y016993D01*
X018252Y017011D01*
X018301Y017024D01*
X018350Y017034D01*
X018400Y017040D01*
X018450Y017042D01*
X018500Y017040D01*
X018550Y017034D01*
X018599Y017024D01*
X018648Y017011D01*
X018695Y016993D01*
X018741Y016972D01*
X018784Y016948D01*
X018826Y016920D01*
X018866Y016889D01*
X018903Y016855D01*
X018937Y016818D01*
X018968Y016778D01*
X018996Y016736D01*
X019020Y016693D01*
X019041Y016647D01*
X019059Y016600D01*
X019072Y016551D01*
X019082Y016502D01*
X019088Y016452D01*
X019090Y016402D01*
X019088Y016352D01*
X019082Y016302D01*
X019072Y016253D01*
X019059Y016204D01*
X019041Y016157D01*
X019020Y016111D01*
X018996Y016068D01*
X018968Y016026D01*
X018937Y015986D01*
X018903Y015949D01*
X018866Y015915D01*
X018826Y015884D01*
X018784Y015856D01*
X018741Y015832D01*
X018695Y015811D01*
X018648Y015793D01*
X018599Y015780D01*
X018550Y015770D01*
X018500Y015764D01*
X018450Y015762D01*
X018400Y015764D01*
X018350Y015770D01*
X018301Y015780D01*
X018252Y015793D01*
X018205Y015811D01*
X018159Y015832D01*
X018116Y015856D01*
X018074Y015884D01*
X018034Y015915D01*
X017997Y015949D01*
X017963Y015986D01*
X017932Y016026D01*
X017904Y016068D01*
X017880Y016111D01*
X017859Y016157D01*
X017841Y016204D01*
X017828Y016253D01*
X017818Y016302D01*
X017812Y016352D01*
X017810Y016402D01*
D11*
X019311Y015895D02*
X019311Y020615D01*
X013090Y020615D01*
X013090Y015891D01*
X013090Y014513D02*
X013090Y012308D01*
X019311Y012308D01*
X019311Y014517D01*
X016587Y009198D02*
X016587Y008725D01*
X016194Y008961D01*
X016587Y009198D01*
X014317Y008978D02*
X013923Y009214D01*
X013923Y008742D01*
X014317Y008978D01*
X013512Y007503D02*
X013670Y007346D01*
X013670Y003881D01*
X013512Y003724D01*
X010048Y003724D01*
X009890Y003881D01*
X009890Y007346D01*
X010048Y007503D01*
X013512Y007503D01*
X013361Y002490D02*
X012901Y002029D01*
X013514Y002029D01*
X013821Y002336D02*
X013975Y002490D01*
X014282Y002490D01*
X014435Y002336D01*
X014435Y002183D01*
X013821Y001569D01*
X014435Y001569D01*
X014742Y001722D02*
X015356Y002336D01*
X015356Y001722D01*
X015202Y001569D01*
X014896Y001569D01*
X014742Y001722D01*
X014742Y002336D01*
X014896Y002490D01*
X015202Y002490D01*
X015356Y002336D01*
X015663Y002336D02*
X015816Y002490D01*
X016123Y002490D01*
X016277Y002336D01*
X015663Y001722D01*
X015816Y001569D01*
X016123Y001569D01*
X016277Y001722D01*
X016277Y002336D01*
X016584Y002490D02*
X017197Y002490D01*
X017197Y002336D01*
X016584Y001722D01*
X016584Y001569D01*
X015663Y001722D02*
X015663Y002336D01*
X013361Y002490D02*
X013361Y001569D01*
X012594Y001722D02*
X012594Y002336D01*
X012440Y002490D01*
X011980Y002490D01*
X011980Y001569D01*
X012440Y001569D01*
X012594Y001722D01*
X005757Y007541D02*
X005757Y009589D01*
X001741Y009589D01*
X001741Y007541D01*
X005757Y007541D01*
X010090Y017783D02*
X010244Y017936D01*
X010244Y018243D01*
X010397Y018089D01*
X010551Y018089D01*
X010704Y018243D01*
X010704Y018550D01*
X011011Y018857D02*
X011011Y018243D01*
X011165Y018089D01*
X011472Y018089D01*
X011625Y018243D01*
X012055Y018695D02*
X011901Y018848D01*
X012055Y018695D02*
X012361Y018695D01*
X012515Y018848D01*
X012515Y019002D01*
X012361Y019155D01*
X012208Y019155D01*
X012361Y019155D02*
X012515Y019309D01*
X012515Y019462D01*
X012361Y019616D01*
X012055Y019616D01*
X011901Y019462D01*
X011472Y019010D02*
X011165Y019010D01*
X011011Y018857D01*
X011472Y019010D02*
X011625Y018857D01*
X010244Y018550D02*
X010244Y018243D01*
D12*
X010519Y017574D02*
X010629Y017574D01*
X010666Y017537D01*
X010666Y017464D01*
X010629Y017427D01*
X010519Y017427D01*
X010592Y017427D02*
X010666Y017354D01*
X010740Y017354D02*
X010886Y017354D01*
X010813Y017354D02*
X010813Y017574D01*
X010740Y017501D01*
X010961Y017537D02*
X010997Y017574D01*
X011071Y017574D01*
X011107Y017537D01*
X010961Y017390D01*
X010997Y017354D01*
X011071Y017354D01*
X011107Y017390D01*
X011107Y017537D01*
X010961Y017537D02*
X010961Y017390D01*
X010519Y017354D02*
X010519Y017574D01*
X010519Y016550D02*
X010629Y016550D01*
X010666Y016514D01*
X010666Y016440D01*
X010629Y016404D01*
X010519Y016404D01*
X010592Y016404D02*
X010666Y016330D01*
X010740Y016330D02*
X010886Y016330D01*
X010813Y016330D02*
X010813Y016550D01*
X010740Y016477D01*
X010961Y016477D02*
X011034Y016550D01*
X011034Y016330D01*
X010961Y016330D02*
X011107Y016330D01*
X010965Y016008D02*
X010965Y015972D01*
X010965Y015898D02*
X010965Y015751D01*
X010929Y015751D02*
X011002Y015751D01*
X011076Y015788D02*
X011113Y015751D01*
X011223Y015751D01*
X011223Y015972D01*
X011223Y015898D02*
X011113Y015898D01*
X011076Y015861D01*
X011076Y015788D01*
X010965Y015898D02*
X010929Y015898D01*
X010855Y015861D02*
X010855Y015825D01*
X010708Y015825D01*
X010708Y015861D02*
X010744Y015898D01*
X010818Y015898D01*
X010855Y015861D01*
X010818Y015751D02*
X010744Y015751D01*
X010708Y015788D01*
X010708Y015861D01*
X010634Y015861D02*
X010634Y015751D01*
X010634Y015861D02*
X010597Y015898D01*
X010487Y015898D01*
X010487Y015751D01*
X010413Y015751D02*
X010413Y015861D01*
X010376Y015898D01*
X010303Y015898D01*
X010266Y015861D01*
X010192Y015898D02*
X010082Y015898D01*
X010045Y015861D01*
X010045Y015788D01*
X010082Y015751D01*
X010192Y015751D01*
X010266Y015751D02*
X010266Y015972D01*
X009971Y015898D02*
X009861Y015898D01*
X009824Y015861D01*
X009861Y015825D01*
X009934Y015825D01*
X009971Y015788D01*
X009934Y015751D01*
X009824Y015751D01*
X009812Y015141D02*
X009775Y015104D01*
X009775Y014994D01*
X009848Y014994D01*
X009885Y015031D01*
X009885Y015104D01*
X009848Y015141D01*
X009812Y015141D01*
X009702Y015067D02*
X009775Y014994D01*
X009775Y014920D02*
X009812Y014883D01*
X009812Y014773D01*
X009885Y014773D02*
X009665Y014773D01*
X009665Y014883D01*
X009702Y014920D01*
X009775Y014920D01*
X009812Y014846D02*
X009885Y014920D01*
X009702Y015067D02*
X009665Y015141D01*
X010525Y014639D02*
X010636Y014528D01*
X010636Y014675D01*
X010746Y014639D02*
X010525Y014639D01*
X010562Y014454D02*
X010525Y014418D01*
X010525Y014344D01*
X010562Y014307D01*
X010709Y014307D01*
X010746Y014344D01*
X010746Y014418D01*
X010709Y014454D01*
X009893Y013502D02*
X009857Y013502D01*
X009710Y013649D01*
X009673Y013649D01*
X009673Y013502D01*
X009710Y013428D02*
X009673Y013391D01*
X009673Y013281D01*
X009893Y013281D01*
X009820Y013281D02*
X009820Y013391D01*
X009783Y013428D01*
X009710Y013428D01*
X009820Y013355D02*
X009893Y013428D01*
X009868Y011824D02*
X009794Y011824D01*
X009758Y011787D01*
X009758Y011751D01*
X009794Y011714D01*
X009868Y011714D01*
X009904Y011677D01*
X009904Y011641D01*
X009868Y011604D01*
X009794Y011604D01*
X009758Y011641D01*
X009684Y011604D02*
X009610Y011604D01*
X009647Y011604D02*
X009647Y011824D01*
X009610Y011824D02*
X009684Y011824D01*
X009868Y011824D02*
X009904Y011787D01*
X009979Y011824D02*
X010089Y011824D01*
X010125Y011787D01*
X010125Y011714D01*
X010089Y011677D01*
X009979Y011677D01*
X009979Y011604D02*
X009979Y011824D01*
X008723Y010574D02*
X008687Y010611D01*
X008613Y010611D01*
X008577Y010574D01*
X008723Y010574D02*
X008723Y010538D01*
X008577Y010391D01*
X008723Y010391D01*
X008502Y010391D02*
X008356Y010391D01*
X008429Y010391D02*
X008429Y010611D01*
X008356Y010538D01*
X008281Y010574D02*
X008245Y010611D01*
X008171Y010611D01*
X008135Y010574D01*
X008135Y010428D01*
X008171Y010391D01*
X008245Y010391D01*
X008281Y010428D01*
X008280Y009638D02*
X008244Y009601D01*
X008244Y009454D01*
X008280Y009418D01*
X008354Y009418D01*
X008390Y009454D01*
X008465Y009454D02*
X008465Y009491D01*
X008501Y009528D01*
X008575Y009528D01*
X008611Y009491D01*
X008611Y009454D01*
X008575Y009418D01*
X008501Y009418D01*
X008465Y009454D01*
X008501Y009528D02*
X008465Y009564D01*
X008465Y009601D01*
X008501Y009638D01*
X008575Y009638D01*
X008611Y009601D01*
X008611Y009564D01*
X008575Y009528D01*
X008390Y009601D02*
X008354Y009638D01*
X008280Y009638D01*
X009380Y007909D02*
X009453Y007909D01*
X009416Y007909D02*
X009416Y007688D01*
X009380Y007688D02*
X009453Y007688D01*
X009527Y007725D02*
X009527Y007872D01*
X009564Y007909D01*
X009637Y007909D01*
X009674Y007872D01*
X009748Y007835D02*
X009821Y007909D01*
X009821Y007688D01*
X009748Y007688D02*
X009895Y007688D01*
X009674Y007725D02*
X009637Y007688D01*
X009564Y007688D01*
X009527Y007725D01*
X010689Y008970D02*
X010763Y008970D01*
X010799Y009007D01*
X010874Y008970D02*
X011020Y008970D01*
X010947Y008970D02*
X010947Y009191D01*
X010874Y009117D01*
X010799Y009154D02*
X010763Y009191D01*
X010689Y009191D01*
X010653Y009154D01*
X010653Y009007D01*
X010689Y008970D01*
X013201Y011316D02*
X013201Y011463D01*
X013238Y011500D01*
X013311Y011500D01*
X013348Y011463D01*
X013422Y011426D02*
X013495Y011500D01*
X013495Y011279D01*
X013422Y011279D02*
X013569Y011279D01*
X013643Y011316D02*
X013790Y011463D01*
X013790Y011316D01*
X013753Y011279D01*
X013680Y011279D01*
X013643Y011316D01*
X013643Y011463D01*
X013680Y011500D01*
X013753Y011500D01*
X013790Y011463D01*
X013348Y011316D02*
X013311Y011279D01*
X013238Y011279D01*
X013201Y011316D01*
X014478Y011344D02*
X014588Y011344D01*
X014625Y011381D01*
X014625Y011455D01*
X014588Y011491D01*
X014478Y011491D01*
X014478Y011271D01*
X014551Y011344D02*
X014625Y011271D01*
X014699Y011308D02*
X014699Y011344D01*
X014735Y011381D01*
X014809Y011381D01*
X014846Y011344D01*
X014846Y011308D01*
X014809Y011271D01*
X014735Y011271D01*
X014699Y011308D01*
X014735Y011381D02*
X014699Y011418D01*
X014699Y011455D01*
X014735Y011491D01*
X014809Y011491D01*
X014846Y011455D01*
X014846Y011418D01*
X014809Y011381D01*
X015651Y011386D02*
X015761Y011386D01*
X015798Y011423D01*
X015798Y011496D01*
X015761Y011533D01*
X015651Y011533D01*
X015651Y011312D01*
X015725Y011386D02*
X015798Y011312D01*
X015872Y011349D02*
X015909Y011312D01*
X015982Y011312D01*
X016019Y011349D01*
X016019Y011496D01*
X015982Y011533D01*
X015909Y011533D01*
X015872Y011496D01*
X015872Y011459D01*
X015909Y011423D01*
X016019Y011423D01*
X016067Y011992D02*
X016067Y012212D01*
X016177Y012212D01*
X016214Y012175D01*
X016214Y012102D01*
X016177Y012065D01*
X016067Y012065D01*
X016141Y012065D02*
X016214Y011992D01*
X016288Y012029D02*
X016325Y011992D01*
X016398Y011992D01*
X016435Y012029D01*
X016435Y012065D01*
X016398Y012102D01*
X016325Y012102D01*
X016288Y012139D01*
X016288Y012175D01*
X016325Y012212D01*
X016398Y012212D01*
X016435Y012175D01*
X016509Y012102D02*
X016656Y012102D01*
X016730Y012065D02*
X016767Y012102D01*
X016840Y012102D01*
X016877Y012065D01*
X016877Y012029D01*
X016840Y011992D01*
X016767Y011992D01*
X016730Y012029D01*
X016730Y012065D01*
X016767Y012102D02*
X016730Y012139D01*
X016730Y012175D01*
X016767Y012212D01*
X016840Y012212D01*
X016877Y012175D01*
X016877Y012139D01*
X016840Y012102D01*
X016951Y012102D02*
X017024Y012139D01*
X017061Y012139D01*
X017098Y012102D01*
X017098Y012029D01*
X017061Y011992D01*
X016988Y011992D01*
X016951Y012029D01*
X016951Y012102D02*
X016951Y012212D01*
X017098Y012212D01*
X016619Y012212D02*
X016509Y012102D01*
X016619Y011992D02*
X016619Y012212D01*
X016804Y011555D02*
X016768Y011518D01*
X016768Y011372D01*
X016804Y011335D01*
X016878Y011335D01*
X016914Y011372D01*
X016989Y011372D02*
X017025Y011335D01*
X017099Y011335D01*
X017135Y011372D01*
X017135Y011518D01*
X017099Y011555D01*
X017025Y011555D01*
X016989Y011518D01*
X016989Y011482D01*
X017025Y011445D01*
X017135Y011445D01*
X016914Y011518D02*
X016878Y011555D01*
X016804Y011555D01*
X017610Y009980D02*
X017573Y009943D01*
X017573Y009870D01*
X017610Y009833D01*
X017610Y009759D02*
X017573Y009722D01*
X017573Y009649D01*
X017610Y009612D01*
X017756Y009612D01*
X017793Y009649D01*
X017793Y009722D01*
X017756Y009759D01*
X017793Y009833D02*
X017646Y009980D01*
X017610Y009980D01*
X017793Y009980D02*
X017793Y009833D01*
X017793Y009538D02*
X017793Y009465D01*
X017793Y009502D02*
X017573Y009502D01*
X017573Y009538D02*
X017573Y009465D01*
X017935Y009033D02*
X019935Y009033D01*
X019122Y007424D02*
X019159Y007388D01*
X019159Y007351D01*
X019122Y007314D01*
X019159Y007278D01*
X019159Y007241D01*
X019122Y007204D01*
X019049Y007204D01*
X019012Y007241D01*
X018938Y007241D02*
X018938Y007388D01*
X018901Y007424D01*
X018791Y007424D01*
X018791Y007204D01*
X018901Y007204D01*
X018938Y007241D01*
X019012Y007388D02*
X019049Y007424D01*
X019122Y007424D01*
X019122Y007314D02*
X019086Y007314D01*
X018717Y007204D02*
X018570Y007204D01*
X018570Y007424D01*
X018717Y007424D01*
X018644Y007314D02*
X018570Y007314D01*
X018496Y007204D02*
X018349Y007204D01*
X018349Y007424D01*
X018057Y007388D02*
X018020Y007424D01*
X017947Y007424D01*
X017910Y007388D01*
X017836Y007388D02*
X017799Y007424D01*
X017689Y007424D01*
X017689Y007204D01*
X017799Y007204D01*
X017836Y007241D01*
X017836Y007388D01*
X017910Y007204D02*
X018057Y007351D01*
X018057Y007388D01*
X018057Y007204D02*
X017910Y007204D01*
X017615Y007204D02*
X017468Y007204D01*
X017468Y007424D01*
X017615Y007424D01*
X017541Y007314D02*
X017468Y007314D01*
X017394Y007204D02*
X017247Y007204D01*
X017247Y007424D01*
X016954Y007204D02*
X016808Y007204D01*
X016881Y007204D02*
X016881Y007424D01*
X016808Y007351D01*
X016733Y007388D02*
X016697Y007424D01*
X016587Y007424D01*
X016587Y007204D01*
X016697Y007204D01*
X016733Y007241D01*
X016733Y007388D01*
X016512Y007424D02*
X016366Y007424D01*
X016366Y007204D01*
X016512Y007204D01*
X016439Y007314D02*
X016366Y007314D01*
X016291Y007204D02*
X016145Y007204D01*
X016145Y007424D01*
X016223Y008240D02*
X016333Y008240D01*
X016370Y008277D01*
X016370Y008424D01*
X016333Y008461D01*
X016223Y008461D01*
X016223Y008240D01*
X016444Y008350D02*
X016591Y008350D01*
X016554Y008240D02*
X016554Y008461D01*
X016444Y008350D01*
X015231Y006602D02*
X015157Y006602D01*
X015121Y006565D01*
X015121Y006529D01*
X015157Y006455D01*
X015047Y006455D01*
X015047Y006602D01*
X015231Y006602D02*
X015267Y006565D01*
X015267Y006492D01*
X015231Y006455D01*
X015231Y006381D02*
X015267Y006344D01*
X015267Y006271D01*
X015231Y006234D01*
X015084Y006234D01*
X015047Y006271D01*
X015047Y006344D01*
X015084Y006381D01*
X015101Y005133D02*
X015137Y005133D01*
X015174Y005096D01*
X015211Y005133D01*
X015247Y005133D01*
X015284Y005096D01*
X015284Y005023D01*
X015247Y004986D01*
X015247Y004912D02*
X015284Y004875D01*
X015284Y004802D01*
X015247Y004765D01*
X015101Y004765D01*
X015064Y004802D01*
X015064Y004875D01*
X015101Y004912D01*
X015101Y004986D02*
X015064Y005023D01*
X015064Y005096D01*
X015101Y005133D01*
X015174Y005096D02*
X015174Y005060D01*
X016569Y003980D02*
X016569Y003760D01*
X016569Y003833D02*
X016679Y003833D01*
X016716Y003870D01*
X016716Y003943D01*
X016679Y003980D01*
X016569Y003980D01*
X016642Y003833D02*
X016716Y003760D01*
X016790Y003870D02*
X016936Y003870D01*
X016900Y003980D02*
X016790Y003870D01*
X016900Y003760D02*
X016900Y003980D01*
X017442Y003981D02*
X017442Y003761D01*
X017442Y003834D02*
X017552Y003834D01*
X017589Y003871D01*
X017589Y003944D01*
X017552Y003981D01*
X017442Y003981D01*
X017516Y003834D02*
X017589Y003761D01*
X017663Y003798D02*
X017700Y003761D01*
X017773Y003761D01*
X017810Y003798D01*
X017810Y003834D01*
X017773Y003871D01*
X017737Y003871D01*
X017773Y003871D02*
X017810Y003908D01*
X017810Y003944D01*
X017773Y003981D01*
X017700Y003981D01*
X017663Y003944D01*
X018407Y003982D02*
X018407Y003762D01*
X018407Y003835D02*
X018517Y003835D01*
X018554Y003872D01*
X018554Y003946D01*
X018517Y003982D01*
X018407Y003982D01*
X018481Y003835D02*
X018554Y003762D01*
X018628Y003762D02*
X018775Y003909D01*
X018775Y003946D01*
X018738Y003982D01*
X018665Y003982D01*
X018628Y003946D01*
X018628Y003762D02*
X018775Y003762D01*
X014333Y008201D02*
X014259Y008201D01*
X014223Y008238D01*
X014149Y008238D02*
X014149Y008384D01*
X014112Y008421D01*
X014002Y008421D01*
X014002Y008201D01*
X014112Y008201D01*
X014149Y008238D01*
X014223Y008384D02*
X014259Y008421D01*
X014333Y008421D01*
X014370Y008384D01*
X014370Y008348D01*
X014333Y008311D01*
X014370Y008274D01*
X014370Y008238D01*
X014333Y008201D01*
X014333Y008311D02*
X014296Y008311D01*
X011844Y012772D02*
X011697Y012772D01*
X011771Y012772D02*
X011771Y012992D01*
X011697Y012919D01*
X011623Y012956D02*
X011586Y012992D01*
X011476Y012992D01*
X011476Y012772D01*
X011476Y012846D02*
X011586Y012846D01*
X011623Y012882D01*
X011623Y012956D01*
X011550Y012846D02*
X011623Y012772D01*
X011518Y015751D02*
X011518Y015898D01*
X011518Y015825D02*
X011591Y015898D01*
X011628Y015898D01*
X011444Y015861D02*
X011444Y015825D01*
X011297Y015825D01*
X011297Y015861D02*
X011334Y015898D01*
X011407Y015898D01*
X011444Y015861D01*
X011407Y015751D02*
X011334Y015751D01*
X011297Y015788D01*
X011297Y015861D01*
X011923Y015935D02*
X011960Y015972D01*
X012033Y015972D01*
X012070Y015935D01*
X012070Y015898D01*
X011923Y015751D01*
X012070Y015751D01*
X012144Y015788D02*
X012291Y015935D01*
X012291Y015788D01*
X012254Y015751D01*
X012181Y015751D01*
X012144Y015788D01*
X012144Y015935D01*
X012181Y015972D01*
X012254Y015972D01*
X012291Y015935D01*
X012365Y015898D02*
X012439Y015972D01*
X012439Y015751D01*
X012512Y015751D02*
X012365Y015751D01*
X012586Y015751D02*
X012733Y015898D01*
X012733Y015935D01*
X012696Y015972D01*
X012623Y015972D01*
X012586Y015935D01*
X012586Y015751D02*
X012733Y015751D01*
X010519Y016330D02*
X010519Y016550D01*
X009345Y018649D02*
X009382Y018686D01*
X009382Y018722D01*
X009345Y018759D01*
X009235Y018759D01*
X009309Y018833D01*
X009382Y018869D01*
X009235Y018759D02*
X009235Y018686D01*
X009272Y018649D01*
X009345Y018649D01*
X009161Y018686D02*
X009124Y018649D01*
X009051Y018649D01*
X009014Y018686D01*
X009014Y018833D01*
X009051Y018869D01*
X009124Y018869D01*
X009161Y018833D01*
X004951Y011956D02*
X004804Y011956D01*
X004804Y011846D01*
X004877Y011883D01*
X004914Y011883D01*
X004951Y011846D01*
X004951Y011773D01*
X004914Y011736D01*
X004840Y011736D01*
X004804Y011773D01*
X004730Y011736D02*
X004656Y011810D01*
X004693Y011810D02*
X004583Y011810D01*
X004583Y011736D02*
X004583Y011956D01*
X004693Y011956D01*
X004730Y011920D01*
X004730Y011846D01*
X004693Y011810D01*
X005912Y008893D02*
X005948Y008893D01*
X005985Y008856D01*
X006022Y008893D01*
X006059Y008893D01*
X006095Y008856D01*
X006095Y008783D01*
X006059Y008746D01*
X006059Y008672D02*
X006095Y008635D01*
X006095Y008562D01*
X006059Y008525D01*
X005912Y008525D01*
X005875Y008562D01*
X005875Y008635D01*
X005912Y008672D01*
X005912Y008746D02*
X005875Y008783D01*
X005875Y008856D01*
X005912Y008893D01*
X005985Y008856D02*
X005985Y008820D01*
X005875Y008451D02*
X005875Y008378D01*
X005875Y008415D02*
X006095Y008415D01*
X006095Y008451D02*
X006095Y008378D01*
X006224Y007110D02*
X006224Y004410D01*
X006524Y004410D02*
X006524Y007110D01*
X007024Y006160D02*
X007024Y006010D01*
X007024Y005510D02*
X007024Y005360D01*
X007802Y006009D02*
X007802Y006083D01*
X007839Y006119D01*
X007839Y006194D02*
X007802Y006230D01*
X007802Y006304D01*
X007839Y006340D01*
X007875Y006340D01*
X008022Y006194D01*
X008022Y006340D01*
X007986Y006119D02*
X008022Y006083D01*
X008022Y006009D01*
X007986Y005973D01*
X007839Y005973D01*
X007802Y006009D01*
X007824Y007110D02*
X007824Y004410D01*
X007524Y004410D02*
X007524Y007110D01*
X005879Y006049D02*
X005879Y005902D01*
X005879Y005975D02*
X005659Y005975D01*
X005732Y005902D01*
X005695Y005828D02*
X005842Y005828D01*
X005879Y005791D01*
X005879Y005717D01*
X005842Y005681D01*
X005695Y005681D01*
X005659Y005717D01*
X005659Y005791D01*
X005695Y005828D01*
X005805Y005754D02*
X005879Y005828D01*
X004493Y005321D02*
X004346Y005321D01*
X004420Y005321D02*
X004420Y005541D01*
X004346Y005468D01*
X004199Y005541D02*
X004199Y005321D01*
X004272Y005321D02*
X004125Y005321D01*
X004051Y005358D02*
X004014Y005321D01*
X003941Y005321D01*
X003904Y005358D01*
X003904Y005504D01*
X003941Y005541D01*
X004014Y005541D01*
X004051Y005504D01*
X004125Y005468D02*
X004199Y005541D01*
X003111Y005334D02*
X002965Y005334D01*
X003038Y005334D02*
X003038Y005555D01*
X002965Y005481D01*
X002891Y005555D02*
X002744Y005334D01*
X002891Y005334D02*
X002744Y005555D01*
X008331Y002180D02*
X008331Y002033D01*
X008367Y001996D01*
X008441Y001996D01*
X008478Y002033D01*
X008552Y002033D02*
X008552Y001996D01*
X008552Y002033D02*
X008699Y002180D01*
X008699Y002217D01*
X008552Y002217D01*
X008478Y002180D02*
X008441Y002217D01*
X008367Y002217D01*
X008331Y002180D01*
D13*
X006515Y004410D02*
X006534Y004410D01*
X006533Y004410D02*
X006534Y004373D01*
X006539Y004336D01*
X006545Y004300D01*
X006555Y004265D01*
X006567Y004230D01*
X006582Y004196D01*
X006565Y004189D01*
X006565Y004188D01*
X006549Y004223D01*
X006537Y004259D01*
X006527Y004296D01*
X006520Y004333D01*
X006515Y004371D01*
X006514Y004410D01*
X006515Y004410D01*
X006516Y004371D01*
X006521Y004334D01*
X006528Y004296D01*
X006538Y004259D01*
X006550Y004223D01*
X006566Y004189D01*
X006567Y004189D01*
X006551Y004224D01*
X006539Y004260D01*
X006529Y004296D01*
X006522Y004334D01*
X006517Y004372D01*
X006516Y004410D01*
X006517Y004410D01*
X006518Y004372D01*
X006523Y004334D01*
X006530Y004297D01*
X006540Y004260D01*
X006552Y004224D01*
X006567Y004189D01*
X006568Y004190D01*
X006553Y004225D01*
X006541Y004260D01*
X006531Y004297D01*
X006524Y004334D01*
X006519Y004372D01*
X006518Y004410D01*
X006519Y004410D01*
X006520Y004372D01*
X006525Y004334D01*
X006532Y004297D01*
X006542Y004261D01*
X006554Y004225D01*
X006569Y004190D01*
X006570Y004191D01*
X006555Y004225D01*
X006543Y004261D01*
X006533Y004297D01*
X006526Y004334D01*
X006521Y004372D01*
X006520Y004410D01*
X006521Y004410D01*
X006522Y004372D01*
X006527Y004334D01*
X006534Y004298D01*
X006544Y004261D01*
X006556Y004226D01*
X006571Y004191D01*
X006572Y004192D01*
X006557Y004226D01*
X006544Y004261D01*
X006535Y004298D01*
X006528Y004335D01*
X006523Y004372D01*
X006522Y004410D01*
X006523Y004410D01*
X006524Y004372D01*
X006529Y004335D01*
X006536Y004298D01*
X006545Y004262D01*
X006558Y004226D01*
X006573Y004192D01*
X006574Y004192D01*
X006559Y004227D01*
X006546Y004262D01*
X006537Y004298D01*
X006530Y004335D01*
X006525Y004372D01*
X006524Y004410D01*
X006525Y004410D01*
X006526Y004372D01*
X006531Y004335D01*
X006538Y004298D01*
X006547Y004262D01*
X006560Y004227D01*
X006575Y004193D01*
X006576Y004193D01*
X006561Y004228D01*
X006548Y004263D01*
X006539Y004299D01*
X006532Y004335D01*
X006527Y004372D01*
X006526Y004410D01*
X006527Y004410D01*
X006528Y004372D01*
X006533Y004335D01*
X006540Y004299D01*
X006549Y004263D01*
X006562Y004228D01*
X006576Y004194D01*
X006577Y004194D01*
X006563Y004228D01*
X006550Y004263D01*
X006541Y004299D01*
X006534Y004336D01*
X006529Y004372D01*
X006528Y004410D01*
X006529Y004410D01*
X006530Y004372D01*
X006535Y004336D01*
X006542Y004299D01*
X006551Y004264D01*
X006563Y004229D01*
X006578Y004195D01*
X006579Y004195D01*
X006564Y004229D01*
X006552Y004264D01*
X006543Y004300D01*
X006536Y004336D01*
X006531Y004373D01*
X006530Y004410D01*
X006531Y004410D01*
X006532Y004373D01*
X006537Y004336D01*
X006543Y004300D01*
X006553Y004264D01*
X006565Y004229D01*
X006580Y004196D01*
X006581Y004196D01*
X006566Y004230D01*
X006554Y004264D01*
X006544Y004300D01*
X006538Y004336D01*
X006533Y004373D01*
X006532Y004410D01*
X007483Y004189D02*
X007466Y004197D01*
X007466Y004196D02*
X007481Y004230D01*
X007493Y004265D01*
X007503Y004300D01*
X007509Y004336D01*
X007514Y004373D01*
X007515Y004410D01*
X007533Y004410D01*
X007534Y004410D01*
X007533Y004371D01*
X007528Y004333D01*
X007521Y004296D01*
X007511Y004259D01*
X007499Y004223D01*
X007483Y004188D01*
X007482Y004189D01*
X007498Y004223D01*
X007510Y004259D01*
X007520Y004296D01*
X007527Y004334D01*
X007532Y004371D01*
X007533Y004410D01*
X007532Y004410D01*
X007531Y004372D01*
X007526Y004334D01*
X007519Y004296D01*
X007509Y004260D01*
X007497Y004224D01*
X007481Y004189D01*
X007496Y004224D01*
X007508Y004260D01*
X007518Y004297D01*
X007525Y004334D01*
X007530Y004372D01*
X007531Y004410D01*
X007530Y004410D01*
X007529Y004372D01*
X007524Y004334D01*
X007517Y004297D01*
X007507Y004260D01*
X007495Y004225D01*
X007480Y004190D01*
X007479Y004190D01*
X007494Y004225D01*
X007506Y004261D01*
X007516Y004297D01*
X007523Y004334D01*
X007528Y004372D01*
X007529Y004410D01*
X007528Y004410D01*
X007527Y004372D01*
X007522Y004334D01*
X007515Y004297D01*
X007505Y004261D01*
X007493Y004225D01*
X007478Y004191D01*
X007477Y004191D01*
X007492Y004226D01*
X007504Y004261D01*
X007514Y004298D01*
X007521Y004334D01*
X007526Y004372D01*
X007527Y004410D01*
X007526Y004410D01*
X007525Y004372D01*
X007520Y004335D01*
X007513Y004298D01*
X007504Y004261D01*
X007491Y004226D01*
X007476Y004192D01*
X007475Y004192D01*
X007490Y004226D01*
X007503Y004262D01*
X007512Y004298D01*
X007519Y004335D01*
X007524Y004372D01*
X007525Y004410D01*
X007524Y004410D01*
X007523Y004372D01*
X007518Y004335D01*
X007511Y004298D01*
X007502Y004262D01*
X007489Y004227D01*
X007474Y004192D01*
X007473Y004193D01*
X007488Y004227D01*
X007501Y004262D01*
X007510Y004298D01*
X007517Y004335D01*
X007522Y004372D01*
X007523Y004410D01*
X007522Y004410D01*
X007521Y004372D01*
X007516Y004335D01*
X007509Y004299D01*
X007500Y004263D01*
X007487Y004228D01*
X007472Y004193D01*
X007472Y004194D01*
X007486Y004228D01*
X007499Y004263D01*
X007508Y004299D01*
X007515Y004335D01*
X007520Y004372D01*
X007521Y004410D01*
X007520Y004410D01*
X007519Y004372D01*
X007514Y004336D01*
X007507Y004299D01*
X007498Y004263D01*
X007485Y004228D01*
X007471Y004194D01*
X007470Y004195D01*
X007485Y004229D01*
X007497Y004264D01*
X007506Y004299D01*
X007513Y004336D01*
X007518Y004372D01*
X007519Y004410D01*
X007518Y004410D01*
X007517Y004373D01*
X007512Y004336D01*
X007505Y004300D01*
X007496Y004264D01*
X007484Y004229D01*
X007469Y004195D01*
X007468Y004196D01*
X007483Y004229D01*
X007495Y004264D01*
X007505Y004300D01*
X007511Y004336D01*
X007516Y004373D01*
X007517Y004410D01*
X007516Y004410D01*
X007515Y004373D01*
X007510Y004336D01*
X007504Y004300D01*
X007494Y004264D01*
X007482Y004230D01*
X007467Y004196D01*
X007480Y003741D02*
X007469Y003757D01*
X007469Y003756D02*
X007514Y003789D01*
X007556Y003824D01*
X007595Y003863D01*
X007632Y003903D01*
X007665Y003947D01*
X007696Y003992D01*
X007723Y004040D01*
X007747Y004089D01*
X007768Y004140D01*
X007785Y004193D01*
X007798Y004246D01*
X007807Y004300D01*
X007813Y004355D01*
X007815Y004410D01*
X007833Y004410D01*
X007834Y004410D01*
X007832Y004353D01*
X007826Y004297D01*
X007816Y004242D01*
X007803Y004187D01*
X007785Y004134D01*
X007765Y004082D01*
X007740Y004031D01*
X007712Y003982D01*
X007681Y003936D01*
X007646Y003891D01*
X007609Y003849D01*
X007568Y003810D01*
X007525Y003774D01*
X007480Y003741D01*
X007479Y003741D01*
X007525Y003775D01*
X007568Y003811D01*
X007608Y003850D01*
X007645Y003892D01*
X007680Y003936D01*
X007711Y003983D01*
X007739Y004032D01*
X007764Y004082D01*
X007785Y004134D01*
X007802Y004188D01*
X007815Y004242D01*
X007825Y004298D01*
X007831Y004353D01*
X007833Y004410D01*
X007832Y004410D01*
X007830Y004353D01*
X007824Y004298D01*
X007814Y004242D01*
X007801Y004188D01*
X007784Y004135D01*
X007763Y004083D01*
X007738Y004032D01*
X007710Y003983D01*
X007679Y003937D01*
X007645Y003893D01*
X007607Y003851D01*
X007567Y003812D01*
X007524Y003775D01*
X007479Y003742D01*
X007478Y003743D01*
X007524Y003776D01*
X007566Y003812D01*
X007606Y003851D01*
X007644Y003893D01*
X007678Y003937D01*
X007709Y003984D01*
X007737Y004033D01*
X007762Y004083D01*
X007783Y004135D01*
X007800Y004188D01*
X007813Y004243D01*
X007823Y004298D01*
X007829Y004354D01*
X007831Y004410D01*
X007830Y004410D01*
X007828Y004354D01*
X007822Y004298D01*
X007812Y004243D01*
X007799Y004189D01*
X007782Y004135D01*
X007761Y004083D01*
X007736Y004033D01*
X007709Y003985D01*
X007677Y003938D01*
X007643Y003894D01*
X007606Y003852D01*
X007566Y003813D01*
X007523Y003777D01*
X007478Y003744D01*
X007477Y003745D01*
X007522Y003778D01*
X007565Y003814D01*
X007605Y003853D01*
X007642Y003894D01*
X007677Y003939D01*
X007708Y003985D01*
X007736Y004033D01*
X007760Y004084D01*
X007781Y004136D01*
X007798Y004189D01*
X007811Y004243D01*
X007821Y004298D01*
X007827Y004354D01*
X007829Y004410D01*
X007828Y004410D01*
X007826Y004354D01*
X007820Y004298D01*
X007811Y004243D01*
X007797Y004189D01*
X007780Y004136D01*
X007759Y004084D01*
X007735Y004034D01*
X007707Y003986D01*
X007676Y003939D01*
X007642Y003895D01*
X007604Y003854D01*
X007564Y003815D01*
X007522Y003779D01*
X007477Y003746D01*
X007476Y003746D01*
X007521Y003779D01*
X007564Y003815D01*
X007604Y003854D01*
X007641Y003896D01*
X007675Y003940D01*
X007706Y003986D01*
X007734Y004034D01*
X007758Y004085D01*
X007779Y004136D01*
X007796Y004189D01*
X007810Y004243D01*
X007819Y004298D01*
X007825Y004354D01*
X007827Y004410D01*
X007826Y004410D01*
X007824Y004354D01*
X007818Y004298D01*
X007809Y004244D01*
X007795Y004190D01*
X007778Y004137D01*
X007757Y004085D01*
X007733Y004035D01*
X007705Y003987D01*
X007674Y003940D01*
X007640Y003896D01*
X007603Y003855D01*
X007563Y003816D01*
X007520Y003780D01*
X007476Y003747D01*
X007475Y003748D01*
X007520Y003781D01*
X007562Y003817D01*
X007602Y003856D01*
X007639Y003897D01*
X007673Y003941D01*
X007704Y003987D01*
X007732Y004035D01*
X007756Y004085D01*
X007777Y004137D01*
X007794Y004190D01*
X007808Y004244D01*
X007817Y004299D01*
X007823Y004354D01*
X007825Y004410D01*
X007824Y004410D01*
X007822Y004354D01*
X007816Y004299D01*
X007807Y004244D01*
X007793Y004190D01*
X007776Y004137D01*
X007755Y004086D01*
X007731Y004036D01*
X007703Y003988D01*
X007672Y003942D01*
X007638Y003898D01*
X007601Y003856D01*
X007562Y003818D01*
X007519Y003782D01*
X007474Y003749D01*
X007474Y003750D01*
X007519Y003782D01*
X007561Y003818D01*
X007601Y003857D01*
X007638Y003898D01*
X007672Y003942D01*
X007703Y003988D01*
X007730Y004036D01*
X007754Y004086D01*
X007775Y004138D01*
X007792Y004190D01*
X007806Y004244D01*
X007815Y004299D01*
X007821Y004354D01*
X007823Y004410D01*
X007822Y004410D01*
X007820Y004354D01*
X007814Y004299D01*
X007805Y004244D01*
X007791Y004191D01*
X007774Y004138D01*
X007754Y004087D01*
X007729Y004037D01*
X007702Y003989D01*
X007671Y003943D01*
X007637Y003899D01*
X007600Y003858D01*
X007560Y003819D01*
X007518Y003783D01*
X007473Y003750D01*
X007473Y003751D01*
X007517Y003784D01*
X007560Y003820D01*
X007599Y003858D01*
X007636Y003900D01*
X007670Y003943D01*
X007701Y003989D01*
X007728Y004037D01*
X007753Y004087D01*
X007773Y004138D01*
X007790Y004191D01*
X007804Y004245D01*
X007813Y004299D01*
X007819Y004354D01*
X007821Y004410D01*
X007820Y004410D01*
X007818Y004354D01*
X007812Y004299D01*
X007803Y004245D01*
X007789Y004191D01*
X007772Y004139D01*
X007752Y004087D01*
X007728Y004038D01*
X007700Y003990D01*
X007669Y003944D01*
X007635Y003900D01*
X007599Y003859D01*
X007559Y003821D01*
X007517Y003785D01*
X007472Y003752D01*
X007472Y003753D01*
X007516Y003786D01*
X007558Y003821D01*
X007598Y003860D01*
X007635Y003901D01*
X007668Y003944D01*
X007699Y003990D01*
X007727Y004038D01*
X007751Y004088D01*
X007771Y004139D01*
X007788Y004192D01*
X007802Y004245D01*
X007811Y004299D01*
X007817Y004354D01*
X007819Y004410D01*
X007818Y004410D01*
X007816Y004354D01*
X007810Y004300D01*
X007801Y004245D01*
X007787Y004192D01*
X007770Y004139D01*
X007750Y004088D01*
X007726Y004039D01*
X007698Y003991D01*
X007668Y003945D01*
X007634Y003902D01*
X007597Y003860D01*
X007558Y003822D01*
X007515Y003786D01*
X007471Y003754D01*
X007470Y003755D01*
X007515Y003787D01*
X007557Y003823D01*
X007596Y003861D01*
X007633Y003902D01*
X007667Y003946D01*
X007697Y003991D01*
X007725Y004039D01*
X007749Y004089D01*
X007770Y004140D01*
X007786Y004192D01*
X007800Y004246D01*
X007809Y004300D01*
X007815Y004354D01*
X007817Y004410D01*
X007816Y004410D01*
X007814Y004355D01*
X007808Y004300D01*
X007799Y004246D01*
X007786Y004192D01*
X007769Y004140D01*
X007748Y004089D01*
X007724Y004040D01*
X007697Y003992D01*
X007666Y003946D01*
X007632Y003903D01*
X007596Y003862D01*
X007556Y003823D01*
X007514Y003788D01*
X007470Y003755D01*
X006215Y004410D02*
X006234Y004410D01*
X006233Y004409D02*
X006235Y004355D01*
X006241Y004300D01*
X006250Y004246D01*
X006263Y004193D01*
X006280Y004140D01*
X006301Y004089D01*
X006325Y004040D01*
X006352Y003992D01*
X006383Y003947D01*
X006416Y003903D01*
X006453Y003862D01*
X006492Y003824D01*
X006534Y003789D01*
X006579Y003756D01*
X006568Y003741D01*
X006523Y003774D01*
X006480Y003810D01*
X006439Y003849D01*
X006402Y003891D01*
X006367Y003936D01*
X006336Y003982D01*
X006308Y004031D01*
X006284Y004082D01*
X006263Y004134D01*
X006245Y004187D01*
X006232Y004242D01*
X006222Y004297D01*
X006216Y004353D01*
X006214Y004409D01*
X006215Y004409D01*
X006217Y004353D01*
X006223Y004297D01*
X006233Y004242D01*
X006246Y004188D01*
X006263Y004134D01*
X006284Y004082D01*
X006309Y004032D01*
X006337Y003983D01*
X006368Y003936D01*
X006403Y003892D01*
X006440Y003850D01*
X006480Y003811D01*
X006523Y003775D01*
X006569Y003741D01*
X006569Y003742D01*
X006524Y003775D01*
X006481Y003812D01*
X006441Y003851D01*
X006403Y003893D01*
X006369Y003937D01*
X006338Y003983D01*
X006310Y004032D01*
X006285Y004083D01*
X006264Y004135D01*
X006247Y004188D01*
X006234Y004242D01*
X006224Y004298D01*
X006218Y004353D01*
X006216Y004409D01*
X006217Y004409D01*
X006219Y004353D01*
X006225Y004298D01*
X006235Y004243D01*
X006248Y004188D01*
X006265Y004135D01*
X006286Y004083D01*
X006311Y004033D01*
X006339Y003984D01*
X006370Y003937D01*
X006404Y003893D01*
X006442Y003851D01*
X006482Y003812D01*
X006524Y003776D01*
X006570Y003743D01*
X006570Y003744D01*
X006525Y003777D01*
X006482Y003813D01*
X006442Y003852D01*
X006405Y003894D01*
X006371Y003938D01*
X006339Y003984D01*
X006312Y004033D01*
X006287Y004083D01*
X006266Y004135D01*
X006249Y004188D01*
X006236Y004243D01*
X006226Y004298D01*
X006220Y004354D01*
X006218Y004409D01*
X006219Y004409D01*
X006221Y004354D01*
X006227Y004298D01*
X006237Y004243D01*
X006250Y004189D01*
X006267Y004136D01*
X006288Y004084D01*
X006312Y004033D01*
X006340Y003985D01*
X006371Y003939D01*
X006406Y003894D01*
X006443Y003853D01*
X006483Y003814D01*
X006526Y003778D01*
X006571Y003745D01*
X006571Y003746D01*
X006526Y003779D01*
X006484Y003815D01*
X006444Y003853D01*
X006407Y003895D01*
X006372Y003939D01*
X006341Y003986D01*
X006313Y004034D01*
X006289Y004084D01*
X006268Y004136D01*
X006251Y004189D01*
X006237Y004243D01*
X006228Y004298D01*
X006222Y004354D01*
X006220Y004409D01*
X006221Y004409D01*
X006223Y004354D01*
X006229Y004298D01*
X006238Y004243D01*
X006252Y004189D01*
X006269Y004136D01*
X006290Y004085D01*
X006314Y004034D01*
X006342Y003986D01*
X006373Y003940D01*
X006407Y003896D01*
X006444Y003854D01*
X006484Y003815D01*
X006527Y003779D01*
X006572Y003746D01*
X006572Y003747D01*
X006528Y003780D01*
X006485Y003816D01*
X006445Y003855D01*
X006408Y003896D01*
X006374Y003940D01*
X006343Y003987D01*
X006315Y004035D01*
X006291Y004085D01*
X006270Y004137D01*
X006253Y004190D01*
X006239Y004244D01*
X006230Y004298D01*
X006224Y004354D01*
X006222Y004409D01*
X006223Y004409D01*
X006225Y004354D01*
X006231Y004299D01*
X006240Y004244D01*
X006254Y004190D01*
X006271Y004137D01*
X006292Y004085D01*
X006316Y004035D01*
X006344Y003987D01*
X006375Y003941D01*
X006409Y003897D01*
X006446Y003856D01*
X006486Y003817D01*
X006528Y003781D01*
X006573Y003748D01*
X006574Y003749D01*
X006529Y003782D01*
X006486Y003818D01*
X006447Y003856D01*
X006410Y003898D01*
X006376Y003942D01*
X006345Y003988D01*
X006317Y004036D01*
X006293Y004086D01*
X006272Y004137D01*
X006255Y004190D01*
X006241Y004244D01*
X006232Y004299D01*
X006226Y004354D01*
X006224Y004409D01*
X006225Y004409D01*
X006227Y004354D01*
X006233Y004299D01*
X006242Y004244D01*
X006256Y004190D01*
X006273Y004138D01*
X006294Y004086D01*
X006318Y004036D01*
X006345Y003988D01*
X006376Y003942D01*
X006410Y003898D01*
X006447Y003857D01*
X006487Y003818D01*
X006529Y003782D01*
X006574Y003750D01*
X006575Y003750D01*
X006530Y003783D01*
X006488Y003819D01*
X006448Y003858D01*
X006411Y003899D01*
X006377Y003943D01*
X006346Y003989D01*
X006319Y004037D01*
X006294Y004087D01*
X006274Y004138D01*
X006257Y004191D01*
X006243Y004244D01*
X006234Y004299D01*
X006228Y004354D01*
X006226Y004409D01*
X006227Y004409D01*
X006229Y004354D01*
X006235Y004299D01*
X006244Y004245D01*
X006258Y004191D01*
X006275Y004138D01*
X006295Y004087D01*
X006320Y004037D01*
X006347Y003989D01*
X006378Y003943D01*
X006412Y003900D01*
X006449Y003858D01*
X006488Y003820D01*
X006531Y003784D01*
X006575Y003751D01*
X006576Y003752D01*
X006531Y003785D01*
X006489Y003821D01*
X006449Y003859D01*
X006413Y003900D01*
X006379Y003944D01*
X006348Y003990D01*
X006320Y004038D01*
X006296Y004087D01*
X006276Y004139D01*
X006259Y004191D01*
X006245Y004245D01*
X006236Y004299D01*
X006230Y004354D01*
X006228Y004409D01*
X006229Y004409D01*
X006231Y004354D01*
X006237Y004299D01*
X006246Y004245D01*
X006260Y004191D01*
X006277Y004139D01*
X006297Y004088D01*
X006321Y004038D01*
X006349Y003990D01*
X006380Y003944D01*
X006413Y003901D01*
X006450Y003860D01*
X006490Y003821D01*
X006532Y003786D01*
X006576Y003753D01*
X006577Y003754D01*
X006533Y003786D01*
X006490Y003822D01*
X006451Y003860D01*
X006414Y003902D01*
X006380Y003945D01*
X006350Y003991D01*
X006322Y004039D01*
X006298Y004088D01*
X006278Y004139D01*
X006261Y004192D01*
X006247Y004245D01*
X006238Y004300D01*
X006232Y004354D01*
X006230Y004409D01*
X006231Y004409D01*
X006233Y004354D01*
X006239Y004300D01*
X006248Y004245D01*
X006262Y004192D01*
X006278Y004140D01*
X006299Y004089D01*
X006323Y004039D01*
X006351Y003991D01*
X006381Y003946D01*
X006415Y003902D01*
X006452Y003861D01*
X006491Y003823D01*
X006533Y003787D01*
X006578Y003755D01*
X006534Y003788D01*
X006492Y003823D01*
X006452Y003862D01*
X006416Y003903D01*
X006382Y003946D01*
X006351Y003992D01*
X006324Y004040D01*
X006300Y004089D01*
X006279Y004140D01*
X006263Y004192D01*
X006249Y004246D01*
X006240Y004300D01*
X006234Y004355D01*
X006232Y004409D01*
X007833Y007109D02*
X007814Y007109D01*
X007815Y007110D02*
X007813Y007164D01*
X007807Y007219D01*
X007798Y007273D01*
X007785Y007326D01*
X007768Y007379D01*
X007747Y007430D01*
X007723Y007479D01*
X007696Y007527D01*
X007665Y007572D01*
X007631Y007616D01*
X007595Y007657D01*
X007556Y007695D01*
X007514Y007730D01*
X007469Y007763D01*
X007480Y007778D01*
X007525Y007745D01*
X007568Y007709D01*
X007609Y007670D01*
X007646Y007628D01*
X007681Y007583D01*
X007712Y007537D01*
X007740Y007488D01*
X007764Y007437D01*
X007785Y007385D01*
X007803Y007332D01*
X007816Y007277D01*
X007826Y007222D01*
X007832Y007166D01*
X007834Y007110D01*
X007833Y007110D01*
X007831Y007166D01*
X007825Y007222D01*
X007815Y007277D01*
X007802Y007331D01*
X007785Y007385D01*
X007764Y007437D01*
X007739Y007487D01*
X007711Y007536D01*
X007680Y007583D01*
X007645Y007627D01*
X007608Y007669D01*
X007568Y007708D01*
X007525Y007744D01*
X007479Y007778D01*
X007479Y007777D01*
X007524Y007744D01*
X007567Y007707D01*
X007607Y007668D01*
X007645Y007626D01*
X007679Y007582D01*
X007710Y007536D01*
X007738Y007487D01*
X007763Y007436D01*
X007784Y007384D01*
X007801Y007331D01*
X007814Y007277D01*
X007824Y007221D01*
X007830Y007166D01*
X007832Y007110D01*
X007831Y007110D01*
X007829Y007166D01*
X007823Y007221D01*
X007813Y007276D01*
X007800Y007331D01*
X007783Y007384D01*
X007762Y007436D01*
X007737Y007486D01*
X007709Y007535D01*
X007678Y007582D01*
X007644Y007626D01*
X007606Y007668D01*
X007566Y007707D01*
X007523Y007743D01*
X007478Y007776D01*
X007478Y007775D01*
X007523Y007742D01*
X007566Y007706D01*
X007606Y007667D01*
X007643Y007625D01*
X007677Y007581D01*
X007709Y007535D01*
X007736Y007486D01*
X007761Y007436D01*
X007782Y007384D01*
X007799Y007331D01*
X007812Y007276D01*
X007822Y007221D01*
X007828Y007165D01*
X007830Y007110D01*
X007829Y007110D01*
X007827Y007165D01*
X007821Y007221D01*
X007811Y007276D01*
X007798Y007330D01*
X007781Y007383D01*
X007760Y007435D01*
X007736Y007486D01*
X007708Y007534D01*
X007677Y007580D01*
X007642Y007625D01*
X007605Y007666D01*
X007565Y007705D01*
X007522Y007741D01*
X007477Y007774D01*
X007477Y007773D01*
X007522Y007740D01*
X007564Y007704D01*
X007604Y007666D01*
X007641Y007624D01*
X007676Y007580D01*
X007707Y007533D01*
X007735Y007485D01*
X007759Y007435D01*
X007780Y007383D01*
X007797Y007330D01*
X007811Y007276D01*
X007820Y007221D01*
X007826Y007165D01*
X007828Y007110D01*
X007827Y007110D01*
X007825Y007165D01*
X007819Y007221D01*
X007810Y007276D01*
X007796Y007330D01*
X007779Y007383D01*
X007758Y007434D01*
X007734Y007485D01*
X007706Y007533D01*
X007675Y007579D01*
X007641Y007623D01*
X007604Y007665D01*
X007564Y007704D01*
X007521Y007740D01*
X007476Y007773D01*
X007476Y007772D01*
X007520Y007739D01*
X007563Y007703D01*
X007603Y007664D01*
X007640Y007623D01*
X007674Y007579D01*
X007705Y007532D01*
X007733Y007484D01*
X007757Y007434D01*
X007778Y007382D01*
X007795Y007329D01*
X007809Y007275D01*
X007818Y007221D01*
X007824Y007165D01*
X007826Y007110D01*
X007825Y007110D01*
X007823Y007165D01*
X007817Y007220D01*
X007808Y007275D01*
X007794Y007329D01*
X007777Y007382D01*
X007756Y007434D01*
X007732Y007484D01*
X007704Y007532D01*
X007673Y007578D01*
X007639Y007622D01*
X007602Y007663D01*
X007562Y007702D01*
X007520Y007738D01*
X007475Y007771D01*
X007474Y007770D01*
X007519Y007737D01*
X007562Y007701D01*
X007601Y007663D01*
X007638Y007621D01*
X007672Y007577D01*
X007703Y007531D01*
X007731Y007483D01*
X007755Y007433D01*
X007776Y007382D01*
X007793Y007329D01*
X007807Y007275D01*
X007816Y007220D01*
X007822Y007165D01*
X007824Y007110D01*
X007823Y007110D01*
X007821Y007165D01*
X007815Y007220D01*
X007806Y007275D01*
X007792Y007329D01*
X007775Y007381D01*
X007754Y007433D01*
X007730Y007483D01*
X007703Y007531D01*
X007672Y007577D01*
X007638Y007621D01*
X007601Y007662D01*
X007561Y007701D01*
X007519Y007737D01*
X007474Y007769D01*
X007473Y007769D01*
X007518Y007736D01*
X007560Y007700D01*
X007600Y007661D01*
X007637Y007620D01*
X007671Y007576D01*
X007702Y007530D01*
X007729Y007482D01*
X007754Y007432D01*
X007774Y007381D01*
X007791Y007328D01*
X007805Y007275D01*
X007814Y007220D01*
X007820Y007165D01*
X007822Y007110D01*
X007821Y007110D01*
X007819Y007165D01*
X007813Y007220D01*
X007804Y007274D01*
X007790Y007328D01*
X007773Y007381D01*
X007753Y007432D01*
X007728Y007482D01*
X007701Y007530D01*
X007670Y007576D01*
X007636Y007619D01*
X007599Y007661D01*
X007560Y007699D01*
X007517Y007735D01*
X007473Y007768D01*
X007472Y007767D01*
X007517Y007734D01*
X007559Y007699D01*
X007598Y007660D01*
X007635Y007619D01*
X007669Y007575D01*
X007700Y007529D01*
X007728Y007481D01*
X007752Y007432D01*
X007772Y007380D01*
X007789Y007328D01*
X007803Y007274D01*
X007812Y007220D01*
X007818Y007165D01*
X007820Y007110D01*
X007819Y007110D01*
X007817Y007165D01*
X007811Y007220D01*
X007802Y007274D01*
X007788Y007328D01*
X007771Y007380D01*
X007751Y007431D01*
X007727Y007481D01*
X007699Y007529D01*
X007668Y007575D01*
X007635Y007618D01*
X007598Y007659D01*
X007558Y007698D01*
X007516Y007733D01*
X007472Y007766D01*
X007471Y007765D01*
X007515Y007733D01*
X007558Y007697D01*
X007597Y007659D01*
X007634Y007618D01*
X007668Y007574D01*
X007698Y007528D01*
X007726Y007480D01*
X007750Y007431D01*
X007770Y007380D01*
X007787Y007327D01*
X007801Y007274D01*
X007810Y007219D01*
X007816Y007165D01*
X007818Y007110D01*
X007817Y007110D01*
X007815Y007165D01*
X007809Y007219D01*
X007800Y007274D01*
X007786Y007327D01*
X007769Y007379D01*
X007749Y007430D01*
X007725Y007480D01*
X007697Y007528D01*
X007667Y007573D01*
X007633Y007617D01*
X007596Y007658D01*
X007557Y007696D01*
X007515Y007732D01*
X007470Y007764D01*
X007514Y007731D01*
X007556Y007696D01*
X007596Y007657D01*
X007632Y007616D01*
X007666Y007573D01*
X007697Y007527D01*
X007724Y007479D01*
X007748Y007430D01*
X007769Y007379D01*
X007785Y007327D01*
X007799Y007273D01*
X007808Y007219D01*
X007814Y007164D01*
X007816Y007110D01*
X006565Y007331D02*
X006582Y007323D01*
X006582Y007324D02*
X006567Y007290D01*
X006555Y007255D01*
X006545Y007220D01*
X006539Y007184D01*
X006534Y007147D01*
X006533Y007110D01*
X006515Y007110D01*
X006514Y007110D01*
X006515Y007149D01*
X006520Y007187D01*
X006527Y007224D01*
X006537Y007261D01*
X006549Y007297D01*
X006565Y007332D01*
X006566Y007331D01*
X006550Y007297D01*
X006538Y007261D01*
X006528Y007224D01*
X006521Y007186D01*
X006516Y007149D01*
X006515Y007110D01*
X006516Y007110D01*
X006517Y007148D01*
X006522Y007186D01*
X006529Y007224D01*
X006539Y007260D01*
X006551Y007296D01*
X006567Y007331D01*
X006552Y007296D01*
X006540Y007260D01*
X006530Y007223D01*
X006523Y007186D01*
X006518Y007148D01*
X006517Y007110D01*
X006518Y007110D01*
X006519Y007148D01*
X006524Y007186D01*
X006531Y007223D01*
X006541Y007260D01*
X006553Y007295D01*
X006568Y007330D01*
X006569Y007330D01*
X006554Y007295D01*
X006542Y007259D01*
X006532Y007223D01*
X006525Y007186D01*
X006520Y007148D01*
X006519Y007110D01*
X006520Y007110D01*
X006521Y007148D01*
X006526Y007186D01*
X006533Y007223D01*
X006543Y007259D01*
X006555Y007295D01*
X006570Y007329D01*
X006571Y007329D01*
X006556Y007294D01*
X006544Y007259D01*
X006534Y007222D01*
X006527Y007186D01*
X006522Y007148D01*
X006521Y007110D01*
X006522Y007110D01*
X006523Y007148D01*
X006528Y007185D01*
X006535Y007222D01*
X006544Y007259D01*
X006557Y007294D01*
X006572Y007328D01*
X006573Y007328D01*
X006558Y007294D01*
X006545Y007258D01*
X006536Y007222D01*
X006529Y007185D01*
X006524Y007148D01*
X006523Y007110D01*
X006524Y007110D01*
X006525Y007148D01*
X006530Y007185D01*
X006537Y007222D01*
X006546Y007258D01*
X006559Y007293D01*
X006574Y007328D01*
X006575Y007327D01*
X006560Y007293D01*
X006547Y007258D01*
X006538Y007222D01*
X006531Y007185D01*
X006526Y007148D01*
X006525Y007110D01*
X006526Y007110D01*
X006527Y007148D01*
X006532Y007185D01*
X006539Y007221D01*
X006548Y007257D01*
X006561Y007292D01*
X006576Y007327D01*
X006576Y007326D01*
X006562Y007292D01*
X006549Y007257D01*
X006540Y007221D01*
X006533Y007185D01*
X006528Y007148D01*
X006527Y007110D01*
X006528Y007110D01*
X006529Y007148D01*
X006534Y007184D01*
X006541Y007221D01*
X006550Y007257D01*
X006563Y007292D01*
X006577Y007326D01*
X006578Y007325D01*
X006563Y007291D01*
X006551Y007256D01*
X006542Y007221D01*
X006535Y007184D01*
X006530Y007148D01*
X006529Y007110D01*
X006530Y007110D01*
X006531Y007147D01*
X006536Y007184D01*
X006543Y007220D01*
X006552Y007256D01*
X006564Y007291D01*
X006579Y007325D01*
X006580Y007324D01*
X006565Y007291D01*
X006553Y007256D01*
X006543Y007220D01*
X006537Y007184D01*
X006532Y007147D01*
X006531Y007110D01*
X006532Y007110D01*
X006533Y007147D01*
X006538Y007184D01*
X006544Y007220D01*
X006554Y007256D01*
X006566Y007290D01*
X006581Y007324D01*
X007533Y007110D02*
X007514Y007110D01*
X007515Y007110D02*
X007514Y007147D01*
X007509Y007184D01*
X007503Y007220D01*
X007493Y007255D01*
X007481Y007290D01*
X007466Y007324D01*
X007483Y007331D01*
X007483Y007332D01*
X007499Y007297D01*
X007511Y007261D01*
X007521Y007224D01*
X007528Y007187D01*
X007533Y007149D01*
X007534Y007110D01*
X007533Y007110D01*
X007532Y007149D01*
X007527Y007186D01*
X007520Y007224D01*
X007510Y007261D01*
X007498Y007297D01*
X007482Y007331D01*
X007481Y007331D01*
X007497Y007296D01*
X007509Y007260D01*
X007519Y007224D01*
X007526Y007186D01*
X007531Y007148D01*
X007532Y007110D01*
X007531Y007110D01*
X007530Y007148D01*
X007525Y007186D01*
X007518Y007223D01*
X007508Y007260D01*
X007496Y007296D01*
X007481Y007331D01*
X007480Y007330D01*
X007495Y007295D01*
X007507Y007260D01*
X007517Y007223D01*
X007524Y007186D01*
X007529Y007148D01*
X007530Y007110D01*
X007529Y007110D01*
X007528Y007148D01*
X007523Y007186D01*
X007516Y007223D01*
X007506Y007259D01*
X007494Y007295D01*
X007479Y007330D01*
X007478Y007329D01*
X007493Y007295D01*
X007505Y007259D01*
X007515Y007223D01*
X007522Y007186D01*
X007527Y007148D01*
X007528Y007110D01*
X007527Y007110D01*
X007526Y007148D01*
X007521Y007186D01*
X007514Y007222D01*
X007504Y007259D01*
X007492Y007294D01*
X007477Y007329D01*
X007476Y007328D01*
X007491Y007294D01*
X007504Y007259D01*
X007513Y007222D01*
X007520Y007185D01*
X007525Y007148D01*
X007526Y007110D01*
X007525Y007110D01*
X007524Y007148D01*
X007519Y007185D01*
X007512Y007222D01*
X007503Y007258D01*
X007490Y007294D01*
X007475Y007328D01*
X007474Y007328D01*
X007489Y007293D01*
X007502Y007258D01*
X007511Y007222D01*
X007518Y007185D01*
X007523Y007148D01*
X007524Y007110D01*
X007523Y007110D01*
X007522Y007148D01*
X007517Y007185D01*
X007510Y007222D01*
X007501Y007258D01*
X007488Y007293D01*
X007473Y007327D01*
X007472Y007327D01*
X007487Y007292D01*
X007500Y007257D01*
X007509Y007221D01*
X007516Y007185D01*
X007521Y007148D01*
X007522Y007110D01*
X007521Y007110D01*
X007520Y007148D01*
X007515Y007185D01*
X007508Y007221D01*
X007499Y007257D01*
X007486Y007292D01*
X007472Y007326D01*
X007471Y007326D01*
X007485Y007292D01*
X007498Y007257D01*
X007507Y007221D01*
X007514Y007184D01*
X007519Y007148D01*
X007520Y007110D01*
X007519Y007110D01*
X007518Y007148D01*
X007513Y007184D01*
X007506Y007221D01*
X007497Y007256D01*
X007485Y007291D01*
X007470Y007325D01*
X007469Y007325D01*
X007484Y007291D01*
X007496Y007256D01*
X007505Y007220D01*
X007512Y007184D01*
X007517Y007147D01*
X007518Y007110D01*
X007517Y007110D01*
X007516Y007147D01*
X007511Y007184D01*
X007505Y007220D01*
X007495Y007256D01*
X007483Y007291D01*
X007468Y007324D01*
X007467Y007324D01*
X007482Y007290D01*
X007494Y007256D01*
X007504Y007220D01*
X007510Y007184D01*
X007515Y007147D01*
X007516Y007110D01*
X006568Y007779D02*
X006579Y007763D01*
X006579Y007764D02*
X006534Y007731D01*
X006492Y007696D01*
X006453Y007657D01*
X006416Y007617D01*
X006383Y007573D01*
X006352Y007528D01*
X006325Y007480D01*
X006301Y007431D01*
X006280Y007380D01*
X006263Y007327D01*
X006250Y007274D01*
X006241Y007220D01*
X006235Y007165D01*
X006233Y007110D01*
X006215Y007110D01*
X006214Y007110D01*
X006216Y007167D01*
X006222Y007223D01*
X006232Y007278D01*
X006245Y007333D01*
X006263Y007386D01*
X006283Y007438D01*
X006308Y007489D01*
X006336Y007538D01*
X006367Y007584D01*
X006402Y007629D01*
X006439Y007671D01*
X006480Y007710D01*
X006523Y007746D01*
X006568Y007779D01*
X006569Y007779D01*
X006523Y007745D01*
X006480Y007709D01*
X006440Y007670D01*
X006403Y007628D01*
X006368Y007584D01*
X006337Y007537D01*
X006309Y007488D01*
X006284Y007438D01*
X006263Y007386D01*
X006246Y007332D01*
X006233Y007278D01*
X006223Y007222D01*
X006217Y007167D01*
X006215Y007110D01*
X006216Y007110D01*
X006218Y007167D01*
X006224Y007222D01*
X006234Y007278D01*
X006247Y007332D01*
X006264Y007385D01*
X006285Y007437D01*
X006310Y007488D01*
X006338Y007537D01*
X006369Y007583D01*
X006403Y007627D01*
X006441Y007669D01*
X006481Y007708D01*
X006524Y007745D01*
X006569Y007778D01*
X006570Y007777D01*
X006524Y007744D01*
X006482Y007708D01*
X006442Y007669D01*
X006404Y007627D01*
X006370Y007583D01*
X006339Y007536D01*
X006311Y007487D01*
X006286Y007437D01*
X006265Y007385D01*
X006248Y007332D01*
X006235Y007277D01*
X006225Y007222D01*
X006219Y007166D01*
X006217Y007110D01*
X006218Y007110D01*
X006220Y007166D01*
X006226Y007222D01*
X006236Y007277D01*
X006249Y007331D01*
X006266Y007385D01*
X006287Y007437D01*
X006312Y007487D01*
X006339Y007535D01*
X006371Y007582D01*
X006405Y007626D01*
X006442Y007668D01*
X006482Y007707D01*
X006525Y007743D01*
X006570Y007776D01*
X006571Y007775D01*
X006526Y007742D01*
X006483Y007706D01*
X006443Y007667D01*
X006406Y007626D01*
X006371Y007581D01*
X006340Y007535D01*
X006312Y007487D01*
X006288Y007436D01*
X006267Y007384D01*
X006250Y007331D01*
X006237Y007277D01*
X006227Y007222D01*
X006221Y007166D01*
X006219Y007110D01*
X006220Y007110D01*
X006222Y007166D01*
X006228Y007222D01*
X006237Y007277D01*
X006251Y007331D01*
X006268Y007384D01*
X006289Y007436D01*
X006313Y007486D01*
X006341Y007534D01*
X006372Y007581D01*
X006406Y007625D01*
X006444Y007666D01*
X006484Y007705D01*
X006526Y007741D01*
X006571Y007774D01*
X006572Y007774D01*
X006527Y007741D01*
X006484Y007705D01*
X006444Y007666D01*
X006407Y007624D01*
X006373Y007580D01*
X006342Y007534D01*
X006314Y007486D01*
X006290Y007435D01*
X006269Y007384D01*
X006252Y007331D01*
X006238Y007277D01*
X006229Y007222D01*
X006223Y007166D01*
X006221Y007110D01*
X006222Y007110D01*
X006224Y007166D01*
X006230Y007222D01*
X006239Y007276D01*
X006253Y007330D01*
X006270Y007383D01*
X006291Y007435D01*
X006315Y007485D01*
X006343Y007533D01*
X006374Y007580D01*
X006408Y007624D01*
X006445Y007665D01*
X006485Y007704D01*
X006528Y007740D01*
X006572Y007773D01*
X006573Y007772D01*
X006528Y007739D01*
X006486Y007703D01*
X006446Y007664D01*
X006409Y007623D01*
X006375Y007579D01*
X006344Y007533D01*
X006316Y007485D01*
X006292Y007435D01*
X006271Y007383D01*
X006254Y007330D01*
X006240Y007276D01*
X006231Y007221D01*
X006225Y007166D01*
X006223Y007110D01*
X006224Y007110D01*
X006226Y007166D01*
X006232Y007221D01*
X006241Y007276D01*
X006255Y007330D01*
X006272Y007383D01*
X006293Y007434D01*
X006317Y007484D01*
X006345Y007532D01*
X006376Y007578D01*
X006410Y007622D01*
X006447Y007664D01*
X006486Y007702D01*
X006529Y007738D01*
X006574Y007771D01*
X006574Y007770D01*
X006529Y007738D01*
X006487Y007702D01*
X006447Y007663D01*
X006410Y007622D01*
X006376Y007578D01*
X006345Y007532D01*
X006318Y007484D01*
X006294Y007434D01*
X006273Y007382D01*
X006256Y007330D01*
X006242Y007276D01*
X006233Y007221D01*
X006227Y007166D01*
X006225Y007110D01*
X006226Y007110D01*
X006228Y007166D01*
X006234Y007221D01*
X006243Y007276D01*
X006257Y007329D01*
X006274Y007382D01*
X006294Y007433D01*
X006319Y007483D01*
X006346Y007531D01*
X006377Y007577D01*
X006411Y007621D01*
X006448Y007662D01*
X006488Y007701D01*
X006530Y007737D01*
X006575Y007770D01*
X006575Y007769D01*
X006531Y007736D01*
X006488Y007700D01*
X006449Y007662D01*
X006412Y007620D01*
X006378Y007577D01*
X006347Y007531D01*
X006320Y007483D01*
X006295Y007433D01*
X006275Y007382D01*
X006258Y007329D01*
X006244Y007275D01*
X006235Y007221D01*
X006229Y007166D01*
X006227Y007110D01*
X006228Y007110D01*
X006230Y007166D01*
X006236Y007221D01*
X006245Y007275D01*
X006259Y007329D01*
X006276Y007381D01*
X006296Y007433D01*
X006320Y007482D01*
X006348Y007530D01*
X006379Y007576D01*
X006413Y007620D01*
X006449Y007661D01*
X006489Y007699D01*
X006531Y007735D01*
X006576Y007768D01*
X006576Y007767D01*
X006532Y007734D01*
X006490Y007699D01*
X006450Y007660D01*
X006413Y007619D01*
X006380Y007576D01*
X006349Y007530D01*
X006321Y007482D01*
X006297Y007432D01*
X006277Y007381D01*
X006260Y007328D01*
X006246Y007275D01*
X006237Y007221D01*
X006231Y007166D01*
X006229Y007110D01*
X006230Y007110D01*
X006232Y007166D01*
X006238Y007220D01*
X006247Y007275D01*
X006261Y007328D01*
X006278Y007381D01*
X006298Y007432D01*
X006322Y007481D01*
X006350Y007529D01*
X006380Y007575D01*
X006414Y007618D01*
X006451Y007660D01*
X006490Y007698D01*
X006533Y007734D01*
X006577Y007766D01*
X006578Y007765D01*
X006533Y007733D01*
X006491Y007697D01*
X006452Y007659D01*
X006415Y007618D01*
X006381Y007574D01*
X006351Y007529D01*
X006323Y007481D01*
X006299Y007431D01*
X006278Y007380D01*
X006262Y007328D01*
X006248Y007274D01*
X006239Y007220D01*
X006233Y007166D01*
X006231Y007110D01*
X006232Y007110D01*
X006234Y007165D01*
X006240Y007220D01*
X006249Y007274D01*
X006262Y007328D01*
X006279Y007380D01*
X006300Y007431D01*
X006324Y007480D01*
X006351Y007528D01*
X006382Y007574D01*
X006416Y007617D01*
X006452Y007658D01*
X006492Y007697D01*
X006534Y007732D01*
X006578Y007765D01*
D14*
X006174Y008010D02*
X006157Y008008D01*
X006140Y008004D01*
X006124Y007997D01*
X006110Y007987D01*
X006097Y007974D01*
X006087Y007960D01*
X006080Y007944D01*
X006076Y007927D01*
X006074Y007910D01*
X006074Y003610D01*
X006076Y003593D01*
X006080Y003576D01*
X006087Y003560D01*
X006097Y003546D01*
X006110Y003533D01*
X006124Y003523D01*
X006140Y003516D01*
X006157Y003512D01*
X006174Y003510D01*
X006574Y003510D01*
X007474Y003510D02*
X007874Y003510D01*
X007891Y003512D01*
X007908Y003516D01*
X007924Y003523D01*
X007938Y003533D01*
X007951Y003546D01*
X007961Y003560D01*
X007968Y003576D01*
X007972Y003593D01*
X007974Y003610D01*
X007974Y007910D01*
X007972Y007927D01*
X007968Y007944D01*
X007961Y007960D01*
X007951Y007974D01*
X007938Y007987D01*
X007924Y007997D01*
X007908Y008004D01*
X007891Y008008D01*
X007874Y008010D01*
X007474Y008010D01*
X006574Y008010D02*
X006174Y008010D01*
X006774Y006010D02*
X007024Y006010D01*
X007274Y006010D01*
X007274Y005860D02*
X006774Y005860D01*
X006774Y005660D01*
X007274Y005660D01*
X007274Y005860D01*
X007274Y005510D02*
X007024Y005510D01*
X006774Y005510D01*
X010712Y013711D02*
X010712Y013861D01*
X010562Y013861D01*
X010712Y013861D02*
X010712Y014011D01*
X010712Y013861D02*
X010862Y013861D01*
X010112Y014511D02*
X010114Y014577D01*
X010120Y014642D01*
X010130Y014707D01*
X010143Y014772D01*
X010161Y014835D01*
X010182Y014898D01*
X010207Y014958D01*
X010236Y015018D01*
X010268Y015075D01*
X010303Y015131D01*
X010342Y015184D01*
X010384Y015235D01*
X010428Y015283D01*
X010476Y015328D01*
X010526Y015371D01*
X010579Y015410D01*
X010634Y015447D01*
X010691Y015480D01*
X010750Y015509D01*
X010810Y015535D01*
X010872Y015557D01*
X010935Y015576D01*
X010999Y015590D01*
X011064Y015601D01*
X011130Y015608D01*
X011196Y015611D01*
X011261Y015610D01*
X011327Y015605D01*
X011392Y015596D01*
X011457Y015583D01*
X011520Y015567D01*
X011583Y015547D01*
X011644Y015522D01*
X011704Y015495D01*
X011762Y015464D01*
X011818Y015429D01*
X011872Y015391D01*
X011923Y015350D01*
X011972Y015306D01*
X012018Y015259D01*
X012062Y015210D01*
X012102Y015158D01*
X012139Y015103D01*
X012173Y015047D01*
X012203Y014988D01*
X012230Y014928D01*
X012253Y014867D01*
X012272Y014804D01*
X012288Y014740D01*
X012300Y014675D01*
X012308Y014610D01*
X012312Y014544D01*
X012312Y014478D01*
X012308Y014412D01*
X012300Y014347D01*
X012288Y014282D01*
X012272Y014218D01*
X012253Y014155D01*
X012230Y014094D01*
X012203Y014034D01*
X012173Y013975D01*
X012139Y013919D01*
X012102Y013864D01*
X012062Y013812D01*
X012018Y013763D01*
X011972Y013716D01*
X011923Y013672D01*
X011872Y013631D01*
X011818Y013593D01*
X011762Y013558D01*
X011704Y013527D01*
X011644Y013500D01*
X011583Y013475D01*
X011520Y013455D01*
X011457Y013439D01*
X011392Y013426D01*
X011327Y013417D01*
X011261Y013412D01*
X011196Y013411D01*
X011130Y013414D01*
X011064Y013421D01*
X010999Y013432D01*
X010935Y013446D01*
X010872Y013465D01*
X010810Y013487D01*
X010750Y013513D01*
X010691Y013542D01*
X010634Y013575D01*
X010579Y013612D01*
X010526Y013651D01*
X010476Y013694D01*
X010428Y013739D01*
X010384Y013787D01*
X010342Y013838D01*
X010303Y013891D01*
X010268Y013947D01*
X010236Y014004D01*
X010207Y014064D01*
X010182Y014124D01*
X010161Y014187D01*
X010143Y014250D01*
X010130Y014315D01*
X010120Y014380D01*
X010114Y014445D01*
X010112Y014511D01*
X017935Y010283D02*
X017935Y009863D01*
X017935Y009463D01*
X017935Y009043D01*
X017937Y009020D01*
X017942Y008997D01*
X017951Y008975D01*
X017964Y008955D01*
X017979Y008937D01*
X017997Y008922D01*
X018017Y008909D01*
X018039Y008900D01*
X018062Y008895D01*
X018085Y008893D01*
X019785Y008893D01*
X019808Y008895D01*
X019831Y008900D01*
X019853Y008909D01*
X019873Y008922D01*
X019891Y008937D01*
X019906Y008955D01*
X019919Y008975D01*
X019928Y008997D01*
X019933Y009020D01*
X019935Y009043D01*
X019935Y010283D01*
X019933Y010306D01*
X019928Y010329D01*
X019919Y010351D01*
X019906Y010371D01*
X019891Y010389D01*
X019873Y010404D01*
X019853Y010417D01*
X019831Y010426D01*
X019808Y010431D01*
X019785Y010433D01*
X018085Y010433D01*
X018062Y010431D01*
X018039Y010426D01*
X018017Y010417D01*
X017997Y010404D01*
X017979Y010389D01*
X017964Y010371D01*
X017951Y010351D01*
X017942Y010329D01*
X017937Y010306D01*
X017935Y010283D01*
X017935Y009863D02*
X017962Y009861D01*
X017989Y009856D01*
X018015Y009846D01*
X018039Y009834D01*
X018061Y009818D01*
X018081Y009800D01*
X018098Y009778D01*
X018113Y009755D01*
X018123Y009730D01*
X018131Y009704D01*
X018135Y009677D01*
X018135Y009649D01*
X018131Y009622D01*
X018123Y009596D01*
X018113Y009571D01*
X018098Y009548D01*
X018081Y009526D01*
X018061Y009508D01*
X018039Y009492D01*
X018015Y009480D01*
X017989Y009470D01*
X017962Y009465D01*
X017935Y009463D01*
D15*
X012605Y009429D02*
X012605Y011429D01*
X009605Y011429D01*
X009605Y009429D01*
X012605Y009429D01*
X010094Y007188D02*
X010096Y007208D01*
X010101Y007228D01*
X010111Y007246D01*
X010123Y007263D01*
X010138Y007277D01*
X010156Y007287D01*
X010175Y007295D01*
X010195Y007299D01*
X010215Y007299D01*
X010235Y007295D01*
X010254Y007287D01*
X010272Y007277D01*
X010287Y007263D01*
X010299Y007246D01*
X010309Y007228D01*
X010314Y007208D01*
X010316Y007188D01*
X010314Y007168D01*
X010309Y007148D01*
X010299Y007130D01*
X010287Y007113D01*
X010272Y007099D01*
X010254Y007089D01*
X010235Y007081D01*
X010215Y007077D01*
X010195Y007077D01*
X010175Y007081D01*
X010156Y007089D01*
X010138Y007099D01*
X010123Y007113D01*
X010111Y007130D01*
X010101Y007148D01*
X010096Y007168D01*
X010094Y007188D01*
D16*
X008298Y012895D02*
X001999Y012895D01*
X001999Y018194D01*
X008298Y018194D01*
X008298Y012895D01*
X007163Y013969D02*
X003029Y013969D01*
X003029Y013970D02*
X002988Y013972D01*
X002948Y013977D01*
X002909Y013987D01*
X002870Y014000D01*
X002833Y014016D01*
X002797Y014036D01*
X002764Y014059D01*
X002733Y014085D01*
X002704Y014114D01*
X002678Y014145D01*
X002655Y014178D01*
X002635Y014214D01*
X002619Y014251D01*
X002606Y014290D01*
X002596Y014329D01*
X002591Y014369D01*
X002589Y014410D01*
X002589Y014513D01*
X002591Y014554D01*
X002596Y014594D01*
X002606Y014633D01*
X002619Y014672D01*
X002635Y014709D01*
X002655Y014745D01*
X002678Y014778D01*
X002704Y014809D01*
X002733Y014838D01*
X002764Y014864D01*
X002797Y014887D01*
X002833Y014907D01*
X002870Y014923D01*
X002909Y014936D01*
X002948Y014946D01*
X002988Y014951D01*
X003029Y014953D01*
X003029Y014954D02*
X007267Y014954D01*
X007267Y014953D02*
X007308Y014951D01*
X007348Y014946D01*
X007387Y014936D01*
X007426Y014923D01*
X007463Y014907D01*
X007499Y014887D01*
X007532Y014864D01*
X007563Y014838D01*
X007592Y014809D01*
X007618Y014778D01*
X007641Y014745D01*
X007661Y014709D01*
X007677Y014672D01*
X007690Y014633D01*
X007700Y014594D01*
X007705Y014554D01*
X007707Y014513D01*
X007705Y014468D01*
X007700Y014423D01*
X007690Y014379D01*
X007678Y014336D01*
X007661Y014294D01*
X007641Y014254D01*
X007618Y014215D01*
X007592Y014179D01*
X007563Y014145D01*
X007531Y014113D01*
X007497Y014084D01*
X007461Y014058D01*
X007422Y014035D01*
X007382Y014015D01*
X007340Y013998D01*
X007297Y013986D01*
X007253Y013976D01*
X007208Y013971D01*
X007163Y013969D01*
X006920Y015741D02*
X007707Y015741D01*
X007707Y016135D01*
X006920Y016135D01*
X006920Y015741D01*
X006526Y016332D02*
X006526Y016922D01*
X006133Y016922D01*
X006133Y016332D01*
X006526Y016332D01*
X006920Y016528D02*
X006920Y017119D01*
X007314Y017119D01*
X007314Y016528D01*
X006920Y016528D01*
X003574Y016082D02*
X003576Y016144D01*
X003582Y016207D01*
X003592Y016268D01*
X003606Y016329D01*
X003623Y016389D01*
X003644Y016448D01*
X003670Y016505D01*
X003698Y016560D01*
X003730Y016614D01*
X003766Y016665D01*
X003804Y016715D01*
X003846Y016761D01*
X003890Y016805D01*
X003938Y016846D01*
X003987Y016884D01*
X004039Y016918D01*
X004093Y016949D01*
X004149Y016977D01*
X004207Y017001D01*
X004266Y017022D01*
X004326Y017038D01*
X004387Y017051D01*
X004449Y017060D01*
X004511Y017065D01*
X004574Y017066D01*
X004636Y017063D01*
X004698Y017056D01*
X004760Y017045D01*
X004820Y017030D01*
X004880Y017012D01*
X004938Y016990D01*
X004995Y016964D01*
X005050Y016934D01*
X005103Y016901D01*
X005154Y016865D01*
X005202Y016826D01*
X005248Y016783D01*
X005291Y016738D01*
X005331Y016690D01*
X005368Y016640D01*
X005402Y016587D01*
X005433Y016533D01*
X005459Y016477D01*
X005483Y016419D01*
X005502Y016359D01*
X005518Y016299D01*
X005530Y016237D01*
X005538Y016176D01*
X005542Y016113D01*
X005542Y016051D01*
X005538Y015988D01*
X005530Y015927D01*
X005518Y015865D01*
X005502Y015805D01*
X005483Y015745D01*
X005459Y015687D01*
X005433Y015631D01*
X005402Y015577D01*
X005368Y015524D01*
X005331Y015474D01*
X005291Y015426D01*
X005248Y015381D01*
X005202Y015338D01*
X005154Y015299D01*
X005103Y015263D01*
X005050Y015230D01*
X004995Y015200D01*
X004938Y015174D01*
X004880Y015152D01*
X004820Y015134D01*
X004760Y015119D01*
X004698Y015108D01*
X004636Y015101D01*
X004574Y015098D01*
X004511Y015099D01*
X004449Y015104D01*
X004387Y015113D01*
X004326Y015126D01*
X004266Y015142D01*
X004207Y015163D01*
X004149Y015187D01*
X004093Y015215D01*
X004039Y015246D01*
X003987Y015280D01*
X003938Y015318D01*
X003890Y015359D01*
X003846Y015403D01*
X003804Y015449D01*
X003766Y015499D01*
X003730Y015550D01*
X003698Y015604D01*
X003670Y015659D01*
X003644Y015716D01*
X003623Y015775D01*
X003606Y015835D01*
X003592Y015896D01*
X003582Y015957D01*
X003576Y016020D01*
X003574Y016082D01*
D17*
X004047Y014737D02*
X004278Y014737D01*
X004354Y014660D01*
X004354Y014507D01*
X004278Y014430D01*
X004047Y014430D01*
X004047Y014277D02*
X004047Y014737D01*
X004201Y014430D02*
X004354Y014277D01*
X004508Y014277D02*
X004508Y014737D01*
X004815Y014737D01*
X004968Y014737D02*
X005122Y014584D01*
X005275Y014737D01*
X005275Y014277D01*
X005429Y014277D02*
X005735Y014277D01*
X005582Y014277D02*
X005582Y014737D01*
X005429Y014584D01*
X005889Y014660D02*
X005966Y014737D01*
X006119Y014737D01*
X006196Y014660D01*
X006196Y014584D01*
X005889Y014277D01*
X006196Y014277D01*
X004968Y014277D02*
X004968Y014737D01*
X004661Y014507D02*
X004508Y014507D01*
X004684Y004682D02*
X004296Y004682D01*
X004296Y004662D02*
X004296Y003926D01*
X004214Y003721D02*
X002783Y003721D01*
X002783Y003722D02*
X002767Y003720D01*
X002752Y003716D01*
X002737Y003708D01*
X002725Y003698D01*
X002715Y003686D01*
X002707Y003671D01*
X002703Y003656D01*
X002701Y003640D01*
X002702Y003640D02*
X002702Y003640D01*
X002704Y003620D01*
X002710Y003601D01*
X002719Y003583D01*
X002732Y003568D01*
X002747Y003555D01*
X002765Y003546D01*
X002784Y003540D01*
X002804Y003538D01*
X002804Y003537D02*
X004194Y003537D01*
X004193Y003538D02*
X004213Y003540D01*
X004232Y003546D01*
X004250Y003555D01*
X004265Y003568D01*
X004278Y003583D01*
X004287Y003601D01*
X004293Y003620D01*
X004295Y003640D01*
X004296Y003640D02*
X004294Y003656D01*
X004290Y003671D01*
X004282Y003686D01*
X004272Y003698D01*
X004260Y003708D01*
X004245Y003716D01*
X004230Y003720D01*
X004214Y003722D01*
X003826Y003190D02*
X003172Y003190D01*
X003171Y003191D02*
X003153Y003188D01*
X003136Y003181D01*
X003121Y003172D01*
X003108Y003159D01*
X003099Y003144D01*
X003092Y003127D01*
X003089Y003109D01*
X003090Y003108D02*
X003008Y001514D01*
X003010Y001498D01*
X003014Y001483D01*
X003022Y001468D01*
X003032Y001456D01*
X003044Y001446D01*
X003059Y001438D01*
X003074Y001434D01*
X003090Y001432D01*
X003090Y001432D01*
X003106Y001434D01*
X003121Y001438D01*
X003136Y001446D01*
X003148Y001456D01*
X003158Y001468D01*
X003166Y001483D01*
X003170Y001498D01*
X003172Y001514D01*
X003253Y002863D01*
X003744Y002863D01*
X003826Y001514D01*
X003825Y001514D02*
X003827Y001498D01*
X003831Y001483D01*
X003839Y001468D01*
X003849Y001456D01*
X003861Y001446D01*
X003876Y001438D01*
X003891Y001434D01*
X003907Y001432D01*
X003923Y001434D01*
X003938Y001438D01*
X003953Y001446D01*
X003965Y001456D01*
X003975Y001468D01*
X003983Y001483D01*
X003987Y001498D01*
X003989Y001514D01*
X003907Y003108D01*
X003908Y003109D02*
X003905Y003127D01*
X003898Y003144D01*
X003889Y003159D01*
X003876Y003172D01*
X003861Y003181D01*
X003844Y003188D01*
X003826Y003191D01*
X004091Y002597D02*
X004173Y002597D01*
X004275Y001657D01*
X004480Y001657D01*
X004582Y002597D01*
X004664Y002597D01*
X004582Y001514D01*
X004578Y001495D01*
X004572Y001476D01*
X004562Y001459D01*
X004550Y001443D01*
X004535Y001430D01*
X004518Y001419D01*
X004500Y001412D01*
X004275Y001412D02*
X004257Y001419D01*
X004240Y001430D01*
X004225Y001443D01*
X004213Y001459D01*
X004203Y001476D01*
X004197Y001495D01*
X004193Y001514D01*
X004194Y001514D02*
X004091Y002597D01*
X004276Y001412D02*
X004312Y001403D01*
X004350Y001397D01*
X004388Y001395D01*
X004426Y001397D01*
X004463Y001403D01*
X004500Y001412D01*
X005011Y001575D02*
X005011Y000983D01*
X001986Y000983D01*
X001986Y001575D01*
X002415Y001514D02*
X002334Y002597D01*
X002415Y002597D01*
X002518Y001657D01*
X002722Y001657D01*
X002824Y002597D01*
X002906Y002597D01*
X002804Y001514D01*
X002800Y001495D01*
X002794Y001476D01*
X002784Y001459D01*
X002772Y001443D01*
X002757Y001430D01*
X002740Y001419D01*
X002722Y001412D01*
X002497Y001412D02*
X002479Y001419D01*
X002462Y001430D01*
X002447Y001443D01*
X002435Y001459D01*
X002425Y001476D01*
X002419Y001495D01*
X002415Y001514D01*
X002498Y001412D02*
X002534Y001403D01*
X002572Y001397D01*
X002610Y001395D01*
X002648Y001397D01*
X002685Y001403D01*
X002722Y001412D01*
X001986Y002690D02*
X001986Y003599D01*
X001987Y003599D02*
X001985Y003583D01*
X001981Y003568D01*
X001973Y003553D01*
X001963Y003541D01*
X001951Y003531D01*
X001936Y003523D01*
X001921Y003519D01*
X001905Y003517D01*
X001843Y003517D01*
X002702Y003926D02*
X002702Y004662D01*
X002702Y004682D02*
X002313Y004682D01*
X002313Y004662D02*
X002313Y004518D01*
X004684Y004518D02*
X004684Y004662D01*
X005011Y003599D02*
X005011Y002690D01*
X005093Y003517D02*
X005154Y003517D01*
X005093Y003517D02*
X005077Y003519D01*
X005062Y003523D01*
X005047Y003531D01*
X005035Y003541D01*
X005025Y003553D01*
X005017Y003568D01*
X005013Y003583D01*
X005011Y003599D01*
X005011Y000983D02*
X005011Y000983D01*
D18*
X005402Y009205D03*
D19*
X016518Y006354D03*
X016990Y006354D03*
X017406Y006365D03*
X017879Y006365D03*
X018334Y006385D03*
X018807Y006385D03*
D20*
X018571Y006385D03*
X017643Y006365D03*
X016754Y006354D03*
D21*
X016121Y008961D03*
X014390Y008978D03*
M02*
