G75*
G70*
%OFA0B0*%
%FSLAX24Y24*%
%IPPOS*%
%LPD*%
%AMOC8*
5,1,8,0,0,1.08239X$1,22.5*
%
%ADD10C,0.0000*%
%ADD11R,0.0640X0.0640*%
%ADD12OC8,0.0640*%
%ADD13R,0.0540X0.1040*%
%ADD14C,0.0394*%
%ADD15OC8,0.0670*%
%ADD16C,0.0670*%
%ADD17C,0.0594*%
%ADD18C,0.1320*%
%ADD19C,0.0985*%
D10*
X000877Y000978D02*
X000877Y020663D01*
X020562Y020663D01*
X020562Y000978D01*
X000877Y000978D01*
X002456Y003313D02*
X002458Y003339D01*
X002464Y003365D01*
X002474Y003390D01*
X002487Y003413D01*
X002503Y003433D01*
X002523Y003451D01*
X002545Y003466D01*
X002568Y003478D01*
X002594Y003486D01*
X002620Y003490D01*
X002646Y003490D01*
X002672Y003486D01*
X002698Y003478D01*
X002722Y003466D01*
X002743Y003451D01*
X002763Y003433D01*
X002779Y003413D01*
X002792Y003390D01*
X002802Y003365D01*
X002808Y003339D01*
X002810Y003313D01*
X002808Y003287D01*
X002802Y003261D01*
X002792Y003236D01*
X002779Y003213D01*
X002763Y003193D01*
X002743Y003175D01*
X002721Y003160D01*
X002698Y003148D01*
X002672Y003140D01*
X002646Y003136D01*
X002620Y003136D01*
X002594Y003140D01*
X002568Y003148D01*
X002544Y003160D01*
X002523Y003175D01*
X002503Y003193D01*
X002487Y003213D01*
X002474Y003236D01*
X002464Y003261D01*
X002458Y003287D01*
X002456Y003313D01*
X004188Y003313D02*
X004190Y003339D01*
X004196Y003365D01*
X004206Y003390D01*
X004219Y003413D01*
X004235Y003433D01*
X004255Y003451D01*
X004277Y003466D01*
X004300Y003478D01*
X004326Y003486D01*
X004352Y003490D01*
X004378Y003490D01*
X004404Y003486D01*
X004430Y003478D01*
X004454Y003466D01*
X004475Y003451D01*
X004495Y003433D01*
X004511Y003413D01*
X004524Y003390D01*
X004534Y003365D01*
X004540Y003339D01*
X004542Y003313D01*
X004540Y003287D01*
X004534Y003261D01*
X004524Y003236D01*
X004511Y003213D01*
X004495Y003193D01*
X004475Y003175D01*
X004453Y003160D01*
X004430Y003148D01*
X004404Y003140D01*
X004378Y003136D01*
X004352Y003136D01*
X004326Y003140D01*
X004300Y003148D01*
X004276Y003160D01*
X004255Y003175D01*
X004235Y003193D01*
X004219Y003213D01*
X004206Y003236D01*
X004196Y003261D01*
X004190Y003287D01*
X004188Y003313D01*
X013310Y016402D02*
X013312Y016452D01*
X013318Y016502D01*
X013328Y016551D01*
X013341Y016600D01*
X013359Y016647D01*
X013380Y016693D01*
X013404Y016736D01*
X013432Y016778D01*
X013463Y016818D01*
X013497Y016855D01*
X013534Y016889D01*
X013574Y016920D01*
X013616Y016948D01*
X013659Y016972D01*
X013705Y016993D01*
X013752Y017011D01*
X013801Y017024D01*
X013850Y017034D01*
X013900Y017040D01*
X013950Y017042D01*
X014000Y017040D01*
X014050Y017034D01*
X014099Y017024D01*
X014148Y017011D01*
X014195Y016993D01*
X014241Y016972D01*
X014284Y016948D01*
X014326Y016920D01*
X014366Y016889D01*
X014403Y016855D01*
X014437Y016818D01*
X014468Y016778D01*
X014496Y016736D01*
X014520Y016693D01*
X014541Y016647D01*
X014559Y016600D01*
X014572Y016551D01*
X014582Y016502D01*
X014588Y016452D01*
X014590Y016402D01*
X014588Y016352D01*
X014582Y016302D01*
X014572Y016253D01*
X014559Y016204D01*
X014541Y016157D01*
X014520Y016111D01*
X014496Y016068D01*
X014468Y016026D01*
X014437Y015986D01*
X014403Y015949D01*
X014366Y015915D01*
X014326Y015884D01*
X014284Y015856D01*
X014241Y015832D01*
X014195Y015811D01*
X014148Y015793D01*
X014099Y015780D01*
X014050Y015770D01*
X014000Y015764D01*
X013950Y015762D01*
X013900Y015764D01*
X013850Y015770D01*
X013801Y015780D01*
X013752Y015793D01*
X013705Y015811D01*
X013659Y015832D01*
X013616Y015856D01*
X013574Y015884D01*
X013534Y015915D01*
X013497Y015949D01*
X013463Y015986D01*
X013432Y016026D01*
X013404Y016068D01*
X013380Y016111D01*
X013359Y016157D01*
X013341Y016204D01*
X013328Y016253D01*
X013318Y016302D01*
X013312Y016352D01*
X013310Y016402D01*
X017810Y016402D02*
X017812Y016452D01*
X017818Y016502D01*
X017828Y016551D01*
X017841Y016600D01*
X017859Y016647D01*
X017880Y016693D01*
X017904Y016736D01*
X017932Y016778D01*
X017963Y016818D01*
X017997Y016855D01*
X018034Y016889D01*
X018074Y016920D01*
X018116Y016948D01*
X018159Y016972D01*
X018205Y016993D01*
X018252Y017011D01*
X018301Y017024D01*
X018350Y017034D01*
X018400Y017040D01*
X018450Y017042D01*
X018500Y017040D01*
X018550Y017034D01*
X018599Y017024D01*
X018648Y017011D01*
X018695Y016993D01*
X018741Y016972D01*
X018784Y016948D01*
X018826Y016920D01*
X018866Y016889D01*
X018903Y016855D01*
X018937Y016818D01*
X018968Y016778D01*
X018996Y016736D01*
X019020Y016693D01*
X019041Y016647D01*
X019059Y016600D01*
X019072Y016551D01*
X019082Y016502D01*
X019088Y016452D01*
X019090Y016402D01*
X019088Y016352D01*
X019082Y016302D01*
X019072Y016253D01*
X019059Y016204D01*
X019041Y016157D01*
X019020Y016111D01*
X018996Y016068D01*
X018968Y016026D01*
X018937Y015986D01*
X018903Y015949D01*
X018866Y015915D01*
X018826Y015884D01*
X018784Y015856D01*
X018741Y015832D01*
X018695Y015811D01*
X018648Y015793D01*
X018599Y015780D01*
X018550Y015770D01*
X018500Y015764D01*
X018450Y015762D01*
X018400Y015764D01*
X018350Y015770D01*
X018301Y015780D01*
X018252Y015793D01*
X018205Y015811D01*
X018159Y015832D01*
X018116Y015856D01*
X018074Y015884D01*
X018034Y015915D01*
X017997Y015949D01*
X017963Y015986D01*
X017932Y016026D01*
X017904Y016068D01*
X017880Y016111D01*
X017859Y016157D01*
X017841Y016204D01*
X017828Y016253D01*
X017818Y016302D01*
X017812Y016352D01*
X017810Y016402D01*
D11*
X012105Y010929D03*
D12*
X011105Y010929D03*
X010105Y010929D03*
X010105Y009929D03*
X011105Y009929D03*
X012105Y009929D03*
D13*
X008510Y019963D03*
X006510Y019963D03*
D14*
X004365Y003313D03*
X002633Y003313D03*
D15*
X011212Y015011D03*
D16*
X011212Y014011D03*
D17*
X014450Y012902D03*
X015450Y012902D03*
X016450Y012902D03*
X017450Y012902D03*
X016950Y013902D03*
X017950Y013902D03*
X015950Y013902D03*
X014950Y013902D03*
D18*
X013950Y016402D03*
X018450Y016402D03*
D19*
X019250Y015202D03*
X013151Y015202D03*
M02*
