G75*
G70*
%OFA0B0*%
%FSLAX24Y24*%
%IPPOS*%
%LPD*%
%AMOC8*
5,1,8,0,0,1.08239X$1,22.5*
%
%ADD10C,0.0000*%
%ADD11R,0.0760X0.2100*%
%ADD12R,0.0512X0.0630*%
%ADD13R,0.0630X0.0512*%
%ADD14R,0.0600X0.0600*%
%ADD15OC8,0.0600*%
%ADD16R,0.0591X0.0945*%
%ADD17R,0.0591X0.1181*%
%ADD18R,0.0260X0.0800*%
%ADD19R,0.0500X0.1000*%
%ADD20R,0.0157X0.0591*%
%ADD21R,0.0787X0.0984*%
%ADD22R,0.0787X0.1299*%
%ADD23R,0.0197X0.1220*%
%ADD24R,0.0591X0.0197*%
%ADD25R,0.0197X0.0591*%
%ADD26OC8,0.0630*%
%ADD27C,0.0630*%
%ADD28R,0.0472X0.0472*%
%ADD29R,0.0591X0.0512*%
%ADD30C,0.0554*%
%ADD31C,0.0945*%
%ADD32R,0.0551X0.0709*%
%ADD33R,0.0512X0.0591*%
%ADD34C,0.0160*%
%ADD35OC8,0.0356*%
%ADD36C,0.0100*%
%ADD37OC8,0.0277*%
%ADD38C,0.0500*%
D10*
X000877Y000978D02*
X000877Y020663D01*
X020562Y020663D01*
X020562Y000978D01*
X000877Y000978D01*
X002456Y003313D02*
X002458Y003339D01*
X002464Y003365D01*
X002474Y003390D01*
X002487Y003413D01*
X002503Y003433D01*
X002523Y003451D01*
X002545Y003466D01*
X002568Y003478D01*
X002594Y003486D01*
X002620Y003490D01*
X002646Y003490D01*
X002672Y003486D01*
X002698Y003478D01*
X002722Y003466D01*
X002743Y003451D01*
X002763Y003433D01*
X002779Y003413D01*
X002792Y003390D01*
X002802Y003365D01*
X002808Y003339D01*
X002810Y003313D01*
X002808Y003287D01*
X002802Y003261D01*
X002792Y003236D01*
X002779Y003213D01*
X002763Y003193D01*
X002743Y003175D01*
X002721Y003160D01*
X002698Y003148D01*
X002672Y003140D01*
X002646Y003136D01*
X002620Y003136D01*
X002594Y003140D01*
X002568Y003148D01*
X002544Y003160D01*
X002523Y003175D01*
X002503Y003193D01*
X002487Y003213D01*
X002474Y003236D01*
X002464Y003261D01*
X002458Y003287D01*
X002456Y003313D01*
X004188Y003313D02*
X004190Y003339D01*
X004196Y003365D01*
X004206Y003390D01*
X004219Y003413D01*
X004235Y003433D01*
X004255Y003451D01*
X004277Y003466D01*
X004300Y003478D01*
X004326Y003486D01*
X004352Y003490D01*
X004378Y003490D01*
X004404Y003486D01*
X004430Y003478D01*
X004454Y003466D01*
X004475Y003451D01*
X004495Y003433D01*
X004511Y003413D01*
X004524Y003390D01*
X004534Y003365D01*
X004540Y003339D01*
X004542Y003313D01*
X004540Y003287D01*
X004534Y003261D01*
X004524Y003236D01*
X004511Y003213D01*
X004495Y003193D01*
X004475Y003175D01*
X004453Y003160D01*
X004430Y003148D01*
X004404Y003140D01*
X004378Y003136D01*
X004352Y003136D01*
X004326Y003140D01*
X004300Y003148D01*
X004276Y003160D01*
X004255Y003175D01*
X004235Y003193D01*
X004219Y003213D01*
X004206Y003236D01*
X004196Y003261D01*
X004190Y003287D01*
X004188Y003313D01*
X013310Y016402D02*
X013312Y016452D01*
X013318Y016502D01*
X013328Y016551D01*
X013341Y016600D01*
X013359Y016647D01*
X013380Y016693D01*
X013404Y016736D01*
X013432Y016778D01*
X013463Y016818D01*
X013497Y016855D01*
X013534Y016889D01*
X013574Y016920D01*
X013616Y016948D01*
X013659Y016972D01*
X013705Y016993D01*
X013752Y017011D01*
X013801Y017024D01*
X013850Y017034D01*
X013900Y017040D01*
X013950Y017042D01*
X014000Y017040D01*
X014050Y017034D01*
X014099Y017024D01*
X014148Y017011D01*
X014195Y016993D01*
X014241Y016972D01*
X014284Y016948D01*
X014326Y016920D01*
X014366Y016889D01*
X014403Y016855D01*
X014437Y016818D01*
X014468Y016778D01*
X014496Y016736D01*
X014520Y016693D01*
X014541Y016647D01*
X014559Y016600D01*
X014572Y016551D01*
X014582Y016502D01*
X014588Y016452D01*
X014590Y016402D01*
X014588Y016352D01*
X014582Y016302D01*
X014572Y016253D01*
X014559Y016204D01*
X014541Y016157D01*
X014520Y016111D01*
X014496Y016068D01*
X014468Y016026D01*
X014437Y015986D01*
X014403Y015949D01*
X014366Y015915D01*
X014326Y015884D01*
X014284Y015856D01*
X014241Y015832D01*
X014195Y015811D01*
X014148Y015793D01*
X014099Y015780D01*
X014050Y015770D01*
X014000Y015764D01*
X013950Y015762D01*
X013900Y015764D01*
X013850Y015770D01*
X013801Y015780D01*
X013752Y015793D01*
X013705Y015811D01*
X013659Y015832D01*
X013616Y015856D01*
X013574Y015884D01*
X013534Y015915D01*
X013497Y015949D01*
X013463Y015986D01*
X013432Y016026D01*
X013404Y016068D01*
X013380Y016111D01*
X013359Y016157D01*
X013341Y016204D01*
X013328Y016253D01*
X013318Y016302D01*
X013312Y016352D01*
X013310Y016402D01*
X017810Y016402D02*
X017812Y016452D01*
X017818Y016502D01*
X017828Y016551D01*
X017841Y016600D01*
X017859Y016647D01*
X017880Y016693D01*
X017904Y016736D01*
X017932Y016778D01*
X017963Y016818D01*
X017997Y016855D01*
X018034Y016889D01*
X018074Y016920D01*
X018116Y016948D01*
X018159Y016972D01*
X018205Y016993D01*
X018252Y017011D01*
X018301Y017024D01*
X018350Y017034D01*
X018400Y017040D01*
X018450Y017042D01*
X018500Y017040D01*
X018550Y017034D01*
X018599Y017024D01*
X018648Y017011D01*
X018695Y016993D01*
X018741Y016972D01*
X018784Y016948D01*
X018826Y016920D01*
X018866Y016889D01*
X018903Y016855D01*
X018937Y016818D01*
X018968Y016778D01*
X018996Y016736D01*
X019020Y016693D01*
X019041Y016647D01*
X019059Y016600D01*
X019072Y016551D01*
X019082Y016502D01*
X019088Y016452D01*
X019090Y016402D01*
X019088Y016352D01*
X019082Y016302D01*
X019072Y016253D01*
X019059Y016204D01*
X019041Y016157D01*
X019020Y016111D01*
X018996Y016068D01*
X018968Y016026D01*
X018937Y015986D01*
X018903Y015949D01*
X018866Y015915D01*
X018826Y015884D01*
X018784Y015856D01*
X018741Y015832D01*
X018695Y015811D01*
X018648Y015793D01*
X018599Y015780D01*
X018550Y015770D01*
X018500Y015764D01*
X018450Y015762D01*
X018400Y015764D01*
X018350Y015770D01*
X018301Y015780D01*
X018252Y015793D01*
X018205Y015811D01*
X018159Y015832D01*
X018116Y015856D01*
X018074Y015884D01*
X018034Y015915D01*
X017997Y015949D01*
X017963Y015986D01*
X017932Y016026D01*
X017904Y016068D01*
X017880Y016111D01*
X017859Y016157D01*
X017841Y016204D01*
X017828Y016253D01*
X017818Y016302D01*
X017812Y016352D01*
X017810Y016402D01*
D11*
X007024Y007660D03*
X007024Y003860D03*
D12*
X007022Y002080D03*
X007809Y002080D03*
X004647Y006053D03*
X003859Y006053D03*
X007003Y009569D03*
X007790Y009569D03*
X007761Y010514D03*
X006974Y010514D03*
X005147Y011334D03*
X004399Y011334D03*
X011373Y012218D03*
X012121Y012218D03*
X012123Y009005D03*
X011336Y009005D03*
X009595Y018137D03*
X008808Y018137D03*
D13*
X009196Y015338D03*
X009196Y014590D03*
X009175Y013852D03*
X009175Y013104D03*
X013501Y010750D03*
X013501Y009963D03*
X015717Y006863D03*
X015717Y006076D03*
X015723Y005343D03*
X015723Y004555D03*
X016982Y009939D03*
X016982Y010727D03*
X008598Y006505D03*
X008598Y005717D03*
D14*
X012105Y010929D03*
D15*
X011105Y010929D03*
X010105Y010929D03*
X010105Y009929D03*
X011105Y009929D03*
X012105Y009929D03*
D16*
X007511Y012513D03*
X006723Y012513D03*
X005936Y012513D03*
X005148Y012513D03*
X004361Y012513D03*
X003574Y012513D03*
X002786Y012513D03*
D17*
X002786Y018694D03*
X003574Y018694D03*
X004361Y018694D03*
X005148Y018694D03*
X005936Y018694D03*
X006723Y018694D03*
X007511Y018694D03*
D18*
X018185Y010873D03*
X018685Y010873D03*
X019185Y010873D03*
X019685Y010873D03*
X019685Y008453D03*
X019185Y008453D03*
X018685Y008453D03*
X018185Y008453D03*
D19*
X007510Y019963D03*
D20*
X005412Y009992D03*
X005156Y009992D03*
X004900Y009992D03*
X004644Y009992D03*
X004388Y009992D03*
X004133Y009992D03*
X003877Y009992D03*
X003621Y009992D03*
X003365Y009992D03*
X003109Y009992D03*
X002853Y009992D03*
X002597Y009992D03*
X002341Y009992D03*
X002085Y009992D03*
X002085Y007138D03*
X002341Y007138D03*
X002597Y007138D03*
X002853Y007138D03*
X003109Y007138D03*
X003365Y007138D03*
X003621Y007138D03*
X003877Y007138D03*
X004133Y007138D03*
X004388Y007138D03*
X004644Y007138D03*
X004900Y007138D03*
X005156Y007138D03*
X005412Y007138D03*
D21*
X005251Y002132D03*
X001747Y002132D03*
D22*
X001747Y004454D03*
X005251Y004454D03*
D23*
X004129Y004494D03*
X003814Y004494D03*
X003499Y004494D03*
X003184Y004494D03*
X002869Y004494D03*
D24*
X009496Y004354D03*
X009496Y004669D03*
X009496Y004984D03*
X009496Y005299D03*
X009496Y005613D03*
X009496Y005928D03*
X009496Y006243D03*
X009496Y006558D03*
X009496Y006873D03*
X009496Y007188D03*
X009496Y004039D03*
X014063Y004039D03*
X014063Y004354D03*
X014063Y004669D03*
X014063Y004984D03*
X014063Y005299D03*
X014063Y005613D03*
X014063Y005928D03*
X014063Y006243D03*
X014063Y006558D03*
X014063Y006873D03*
X014063Y007188D03*
D25*
X013355Y007897D03*
X013040Y007897D03*
X012725Y007897D03*
X012410Y007897D03*
X012095Y007897D03*
X011780Y007897D03*
X011465Y007897D03*
X011150Y007897D03*
X010835Y007897D03*
X010520Y007897D03*
X010205Y007897D03*
X010205Y003330D03*
X010520Y003330D03*
X010835Y003330D03*
X011150Y003330D03*
X011465Y003330D03*
X011780Y003330D03*
X012095Y003330D03*
X012410Y003330D03*
X012725Y003330D03*
X013040Y003330D03*
X013355Y003330D03*
D26*
X011212Y015011D03*
D27*
X011212Y014011D03*
D28*
X016754Y006708D03*
X016754Y005881D03*
X017643Y005893D03*
X017643Y006720D03*
X018571Y006739D03*
X018571Y005912D03*
D29*
X018584Y005077D03*
X018584Y004329D03*
X017638Y004349D03*
X017638Y005097D03*
X016732Y005105D03*
X016732Y004357D03*
X015855Y009988D03*
X015855Y010736D03*
X014676Y010744D03*
X014676Y009996D03*
D30*
X014450Y012902D03*
X015450Y012902D03*
X016450Y012902D03*
X017450Y012902D03*
X016950Y013902D03*
X017950Y013902D03*
X015950Y013902D03*
X014950Y013902D03*
D31*
X013151Y015202D03*
X019250Y015202D03*
D32*
X017010Y008961D03*
X015671Y008961D03*
X014839Y008978D03*
X013500Y008978D03*
D33*
X012078Y016411D03*
X011330Y016411D03*
X011290Y017474D03*
X012038Y017474D03*
D34*
X015562Y017474D01*
X015916Y017119D01*
X015916Y013937D01*
X015950Y013902D01*
X016950Y013902D01*
X017370Y014137D02*
X017531Y014137D01*
X017546Y014173D02*
X017473Y013997D01*
X017473Y013807D01*
X017546Y013632D01*
X017680Y013498D01*
X017856Y013425D01*
X018045Y013425D01*
X018221Y013498D01*
X018355Y013632D01*
X018428Y013807D01*
X018428Y013997D01*
X018355Y014173D01*
X018221Y014307D01*
X018045Y014380D01*
X017856Y014380D01*
X017680Y014307D01*
X017546Y014173D01*
X017669Y014295D02*
X017232Y014295D01*
X017221Y014307D02*
X017045Y014380D01*
X016856Y014380D01*
X016680Y014307D01*
X016556Y014182D01*
X016345Y014182D01*
X016221Y014307D01*
X016196Y014317D01*
X016196Y017175D01*
X016154Y017278D01*
X016075Y017357D01*
X015720Y017711D01*
X015618Y017754D01*
X015506Y017754D01*
X012494Y017754D01*
X012494Y017852D01*
X012377Y017969D01*
X011699Y017969D01*
X011664Y017934D01*
X011629Y017969D01*
X010951Y017969D01*
X010834Y017852D01*
X010834Y017096D01*
X010951Y016978D01*
X011054Y016978D01*
X011078Y016919D01*
X011111Y016886D01*
X011050Y016886D01*
X011004Y016874D01*
X010963Y016850D01*
X010930Y016816D01*
X010906Y016775D01*
X010894Y016730D01*
X010894Y016459D01*
X011281Y016459D01*
X011281Y016363D01*
X010894Y016363D01*
X010894Y016092D01*
X010906Y016046D01*
X010930Y016005D01*
X010963Y015971D01*
X011004Y015948D01*
X011050Y015935D01*
X011282Y015935D01*
X011282Y016362D01*
X011378Y016362D01*
X011378Y015935D01*
X011609Y015935D01*
X011655Y015948D01*
X011688Y015967D01*
X011739Y015915D01*
X011828Y015915D01*
X011828Y013791D01*
X011722Y013897D01*
X011727Y013908D01*
X011727Y014113D01*
X011648Y014303D01*
X011503Y014447D01*
X011338Y014516D01*
X011417Y014516D01*
X011707Y014806D01*
X011707Y015011D01*
X011707Y015216D01*
X011417Y015506D01*
X011212Y015506D01*
X011212Y015011D01*
X011707Y015011D01*
X011212Y015011D01*
X011212Y015011D01*
X011211Y015011D01*
X011211Y015011D01*
X010717Y015011D01*
X010717Y015216D01*
X011007Y015506D01*
X011211Y015506D01*
X011211Y015011D01*
X010717Y015011D01*
X010717Y014806D01*
X011007Y014516D01*
X011085Y014516D01*
X010920Y014447D01*
X010775Y014303D01*
X010770Y014291D01*
X010322Y014291D01*
X010094Y014519D01*
X010094Y015095D01*
X010094Y015207D01*
X010051Y015309D01*
X009854Y015506D01*
X009776Y015585D01*
X009711Y015612D01*
X009711Y015676D01*
X009594Y015794D01*
X009464Y015794D01*
X009464Y016001D01*
X009464Y016112D01*
X009421Y016215D01*
X009088Y016549D01*
X009088Y017622D01*
X009146Y017622D01*
X009215Y017691D01*
X009229Y017678D01*
X009270Y017654D01*
X009315Y017642D01*
X009547Y017642D01*
X009547Y018089D01*
X009643Y018089D01*
X009643Y018185D01*
X010031Y018185D01*
X010031Y018476D01*
X010019Y018521D01*
X009995Y018563D01*
X009961Y018596D01*
X009920Y018620D01*
X009875Y018632D01*
X009643Y018632D01*
X009643Y018185D01*
X009547Y018185D01*
X009547Y018632D01*
X009315Y018632D01*
X009270Y018620D01*
X009229Y018596D01*
X009215Y018583D01*
X009146Y018652D01*
X008469Y018652D01*
X008352Y018535D01*
X008352Y018423D01*
X008223Y018423D01*
X008120Y018380D01*
X008041Y018302D01*
X008006Y018266D01*
X008006Y019367D01*
X007960Y019412D01*
X007960Y019874D01*
X007960Y020053D01*
X007960Y020463D01*
X020362Y020463D01*
X020362Y001178D01*
X001077Y001178D01*
X001077Y020463D01*
X007060Y020463D01*
X007060Y019484D01*
X006345Y019484D01*
X006308Y019448D01*
X006300Y019452D01*
X006255Y019464D01*
X006003Y019464D01*
X006003Y018762D01*
X005868Y018762D01*
X005868Y019464D01*
X005617Y019464D01*
X005571Y019452D01*
X005563Y019448D01*
X005526Y019484D01*
X004770Y019484D01*
X004755Y019469D01*
X004739Y019484D01*
X003983Y019484D01*
X003967Y019469D01*
X003952Y019484D01*
X003195Y019484D01*
X003180Y019469D01*
X003164Y019484D01*
X002408Y019484D01*
X002291Y019367D01*
X002291Y018020D01*
X002408Y017903D01*
X002536Y017903D01*
X002536Y017740D01*
X002536Y017641D01*
X002574Y017549D01*
X005822Y014301D01*
X005893Y014230D01*
X005985Y014192D01*
X008028Y014192D01*
X008028Y013018D01*
X007986Y012975D01*
X007986Y013009D01*
X007973Y013055D01*
X007950Y013096D01*
X007916Y013129D01*
X007875Y013153D01*
X007829Y013165D01*
X007578Y013165D01*
X007578Y012581D01*
X007443Y012581D01*
X007443Y013165D01*
X007191Y013165D01*
X007146Y013153D01*
X007138Y013148D01*
X007101Y013185D01*
X006345Y013185D01*
X006329Y013169D01*
X006314Y013185D01*
X005558Y013185D01*
X005542Y013169D01*
X005526Y013185D01*
X004770Y013185D01*
X004755Y013169D01*
X004739Y013185D01*
X003983Y013185D01*
X003967Y013169D01*
X003952Y013185D01*
X003195Y013185D01*
X003180Y013169D01*
X003164Y013185D01*
X002408Y013185D01*
X002291Y013068D01*
X002291Y011957D01*
X002408Y011840D01*
X002481Y011840D01*
X002467Y011827D01*
X002467Y011546D01*
X002666Y011348D01*
X002946Y011348D01*
X003145Y011546D01*
X003145Y011827D01*
X003131Y011840D01*
X003164Y011840D01*
X003180Y011856D01*
X003195Y011840D01*
X003343Y011840D01*
X003343Y011561D01*
X003255Y011472D01*
X003255Y011192D01*
X003453Y010993D01*
X003734Y010993D01*
X003932Y011192D01*
X003932Y011472D01*
X003843Y011561D01*
X003843Y011840D01*
X003952Y011840D01*
X003967Y011856D01*
X003983Y011840D01*
X004051Y011840D01*
X003943Y011732D01*
X003943Y010936D01*
X004060Y010819D01*
X004574Y010819D01*
X004407Y010652D01*
X004364Y010549D01*
X004364Y010487D01*
X004294Y010487D01*
X003971Y010487D01*
X003951Y010467D01*
X003877Y010467D01*
X003877Y010393D01*
X003876Y010393D01*
X003876Y010467D01*
X003802Y010467D01*
X003782Y010487D01*
X003526Y010487D01*
X003271Y010487D01*
X003015Y010487D01*
X002691Y010487D01*
X002503Y010487D01*
X002247Y010487D01*
X001924Y010487D01*
X001807Y010370D01*
X001807Y009614D01*
X001924Y009497D01*
X002247Y009497D01*
X002503Y009497D01*
X002691Y009497D01*
X003015Y009497D01*
X003271Y009497D01*
X003526Y009497D01*
X003782Y009497D01*
X003802Y009517D01*
X003876Y009517D01*
X003876Y009591D01*
X003877Y009591D01*
X003877Y009517D01*
X003951Y009517D01*
X003971Y009497D01*
X004138Y009497D01*
X004138Y009427D01*
X004122Y009427D01*
X003924Y009228D01*
X003924Y008948D01*
X004122Y008749D01*
X004158Y008749D01*
X004107Y008699D01*
X003649Y008699D01*
X003538Y008699D01*
X003435Y008656D01*
X003320Y008541D01*
X003238Y008541D01*
X001727Y008541D01*
X001624Y008498D01*
X001545Y008420D01*
X001151Y008026D01*
X001109Y007923D01*
X001109Y007812D01*
X001109Y006079D01*
X001151Y005976D01*
X001230Y005898D01*
X001844Y005284D01*
X001827Y005284D01*
X001827Y004535D01*
X001667Y004535D01*
X001667Y005284D01*
X001329Y005284D01*
X001284Y005272D01*
X001242Y005248D01*
X001209Y005215D01*
X001185Y005173D01*
X001173Y005128D01*
X001173Y004534D01*
X001667Y004534D01*
X001667Y004374D01*
X001827Y004374D01*
X001827Y004534D01*
X002320Y004534D01*
X002320Y005128D01*
X002308Y005173D01*
X002301Y005186D01*
X002493Y005186D01*
X002570Y005109D01*
X002570Y003801D01*
X002681Y003690D01*
X002558Y003690D01*
X002419Y003632D01*
X002313Y003526D01*
X002255Y003388D01*
X002255Y003238D01*
X002313Y003099D01*
X002419Y002993D01*
X002558Y002936D01*
X002708Y002936D01*
X002846Y002993D01*
X002952Y003099D01*
X003010Y003238D01*
X003010Y003388D01*
X002952Y003526D01*
X002846Y003632D01*
X002723Y003684D01*
X003002Y003684D01*
X003317Y003684D01*
X003632Y003684D01*
X003995Y003684D01*
X004015Y003704D01*
X004128Y003704D01*
X004128Y004493D01*
X004129Y004493D01*
X004129Y003704D01*
X004251Y003704D01*
X004296Y003716D01*
X004338Y003739D01*
X004371Y003773D01*
X004395Y003814D01*
X004407Y003860D01*
X004407Y004494D01*
X004407Y005128D01*
X004395Y005173D01*
X004371Y005215D01*
X004338Y005248D01*
X004296Y005272D01*
X004251Y005284D01*
X004129Y005284D01*
X004129Y004494D01*
X004407Y004494D01*
X004129Y004494D01*
X004129Y004494D01*
X004128Y004494D01*
X004128Y005284D01*
X004015Y005284D01*
X003995Y005304D01*
X003749Y005304D01*
X003749Y005353D01*
X003749Y005453D01*
X003713Y005538D01*
X004198Y005538D01*
X004267Y005607D01*
X004280Y005594D01*
X004321Y005570D01*
X004367Y005558D01*
X004599Y005558D01*
X004599Y006005D01*
X004695Y006005D01*
X004695Y006101D01*
X005083Y006101D01*
X005083Y006391D01*
X005070Y006437D01*
X005047Y006478D01*
X005013Y006512D01*
X004972Y006535D01*
X004926Y006548D01*
X004695Y006548D01*
X004695Y006101D01*
X004599Y006101D01*
X004599Y006548D01*
X004367Y006548D01*
X004321Y006535D01*
X004280Y006512D01*
X004267Y006499D01*
X004198Y006568D01*
X003521Y006568D01*
X003403Y006451D01*
X003403Y006306D01*
X003264Y006306D01*
X002908Y006663D01*
X002927Y006663D01*
X002947Y006643D01*
X003203Y006643D01*
X003526Y006643D01*
X003546Y006663D01*
X003621Y006663D01*
X003695Y006663D01*
X003715Y006643D01*
X003971Y006643D01*
X004227Y006643D01*
X004550Y006643D01*
X004570Y006663D01*
X004644Y006663D01*
X004644Y006688D01*
X004645Y006688D01*
X004645Y006663D01*
X004669Y006663D01*
X004690Y006642D01*
X004865Y006642D01*
X004886Y006663D01*
X004900Y006663D01*
X004900Y006677D01*
X004900Y006677D01*
X004900Y006663D01*
X004975Y006663D01*
X004995Y006643D01*
X005250Y006643D01*
X005574Y006643D01*
X005627Y006696D01*
X005627Y005284D01*
X005331Y005284D01*
X005331Y004535D01*
X005171Y004535D01*
X005171Y005284D01*
X004833Y005284D01*
X004787Y005272D01*
X004746Y005248D01*
X004713Y005215D01*
X004689Y005173D01*
X004677Y005128D01*
X004677Y004534D01*
X005171Y004534D01*
X005171Y004374D01*
X005331Y004374D01*
X005331Y003625D01*
X005627Y003625D01*
X005627Y003605D01*
X005665Y003513D01*
X005783Y003395D01*
X005853Y003325D01*
X005945Y003287D01*
X006081Y003287D01*
X006170Y003198D01*
X006444Y003198D01*
X006444Y002727D01*
X006561Y002610D01*
X006774Y002610D01*
X006774Y002595D01*
X006683Y002595D01*
X006566Y002477D01*
X006566Y001682D01*
X006683Y001565D01*
X007360Y001565D01*
X007429Y001634D01*
X007442Y001621D01*
X007484Y001597D01*
X007529Y001585D01*
X007761Y001585D01*
X007761Y002031D01*
X007857Y002031D01*
X007857Y001585D01*
X008089Y001585D01*
X008134Y001597D01*
X008175Y001621D01*
X008209Y001654D01*
X008233Y001695D01*
X008245Y001741D01*
X008245Y002032D01*
X007857Y002032D01*
X007857Y002128D01*
X007761Y002128D01*
X007761Y002575D01*
X007529Y002575D01*
X007484Y002562D01*
X007442Y002539D01*
X007429Y002525D01*
X007360Y002595D01*
X007274Y002595D01*
X007274Y002610D01*
X007487Y002610D01*
X007604Y002727D01*
X007604Y004734D01*
X009001Y004734D01*
X009001Y004604D01*
X008594Y004604D01*
X008494Y004604D01*
X008403Y004566D01*
X008255Y004418D01*
X008185Y004348D01*
X008147Y004256D01*
X008147Y003271D01*
X008147Y003172D01*
X008185Y003080D01*
X008657Y002608D01*
X008727Y002537D01*
X008819Y002499D01*
X009828Y002499D01*
X010507Y001820D01*
X010578Y001750D01*
X010670Y001712D01*
X018013Y001712D01*
X018105Y001750D01*
X018175Y001820D01*
X018175Y001820D01*
X020183Y003828D01*
X020221Y003920D01*
X020221Y004019D01*
X020221Y007602D01*
X020183Y007694D01*
X020113Y007764D01*
X019961Y007916D01*
X020015Y007970D01*
X020015Y008936D01*
X019898Y009053D01*
X019472Y009053D01*
X019435Y009016D01*
X019398Y009053D01*
X018972Y009053D01*
X018935Y009016D01*
X018898Y009053D01*
X018472Y009053D01*
X018435Y009016D01*
X018398Y009053D01*
X017972Y009053D01*
X017855Y008936D01*
X017855Y007970D01*
X017950Y007876D01*
X017950Y007778D01*
X017988Y007686D01*
X018519Y007155D01*
X018311Y007155D01*
X018265Y007143D01*
X018224Y007119D01*
X018190Y007086D01*
X018167Y007045D01*
X018154Y006999D01*
X018154Y006777D01*
X018532Y006777D01*
X018532Y006701D01*
X018154Y006701D01*
X018154Y006479D01*
X018167Y006433D01*
X018190Y006392D01*
X018224Y006359D01*
X018248Y006345D01*
X018134Y006231D01*
X018134Y005593D01*
X018200Y005527D01*
X018121Y005448D01*
X018037Y005532D01*
X018079Y005574D01*
X018079Y006212D01*
X017965Y006326D01*
X017989Y006339D01*
X018023Y006373D01*
X018046Y006414D01*
X018059Y006460D01*
X018059Y006682D01*
X017681Y006682D01*
X017681Y006758D01*
X018059Y006758D01*
X018059Y006980D01*
X018046Y007025D01*
X018023Y007066D01*
X017989Y007100D01*
X017948Y007124D01*
X017903Y007136D01*
X017681Y007136D01*
X017681Y006758D01*
X017604Y006758D01*
X017604Y006682D01*
X017226Y006682D01*
X017226Y006460D01*
X017239Y006414D01*
X017262Y006373D01*
X017296Y006339D01*
X017320Y006326D01*
X017206Y006212D01*
X017206Y005574D01*
X017244Y005537D01*
X017189Y005482D01*
X017149Y005521D01*
X017190Y005562D01*
X017190Y006200D01*
X017077Y006314D01*
X017101Y006328D01*
X017134Y006361D01*
X017158Y006402D01*
X017170Y006448D01*
X017170Y006670D01*
X016792Y006670D01*
X016792Y006746D01*
X016716Y006746D01*
X016716Y007124D01*
X016494Y007124D01*
X016448Y007112D01*
X016407Y007088D01*
X016374Y007055D01*
X016350Y007014D01*
X016338Y006968D01*
X016338Y006746D01*
X016716Y006746D01*
X016716Y006670D01*
X016338Y006670D01*
X016338Y006448D01*
X016350Y006402D01*
X016374Y006361D01*
X016407Y006328D01*
X016431Y006314D01*
X016318Y006200D01*
X016318Y005562D01*
X016336Y005544D01*
X016236Y005444D01*
X016236Y004895D01*
X016168Y004963D01*
X016182Y004976D01*
X016205Y005017D01*
X016218Y005063D01*
X016218Y005295D01*
X015771Y005295D01*
X015771Y005391D01*
X016218Y005391D01*
X016218Y005622D01*
X016205Y005668D01*
X016182Y005709D01*
X016178Y005713D01*
X016199Y005750D01*
X016212Y005796D01*
X016212Y006028D01*
X015765Y006028D01*
X015765Y006124D01*
X016212Y006124D01*
X016212Y006355D01*
X016199Y006401D01*
X016176Y006442D01*
X016162Y006455D01*
X016232Y006524D01*
X016232Y007202D01*
X016114Y007319D01*
X015319Y007319D01*
X015202Y007202D01*
X015202Y007107D01*
X015186Y007100D01*
X014852Y006766D01*
X014773Y006687D01*
X014731Y006584D01*
X014731Y006290D01*
X014649Y006208D01*
X014559Y006208D01*
X014559Y006377D01*
X014559Y006692D01*
X014559Y007007D01*
X014559Y007370D01*
X014441Y007487D01*
X013685Y007487D01*
X013568Y007370D01*
X013568Y007007D01*
X013568Y006692D01*
X013568Y006377D01*
X013568Y006062D01*
X013568Y005747D01*
X013588Y005727D01*
X013588Y005614D01*
X014063Y005614D01*
X014063Y005613D01*
X013588Y005613D01*
X013588Y005578D01*
X012184Y005578D01*
X011941Y005821D01*
X011834Y005928D01*
X012332Y006427D01*
X012375Y006530D01*
X012375Y006641D01*
X012375Y007402D01*
X012591Y007402D01*
X012906Y007402D01*
X013221Y007402D01*
X013536Y007402D01*
X013653Y007519D01*
X013653Y008275D01*
X013536Y008392D01*
X013292Y008392D01*
X013292Y008444D01*
X013443Y008444D01*
X013443Y008920D01*
X013558Y008920D01*
X013558Y008444D01*
X013800Y008444D01*
X013846Y008456D01*
X013887Y008480D01*
X013920Y008513D01*
X013944Y008554D01*
X013956Y008600D01*
X013956Y008920D01*
X013559Y008920D01*
X013559Y009036D01*
X013956Y009036D01*
X013956Y009356D01*
X013944Y009402D01*
X013920Y009443D01*
X013887Y009476D01*
X013846Y009500D01*
X013820Y009507D01*
X013899Y009507D01*
X014016Y009624D01*
X014016Y009713D01*
X014181Y009713D01*
X014181Y009657D01*
X014298Y009540D01*
X014426Y009540D01*
X014426Y009478D01*
X014363Y009415D01*
X014363Y008541D01*
X014481Y008424D01*
X014613Y008424D01*
X014641Y008356D01*
X014759Y008238D01*
X014830Y008167D01*
X014922Y008129D01*
X016181Y008129D01*
X016281Y008129D01*
X016373Y008167D01*
X016491Y008285D01*
X016561Y008356D01*
X016599Y008448D01*
X016599Y008488D01*
X016624Y008463D01*
X016665Y008439D01*
X016711Y008427D01*
X016952Y008427D01*
X016952Y008903D01*
X017068Y008903D01*
X017068Y008427D01*
X017309Y008427D01*
X017355Y008439D01*
X017396Y008463D01*
X017430Y008497D01*
X017453Y008538D01*
X017465Y008583D01*
X017465Y008904D01*
X017068Y008904D01*
X017068Y009019D01*
X017465Y009019D01*
X017465Y009232D01*
X018368Y009232D01*
X018459Y009270D01*
X018530Y009340D01*
X019397Y010207D01*
X019435Y010299D01*
X019435Y010310D01*
X019451Y010326D01*
X019486Y010305D01*
X019531Y010293D01*
X019685Y010293D01*
X019685Y010873D01*
X019685Y011618D01*
X019263Y012041D01*
X017312Y012041D01*
X016450Y012902D01*
X015450Y012902D01*
X015442Y012894D02*
X015459Y012894D01*
X015459Y012911D01*
X015908Y012911D01*
X015908Y012938D01*
X015896Y013009D01*
X015874Y013078D01*
X015841Y013142D01*
X015799Y013200D01*
X015748Y013251D01*
X015690Y013293D01*
X015626Y013326D01*
X015558Y013348D01*
X015486Y013360D01*
X015459Y013360D01*
X015459Y012911D01*
X015442Y012911D01*
X015442Y013360D01*
X015414Y013360D01*
X015343Y013348D01*
X015275Y013326D01*
X015211Y013293D01*
X015153Y013251D01*
X015102Y013200D01*
X015059Y013142D01*
X015027Y013078D01*
X015005Y013009D01*
X014993Y012938D01*
X014993Y012911D01*
X015442Y012911D01*
X015442Y012894D01*
X014993Y012894D01*
X014993Y012866D01*
X015005Y012795D01*
X015027Y012727D01*
X015059Y012663D01*
X015102Y012605D01*
X015153Y012554D01*
X015211Y012511D01*
X015275Y012479D01*
X015343Y012457D01*
X015414Y012445D01*
X015442Y012445D01*
X015442Y012894D01*
X015459Y012894D02*
X015459Y012445D01*
X015486Y012445D01*
X015558Y012457D01*
X015626Y012479D01*
X015690Y012511D01*
X015748Y012554D01*
X015799Y012605D01*
X015841Y012663D01*
X015874Y012727D01*
X015896Y012795D01*
X015908Y012866D01*
X015908Y012894D01*
X015459Y012894D01*
X015459Y012868D02*
X015442Y012868D01*
X015442Y012710D02*
X015459Y012710D01*
X015442Y012551D02*
X015459Y012551D01*
X015745Y012551D02*
X016156Y012551D01*
X016153Y012554D02*
X016211Y012511D01*
X016275Y012479D01*
X016343Y012457D01*
X016414Y012445D01*
X016442Y012445D01*
X016442Y012894D01*
X015993Y012894D01*
X015993Y012866D01*
X016005Y012795D01*
X016027Y012727D01*
X016059Y012663D01*
X016102Y012605D01*
X016153Y012554D01*
X016035Y012710D02*
X015865Y012710D01*
X015908Y012868D02*
X015993Y012868D01*
X015993Y012911D02*
X016442Y012911D01*
X016442Y013360D01*
X016414Y013360D01*
X016343Y013348D01*
X016275Y013326D01*
X016211Y013293D01*
X016153Y013251D01*
X016102Y013200D01*
X016059Y013142D01*
X016027Y013078D01*
X016005Y013009D01*
X015993Y012938D01*
X015993Y012911D01*
X016010Y013027D02*
X015891Y013027D01*
X015810Y013185D02*
X016091Y013185D01*
X016330Y013344D02*
X015571Y013344D01*
X015459Y013344D02*
X015442Y013344D01*
X015330Y013344D02*
X014631Y013344D01*
X014545Y013380D02*
X014356Y013380D01*
X014180Y013307D01*
X014046Y013173D01*
X013973Y012997D01*
X013973Y012807D01*
X014046Y012632D01*
X014180Y012498D01*
X014200Y012490D01*
X014200Y012454D01*
X014200Y012354D01*
X014239Y012262D01*
X015393Y011108D01*
X015360Y011075D01*
X015360Y010398D01*
X015395Y010362D01*
X015360Y010327D01*
X015360Y009649D01*
X015477Y009532D01*
X015605Y009532D01*
X015605Y009516D01*
X015313Y009516D01*
X015263Y009466D01*
X015197Y009532D01*
X014926Y009532D01*
X014926Y009540D01*
X015054Y009540D01*
X015171Y009657D01*
X015171Y010334D01*
X015136Y010370D01*
X015171Y010405D01*
X015171Y011083D01*
X015054Y011200D01*
X014298Y011200D01*
X014181Y011083D01*
X014181Y010994D01*
X014016Y010994D01*
X014016Y011089D01*
X013899Y011206D01*
X013765Y011206D01*
X013765Y013000D01*
X014417Y013652D01*
X014538Y013652D01*
X014546Y013632D01*
X014680Y013498D01*
X014856Y013425D01*
X015045Y013425D01*
X015221Y013498D01*
X015355Y013632D01*
X015428Y013807D01*
X015428Y013997D01*
X015355Y014173D01*
X015221Y014307D01*
X015045Y014380D01*
X014856Y014380D01*
X014680Y014307D01*
X014546Y014173D01*
X014538Y014152D01*
X014363Y014152D01*
X014264Y014152D01*
X014172Y014114D01*
X013373Y013316D01*
X013303Y013245D01*
X013265Y013153D01*
X013265Y011206D01*
X013135Y011206D01*
X013135Y012956D01*
X013097Y013048D01*
X013026Y013119D01*
X012328Y013817D01*
X012328Y015915D01*
X012416Y015915D01*
X012534Y016033D01*
X012534Y016789D01*
X012416Y016906D01*
X012286Y016906D01*
X012270Y016946D01*
X012237Y016978D01*
X012377Y016978D01*
X012494Y017096D01*
X012494Y017194D01*
X013666Y017194D01*
X013475Y017114D01*
X013239Y016878D01*
X013111Y016569D01*
X013111Y016235D01*
X013239Y015927D01*
X013338Y015827D01*
X013279Y015843D01*
X013229Y015849D01*
X013229Y015279D01*
X013799Y015279D01*
X013792Y015329D01*
X013770Y015412D01*
X013738Y015491D01*
X013695Y015565D01*
X013656Y015615D01*
X013783Y015563D01*
X014118Y015563D01*
X014426Y015691D01*
X014662Y015927D01*
X014790Y016235D01*
X014790Y016569D01*
X014662Y016878D01*
X014426Y017114D01*
X014234Y017194D01*
X015446Y017194D01*
X015636Y017003D01*
X015636Y014263D01*
X015546Y014173D01*
X015473Y013997D01*
X015473Y013807D01*
X015546Y013632D01*
X015680Y013498D01*
X015856Y013425D01*
X016045Y013425D01*
X016221Y013498D01*
X016345Y013622D01*
X016556Y013622D01*
X016680Y013498D01*
X016856Y013425D01*
X017045Y013425D01*
X017221Y013498D01*
X017355Y013632D01*
X017428Y013807D01*
X017428Y013997D01*
X017355Y014173D01*
X017221Y014307D01*
X017428Y013978D02*
X017473Y013978D01*
X017473Y013820D02*
X017428Y013820D01*
X017367Y013661D02*
X017534Y013661D01*
X017676Y013503D02*
X017225Y013503D01*
X017270Y013344D02*
X016571Y013344D01*
X016558Y013348D02*
X016486Y013360D01*
X016459Y013360D01*
X016459Y012911D01*
X016908Y012911D01*
X016908Y012938D01*
X016896Y013009D01*
X016874Y013078D01*
X016841Y013142D01*
X016799Y013200D01*
X016748Y013251D01*
X016690Y013293D01*
X016626Y013326D01*
X016558Y013348D01*
X016459Y013344D02*
X016442Y013344D01*
X016442Y013185D02*
X016459Y013185D01*
X016442Y013027D02*
X016459Y013027D01*
X016459Y012911D02*
X016442Y012911D01*
X016442Y012894D01*
X016459Y012894D01*
X016459Y012911D01*
X016459Y012894D02*
X016908Y012894D01*
X016908Y012866D01*
X016896Y012795D01*
X016874Y012727D01*
X016841Y012663D01*
X016799Y012605D01*
X016748Y012554D01*
X016690Y012511D01*
X016626Y012479D01*
X016558Y012457D01*
X016486Y012445D01*
X016459Y012445D01*
X016459Y012894D01*
X016459Y012868D02*
X016442Y012868D01*
X016442Y012710D02*
X016459Y012710D01*
X016442Y012551D02*
X016459Y012551D01*
X016745Y012551D02*
X017127Y012551D01*
X017180Y012498D02*
X017046Y012632D01*
X016973Y012807D01*
X016973Y012997D01*
X017046Y013173D01*
X017180Y013307D01*
X017356Y013380D01*
X017545Y013380D01*
X017721Y013307D01*
X017855Y013173D01*
X017928Y012997D01*
X017928Y012807D01*
X017855Y012632D01*
X017721Y012498D01*
X017545Y012425D01*
X017356Y012425D01*
X017180Y012498D01*
X017014Y012710D02*
X016865Y012710D01*
X016908Y012868D02*
X016973Y012868D01*
X016986Y013027D02*
X016891Y013027D01*
X016810Y013185D02*
X017059Y013185D01*
X016676Y013503D02*
X016225Y013503D01*
X015676Y013503D02*
X015225Y013503D01*
X015367Y013661D02*
X015534Y013661D01*
X015473Y013820D02*
X015428Y013820D01*
X015428Y013978D02*
X015473Y013978D01*
X015531Y014137D02*
X015370Y014137D01*
X015232Y014295D02*
X015636Y014295D01*
X015636Y014454D02*
X012328Y014454D01*
X012328Y014612D02*
X012869Y014612D01*
X012862Y014615D02*
X012941Y014583D01*
X013024Y014560D01*
X013074Y014554D01*
X013074Y015124D01*
X013229Y015124D01*
X013229Y015279D01*
X013074Y015279D01*
X013074Y015849D01*
X013024Y015843D01*
X012941Y015821D01*
X012862Y015788D01*
X012788Y015745D01*
X012720Y015693D01*
X012660Y015633D01*
X012608Y015565D01*
X012565Y015491D01*
X012532Y015412D01*
X012510Y015329D01*
X012503Y015279D01*
X013074Y015279D01*
X013074Y015124D01*
X012503Y015124D01*
X012510Y015074D01*
X012532Y014991D01*
X012565Y014912D01*
X012608Y014838D01*
X012660Y014771D01*
X012720Y014710D01*
X012788Y014658D01*
X012862Y014615D01*
X013074Y014612D02*
X013229Y014612D01*
X013229Y014554D02*
X013279Y014560D01*
X013361Y014583D01*
X013440Y014615D01*
X013514Y014658D01*
X013582Y014710D01*
X013643Y014771D01*
X015636Y014771D01*
X015636Y014929D02*
X013745Y014929D01*
X013738Y014912D02*
X013770Y014991D01*
X013792Y015074D01*
X013799Y015124D01*
X013229Y015124D01*
X013229Y014554D01*
X013433Y014612D02*
X015636Y014612D01*
X015636Y015088D02*
X013794Y015088D01*
X013738Y014912D02*
X013695Y014838D01*
X013643Y014771D01*
X013229Y014771D02*
X013074Y014771D01*
X013074Y014929D02*
X013229Y014929D01*
X013229Y015088D02*
X013074Y015088D01*
X013074Y015247D02*
X012328Y015247D01*
X012328Y015405D02*
X012530Y015405D01*
X012607Y015564D02*
X012328Y015564D01*
X012328Y015722D02*
X012758Y015722D01*
X013074Y015722D02*
X013229Y015722D01*
X013229Y015564D02*
X013074Y015564D01*
X013074Y015405D02*
X013229Y015405D01*
X013229Y015247D02*
X015636Y015247D01*
X015636Y015405D02*
X013772Y015405D01*
X013781Y015564D02*
X013696Y015564D01*
X014120Y015564D02*
X015636Y015564D01*
X015636Y015722D02*
X014458Y015722D01*
X014616Y015881D02*
X015636Y015881D01*
X015636Y016039D02*
X014709Y016039D01*
X014775Y016198D02*
X015636Y016198D01*
X015636Y016356D02*
X014790Y016356D01*
X014790Y016515D02*
X015636Y016515D01*
X015636Y016673D02*
X014747Y016673D01*
X014681Y016832D02*
X015636Y016832D01*
X015636Y016991D02*
X014550Y016991D01*
X014342Y017149D02*
X015491Y017149D01*
X015965Y017466D02*
X020362Y017466D01*
X020362Y017308D02*
X016124Y017308D01*
X016196Y017149D02*
X018059Y017149D01*
X017975Y017114D02*
X017739Y016878D01*
X017611Y016569D01*
X017611Y016235D01*
X017739Y015927D01*
X017975Y015691D01*
X018283Y015563D01*
X018618Y015563D01*
X018745Y015615D01*
X018706Y015565D01*
X018663Y015491D01*
X018631Y015412D01*
X018608Y015329D01*
X018602Y015279D01*
X019172Y015279D01*
X019172Y015124D01*
X018602Y015124D01*
X018608Y015074D01*
X018631Y014991D01*
X018663Y014912D01*
X018706Y014838D01*
X018758Y014771D01*
X016196Y014771D01*
X016196Y014929D02*
X018656Y014929D01*
X018607Y015088D02*
X016196Y015088D01*
X016196Y015247D02*
X019172Y015247D01*
X019172Y015279D02*
X019172Y015849D01*
X019122Y015843D01*
X019062Y015827D01*
X019162Y015927D01*
X019290Y016235D01*
X019290Y016569D01*
X019162Y016878D01*
X018926Y017114D01*
X018618Y017242D01*
X018283Y017242D01*
X017975Y017114D01*
X017851Y016991D02*
X016196Y016991D01*
X016196Y016832D02*
X017719Y016832D01*
X017654Y016673D02*
X016196Y016673D01*
X016196Y016515D02*
X017611Y016515D01*
X017611Y016356D02*
X016196Y016356D01*
X016196Y016198D02*
X017626Y016198D01*
X017692Y016039D02*
X016196Y016039D01*
X016196Y015881D02*
X017785Y015881D01*
X017943Y015722D02*
X016196Y015722D01*
X016196Y015564D02*
X018281Y015564D01*
X018620Y015564D02*
X018705Y015564D01*
X018629Y015405D02*
X016196Y015405D01*
X016196Y014612D02*
X018967Y014612D01*
X018960Y014615D02*
X019039Y014583D01*
X019122Y014560D01*
X019172Y014554D01*
X019172Y015124D01*
X019327Y015124D01*
X019327Y014554D01*
X019377Y014560D01*
X019460Y014583D01*
X019539Y014615D01*
X019613Y014658D01*
X019681Y014710D01*
X019741Y014771D01*
X020362Y014771D01*
X020362Y014929D02*
X019843Y014929D01*
X019836Y014912D02*
X019869Y014991D01*
X019891Y015074D01*
X019897Y015124D01*
X019327Y015124D01*
X019327Y015279D01*
X019172Y015279D01*
X019172Y015405D02*
X019327Y015405D01*
X019327Y015279D02*
X019327Y015849D01*
X019377Y015843D01*
X019460Y015821D01*
X019539Y015788D01*
X019613Y015745D01*
X019681Y015693D01*
X019741Y015633D01*
X019793Y015565D01*
X019836Y015491D01*
X019869Y015412D01*
X019891Y015329D01*
X019897Y015279D01*
X019327Y015279D01*
X019327Y015247D02*
X020362Y015247D01*
X020362Y015405D02*
X019871Y015405D01*
X019794Y015564D02*
X020362Y015564D01*
X020362Y015722D02*
X019643Y015722D01*
X019327Y015722D02*
X019172Y015722D01*
X019172Y015564D02*
X019327Y015564D01*
X019116Y015881D02*
X020362Y015881D01*
X020362Y016039D02*
X019209Y016039D01*
X019275Y016198D02*
X020362Y016198D01*
X020362Y016356D02*
X019290Y016356D01*
X019290Y016515D02*
X020362Y016515D01*
X020362Y016673D02*
X019247Y016673D01*
X019181Y016832D02*
X020362Y016832D01*
X020362Y016991D02*
X019050Y016991D01*
X018842Y017149D02*
X020362Y017149D01*
X020362Y017625D02*
X015807Y017625D01*
X013559Y017149D02*
X012494Y017149D01*
X012389Y016991D02*
X013351Y016991D01*
X013219Y016832D02*
X012490Y016832D01*
X012534Y016673D02*
X013154Y016673D01*
X013111Y016515D02*
X012534Y016515D01*
X012534Y016356D02*
X013111Y016356D01*
X013126Y016198D02*
X012534Y016198D01*
X012534Y016039D02*
X013192Y016039D01*
X013285Y015881D02*
X012328Y015881D01*
X011828Y015881D02*
X009464Y015881D01*
X009464Y016039D02*
X010910Y016039D01*
X010894Y016198D02*
X009428Y016198D01*
X009280Y016356D02*
X010894Y016356D01*
X010894Y016515D02*
X009121Y016515D01*
X009088Y016673D02*
X010894Y016673D01*
X010945Y016832D02*
X009088Y016832D01*
X009088Y016991D02*
X010939Y016991D01*
X010834Y017149D02*
X009088Y017149D01*
X009088Y017308D02*
X010834Y017308D01*
X010834Y017466D02*
X009088Y017466D01*
X009149Y017625D02*
X010834Y017625D01*
X010834Y017783D02*
X010027Y017783D01*
X010031Y017798D02*
X010031Y018089D01*
X009643Y018089D01*
X009643Y017642D01*
X009875Y017642D01*
X009920Y017654D01*
X009961Y017678D01*
X009995Y017712D01*
X010019Y017753D01*
X010031Y017798D01*
X010031Y017942D02*
X010924Y017942D01*
X010483Y017907D02*
X010247Y018143D01*
X009601Y018143D01*
X009595Y018137D01*
X009595Y018694D01*
X009578Y018694D01*
X009547Y018576D02*
X009643Y018576D01*
X009643Y018417D02*
X009547Y018417D01*
X009547Y018259D02*
X009643Y018259D01*
X009643Y018100D02*
X020362Y018100D01*
X020362Y017942D02*
X012404Y017942D01*
X012494Y017783D02*
X020362Y017783D01*
X020362Y018259D02*
X010031Y018259D01*
X010031Y018417D02*
X020362Y018417D01*
X020362Y018576D02*
X009981Y018576D01*
X009643Y017942D02*
X009547Y017942D01*
X009547Y017783D02*
X009643Y017783D01*
X008808Y018137D02*
X008802Y018143D01*
X008278Y018143D01*
X007885Y017749D01*
X007058Y017749D01*
X006723Y018084D01*
X006723Y018694D01*
X006003Y018626D02*
X006003Y017923D01*
X006255Y017923D01*
X006300Y017936D01*
X006308Y017940D01*
X006345Y017903D01*
X006508Y017903D01*
X006899Y017512D01*
X007002Y017469D01*
X007114Y017469D01*
X007829Y017469D01*
X007940Y017469D01*
X008043Y017512D01*
X008352Y017820D01*
X008352Y017739D01*
X008469Y017622D01*
X008528Y017622D01*
X008528Y016377D01*
X008570Y016274D01*
X008649Y016195D01*
X008904Y015940D01*
X008904Y015794D01*
X008823Y015794D01*
X008734Y015883D01*
X008453Y015883D01*
X008364Y015795D01*
X006768Y015795D01*
X004659Y017903D01*
X004739Y017903D01*
X004755Y017919D01*
X004770Y017903D01*
X005526Y017903D01*
X005563Y017940D01*
X005571Y017936D01*
X005617Y017923D01*
X005868Y017923D01*
X005868Y018626D01*
X006003Y018626D01*
X006003Y018576D02*
X005868Y018576D01*
X005936Y018694D02*
X005936Y019718D01*
X005956Y019718D01*
X006003Y019369D02*
X005868Y019369D01*
X005868Y019210D02*
X006003Y019210D01*
X006003Y019052D02*
X005868Y019052D01*
X005868Y018893D02*
X006003Y018893D01*
X006003Y018417D02*
X005868Y018417D01*
X005868Y018259D02*
X006003Y018259D01*
X006003Y018100D02*
X005868Y018100D01*
X005868Y017942D02*
X006003Y017942D01*
X006628Y017783D02*
X004779Y017783D01*
X004938Y017625D02*
X006787Y017625D01*
X005889Y016673D02*
X008528Y016673D01*
X008528Y016515D02*
X006047Y016515D01*
X006206Y016356D02*
X008536Y016356D01*
X008647Y016198D02*
X006364Y016198D01*
X006523Y016039D02*
X008805Y016039D01*
X008736Y015881D02*
X008904Y015881D01*
X009184Y016056D02*
X009184Y015586D01*
X009196Y015338D01*
X009206Y015348D01*
X009617Y015348D01*
X009814Y015151D01*
X009814Y014403D01*
X010206Y014011D01*
X011212Y014011D01*
X008769Y011568D01*
X007294Y011568D01*
X006974Y011248D01*
X006974Y010514D01*
X006825Y010663D01*
X005208Y010663D01*
X004814Y010663D01*
X004644Y010493D01*
X004644Y009992D01*
X004644Y008840D01*
X004223Y008419D01*
X003593Y008419D01*
X003365Y008190D01*
X003365Y007138D01*
X003621Y007138D02*
X003621Y006698D01*
X003711Y006608D01*
X003003Y006608D01*
X002853Y006757D01*
X002853Y007138D01*
X003044Y006527D02*
X003479Y006527D01*
X003403Y006368D02*
X003202Y006368D01*
X003621Y006663D02*
X003621Y006737D01*
X003621Y006663D01*
X003621Y006685D02*
X003621Y006685D01*
X003621Y006737D02*
X003621Y006737D01*
X003621Y006737D01*
X003711Y006608D02*
X004605Y006608D01*
X004644Y006568D01*
X004644Y007138D01*
X004644Y007619D01*
X004656Y007631D01*
X004656Y008104D01*
X004471Y008271D02*
X005474Y008271D01*
X005627Y008118D02*
X005627Y007580D01*
X005574Y007633D01*
X005250Y007633D01*
X004995Y007633D01*
X004975Y007613D01*
X004939Y007613D01*
X004865Y007687D01*
X004690Y007687D01*
X004616Y007613D01*
X004570Y007613D01*
X004550Y007633D01*
X004227Y007633D01*
X003971Y007633D01*
X003715Y007633D01*
X003695Y007613D01*
X003645Y007613D01*
X003645Y008074D01*
X003709Y008139D01*
X004279Y008139D01*
X004382Y008181D01*
X004461Y008260D01*
X004882Y008681D01*
X004910Y008749D01*
X004996Y008749D01*
X005627Y008118D01*
X005627Y008112D02*
X003683Y008112D01*
X003645Y007954D02*
X005627Y007954D01*
X005627Y007795D02*
X003645Y007795D01*
X003645Y007636D02*
X004640Y007636D01*
X004916Y007636D02*
X005627Y007636D01*
X005316Y008429D02*
X004630Y008429D01*
X004788Y008588D02*
X005157Y008588D01*
X004999Y008746D02*
X004909Y008746D01*
X004461Y008260D02*
X004461Y008260D01*
X004155Y008746D02*
X001077Y008746D01*
X001077Y008588D02*
X003367Y008588D01*
X003294Y008261D02*
X003365Y008190D01*
X003294Y008261D02*
X001782Y008261D01*
X001389Y007867D01*
X001389Y006135D01*
X002058Y005466D01*
X002609Y005466D01*
X002869Y005206D01*
X002869Y004494D01*
X002570Y004466D02*
X001827Y004466D01*
X001747Y004454D02*
X001747Y002132D01*
X005251Y002132D01*
X005392Y002132D01*
X006152Y001371D01*
X007373Y001371D01*
X007806Y001804D01*
X007806Y002077D01*
X007809Y002080D01*
X007845Y002116D01*
X007845Y004442D01*
X007604Y004466D02*
X008303Y004466D01*
X008255Y004418D02*
X008255Y004418D01*
X008168Y004307D02*
X007604Y004307D01*
X007604Y004149D02*
X008147Y004149D01*
X008147Y003990D02*
X007604Y003990D01*
X007604Y003831D02*
X008147Y003831D01*
X008147Y003673D02*
X007604Y003673D01*
X007604Y003514D02*
X008147Y003514D01*
X008147Y003356D02*
X007604Y003356D01*
X007604Y003197D02*
X008147Y003197D01*
X008226Y003039D02*
X007604Y003039D01*
X007604Y002880D02*
X008385Y002880D01*
X008543Y002722D02*
X007599Y002722D01*
X007487Y002563D02*
X007392Y002563D01*
X007761Y002563D02*
X007857Y002563D01*
X007857Y002575D02*
X007857Y002128D01*
X008245Y002128D01*
X008245Y002418D01*
X008233Y002464D01*
X008209Y002505D01*
X008175Y002539D01*
X008134Y002562D01*
X008089Y002575D01*
X007857Y002575D01*
X007857Y002405D02*
X007761Y002405D01*
X007761Y002246D02*
X007857Y002246D01*
X007857Y002087D02*
X010240Y002087D01*
X010399Y001929D02*
X008245Y001929D01*
X008245Y001770D02*
X010557Y001770D01*
X010082Y002246D02*
X008245Y002246D01*
X008245Y002405D02*
X009923Y002405D01*
X011066Y002835D02*
X011284Y002835D01*
X011599Y002835D01*
X011961Y002835D01*
X011981Y002855D01*
X012095Y002855D01*
X012160Y002855D01*
X012160Y002702D01*
X012198Y002610D01*
X012268Y002540D01*
X012360Y002448D01*
X011453Y002448D01*
X011066Y002835D01*
X011179Y002722D02*
X012160Y002722D01*
X012095Y002855D02*
X012095Y003330D01*
X012095Y003967D01*
X012294Y004167D01*
X012062Y004149D02*
X013568Y004149D01*
X013568Y004172D02*
X013568Y003857D01*
X013685Y003740D01*
X014441Y003740D01*
X014467Y003766D01*
X014641Y003592D01*
X014712Y003522D01*
X014803Y003484D01*
X015748Y003484D01*
X015848Y003484D01*
X015940Y003522D01*
X015952Y003534D01*
X015973Y003513D01*
X016011Y003513D01*
X015576Y003078D01*
X013653Y003078D01*
X013653Y003708D01*
X013536Y003825D01*
X013173Y003825D01*
X012858Y003825D01*
X012543Y003825D01*
X012228Y003825D01*
X012208Y003805D01*
X012095Y003805D01*
X012095Y003330D01*
X012095Y003330D01*
X012095Y003330D01*
X012095Y003805D01*
X012062Y003805D01*
X012062Y005019D01*
X012123Y005019D01*
X013568Y005019D01*
X013568Y004802D01*
X013568Y004535D01*
X013568Y004172D01*
X013568Y004307D02*
X012062Y004307D01*
X012062Y004466D02*
X013568Y004466D01*
X013568Y004624D02*
X012062Y004624D01*
X012062Y004783D02*
X013568Y004783D01*
X013568Y004941D02*
X012062Y004941D01*
X012068Y005299D02*
X011782Y005584D01*
X011438Y005928D01*
X012095Y006585D01*
X012095Y007897D01*
X012095Y008977D01*
X012123Y009005D01*
X012123Y009911D01*
X012105Y009929D01*
X012609Y010433D01*
X012609Y012041D01*
X012431Y012218D01*
X012121Y012218D01*
X012121Y013101D01*
X011212Y014011D01*
X011488Y014454D02*
X011828Y014454D01*
X011828Y014612D02*
X011513Y014612D01*
X011672Y014771D02*
X011828Y014771D01*
X011828Y014929D02*
X011707Y014929D01*
X011707Y015088D02*
X011828Y015088D01*
X011828Y015247D02*
X011676Y015247D01*
X011828Y015405D02*
X011517Y015405D01*
X011402Y015202D02*
X011212Y015011D01*
X011212Y016520D01*
X010688Y016520D01*
X010483Y016726D01*
X010483Y017907D01*
X011656Y017942D02*
X011672Y017942D01*
X011220Y016520D02*
X011212Y016520D01*
X011220Y016520D02*
X011330Y016411D01*
X011282Y016356D02*
X011378Y016356D01*
X011378Y016198D02*
X011282Y016198D01*
X011282Y016039D02*
X011378Y016039D01*
X011828Y015722D02*
X009665Y015722D01*
X009797Y015564D02*
X011828Y015564D01*
X011212Y015405D02*
X011211Y015405D01*
X011211Y015247D02*
X011212Y015247D01*
X011211Y015088D02*
X011212Y015088D01*
X010906Y015405D02*
X009956Y015405D01*
X010077Y015247D02*
X010747Y015247D01*
X010717Y015088D02*
X010094Y015088D01*
X010094Y014929D02*
X010717Y014929D01*
X010752Y014771D02*
X010094Y014771D01*
X010094Y014612D02*
X010910Y014612D01*
X010935Y014454D02*
X010159Y014454D01*
X010317Y014295D02*
X010772Y014295D01*
X011651Y014295D02*
X011828Y014295D01*
X011828Y014137D02*
X011717Y014137D01*
X011727Y013978D02*
X011828Y013978D01*
X011828Y013820D02*
X011799Y013820D01*
X012328Y013820D02*
X013877Y013820D01*
X014036Y013978D02*
X012328Y013978D01*
X012328Y014137D02*
X014226Y014137D01*
X014669Y014295D02*
X012328Y014295D01*
X012328Y014771D02*
X012659Y014771D01*
X012558Y014929D02*
X012328Y014929D01*
X012328Y015088D02*
X012508Y015088D01*
X012484Y013661D02*
X013719Y013661D01*
X013560Y013503D02*
X012642Y013503D01*
X012801Y013344D02*
X013402Y013344D01*
X013278Y013185D02*
X012959Y013185D01*
X013106Y013027D02*
X013265Y013027D01*
X013265Y012868D02*
X013135Y012868D01*
X013135Y012710D02*
X013265Y012710D01*
X013265Y012551D02*
X013135Y012551D01*
X013135Y012393D02*
X013265Y012393D01*
X013265Y012234D02*
X013135Y012234D01*
X013135Y012076D02*
X013265Y012076D01*
X013265Y011917D02*
X013135Y011917D01*
X013135Y011759D02*
X013265Y011759D01*
X013265Y011600D02*
X013135Y011600D01*
X013135Y011441D02*
X013265Y011441D01*
X013265Y011283D02*
X013135Y011283D01*
X013765Y011283D02*
X015218Y011283D01*
X015129Y011124D02*
X015377Y011124D01*
X015360Y010966D02*
X015171Y010966D01*
X015171Y010807D02*
X015360Y010807D01*
X015360Y010649D02*
X015171Y010649D01*
X015171Y010490D02*
X015360Y010490D01*
X015365Y010332D02*
X015171Y010332D01*
X015171Y010173D02*
X015360Y010173D01*
X015360Y010015D02*
X015171Y010015D01*
X015171Y009856D02*
X015360Y009856D01*
X015360Y009698D02*
X015171Y009698D01*
X014926Y009539D02*
X015470Y009539D01*
X014426Y009539D02*
X013931Y009539D01*
X013949Y009380D02*
X014363Y009380D01*
X014363Y009222D02*
X013956Y009222D01*
X013956Y009063D02*
X014363Y009063D01*
X014363Y008905D02*
X013956Y008905D01*
X013956Y008746D02*
X014363Y008746D01*
X014363Y008588D02*
X013953Y008588D01*
X013653Y008271D02*
X014726Y008271D01*
X014475Y008429D02*
X013292Y008429D01*
X013443Y008588D02*
X013558Y008588D01*
X013500Y008551D02*
X013500Y008978D01*
X013500Y008905D01*
X013443Y008905D02*
X013558Y008905D01*
X013558Y008746D02*
X013443Y008746D01*
X013500Y008551D02*
X014341Y007710D01*
X016231Y007710D01*
X016271Y007710D01*
X016900Y007080D01*
X016900Y006719D01*
X016754Y006708D01*
X016489Y006708D01*
X015851Y006070D01*
X015723Y006070D01*
X015723Y005343D01*
X015718Y005348D01*
X015208Y005348D01*
X014942Y005613D01*
X014063Y005613D01*
X013406Y005613D01*
X013082Y005938D01*
X013568Y005892D02*
X011870Y005892D01*
X011956Y006051D02*
X013568Y006051D01*
X013568Y006210D02*
X012115Y006210D01*
X012274Y006368D02*
X013568Y006368D01*
X013568Y006527D02*
X012373Y006527D01*
X012375Y006685D02*
X013568Y006685D01*
X013568Y006844D02*
X012375Y006844D01*
X012375Y007002D02*
X013568Y007002D01*
X013568Y007161D02*
X012375Y007161D01*
X012375Y007319D02*
X013568Y007319D01*
X013612Y007478D02*
X013676Y007478D01*
X013653Y007636D02*
X018038Y007636D01*
X017950Y007795D02*
X013653Y007795D01*
X013653Y007954D02*
X017872Y007954D01*
X017855Y008112D02*
X013653Y008112D01*
X014450Y007478D02*
X018196Y007478D01*
X018355Y007319D02*
X014559Y007319D01*
X014559Y007161D02*
X015202Y007161D01*
X015088Y007002D02*
X014559Y007002D01*
X014559Y006844D02*
X014930Y006844D01*
X014772Y006685D02*
X014559Y006685D01*
X014559Y006527D02*
X014731Y006527D01*
X014731Y006368D02*
X014559Y006368D01*
X014559Y006210D02*
X014650Y006210D01*
X014765Y005928D02*
X014063Y005928D01*
X014064Y005614D02*
X014539Y005614D01*
X014539Y005648D01*
X014820Y005648D01*
X014923Y005691D01*
X015002Y005770D01*
X015222Y005990D01*
X015222Y005796D01*
X015234Y005750D01*
X015258Y005709D01*
X015261Y005705D01*
X015240Y005668D01*
X015228Y005622D01*
X015228Y005391D01*
X015674Y005391D01*
X015674Y005295D01*
X015228Y005295D01*
X015228Y005063D01*
X015240Y005017D01*
X015260Y004982D01*
X014785Y005457D01*
X014707Y005536D01*
X014604Y005578D01*
X014539Y005578D01*
X014539Y005613D01*
X014064Y005613D01*
X014064Y005614D01*
X014063Y005299D02*
X012068Y005299D01*
X011782Y005584D02*
X011782Y003333D01*
X011780Y003330D01*
X012095Y003330D02*
X012095Y002855D01*
X012095Y002880D02*
X012095Y002880D01*
X012095Y003039D02*
X012095Y003039D01*
X012095Y003197D02*
X012095Y003197D01*
X012095Y003356D02*
X012095Y003356D01*
X012095Y003514D02*
X012095Y003514D01*
X012095Y003673D02*
X012095Y003673D01*
X012062Y003831D02*
X013594Y003831D01*
X013568Y003990D02*
X012062Y003990D01*
X011502Y003990D02*
X010772Y003990D01*
X010772Y004149D02*
X011502Y004149D01*
X011502Y004307D02*
X010772Y004307D01*
X010772Y004374D02*
X010734Y004466D01*
X010664Y004536D01*
X010320Y004880D01*
X010228Y004919D01*
X010128Y004919D01*
X009992Y004919D01*
X009992Y005165D01*
X009992Y005480D01*
X009972Y005500D01*
X009972Y005613D01*
X009497Y005613D01*
X009497Y005614D01*
X009972Y005614D01*
X009972Y005648D01*
X011322Y005648D01*
X011502Y005468D01*
X011502Y003825D01*
X011284Y003825D01*
X010969Y003825D01*
X010772Y003825D01*
X010772Y004374D01*
X010734Y004466D02*
X011502Y004466D01*
X011502Y004624D02*
X010576Y004624D01*
X010417Y004783D02*
X011502Y004783D01*
X011502Y004941D02*
X009992Y004941D01*
X009992Y005100D02*
X011502Y005100D01*
X011502Y005258D02*
X009992Y005258D01*
X009992Y005417D02*
X011502Y005417D01*
X011395Y005575D02*
X009972Y005575D01*
X010139Y005613D02*
X010365Y005387D01*
X010139Y005613D02*
X009496Y005613D01*
X008701Y005613D01*
X008598Y005717D01*
X008464Y005584D01*
X007845Y005584D01*
X007790Y005639D01*
X007790Y009569D01*
X007761Y009598D01*
X007761Y010514D01*
X007809Y010466D02*
X007809Y010019D01*
X007838Y010019D01*
X007838Y009617D01*
X007742Y009617D01*
X007742Y010064D01*
X007713Y010064D01*
X007713Y010466D01*
X007809Y010466D01*
X007809Y010332D02*
X007713Y010332D01*
X007713Y010173D02*
X007809Y010173D01*
X007838Y010015D02*
X007742Y010015D01*
X007742Y009856D02*
X007838Y009856D01*
X007838Y009698D02*
X007742Y009698D01*
X007742Y009521D02*
X007838Y009521D01*
X007838Y009074D01*
X007940Y009074D01*
X007940Y008829D01*
X008138Y008631D01*
X008343Y008631D01*
X008343Y007266D01*
X008381Y007175D01*
X008452Y007104D01*
X008596Y006960D01*
X008200Y006960D01*
X008083Y006843D01*
X008083Y006166D01*
X008152Y006097D01*
X008139Y006084D01*
X008115Y006043D01*
X008103Y005997D01*
X008103Y005765D01*
X008549Y005765D01*
X008549Y005669D01*
X008103Y005669D01*
X008103Y005548D01*
X007998Y005548D01*
X007974Y005558D01*
X007874Y005558D01*
X007594Y005558D01*
X007274Y005879D01*
X007274Y006410D01*
X007487Y006410D01*
X007604Y006527D01*
X008083Y006527D01*
X008083Y006685D02*
X007604Y006685D01*
X007604Y006527D02*
X007604Y008792D01*
X007487Y008909D01*
X007274Y008909D01*
X007274Y009054D01*
X007342Y009054D01*
X007411Y009123D01*
X007424Y009110D01*
X007465Y009086D01*
X007511Y009074D01*
X007742Y009074D01*
X007742Y009521D01*
X007742Y009380D02*
X007838Y009380D01*
X007838Y009222D02*
X007742Y009222D01*
X007940Y009063D02*
X007351Y009063D01*
X007492Y008905D02*
X007940Y008905D01*
X008023Y008746D02*
X007604Y008746D01*
X007604Y008588D02*
X008343Y008588D01*
X008343Y008429D02*
X007604Y008429D01*
X007604Y008271D02*
X008343Y008271D01*
X008343Y008112D02*
X007604Y008112D01*
X007604Y007954D02*
X008343Y007954D01*
X008343Y007795D02*
X007604Y007795D01*
X007604Y007636D02*
X008343Y007636D01*
X008343Y007478D02*
X007604Y007478D01*
X007604Y007319D02*
X008343Y007319D01*
X008395Y007161D02*
X007604Y007161D01*
X007604Y007002D02*
X008554Y007002D01*
X008452Y007104D02*
X008452Y007104D01*
X008083Y006844D02*
X007604Y006844D01*
X007274Y006368D02*
X008083Y006368D01*
X008083Y006210D02*
X007274Y006210D01*
X007274Y006051D02*
X008120Y006051D01*
X008103Y005892D02*
X007274Y005892D01*
X007419Y005734D02*
X008549Y005734D01*
X008583Y005702D02*
X008598Y005717D01*
X009174Y005928D02*
X008598Y006505D01*
X009174Y005928D02*
X009496Y005928D01*
X011438Y005928D01*
X011322Y006208D02*
X011107Y006208D01*
X011137Y006238D01*
X011207Y006308D01*
X011245Y006400D01*
X011245Y006755D01*
X011245Y006854D01*
X011207Y006946D01*
X011010Y007143D01*
X010940Y007213D01*
X010848Y007251D01*
X010508Y007251D01*
X010357Y007402D01*
X010386Y007402D01*
X010701Y007402D01*
X011016Y007402D01*
X011331Y007402D01*
X011351Y007422D01*
X011465Y007422D01*
X011514Y007422D01*
X011522Y007413D01*
X011572Y007413D01*
X011738Y007413D01*
X011746Y007422D01*
X011780Y007422D01*
X011815Y007422D01*
X011815Y006701D01*
X011322Y006208D01*
X011323Y006210D02*
X011108Y006210D01*
X011232Y006368D02*
X011482Y006368D01*
X011640Y006527D02*
X011245Y006527D01*
X011245Y006685D02*
X011799Y006685D01*
X011815Y006844D02*
X011245Y006844D01*
X011151Y007002D02*
X011815Y007002D01*
X011815Y007161D02*
X010992Y007161D01*
X010440Y007319D02*
X011815Y007319D01*
X011780Y007235D02*
X011467Y006923D01*
X011780Y007235D02*
X011780Y007897D01*
X011780Y008303D01*
X011625Y008458D01*
X011336Y008747D01*
X011336Y009005D01*
X011174Y009167D01*
X010759Y009167D01*
X010105Y009820D01*
X010105Y009929D01*
X010129Y009906D01*
X010126Y009909D02*
X010126Y009949D01*
X010585Y009949D01*
X010585Y010096D01*
X010605Y010076D01*
X010605Y009722D01*
X010898Y009429D01*
X010935Y009429D01*
X010912Y009390D01*
X010900Y009344D01*
X010900Y009053D01*
X011288Y009053D01*
X011288Y009429D01*
X011312Y009429D01*
X011605Y009722D01*
X011605Y010136D01*
X011312Y010429D01*
X010959Y010429D01*
X010959Y010429D01*
X011312Y010429D01*
X011605Y010722D01*
X011605Y011116D01*
X011605Y011116D01*
X011605Y010546D01*
X011723Y010429D01*
X012209Y010429D01*
X011898Y010429D01*
X011605Y010136D01*
X011605Y009722D01*
X011807Y009520D01*
X011784Y009520D01*
X011715Y009451D01*
X011702Y009464D01*
X011661Y009488D01*
X011615Y009500D01*
X011384Y009500D01*
X011384Y009053D01*
X011288Y009053D01*
X011288Y008957D01*
X011384Y008957D01*
X011384Y008510D01*
X011615Y008510D01*
X011661Y008522D01*
X011702Y008546D01*
X011715Y008559D01*
X011784Y008490D01*
X011815Y008490D01*
X011815Y008372D01*
X011780Y008372D01*
X011780Y008321D01*
X011780Y008321D01*
X011780Y008372D01*
X011658Y008372D01*
X011625Y008363D01*
X011620Y008363D01*
X011587Y008372D01*
X011465Y008372D01*
X011465Y008306D01*
X011465Y008372D01*
X011351Y008372D01*
X011331Y008392D01*
X011087Y008392D01*
X011087Y008510D01*
X011288Y008510D01*
X011288Y008957D01*
X010900Y008957D01*
X010900Y008867D01*
X010585Y009182D01*
X010494Y009220D01*
X010394Y009220D01*
X009570Y009220D01*
X009482Y009308D01*
X009276Y009308D01*
X009276Y009747D01*
X009625Y010096D01*
X009625Y009949D01*
X010085Y009949D01*
X010085Y009909D01*
X009625Y009909D01*
X009625Y009730D01*
X009907Y009449D01*
X010085Y009449D01*
X010085Y009909D01*
X010125Y009909D01*
X010125Y009449D01*
X010304Y009449D01*
X010585Y009730D01*
X010585Y009909D01*
X010126Y009909D01*
X010125Y009949D02*
X010085Y009949D01*
X010085Y010409D01*
X009939Y010409D01*
X009959Y010429D01*
X010312Y010429D01*
X010312Y010423D01*
X010327Y010386D01*
X010304Y010409D01*
X010125Y010409D01*
X010125Y009949D01*
X010125Y010015D02*
X010085Y010015D01*
X010085Y010173D02*
X010125Y010173D01*
X010125Y010332D02*
X010085Y010332D01*
X010085Y009856D02*
X010125Y009856D01*
X010125Y009698D02*
X010085Y009698D01*
X010085Y009539D02*
X010125Y009539D01*
X010394Y009539D02*
X010789Y009539D01*
X010910Y009380D02*
X009276Y009380D01*
X009276Y009539D02*
X009817Y009539D01*
X009658Y009698D02*
X009276Y009698D01*
X009386Y009856D02*
X009625Y009856D01*
X009625Y010015D02*
X009544Y010015D01*
X009568Y009222D02*
X010900Y009222D01*
X010900Y009063D02*
X010704Y009063D01*
X010862Y008905D02*
X010900Y008905D01*
X011288Y008905D02*
X011384Y008905D01*
X011384Y009063D02*
X011288Y009063D01*
X011288Y009222D02*
X011384Y009222D01*
X011384Y009380D02*
X011288Y009380D01*
X011422Y009539D02*
X011789Y009539D01*
X011630Y009698D02*
X011581Y009698D01*
X011605Y009856D02*
X011605Y009856D01*
X011605Y010015D02*
X011605Y010015D01*
X011569Y010173D02*
X011642Y010173D01*
X011801Y010332D02*
X011410Y010332D01*
X011374Y010490D02*
X011661Y010490D01*
X011605Y010649D02*
X011532Y010649D01*
X011605Y010807D02*
X011605Y010807D01*
X011605Y010966D02*
X011605Y010966D01*
X012209Y010429D02*
X012209Y010429D01*
X010605Y010015D02*
X010585Y010015D01*
X010585Y009856D02*
X010605Y009856D01*
X010630Y009698D02*
X010552Y009698D01*
X011288Y008746D02*
X011384Y008746D01*
X011384Y008588D02*
X011288Y008588D01*
X011087Y008429D02*
X011815Y008429D01*
X011625Y008458D02*
X011467Y008300D01*
X011467Y008222D01*
X011465Y008219D01*
X011465Y007897D01*
X011465Y008306D02*
X011465Y008306D01*
X011465Y007471D02*
X011465Y007470D01*
X011465Y007422D01*
X011465Y007471D01*
X011780Y007455D02*
X011780Y007456D01*
X011780Y007422D01*
X011780Y007455D01*
X012028Y005734D02*
X013581Y005734D01*
X014063Y005299D02*
X014548Y005299D01*
X015291Y004555D01*
X015723Y004555D01*
X016190Y004941D02*
X016236Y004941D01*
X016236Y005100D02*
X016218Y005100D01*
X016218Y005258D02*
X016236Y005258D01*
X016236Y005417D02*
X016218Y005417D01*
X016218Y005575D02*
X016318Y005575D01*
X016318Y005734D02*
X016190Y005734D01*
X016212Y005892D02*
X016318Y005892D01*
X016318Y006051D02*
X015765Y006051D01*
X015765Y006027D02*
X015765Y005640D01*
X015771Y005640D01*
X015771Y005391D01*
X015675Y005391D01*
X015675Y005779D01*
X015669Y005779D01*
X015669Y006027D01*
X015765Y006027D01*
X015723Y006070D02*
X015717Y006076D01*
X015669Y005892D02*
X015765Y005892D01*
X015765Y005734D02*
X015675Y005734D01*
X015675Y005575D02*
X015771Y005575D01*
X015771Y005417D02*
X015675Y005417D01*
X015228Y005417D02*
X014826Y005417D01*
X014984Y005258D02*
X015228Y005258D01*
X015228Y005100D02*
X015143Y005100D01*
X015228Y005575D02*
X014611Y005575D01*
X014765Y005928D02*
X015011Y006174D01*
X015011Y006529D01*
X015345Y006863D01*
X015717Y006863D01*
X016232Y006844D02*
X016338Y006844D01*
X016347Y007002D02*
X016232Y007002D01*
X016232Y007161D02*
X018513Y007161D01*
X018155Y007002D02*
X018053Y007002D01*
X018059Y006844D02*
X018154Y006844D01*
X018154Y006685D02*
X017681Y006685D01*
X017643Y006720D02*
X016923Y006720D01*
X016754Y006708D01*
X016894Y006726D01*
X016890Y006686D02*
X016754Y006708D01*
X016792Y006685D02*
X017604Y006685D01*
X017643Y006720D02*
X017819Y006739D01*
X018571Y006739D01*
X018154Y006527D02*
X018059Y006527D01*
X018018Y006368D02*
X018214Y006368D01*
X018134Y006210D02*
X018079Y006210D01*
X018079Y006051D02*
X018134Y006051D01*
X018134Y005892D02*
X018079Y005892D01*
X018079Y005734D02*
X018134Y005734D01*
X018152Y005575D02*
X018079Y005575D01*
X017206Y005575D02*
X017190Y005575D01*
X017190Y005734D02*
X017206Y005734D01*
X017190Y005892D02*
X017206Y005892D01*
X017190Y006051D02*
X017206Y006051D01*
X017206Y006210D02*
X017181Y006210D01*
X017138Y006368D02*
X017267Y006368D01*
X017226Y006527D02*
X017170Y006527D01*
X017170Y006746D02*
X017170Y006968D01*
X017158Y007014D01*
X017134Y007055D01*
X017101Y007088D01*
X017060Y007112D01*
X017014Y007124D01*
X016792Y007124D01*
X016792Y006746D01*
X017170Y006746D01*
X017226Y006758D02*
X017604Y006758D01*
X017604Y007136D01*
X017383Y007136D01*
X017337Y007124D01*
X017296Y007100D01*
X017262Y007066D01*
X017239Y007025D01*
X017226Y006980D01*
X017226Y006758D01*
X017226Y006844D02*
X017170Y006844D01*
X017161Y007002D02*
X017232Y007002D01*
X017604Y007002D02*
X017681Y007002D01*
X017681Y006844D02*
X017604Y006844D01*
X016792Y006844D02*
X016716Y006844D01*
X016716Y007002D02*
X016792Y007002D01*
X016716Y006685D02*
X016232Y006685D01*
X016232Y006527D02*
X016338Y006527D01*
X016370Y006368D02*
X016208Y006368D01*
X016212Y006210D02*
X016327Y006210D01*
X015222Y005892D02*
X015125Y005892D01*
X015243Y005734D02*
X014966Y005734D01*
X016231Y007710D02*
X017019Y008497D01*
X017019Y008953D01*
X017010Y008961D01*
X017719Y008961D01*
X017924Y009167D01*
X018751Y009167D01*
X019696Y010111D01*
X019696Y010863D01*
X019685Y010873D01*
X019685Y010873D01*
X019685Y011453D01*
X019531Y011453D01*
X019486Y011441D01*
X019451Y011420D01*
X019398Y011473D01*
X018972Y011473D01*
X018935Y011436D01*
X018898Y011473D01*
X018472Y011473D01*
X018465Y011466D01*
X018465Y011488D01*
X018465Y011599D01*
X018423Y011702D01*
X018358Y011766D01*
X018280Y011845D01*
X018177Y011888D01*
X016548Y011888D01*
X016490Y011946D01*
X016209Y011946D01*
X016011Y011748D01*
X016011Y011467D01*
X016209Y011269D01*
X016490Y011269D01*
X016548Y011328D01*
X017855Y011328D01*
X017855Y010390D01*
X017972Y010273D01*
X018165Y010273D01*
X018057Y010165D01*
X017497Y010165D01*
X017497Y010278D01*
X017442Y010333D01*
X017497Y010388D01*
X017497Y011066D01*
X017380Y011183D01*
X016584Y011183D01*
X016467Y011066D01*
X016467Y010986D01*
X016350Y010986D01*
X016350Y011075D01*
X016233Y011192D01*
X015930Y011192D01*
X015930Y011224D01*
X015892Y011316D01*
X015822Y011386D01*
X014713Y012495D01*
X014721Y012498D01*
X014855Y012632D01*
X014928Y012807D01*
X014928Y012997D01*
X014855Y013173D01*
X014721Y013307D01*
X014545Y013380D01*
X014676Y013503D02*
X014267Y013503D01*
X014270Y013344D02*
X014109Y013344D01*
X014059Y013185D02*
X013950Y013185D01*
X013986Y013027D02*
X013791Y013027D01*
X013765Y012868D02*
X013973Y012868D01*
X014014Y012710D02*
X013765Y012710D01*
X013765Y012551D02*
X014127Y012551D01*
X014200Y012393D02*
X013765Y012393D01*
X013765Y012234D02*
X014267Y012234D01*
X014425Y012076D02*
X013765Y012076D01*
X013765Y011917D02*
X014584Y011917D01*
X014742Y011759D02*
X013765Y011759D01*
X013765Y011600D02*
X014901Y011600D01*
X015059Y011441D02*
X013765Y011441D01*
X013981Y011124D02*
X014223Y011124D01*
X015132Y012076D02*
X020362Y012076D01*
X020362Y012234D02*
X014974Y012234D01*
X014815Y012393D02*
X020362Y012393D01*
X020362Y012551D02*
X017774Y012551D01*
X017887Y012710D02*
X020362Y012710D01*
X020362Y012868D02*
X017928Y012868D01*
X017915Y013027D02*
X020362Y013027D01*
X020362Y013185D02*
X017842Y013185D01*
X017631Y013344D02*
X020362Y013344D01*
X020362Y013503D02*
X018225Y013503D01*
X018367Y013661D02*
X020362Y013661D01*
X020362Y013820D02*
X018428Y013820D01*
X018428Y013978D02*
X020362Y013978D01*
X020362Y014137D02*
X018370Y014137D01*
X018232Y014295D02*
X020362Y014295D01*
X020362Y014454D02*
X016196Y014454D01*
X016232Y014295D02*
X016669Y014295D01*
X015459Y013185D02*
X015442Y013185D01*
X015442Y013027D02*
X015459Y013027D01*
X015091Y013185D02*
X014842Y013185D01*
X014915Y013027D02*
X015010Y013027D01*
X014993Y012868D02*
X014928Y012868D01*
X014887Y012710D02*
X015035Y012710D01*
X015156Y012551D02*
X014774Y012551D01*
X015291Y011917D02*
X016180Y011917D01*
X016021Y011759D02*
X015449Y011759D01*
X015608Y011600D02*
X016011Y011600D01*
X016036Y011441D02*
X015766Y011441D01*
X015906Y011283D02*
X016195Y011283D01*
X016301Y011124D02*
X016526Y011124D01*
X016504Y011283D02*
X017855Y011283D01*
X017855Y011124D02*
X017438Y011124D01*
X017497Y010966D02*
X017855Y010966D01*
X017855Y010807D02*
X017497Y010807D01*
X017497Y010649D02*
X017855Y010649D01*
X017855Y010490D02*
X017497Y010490D01*
X017443Y010332D02*
X017914Y010332D01*
X018065Y010173D02*
X017497Y010173D01*
X018185Y010873D02*
X018185Y011543D01*
X018121Y011608D01*
X016349Y011608D01*
X016519Y011917D02*
X020362Y011917D01*
X020362Y011759D02*
X018366Y011759D01*
X018465Y011600D02*
X020362Y011600D01*
X020362Y011441D02*
X019882Y011441D01*
X019885Y011441D02*
X019839Y011453D01*
X019685Y011453D01*
X019685Y010873D01*
X019685Y010873D01*
X019685Y010293D01*
X019839Y010293D01*
X019885Y010305D01*
X019926Y010329D01*
X019959Y010362D01*
X019983Y010404D01*
X019995Y010449D01*
X019995Y010873D01*
X019995Y011297D01*
X019983Y011342D01*
X019959Y011384D01*
X019926Y011417D01*
X019885Y011441D01*
X019995Y011283D02*
X020362Y011283D01*
X020362Y011124D02*
X019995Y011124D01*
X019995Y010966D02*
X020362Y010966D01*
X020362Y010807D02*
X019995Y010807D01*
X019995Y010873D02*
X019686Y010873D01*
X019995Y010873D01*
X019995Y010649D02*
X020362Y010649D01*
X020362Y010490D02*
X019995Y010490D01*
X019928Y010332D02*
X020362Y010332D01*
X020362Y010173D02*
X019363Y010173D01*
X019204Y010015D02*
X020362Y010015D01*
X020362Y009856D02*
X019046Y009856D01*
X018887Y009698D02*
X020362Y009698D01*
X020362Y009539D02*
X018729Y009539D01*
X018570Y009380D02*
X020362Y009380D01*
X020362Y009222D02*
X017465Y009222D01*
X017465Y009063D02*
X020362Y009063D01*
X020362Y008905D02*
X020015Y008905D01*
X020015Y008746D02*
X020362Y008746D01*
X020362Y008588D02*
X020015Y008588D01*
X020015Y008429D02*
X020362Y008429D01*
X020362Y008271D02*
X020015Y008271D01*
X020015Y008112D02*
X020362Y008112D01*
X020362Y007954D02*
X019999Y007954D01*
X020082Y007795D02*
X020362Y007795D01*
X020362Y007636D02*
X020207Y007636D01*
X020221Y007478D02*
X020362Y007478D01*
X020362Y007319D02*
X020221Y007319D01*
X020221Y007161D02*
X020362Y007161D01*
X020362Y007002D02*
X020221Y007002D01*
X020221Y006844D02*
X020362Y006844D01*
X020362Y006685D02*
X020221Y006685D01*
X020221Y006527D02*
X020362Y006527D01*
X020362Y006368D02*
X020221Y006368D01*
X020221Y006210D02*
X020362Y006210D01*
X020362Y006051D02*
X020221Y006051D01*
X020221Y005892D02*
X020362Y005892D01*
X020362Y005734D02*
X020221Y005734D01*
X020221Y005575D02*
X020362Y005575D01*
X020362Y005417D02*
X020221Y005417D01*
X020221Y005258D02*
X020362Y005258D01*
X020362Y005100D02*
X020221Y005100D01*
X020221Y004941D02*
X020362Y004941D01*
X020362Y004783D02*
X020221Y004783D01*
X020221Y004624D02*
X020362Y004624D01*
X020362Y004466D02*
X020221Y004466D01*
X020221Y004307D02*
X020362Y004307D01*
X020362Y004149D02*
X020221Y004149D01*
X020221Y003990D02*
X020362Y003990D01*
X020362Y003831D02*
X020185Y003831D01*
X020028Y003673D02*
X020362Y003673D01*
X020362Y003514D02*
X019869Y003514D01*
X019711Y003356D02*
X020362Y003356D01*
X020362Y003197D02*
X019552Y003197D01*
X019394Y003039D02*
X020362Y003039D01*
X020362Y002880D02*
X019235Y002880D01*
X019077Y002722D02*
X020362Y002722D01*
X020362Y002563D02*
X018918Y002563D01*
X018760Y002405D02*
X020362Y002405D01*
X020362Y002246D02*
X018601Y002246D01*
X018442Y002087D02*
X020362Y002087D01*
X020362Y001929D02*
X018284Y001929D01*
X018125Y001770D02*
X020362Y001770D01*
X020362Y001612D02*
X008160Y001612D01*
X007857Y001612D02*
X007761Y001612D01*
X007761Y001770D02*
X007857Y001770D01*
X007857Y001929D02*
X007761Y001929D01*
X007458Y001612D02*
X007407Y001612D01*
X006636Y001612D02*
X005823Y001612D01*
X005824Y001616D02*
X005824Y002052D01*
X005331Y002052D01*
X005331Y002211D01*
X005824Y002211D01*
X005824Y002647D01*
X005812Y002693D01*
X005788Y002734D01*
X005755Y002768D01*
X005714Y002791D01*
X005668Y002804D01*
X005331Y002804D01*
X005331Y002212D01*
X005171Y002212D01*
X005171Y002804D01*
X004833Y002804D01*
X004787Y002791D01*
X004746Y002768D01*
X004713Y002734D01*
X004689Y002693D01*
X004677Y002647D01*
X004677Y002211D01*
X005171Y002211D01*
X005171Y002052D01*
X004677Y002052D01*
X004677Y001616D01*
X004689Y001570D01*
X004713Y001529D01*
X004746Y001495D01*
X004787Y001472D01*
X004833Y001459D01*
X005171Y001459D01*
X005171Y002051D01*
X005331Y002051D01*
X005331Y001459D01*
X005668Y001459D01*
X005714Y001472D01*
X005755Y001495D01*
X005788Y001529D01*
X005812Y001570D01*
X005824Y001616D01*
X005824Y001770D02*
X006566Y001770D01*
X006566Y001929D02*
X005824Y001929D01*
X005824Y002246D02*
X006566Y002246D01*
X006566Y002087D02*
X005331Y002087D01*
X005251Y002132D02*
X005251Y004454D01*
X005251Y005068D01*
X004656Y005663D01*
X004656Y006043D01*
X004647Y006053D01*
X004644Y006055D02*
X004644Y006450D01*
X004900Y006706D01*
X004900Y007138D01*
X004645Y006685D02*
X004644Y006685D01*
X004644Y006568D02*
X004644Y006450D01*
X004599Y006527D02*
X004695Y006527D01*
X004695Y006368D02*
X004599Y006368D01*
X004599Y006210D02*
X004695Y006210D01*
X004695Y006051D02*
X005627Y006051D01*
X005627Y005892D02*
X005083Y005892D01*
X005083Y006005D02*
X004695Y006005D01*
X004695Y005558D01*
X004926Y005558D01*
X004972Y005570D01*
X005013Y005594D01*
X005047Y005627D01*
X005070Y005668D01*
X005083Y005714D01*
X005083Y006005D01*
X005083Y006210D02*
X005627Y006210D01*
X005627Y006368D02*
X005083Y006368D01*
X004987Y006527D02*
X005627Y006527D01*
X005616Y006685D02*
X005627Y006685D01*
X005627Y005734D02*
X005083Y005734D01*
X004981Y005575D02*
X005627Y005575D01*
X005627Y005417D02*
X003749Y005417D01*
X004128Y005258D02*
X004129Y005258D01*
X004129Y005135D02*
X004656Y005663D01*
X004695Y005734D02*
X004599Y005734D01*
X004599Y005892D02*
X004695Y005892D01*
X004695Y005575D02*
X004599Y005575D01*
X004312Y005575D02*
X004236Y005575D01*
X004320Y005258D02*
X004764Y005258D01*
X004677Y005100D02*
X004407Y005100D01*
X004407Y004941D02*
X004677Y004941D01*
X004677Y004783D02*
X004407Y004783D01*
X004407Y004624D02*
X004677Y004624D01*
X004677Y004374D02*
X004677Y003781D01*
X004689Y003735D01*
X004713Y003694D01*
X004746Y003661D01*
X004787Y003637D01*
X004833Y003625D01*
X005171Y003625D01*
X005171Y004374D01*
X004677Y004374D01*
X004677Y004307D02*
X004407Y004307D01*
X004407Y004149D02*
X004677Y004149D01*
X004677Y003990D02*
X004407Y003990D01*
X004399Y003831D02*
X004677Y003831D01*
X004734Y003673D02*
X004481Y003673D01*
X004440Y003690D02*
X004578Y003632D01*
X004685Y003526D01*
X004742Y003388D01*
X004742Y003238D01*
X004685Y003099D01*
X004578Y002993D01*
X004440Y002936D01*
X004290Y002936D01*
X004151Y002993D01*
X004045Y003099D01*
X003988Y003238D01*
X003988Y003388D01*
X004045Y003526D01*
X004151Y003632D01*
X004290Y003690D01*
X004440Y003690D01*
X004249Y003673D02*
X002748Y003673D01*
X002517Y003673D02*
X002263Y003673D01*
X002251Y003661D02*
X002284Y003694D01*
X002308Y003735D01*
X002320Y003781D01*
X002320Y004374D01*
X001827Y004374D01*
X001827Y003625D01*
X002164Y003625D01*
X002210Y003637D01*
X002251Y003661D01*
X002308Y003514D02*
X001077Y003514D01*
X001077Y003356D02*
X002255Y003356D01*
X002272Y003197D02*
X001077Y003197D01*
X001077Y003039D02*
X002373Y003039D01*
X002210Y002791D02*
X002164Y002804D01*
X001827Y002804D01*
X001827Y002212D01*
X001667Y002212D01*
X001667Y002804D01*
X001329Y002804D01*
X001284Y002791D01*
X001242Y002768D01*
X001209Y002734D01*
X001185Y002693D01*
X001173Y002647D01*
X001173Y002211D01*
X001667Y002211D01*
X001667Y002052D01*
X001173Y002052D01*
X001173Y001616D01*
X001185Y001570D01*
X001209Y001529D01*
X001242Y001495D01*
X001284Y001472D01*
X001329Y001459D01*
X001667Y001459D01*
X001667Y002051D01*
X001827Y002051D01*
X001827Y001459D01*
X002164Y001459D01*
X002210Y001472D01*
X002251Y001495D01*
X002284Y001529D01*
X002308Y001570D01*
X002320Y001616D01*
X002320Y002052D01*
X001827Y002052D01*
X001827Y002211D01*
X002320Y002211D01*
X002320Y002647D01*
X002308Y002693D01*
X002284Y002734D01*
X002251Y002768D01*
X002210Y002791D01*
X002292Y002722D02*
X004706Y002722D01*
X004677Y002563D02*
X002320Y002563D01*
X002320Y002405D02*
X004677Y002405D01*
X004677Y002246D02*
X002320Y002246D01*
X002320Y001929D02*
X004677Y001929D01*
X004677Y001770D02*
X002320Y001770D01*
X002319Y001612D02*
X004678Y001612D01*
X005171Y001612D02*
X005331Y001612D01*
X005331Y001770D02*
X005171Y001770D01*
X005171Y001929D02*
X005331Y001929D01*
X005171Y002087D02*
X001827Y002087D01*
X001827Y001929D02*
X001667Y001929D01*
X001667Y002087D02*
X001077Y002087D01*
X001077Y001929D02*
X001173Y001929D01*
X001173Y001770D02*
X001077Y001770D01*
X001077Y001612D02*
X001174Y001612D01*
X001077Y001453D02*
X020362Y001453D01*
X020362Y001295D02*
X001077Y001295D01*
X001667Y001612D02*
X001827Y001612D01*
X001827Y001770D02*
X001667Y001770D01*
X001667Y002246D02*
X001827Y002246D01*
X001827Y002405D02*
X001667Y002405D01*
X001667Y002563D02*
X001827Y002563D01*
X001827Y002722D02*
X001667Y002722D01*
X001202Y002722D02*
X001077Y002722D01*
X001077Y002880D02*
X006444Y002880D01*
X006449Y002722D02*
X005796Y002722D01*
X005824Y002563D02*
X006651Y002563D01*
X006566Y002405D02*
X005824Y002405D01*
X005331Y002405D02*
X005171Y002405D01*
X005171Y002563D02*
X005331Y002563D01*
X005331Y002722D02*
X005171Y002722D01*
X005171Y002246D02*
X005331Y002246D01*
X004624Y003039D02*
X006444Y003039D01*
X006444Y003197D02*
X004725Y003197D01*
X004742Y003356D02*
X005822Y003356D01*
X005664Y003514D02*
X004690Y003514D01*
X005171Y003673D02*
X005331Y003673D01*
X005331Y003831D02*
X005171Y003831D01*
X005171Y003990D02*
X005331Y003990D01*
X005331Y004149D02*
X005171Y004149D01*
X005171Y004307D02*
X005331Y004307D01*
X005171Y004466D02*
X004407Y004466D01*
X004129Y004466D02*
X004128Y004466D01*
X004129Y004494D02*
X004129Y005135D01*
X004128Y005100D02*
X004129Y005100D01*
X004128Y004941D02*
X004129Y004941D01*
X004128Y004783D02*
X004129Y004783D01*
X004128Y004624D02*
X004129Y004624D01*
X004128Y004307D02*
X004129Y004307D01*
X004128Y004149D02*
X004129Y004149D01*
X004128Y003990D02*
X004129Y003990D01*
X004128Y003831D02*
X004129Y003831D01*
X004040Y003514D02*
X002957Y003514D01*
X003010Y003356D02*
X003988Y003356D01*
X004004Y003197D02*
X002993Y003197D01*
X002892Y003039D02*
X004105Y003039D01*
X002570Y003831D02*
X002320Y003831D01*
X002320Y003990D02*
X002570Y003990D01*
X002570Y004149D02*
X002320Y004149D01*
X002320Y004307D02*
X002570Y004307D01*
X002570Y004624D02*
X002320Y004624D01*
X002320Y004783D02*
X002570Y004783D01*
X002570Y004941D02*
X002320Y004941D01*
X002320Y005100D02*
X002570Y005100D01*
X001827Y005100D02*
X001667Y005100D01*
X001667Y005258D02*
X001827Y005258D01*
X001711Y005417D02*
X001077Y005417D01*
X001077Y005575D02*
X001552Y005575D01*
X001394Y005734D02*
X001077Y005734D01*
X001077Y005892D02*
X001235Y005892D01*
X001120Y006051D02*
X001077Y006051D01*
X001077Y006210D02*
X001109Y006210D01*
X001109Y006368D02*
X001077Y006368D01*
X001077Y006527D02*
X001109Y006527D01*
X001109Y006685D02*
X001077Y006685D01*
X001077Y006844D02*
X001109Y006844D01*
X001109Y007002D02*
X001077Y007002D01*
X001077Y007161D02*
X001109Y007161D01*
X001109Y007319D02*
X001077Y007319D01*
X001077Y007478D02*
X001109Y007478D01*
X001109Y007636D02*
X001077Y007636D01*
X001077Y007795D02*
X001109Y007795D01*
X001121Y007954D02*
X001077Y007954D01*
X001077Y008112D02*
X001237Y008112D01*
X001396Y008271D02*
X001077Y008271D01*
X001077Y008429D02*
X001554Y008429D01*
X001077Y008905D02*
X003967Y008905D01*
X003924Y009063D02*
X001077Y009063D01*
X001077Y009222D02*
X003924Y009222D01*
X003877Y009324D02*
X003869Y009324D01*
X003877Y009324D02*
X003877Y009992D01*
X003877Y010537D01*
X003877Y010393D02*
X003877Y010393D01*
X004364Y010490D02*
X001077Y010490D01*
X001077Y010332D02*
X001807Y010332D01*
X001807Y010173D02*
X001077Y010173D01*
X001077Y010015D02*
X001807Y010015D01*
X001807Y009856D02*
X001077Y009856D01*
X001077Y009698D02*
X001807Y009698D01*
X001882Y009539D02*
X001077Y009539D01*
X001077Y009380D02*
X004076Y009380D01*
X003877Y009539D02*
X003876Y009539D01*
X003877Y009591D02*
X003877Y009591D01*
X004406Y010649D02*
X001077Y010649D01*
X001077Y010807D02*
X004563Y010807D01*
X003943Y010966D02*
X001077Y010966D01*
X001077Y011124D02*
X003322Y011124D01*
X003255Y011283D02*
X001077Y011283D01*
X001077Y011441D02*
X002572Y011441D01*
X002467Y011600D02*
X001077Y011600D01*
X001077Y011759D02*
X002467Y011759D01*
X002331Y011917D02*
X001077Y011917D01*
X001077Y012076D02*
X002291Y012076D01*
X002291Y012234D02*
X001077Y012234D01*
X001077Y012393D02*
X002291Y012393D01*
X002291Y012551D02*
X001077Y012551D01*
X001077Y012710D02*
X002291Y012710D01*
X002291Y012868D02*
X001077Y012868D01*
X001077Y013027D02*
X002291Y013027D01*
X001077Y013185D02*
X008028Y013185D01*
X008028Y013027D02*
X007981Y013027D01*
X008028Y013344D02*
X001077Y013344D01*
X001077Y013503D02*
X008028Y013503D01*
X008028Y013661D02*
X001077Y013661D01*
X001077Y013820D02*
X008028Y013820D01*
X008028Y013978D02*
X001077Y013978D01*
X001077Y014137D02*
X008028Y014137D01*
X007578Y013027D02*
X007443Y013027D01*
X007443Y012868D02*
X007578Y012868D01*
X007578Y012710D02*
X007443Y012710D01*
X007578Y012580D02*
X007578Y012445D01*
X007986Y012445D01*
X007986Y012094D01*
X008332Y012094D01*
X008383Y012144D01*
X008383Y012450D01*
X008138Y012450D01*
X007986Y012602D01*
X007986Y012580D01*
X007578Y012580D01*
X007578Y012551D02*
X008037Y012551D01*
X007924Y012513D02*
X008160Y012277D01*
X007986Y012234D02*
X008383Y012234D01*
X008383Y012393D02*
X007986Y012393D01*
X007924Y012513D02*
X007511Y012513D01*
X005828Y014295D02*
X001077Y014295D01*
X001077Y014454D02*
X005669Y014454D01*
X005511Y014612D02*
X001077Y014612D01*
X001077Y014771D02*
X005352Y014771D01*
X005194Y014929D02*
X001077Y014929D01*
X001077Y015088D02*
X005035Y015088D01*
X004876Y015247D02*
X001077Y015247D01*
X001077Y015405D02*
X004718Y015405D01*
X004559Y015564D02*
X001077Y015564D01*
X001077Y015722D02*
X004401Y015722D01*
X004242Y015881D02*
X001077Y015881D01*
X001077Y016039D02*
X004084Y016039D01*
X003925Y016198D02*
X001077Y016198D01*
X001077Y016356D02*
X003767Y016356D01*
X003608Y016515D02*
X001077Y016515D01*
X001077Y016673D02*
X003450Y016673D01*
X003291Y016832D02*
X001077Y016832D01*
X001077Y016991D02*
X003132Y016991D01*
X002974Y017149D02*
X001077Y017149D01*
X001077Y017308D02*
X002815Y017308D01*
X002657Y017466D02*
X001077Y017466D01*
X001077Y017625D02*
X002543Y017625D01*
X002536Y017783D02*
X001077Y017783D01*
X001077Y017942D02*
X002369Y017942D01*
X002291Y018100D02*
X001077Y018100D01*
X001077Y018259D02*
X002291Y018259D01*
X002291Y018417D02*
X001077Y018417D01*
X001077Y018576D02*
X002291Y018576D01*
X002291Y018734D02*
X001077Y018734D01*
X001077Y018893D02*
X002291Y018893D01*
X002291Y019052D02*
X001077Y019052D01*
X001077Y019210D02*
X002291Y019210D01*
X002292Y019369D02*
X001077Y019369D01*
X001077Y019527D02*
X007060Y019527D01*
X007060Y019686D02*
X001077Y019686D01*
X001077Y019844D02*
X007060Y019844D01*
X007060Y020003D02*
X001077Y020003D01*
X001077Y020161D02*
X007060Y020161D01*
X007060Y020320D02*
X001077Y020320D01*
X005096Y017466D02*
X008528Y017466D01*
X008528Y017308D02*
X005255Y017308D01*
X005413Y017149D02*
X008528Y017149D01*
X008528Y016991D02*
X005572Y016991D01*
X005730Y016832D02*
X008528Y016832D01*
X008808Y016433D02*
X008808Y018137D01*
X008393Y018576D02*
X008006Y018576D01*
X008006Y018734D02*
X020362Y018734D01*
X020362Y018893D02*
X008006Y018893D01*
X008006Y019052D02*
X020362Y019052D01*
X020362Y019210D02*
X008006Y019210D01*
X008004Y019369D02*
X020362Y019369D01*
X020362Y019527D02*
X007960Y019527D01*
X007960Y019686D02*
X020362Y019686D01*
X020362Y019844D02*
X007960Y019844D01*
X007960Y020003D02*
X020362Y020003D01*
X020362Y020161D02*
X007960Y020161D01*
X007960Y020053D02*
X007960Y020053D01*
X007960Y020320D02*
X020362Y020320D01*
X020362Y015088D02*
X019893Y015088D01*
X019836Y014912D02*
X019793Y014838D01*
X019741Y014771D01*
X019532Y014612D02*
X020362Y014612D01*
X019327Y014612D02*
X019172Y014612D01*
X019172Y014771D02*
X019327Y014771D01*
X019327Y014929D02*
X019172Y014929D01*
X019172Y015088D02*
X019327Y015088D01*
X018960Y014615D02*
X018886Y014658D01*
X018819Y014710D01*
X018758Y014771D01*
X018930Y011441D02*
X018941Y011441D01*
X019430Y011441D02*
X019489Y011441D01*
X019685Y011441D02*
X019685Y011441D01*
X019685Y011283D02*
X019685Y011283D01*
X019685Y011124D02*
X019685Y011124D01*
X019685Y010966D02*
X019685Y010966D01*
X019686Y010873D02*
X019686Y010873D01*
X019685Y010807D02*
X019685Y010807D01*
X019685Y010649D02*
X019685Y010649D01*
X019685Y010490D02*
X019685Y010490D01*
X019685Y010332D02*
X019685Y010332D01*
X017855Y008905D02*
X017068Y008905D01*
X017068Y008746D02*
X016952Y008746D01*
X016952Y008588D02*
X017068Y008588D01*
X017068Y008429D02*
X016952Y008429D01*
X017317Y008429D02*
X017855Y008429D01*
X017855Y008271D02*
X016476Y008271D01*
X016592Y008429D02*
X016703Y008429D01*
X017465Y008588D02*
X017855Y008588D01*
X017855Y008746D02*
X017465Y008746D01*
X014181Y009698D02*
X014016Y009698D01*
X009001Y004624D02*
X007604Y004624D01*
X007577Y005575D02*
X008103Y005575D01*
X005331Y005258D02*
X005171Y005258D01*
X005171Y005100D02*
X005331Y005100D01*
X005331Y004941D02*
X005171Y004941D01*
X005171Y004783D02*
X005331Y004783D01*
X005331Y004624D02*
X005171Y004624D01*
X004306Y006527D02*
X004239Y006527D01*
X001827Y004941D02*
X001667Y004941D01*
X001667Y004783D02*
X001827Y004783D01*
X001827Y004624D02*
X001667Y004624D01*
X001667Y004466D02*
X001077Y004466D01*
X001173Y004374D02*
X001173Y003781D01*
X001185Y003735D01*
X001209Y003694D01*
X001242Y003661D01*
X001284Y003637D01*
X001329Y003625D01*
X001667Y003625D01*
X001667Y004374D01*
X001173Y004374D01*
X001173Y004307D02*
X001077Y004307D01*
X001077Y004149D02*
X001173Y004149D01*
X001173Y003990D02*
X001077Y003990D01*
X001077Y003831D02*
X001173Y003831D01*
X001230Y003673D02*
X001077Y003673D01*
X001667Y003673D02*
X001827Y003673D01*
X001827Y003831D02*
X001667Y003831D01*
X001667Y003990D02*
X001827Y003990D01*
X001827Y004149D02*
X001667Y004149D01*
X001667Y004307D02*
X001827Y004307D01*
X001173Y004624D02*
X001077Y004624D01*
X001077Y004783D02*
X001173Y004783D01*
X001173Y004941D02*
X001077Y004941D01*
X001077Y005100D02*
X001173Y005100D01*
X001260Y005258D02*
X001077Y005258D01*
X001077Y002563D02*
X001173Y002563D01*
X001173Y002405D02*
X001077Y002405D01*
X001077Y002246D02*
X001173Y002246D01*
X008131Y002563D02*
X008702Y002563D01*
X010772Y003831D02*
X011502Y003831D01*
X011338Y002563D02*
X012245Y002563D01*
X013653Y003197D02*
X015696Y003197D01*
X015854Y003356D02*
X013653Y003356D01*
X013653Y003514D02*
X014729Y003514D01*
X014560Y003673D02*
X013653Y003673D01*
X015922Y003514D02*
X015971Y003514D01*
X009196Y015338D02*
X009225Y015545D01*
X009184Y016056D02*
X008808Y016433D01*
X008451Y015881D02*
X006682Y015881D01*
X008156Y017625D02*
X008466Y017625D01*
X008352Y017783D02*
X008315Y017783D01*
X008209Y018417D02*
X008006Y018417D01*
X003970Y011759D02*
X003843Y011759D01*
X003843Y011600D02*
X003943Y011600D01*
X003932Y011441D02*
X003943Y011441D01*
X003932Y011283D02*
X003943Y011283D01*
X003943Y011124D02*
X003865Y011124D01*
X003343Y011600D02*
X003145Y011600D01*
X003145Y011759D02*
X003343Y011759D01*
X003255Y011441D02*
X003040Y011441D01*
D35*
X010365Y005387D03*
X011467Y006923D03*
X013082Y005938D03*
X012294Y004167D03*
D36*
X012410Y003330D02*
X012410Y002752D01*
X012727Y002434D01*
X017215Y002434D01*
X018751Y003970D01*
X018751Y004320D01*
X018584Y004329D01*
X018584Y005077D02*
X018584Y005899D01*
X018571Y005912D01*
X017643Y005893D02*
X017638Y005889D01*
X017638Y005097D01*
X017638Y004349D02*
X017806Y004339D01*
X017806Y004009D01*
X016428Y002631D01*
X012963Y002631D01*
X012725Y002870D01*
X012725Y003330D01*
X013040Y003330D02*
X013040Y002949D01*
X013160Y002828D01*
X015680Y002828D01*
X016900Y004049D01*
X016900Y004345D01*
X016732Y004357D01*
X016732Y005105D02*
X016732Y005859D01*
X016754Y005881D01*
X015641Y004088D02*
X015089Y004088D01*
X014824Y004354D01*
X014063Y004354D01*
X014063Y004039D02*
X014548Y004039D01*
X014853Y003734D01*
X015798Y003734D01*
X015916Y003852D01*
X016113Y003852D01*
X017530Y002198D02*
X011349Y002198D01*
X010523Y003025D01*
X010523Y003327D01*
X010520Y003330D01*
X010523Y003333D01*
X010523Y004324D01*
X010178Y004669D01*
X009496Y004669D01*
X009496Y004354D02*
X008544Y004354D01*
X008397Y004206D01*
X008397Y003222D01*
X008869Y002749D01*
X009932Y002749D01*
X010719Y001962D01*
X017963Y001962D01*
X019971Y003970D01*
X019971Y007552D01*
X019696Y007828D01*
X019696Y008443D01*
X019685Y008453D01*
X019185Y008453D02*
X019184Y008452D01*
X019184Y007828D01*
X019656Y007356D01*
X019656Y004167D01*
X019341Y003852D01*
X019026Y003694D02*
X017530Y002198D01*
X019026Y003694D02*
X019026Y007001D01*
X018200Y007828D01*
X018200Y008439D01*
X018185Y008453D01*
X018672Y008440D02*
X018672Y007828D01*
X019341Y007159D01*
X019341Y004442D01*
X016231Y008379D02*
X016349Y008497D01*
X016349Y009285D01*
X016546Y009482D01*
X018318Y009482D01*
X019185Y010349D01*
X019185Y010873D01*
X018685Y010873D02*
X018672Y010860D01*
X018672Y010426D01*
X018160Y009915D01*
X017007Y009915D01*
X016982Y009939D01*
X016933Y009988D01*
X015855Y009988D01*
X015855Y009145D01*
X015671Y008961D01*
X015698Y008988D01*
X016231Y008379D02*
X014971Y008379D01*
X014853Y008497D01*
X014853Y008964D01*
X014839Y008978D01*
X014676Y009141D01*
X014676Y009996D01*
X014800Y009963D01*
X013501Y009963D01*
X013508Y010744D02*
X013501Y010750D01*
X013515Y010763D01*
X013515Y013104D01*
X014313Y013902D01*
X014950Y013902D01*
X014450Y012902D02*
X014450Y012404D01*
X015680Y011174D01*
X015680Y010754D01*
X015855Y010736D01*
X016973Y010736D01*
X016982Y010727D01*
X014839Y008978D02*
X014834Y008984D01*
X014676Y010744D02*
X013508Y010744D01*
X012105Y010929D02*
X012105Y010970D01*
X011467Y011608D01*
X009420Y011608D01*
X008731Y010919D01*
X008515Y011135D01*
X008731Y010919D02*
X008593Y010781D01*
X008593Y007316D01*
X009036Y006873D01*
X009496Y006873D01*
X009496Y006558D02*
X010601Y006558D01*
X010601Y006568D01*
X010788Y006243D02*
X010995Y006450D01*
X010995Y006804D01*
X010798Y007001D01*
X010404Y007001D01*
X009971Y007434D01*
X009814Y007592D01*
X009026Y008379D01*
X009026Y009850D01*
X010105Y010929D01*
X010404Y011371D02*
X009735Y011371D01*
X008790Y010426D01*
X008790Y007474D01*
X009076Y007188D01*
X009496Y007188D01*
X010205Y007897D02*
X010205Y008264D01*
X009893Y008576D01*
X009774Y008576D01*
X010286Y008615D02*
X010520Y008382D01*
X010520Y007897D01*
X010835Y007897D02*
X010837Y007899D01*
X010837Y008576D01*
X010444Y008970D01*
X009341Y008970D01*
X008278Y008970D02*
X008278Y010899D01*
X008082Y011096D01*
X007649Y011096D01*
X006940Y011844D02*
X008436Y011844D01*
X008633Y012041D01*
X008633Y013655D01*
X008830Y013852D01*
X009175Y013852D01*
X009196Y014590D02*
X009186Y014600D01*
X008436Y014600D01*
X008278Y014442D01*
X006034Y014442D01*
X002786Y017690D01*
X002786Y018694D01*
X002796Y018704D01*
X003574Y018694D02*
X003574Y017966D01*
X004519Y017021D01*
X004578Y016962D01*
X006625Y014915D01*
X008593Y014915D01*
X008278Y014442D02*
X008278Y012789D01*
X009184Y012552D02*
X009184Y013095D01*
X009175Y013104D01*
X010759Y012237D02*
X011354Y012237D01*
X011373Y012218D01*
X010404Y011371D02*
X010562Y011214D01*
X010562Y010473D01*
X011105Y009929D01*
X012885Y008615D02*
X013042Y008458D01*
X013042Y007899D01*
X013040Y007897D01*
X012885Y008615D02*
X012885Y012907D01*
X012078Y013714D01*
X012078Y016411D01*
X012058Y016430D01*
X012058Y016804D01*
X011940Y016923D01*
X011428Y016923D01*
X011290Y017060D01*
X011290Y017474D01*
X008593Y015545D02*
X006664Y015545D01*
X004361Y017848D01*
X004361Y018694D01*
X006704Y018713D02*
X006723Y018694D01*
X006723Y012513D02*
X006743Y012493D01*
X006743Y012041D01*
X006940Y011844D01*
X005147Y011334D02*
X005147Y010723D01*
X005208Y010663D01*
X005412Y009992D02*
X005412Y009513D01*
X006192Y008734D01*
X006192Y004167D01*
X006310Y004049D01*
X006310Y003537D02*
X005995Y003537D01*
X005877Y003655D01*
X005877Y008222D01*
X005011Y009088D01*
X004388Y009214D02*
X004263Y009088D01*
X004388Y009214D02*
X004388Y009992D01*
X004399Y011334D02*
X004361Y011451D01*
X004361Y012513D01*
X003593Y012493D02*
X003593Y011332D01*
X002806Y011686D02*
X002806Y012493D01*
X002786Y012513D01*
X003574Y012513D02*
X003593Y012493D01*
X007003Y009569D02*
X007024Y009569D01*
X007024Y007660D01*
X007024Y005775D01*
X007491Y005308D01*
X007924Y005308D01*
X007934Y005299D01*
X009496Y005299D01*
X009496Y005269D01*
X009496Y004984D02*
X007497Y004984D01*
X007024Y004511D01*
X007024Y003860D01*
X007024Y002080D01*
X007022Y002080D01*
X008672Y003537D02*
X009656Y003537D01*
X009971Y003852D01*
X010129Y003852D01*
X010208Y003773D01*
X010208Y003333D01*
X010205Y003330D01*
X010208Y003327D01*
X009496Y004039D02*
X008662Y004039D01*
X009496Y006243D02*
X010788Y006243D01*
X004647Y006053D02*
X004644Y006055D01*
X003859Y006053D02*
X003856Y006056D01*
X003160Y006056D01*
X002597Y006620D01*
X002597Y007138D01*
X002845Y007130D02*
X002853Y007138D01*
X002341Y007138D02*
X002334Y007130D01*
X002341Y007138D02*
X002334Y007209D01*
X002334Y007671D01*
X002176Y007828D01*
X001979Y007828D01*
X001822Y007671D01*
X001822Y006489D01*
X002412Y005899D01*
X002609Y005899D01*
X003184Y005324D01*
X003184Y004494D01*
X003499Y004494D02*
X003499Y005403D01*
X002649Y006253D01*
X002412Y006253D01*
X002085Y006580D01*
X002085Y007138D01*
X004644Y007138D02*
X004656Y007150D01*
X018672Y008440D02*
X018685Y008453D01*
D37*
X019774Y009639D03*
X019774Y012001D03*
X019774Y012789D03*
X019774Y013576D03*
X019774Y014363D03*
X019774Y015938D03*
X019774Y016726D03*
X019774Y017513D03*
X019774Y018300D03*
X019774Y019088D03*
X019774Y019875D03*
X018987Y019875D03*
X018200Y019875D03*
X017412Y019875D03*
X016625Y019875D03*
X015837Y019875D03*
X015050Y019875D03*
X014263Y019875D03*
X013475Y019875D03*
X012688Y019875D03*
X011900Y019875D03*
X011113Y019875D03*
X010326Y019875D03*
X009538Y019875D03*
X009538Y019088D03*
X008751Y019088D03*
X009538Y017513D03*
X009538Y016726D03*
X009538Y015938D03*
X008593Y015545D03*
X008593Y014915D03*
X008278Y012789D03*
X008160Y012277D03*
X009184Y012552D03*
X008515Y011135D03*
X007649Y011096D03*
X008278Y008970D03*
X007963Y008064D03*
X007963Y007277D03*
X007845Y005584D03*
X007845Y004442D03*
X008662Y004039D03*
X008672Y003537D03*
X008751Y001765D03*
X009538Y001765D03*
X010326Y001765D03*
X006389Y001765D03*
X006389Y002552D03*
X005601Y003340D03*
X006310Y003537D03*
X006310Y004049D03*
X004656Y008104D03*
X005011Y009088D03*
X004263Y009088D03*
X003869Y009324D03*
X003593Y011332D03*
X002806Y011686D03*
X001664Y012001D03*
X001664Y011214D03*
X001664Y010426D03*
X001664Y009639D03*
X001664Y008852D03*
X001664Y012789D03*
X001664Y013576D03*
X001664Y014363D03*
X001664Y015151D03*
X001664Y015938D03*
X001664Y016726D03*
X001664Y017513D03*
X001664Y018300D03*
X001664Y019088D03*
X001664Y019875D03*
X002452Y019875D03*
X003239Y019875D03*
X004026Y019875D03*
X004814Y019875D03*
X005601Y019875D03*
X010759Y012237D03*
X009341Y008970D03*
X009774Y008576D03*
X010286Y008615D03*
X010601Y006568D03*
X015641Y004088D03*
X016113Y003852D03*
X018200Y001765D03*
X018987Y001765D03*
X019774Y001765D03*
X019774Y002552D03*
X019774Y003340D03*
X019341Y003852D03*
X019341Y004442D03*
X016349Y011608D03*
X001664Y003340D03*
D38*
X007511Y018694D02*
X007511Y019963D01*
X007510Y019963D01*
M02*
