%
M48
M72
T01C0.0157
T02C0.0236
T03C0.0320
T04C0.0354
T05C0.0400
T06C0.0630
T07C0.1280
%
T01
X1664Y3340
X5601Y3340
X6310Y3537
X6310Y4049
X6389Y2552
X6389Y1765
X8751Y1765
X9538Y1765
X10326Y1765
X8672Y3537
X8662Y4039
X7845Y4442
X7845Y5584
X7963Y7277
X7963Y8064
X8278Y8970
X9341Y8970
X9774Y8576
X10286Y8615
X10601Y6568
X8515Y11135
X7649Y11096
X8160Y12277
X8278Y12789
X9184Y12552
X10759Y12237
X8593Y14915
X8593Y15545
X9538Y15938
X9538Y16726
X9538Y17513
X9538Y19088
X9538Y19875
X10326Y19875
X11113Y19875
X11900Y19875
X12688Y19875
X13475Y19875
X14263Y19875
X15050Y19875
X15837Y19875
X16625Y19875
X17412Y19875
X18200Y19875
X18987Y19875
X19774Y19875
X19774Y19088
X19774Y18300
X19774Y17513
X19774Y16726
X19774Y15938
X19774Y14363
X19774Y13576
X19774Y12789
X19774Y12001
X19774Y9639
X16349Y11608
X19341Y4442
X19341Y3852
X19774Y3340
X19774Y2552
X19774Y1765
X18987Y1765
X18200Y1765
X16113Y3852
X15641Y4088
X5011Y9088
X4263Y9088
X3869Y9324
X4656Y8104
X1664Y8852
X1664Y9639
X1664Y10426
X1664Y11214
X1664Y12001
X1664Y12789
X1664Y13576
X1664Y14363
X1664Y15151
X1664Y15938
X1664Y16726
X1664Y17513
X1664Y18300
X1664Y19088
X1664Y19875
X2452Y19875
X3239Y19875
X4026Y19875
X4814Y19875
X5601Y19875
X8751Y19088
X2806Y11686
X3593Y11332
T02
X10365Y5387
X11467Y6923
X13082Y5938
X12294Y4167
T03
X11212Y14011
X11212Y15011
T04
X14450Y12902
X15450Y12902
X16450Y12902
X17450Y12902
X16950Y13902
X17950Y13902
X15950Y13902
X14950Y13902
X4365Y3313
X2633Y3313
T05
X10105Y9929
X10105Y10929
X11105Y10929
X11105Y9929
X12105Y9929
X12105Y10929
T06
X13151Y15202
X19250Y15202
T07
X18450Y16402
X13950Y16402
M30
